<?xml version="1.0" encoding="UTF-8"?>
<svg version="1.1" xmlns="http://www.w3.org/2000/svg" width="440" height="567">
<path d="M0 0 C11.81815037 6.72412004 18.51803286 15.69552849 22.71875 28.546875 C23.77707031 28.3303125 24.83539063 28.11375 25.92578125 27.890625 C56.35719178 22.13351569 91.2964791 23.723568 117.71875 41.546875 C133.59102623 53.46608838 141.68729699 69.07028477 144.71875 88.546875 C145.37383296 94.20416612 145.62407727 99.85537297 145.71875 105.546875 C145.74453125 106.64 145.7703125 107.733125 145.796875 108.859375 C145.57013294 118.1104511 142.92183983 126.55852284 140.0703125 135.31445312 C136.68606164 146.26472383 138.32608868 155.80450344 140.71875 166.796875 C143.40261013 179.36045211 145.47249384 190.79568881 138.296875 202.36328125 C128.43471623 216.00918905 113.61332508 221.77191342 97.71875 225.546875 C97.71875 226.206875 97.71875 226.866875 97.71875 227.546875 C105.46184477 235.09142888 114.20796135 237.19523382 124.71875 238.546875 C123.72875 238.216875 122.73875 237.886875 121.71875 237.546875 C121.71875 236.886875 121.71875 236.226875 121.71875 235.546875 C137.66299539 236.72793021 151.01829055 246.22008923 161.3984375 257.97363281 C184.32341027 285.29029785 200.93927354 333.62149959 204 368.77734375 C203.71875 371.546875 203.71875 371.546875 202.52539062 373.17700195 C200.16520474 374.96659695 198.46521716 375.04385765 195.53125 375.234375 C194.63019531 375.30011719 193.72914063 375.36585938 192.80078125 375.43359375 C192.11371094 375.47097656 191.42664063 375.50835937 190.71875 375.546875 C190.85506836 377.10015503 190.85506836 377.10015503 190.99414062 378.68481445 C194.32214528 417.3957917 194.44909327 455.92540998 192.90625 494.734375 C192.8541185 496.16786285 192.8541185 496.16786285 192.80093384 497.63031006 C192.69878406 500.32606749 192.57748936 503.0202171 192.44921875 505.71484375 C192.42092987 506.49583939 192.39264099 507.27683502 192.36349487 508.08149719 C192.07570594 513.4175381 190.99220022 517.68591727 188.71875 522.546875 C187.72875 522.876875 186.73875 523.206875 185.71875 523.546875 C183.71875 522.234375 183.71875 522.234375 181.71875 519.546875 C181.50160217 517.29029846 181.50160217 517.29029846 181.55493164 514.61157227 C181.57323029 513.62569122 181.59152893 512.63981018 181.61038208 511.62405396 C181.78429677 506.68563087 182.04014163 501.75650911 182.33984375 496.82421875 C182.47223305 494.51558457 182.60387235 492.2069073 182.73486328 489.89819336 C182.80384827 488.69065399 182.87283325 487.48311462 182.94390869 486.23898315 C184.34906995 461.39299359 185.14761601 436.61071325 185.42749023 411.72436523 C185.45388319 409.43472865 185.4806452 407.14509628 185.5078125 404.85546875 C185.52688408 403.24097084 185.52688408 403.24097084 185.54634094 401.59385681 C185.66957828 392.89059539 186.07907269 384.22658202 186.71875 375.546875 C186.18918701 375.72863281 185.65962402 375.91039062 185.11401367 376.09765625 C182.71300985 376.91878219 180.3096859 377.73289671 177.90625 378.546875 C177.07287109 378.83304687 176.23949219 379.11921875 175.38085938 379.4140625 C174.57841797 379.68476563 173.77597656 379.95546875 172.94921875 380.234375 C172.21082764 380.48574219 171.47243652 380.73710937 170.71166992 380.99609375 C168.71875 381.546875 168.71875 381.546875 165.71875 381.546875 C165.83412109 382.38758545 165.94949219 383.2282959 166.06835938 384.09448242 C167.9983316 399.21100895 168.9728634 414.40930897 170.05731201 429.60430908 C170.32315654 433.31779031 170.59341882 437.03094961 170.86328125 440.74414062 C171.33640472 447.26161979 171.80430282 453.77946043 172.2698946 460.29748154 C172.61059931 465.05910903 172.95846235 469.82016465 173.30932617 474.58105469 C173.40165527 475.84410934 173.49398438 477.107164 173.58911133 478.40849304 C173.76010149 480.74668745 173.93272927 483.08476301 174.10742188 485.42268372 C174.58586575 492.00554975 174.90783622 498.57261251 175.03125 505.171875 C175.04929687 505.90323166 175.06734375 506.63458832 175.0859375 507.3881073 C175.08203125 509.3984375 175.08203125 509.3984375 174.71875 512.546875 C171.50572711 514.68889026 170.45165719 515.20013376 166.71875 514.546875 C164.96875 512.171875 164.96875 512.171875 163.71875 509.546875 C163.22375 508.556875 163.22375 508.556875 162.71875 507.546875 C162.01696625 507.61031601 161.3151825 507.67375702 160.59213257 507.73912048 C150.17852129 508.61508395 139.76293707 508.96698901 129.3203125 509.30078125 C128.32852871 509.33306572 127.33674492 509.36535019 126.31490707 509.39861298 C118.65819135 509.64696788 111.00108168 509.88087678 103.34375 510.109375 C102.21357452 510.14332241 101.08339905 510.17726982 99.91897583 510.21224594 C63.82191936 511.28968586 27.74149443 511.85398426 -8.37177277 511.85828781 C-11.77721442 511.85937371 -15.1826363 511.86410177 -18.58807373 511.86941528 C-23.94003737 511.87619695 -29.29185139 511.87084214 -34.64379501 511.85501862 C-36.60461801 511.85017618 -38.56545091 511.84828688 -40.52627945 511.84960175 C-43.20711241 511.85001798 -45.88758121 511.83760232 -48.56835938 511.8215332 C-49.72517243 511.82526113 -49.72517243 511.82526113 -50.90535545 511.82906437 C-55.98944523 511.77947207 -60.38750684 510.93880496 -65.28125 509.546875 C-65.24 510.784375 -65.19875 512.021875 -65.15625 513.296875 C-65.19789639 519.17942772 -65.19789639 519.17942772 -67.28125 521.546875 C-70.21875 522.484375 -70.21875 522.484375 -73.28125 522.546875 C-75.36255637 521.03972211 -76.13738218 519.83461063 -77.28125 517.546875 C-77.861426 507.07976982 -76.91799643 496.49737685 -76.29296875 486.046875 C-76.18863799 484.25767658 -76.08460018 482.46846105 -75.98083496 480.67922974 C-75.70498384 475.94135814 -75.42419882 471.20379174 -75.14214706 466.46628571 C-74.96849087 463.54251211 -74.79631448 460.6186552 -74.62466431 457.69476318 C-72.97737014 429.6364712 -71.26831005 401.58347566 -69.28125 373.546875 C-70.60125 373.876875 -71.92125 374.206875 -73.28125 374.546875 C-72.765625 375.124375 -72.25 375.701875 -71.71875 376.296875 C-70.28125 378.546875 -70.28125 378.546875 -70.40625 380.734375 C-70.695 381.3325 -70.98375 381.930625 -71.28125 382.546875 C-76.86451209 384.40796236 -82.32689567 381.00870398 -87.39599609 378.50048828 C-91.41370154 376.43421509 -95.3952398 374.30227014 -99.375 372.1640625 C-104.03127654 369.66408545 -108.73564869 367.27259319 -113.46875 364.921875 C-114.15799561 364.57930664 -114.84724121 364.23673828 -115.55737305 363.88378906 C-117.13114621 363.10309684 -118.70605541 362.32469523 -120.28125 361.546875 C-120.25963303 362.49093704 -120.25963303 362.49093704 -120.23757935 363.45407104 C-120.13928509 371.28378711 -120.7539845 378.95508011 -121.5234375 386.7421875 C-121.65367664 388.10142228 -121.78339488 389.46070706 -121.91262817 390.82003784 C-122.25266294 394.38477669 -122.59852225 397.94892371 -122.94604492 401.51293945 C-125.86055228 431.44672405 -128.50259535 461.25036598 -129.31030273 491.33154297 C-129.40124195 494.61999932 -129.50983926 497.90748987 -129.62109375 501.1953125 C-129.64308334 502.19509125 -129.66507294 503.19487 -129.68772888 504.22494507 C-129.72108841 505.14506378 -129.75444794 506.0651825 -129.78881836 507.01318359 C-129.8116539 507.81936127 -129.83448944 508.62553894 -129.85801697 509.45614624 C-130.3844994 512.05691666 -131.17871039 512.96317807 -133.28125 514.546875 C-136.28125 515.046875 -136.28125 515.046875 -139.28125 514.546875 C-143.52021701 509.92074238 -142.69034351 504.05266338 -142.59375 498.171875 C-142.5824707 497.02702637 -142.57119141 495.88217773 -142.55957031 494.70263672 C-141.85712363 448.96349859 -136.47131177 401.93161664 -125.28125 357.546875 C-126.1784375 357.175625 -126.1784375 357.175625 -127.09375 356.796875 C-129.66382643 355.32825989 -130.70649378 354.04461334 -132.28125 351.546875 C-136.8708337 333.3446485 -119.43887965 305.87576374 -110.71533203 290.84960938 C-105.08787394 281.66899015 -98.8601399 273.22016388 -91.28125 265.546875 C-90.13269531 264.30744141 -90.13269531 264.30744141 -88.9609375 263.04296875 C-75.66482276 249.04143313 -55.75813884 236.01496843 -35.84375 235.44921875 C-34.998125 235.48144531 -34.1525 235.51367188 -33.28125 235.546875 C-33.28125 236.206875 -33.28125 236.866875 -33.28125 237.546875 C-34.11785156 237.815 -34.95445312 238.083125 -35.81640625 238.359375 C-51.76277097 243.72780786 -66.35491114 251.45478292 -78.28125 263.546875 C-76.76349976 263.44838257 -76.76349976 263.44838257 -75.21508789 263.34790039 C-64.38581656 262.66616177 -53.56510826 262.26324558 -42.71875 261.984375 C-41.11001939 261.94100117 -39.50129537 261.89738232 -37.89257812 261.85351562 C-34.02220502 261.74849554 -30.15175971 261.64672805 -26.28125 261.546875 C-26.70349854 260.74080811 -27.12574707 259.93474121 -27.56079102 259.10424805 C-28.10920654 258.03730713 -28.65762207 256.97036621 -29.22265625 255.87109375 C-29.76865479 254.81752686 -30.31465332 253.76395996 -30.87719727 252.6784668 C-32.76533019 248.4671851 -33.20595294 245.13999579 -33.28125 240.546875 C-31.46433401 238.72995901 -28.4879959 239.06744173 -26.03125 238.796875 C-11.34452368 236.74999656 -0.31858374 230.93789835 9.2109375 219.61328125 C11.52933568 216.43599462 13.11712116 213.13452359 14.71875 209.546875 C13.66652091 207.89987731 13.66652091 207.89987731 11.71875 206.546875 C8.39381644 206.29591852 8.39381644 206.29591852 4.65625 206.546875 C-4.74960563 206.79418949 -14.10862592 205.12697796 -21.28125 198.546875 C-22.91195038 196.0843527 -24.31209053 193.55286181 -25.7265625 190.9609375 C-27.75898938 187.80505858 -30.13826666 186.17925082 -33.19921875 184.08984375 C-44.1389983 175.98250244 -49.70746136 163.33857406 -51.95605469 150.21630859 C-53.77970096 135.24652754 -53.51554494 119.07402126 -49.28125 104.546875 C-49.08837402 103.87205078 -48.89549805 103.19722656 -48.69677734 102.50195312 C-46.62802778 95.33028797 -44.30894152 88.37678378 -41.28125 81.546875 C-42.3125 81.464375 -43.34375 81.381875 -44.40625 81.296875 C-51.2087111 79.98026963 -55.08389565 76.3118643 -58.9609375 70.80078125 C-65.25991818 60.04778761 -65.25212735 46.73695605 -62.3515625 34.96484375 C-57.89623185 20.73705425 -49.07753285 8.84306189 -36.14453125 1.30078125 C-24.43781705 -4.78671013 -12.09865816 -5.78914289 0 0 Z M88.71875 75.546875 C87.34702469 77.28813838 86.02142613 79.06586911 84.71875 80.859375 C83.996875 81.84550781 83.275 82.83164063 82.53125 83.84765625 C80.59629613 86.47035206 80.59629613 86.47035206 79.71875 89.546875 C79.05875 89.546875 78.39875 89.546875 77.71875 89.546875 C76.60528572 90.69513504 75.49191434 91.84348527 74.37890625 92.9921875 C59.18917329 107.21692566 38.68255517 112.4914012 18.71875 115.546875 C16.71832875 115.87767092 14.71815675 116.21000148 12.71875 116.546875 C12.91791016 117.62775391 12.91791016 117.62775391 13.12109375 118.73046875 C16.77183681 140.92805248 17.26039151 164.35128721 11.34765625 186.17578125 C10.43224756 189.62704258 9.95810676 192.02025634 10.71875 195.546875 C13.97789644 199.40151981 17.6089311 202.02223334 22.15625 204.171875 C24.71875 205.546875 24.71875 205.546875 25.59375 208.234375 C25.635 208.9975 25.67625 209.760625 25.71875 210.546875 C25.05875 210.876875 24.39875 211.206875 23.71875 211.546875 C23.57566406 212.29324219 23.43257812 213.03960937 23.28515625 213.80859375 C21.46485812 222.60879368 12.45731942 231.38782872 5.1875 236.234375 C-5.1672918 242.18540477 -15.36564542 245.12433583 -27.28125 245.546875 C-19.45834422 262.66218268 -3.4770491 274.87661841 13.71875 281.546875 C37.06019231 289.8576353 64.34115484 291.90408944 87.71875 282.546875 C102.0867678 275.68798183 112.29750808 263.93045691 118.71875 249.546875 C118.71875 248.886875 118.71875 248.226875 118.71875 247.546875 C117.89632812 247.32773437 117.07390625 247.10859375 116.2265625 246.8828125 C108.79087094 244.77059527 101.68390758 242.62542101 95.71875 237.546875 C94.69107552 235.67825425 93.71659417 233.77967272 92.7890625 231.859375 C90.17307364 227.59872209 90.17307364 227.59872209 85.71142578 225.71704102 C82.07807953 225.6066326 78.58906049 225.78423157 74.96875 226.109375 C64.09289138 226.85564402 56.00017734 226.3649975 46.53125 220.609375 C44.71875 218.546875 44.71875 218.546875 44.40625 215.796875 C44.509375 215.054375 44.6125 214.311875 44.71875 213.546875 C45.70875 213.216875 46.69875 212.886875 47.71875 212.546875 C49.47468238 213.47719011 51.19862956 214.46809887 52.90625 215.484375 C65.92173711 221.78030648 83.98157266 219.74794828 97.71875 216.546875 C99.43384766 216.16208984 99.43384766 216.16208984 101.18359375 215.76953125 C115.30406873 212.19725039 125.91461278 205.7972187 133.71875 193.359375 C136.15577286 184.06822536 134.76515328 174.95702052 132.86352539 165.70117188 C130.23976611 152.57769295 130.59630957 139.15938912 130.84301758 125.83618164 C130.86078247 124.28918579 130.86078247 124.28918579 130.87890625 122.7109375 C130.89574463 121.78748535 130.91258301 120.8640332 130.92993164 119.91259766 C130.88490032 117.27770109 130.88490032 117.27770109 128.71875 114.546875 C128.71875 115.206875 128.71875 115.866875 128.71875 116.546875 C127.0171875 115.93199219 127.0171875 115.93199219 125.28125 115.3046875 C123.76048807 114.76021718 122.23965068 114.21595761 120.71875 113.671875 C119.97496094 113.40246094 119.23117187 113.13304687 118.46484375 112.85546875 C113.59579757 111.11954794 108.75249074 109.72522795 103.71875 108.546875 C103.71875 106.896875 103.71875 105.246875 103.71875 103.546875 C108.25513854 101.93718874 111.34005893 103.22187823 115.6328125 104.85546875 C117.8271011 105.70418876 117.8271011 105.70418876 120.71875 105.546875 C119.37458424 102.42508966 118.05754267 100.75402343 115.3046875 98.77734375 C114.62962158 98.28451904 113.95455566 97.79169434 113.2590332 97.28393555 C112.54448975 96.77258057 111.82994629 96.26122559 111.09375 95.734375 C109.63517138 94.66356286 108.17812195 93.59066445 106.72265625 92.515625 C106.02672363 92.00257812 105.33079102 91.48953125 104.61376953 90.9609375 C98.49898855 86.3980914 93.97319972 81.86408823 89.71875 75.546875 C89.38875 75.546875 89.05875 75.546875 88.71875 75.546875 Z M136.71875 121.546875 C137.71875 123.546875 137.71875 123.546875 137.71875 123.546875 Z M129.71875 240.546875 C129.698125 241.7225 129.6775 242.898125 129.65625 244.109375 C128.8995674 251.48703032 125.012875 258.01883094 121.71875 264.546875 C122.6159375 264.4746875 123.513125 264.4025 124.4375 264.328125 C149.47550676 262.46579392 149.47550676 262.46579392 155.71875 264.546875 C153.55931362 259.79611497 150.22561174 256.35310298 146.71875 252.546875 C146.14640625 251.92039062 145.5740625 251.29390625 144.984375 250.6484375 C141.04508771 246.51037883 136.85619228 243.10969104 131.71875 240.546875 C131.05875 240.546875 130.39875 240.546875 129.71875 240.546875 Z M-88.4140625 270.71484375 C-89.07148437 271.71128906 -89.72890625 272.70773437 -90.40625 273.734375 C-91.08945313 274.71792969 -91.77265625 275.70148438 -92.4765625 276.71484375 C-93.07210937 277.64941406 -93.66765625 278.58398438 -94.28125 279.546875 C-94.85617188 280.28550781 -95.43109375 281.02414062 -96.0234375 281.78515625 C-97.47493916 283.45738376 -97.47493916 283.45738376 -97.28125 285.546875 C-78.72895404 284.92813667 -60.18519337 284.19552877 -41.64404297 283.29956055 C-38.93906453 283.1705549 -36.23416931 283.04477046 -33.52880859 282.92456055 C-29.55774091 282.74805891 -25.58748718 282.55632525 -21.6171875 282.36328125 C-20.40292084 282.31111954 -19.18865417 282.25895782 -17.93759155 282.20521545 C-16.82687286 282.14853195 -15.71615417 282.09184845 -14.57177734 282.03344727 C-13.10627945 281.96469139 -13.10627945 281.96469139 -11.61117554 281.89454651 C-9.09263228 281.75492688 -9.09263228 281.75492688 -7.28125 279.546875 C-8.86396233 278.27526834 -10.44744635 277.00462215 -12.03125 275.734375 C-12.91296875 275.02667969 -13.7946875 274.31898438 -14.703125 273.58984375 C-16.87117929 271.87182498 -19.05853901 270.19313524 -21.28125 268.546875 C-21.61125 268.876875 -21.94125 269.206875 -22.28125 269.546875 C-23.77766163 269.64528144 -25.27867715 269.6748606 -26.77832031 269.67626953 C-28.21682343 269.68099777 -28.21682343 269.68099777 -29.68438721 269.68582153 C-31.25600616 269.68278519 -31.25600616 269.68278519 -32.859375 269.6796875 C-34.47570831 269.68112259 -34.47570831 269.68112259 -36.12469482 269.68258667 C-38.41809141 269.68326936 -40.7114899 269.68140891 -43.00488281 269.67724609 C-46.47465523 269.6719612 -49.94429448 269.67715541 -53.4140625 269.68359375 C-55.6458337 269.68336167 -57.87760507 269.68207711 -60.109375 269.6796875 C-61.19328522 269.67976303 -62.27719543 269.67983856 -63.39395142 269.67991638 C-69.02668193 269.65472829 -74.48043146 269.39060001 -80.0703125 268.71484375 C-84.5287859 268.28369646 -84.5287859 268.28369646 -88.4140625 270.71484375 Z M155.71875 264.546875 C155.05875 266.196875 154.39875 267.846875 153.71875 269.546875 C149.57293181 269.57619479 145.42714075 269.59378057 141.28125 269.609375 C140.11658203 269.61775391 138.95191406 269.62613281 137.75195312 269.63476562 C132.62214551 269.64921579 127.76293683 269.62136909 122.70703125 268.71484375 C118.63794553 268.12384152 118.63794553 268.12384152 115.7578125 270.75 C114.96117187 271.75546875 114.16453125 272.7609375 113.34375 273.796875 C112.53164063 274.79203125 111.71953125 275.7871875 110.8828125 276.8125 C110.16867187 277.71484375 109.45453125 278.6171875 108.71875 279.546875 C107.72958876 280.55759753 106.73189314 281.5601932 105.71875 282.546875 C118.91384737 282.6261579 132.09068206 282.37683297 145.28125 282.046875 C147.27538609 281.99851067 149.26952671 281.95033251 151.26367188 281.90234375 C156.08208592 281.78599287 160.90043235 281.66714901 165.71875 281.546875 C164.315564 277.13314059 162.68329449 273.56531725 160.15625 269.671875 C159.22619141 268.22167969 159.22619141 268.22167969 158.27734375 266.7421875 C157.50583984 265.65550781 157.50583984 265.65550781 156.71875 264.546875 C156.38875 264.546875 156.05875 264.546875 155.71875 264.546875 Z M-9.28027344 286.63232422 C-13.40436316 286.76084236 -17.52804938 286.89906333 -21.65084839 287.06433105 C-31.32078476 287.44839326 -40.95809113 287.55954013 -50.63580322 287.42933655 C-55.45385128 287.36525981 -60.2718784 287.34644057 -65.09030914 287.33523846 C-68.55759023 287.32387932 -72.02108688 287.28739455 -75.48724365 287.19577026 C-89.34411921 286.11991075 -89.34411921 286.11991075 -102.2477417 289.77026367 C-105.61916086 293.14919948 -106.94170662 296.99733798 -108.28125 301.546875 C-109.23325143 303.90337215 -110.25753389 306.22016341 -111.28125 308.546875 C-103.20746051 309.42120999 -95.21164755 309.73345077 -87.09375 309.78515625 C-85.16224846 309.79943916 -85.16224846 309.79943916 -83.19172668 309.81401062 C-78.88824833 309.84130281 -74.5848008 309.85133513 -70.28125 309.859375 C-69.52726803 309.8614093 -68.77328606 309.8634436 -67.99645615 309.86553955 C-41.91141329 309.93079949 -15.94534778 309.0121286 10.10242081 307.68918228 C45.38309795 305.89852497 80.58256587 305.1462051 115.9102211 305.16992188 C119.51993648 305.1718689 123.12963457 305.16993545 126.73934937 305.16748047 C132.41061026 305.16559116 138.08169552 305.17669566 143.75291061 305.19935226 C145.84792622 305.20700188 147.9429542 305.21184141 150.03798294 305.21370316 C152.91194956 305.21796722 155.78553841 305.23519448 158.65942383 305.25634766 C159.49563357 305.25543121 160.33184332 305.25451477 161.19339275 305.25357056 C165.75604539 305.30372948 169.42195835 305.81346044 173.71875 307.546875 C173.34375 309.484375 173.34375 309.484375 172.71875 311.546875 C170.11790088 312.84729956 168.25068178 312.65984573 165.33764648 312.64453125 C164.19801453 312.64128342 163.05838257 312.63803558 161.88421631 312.63468933 C160.63207336 312.6263356 159.37993042 312.61798187 158.08984375 312.609375 C156.08732599 312.60280149 154.08480815 312.59624085 152.08228874 312.59018993 C149.93191561 312.58308921 147.78155876 312.57388039 145.63119507 312.56436157 C138.01978995 312.53244921 130.40833802 312.52892462 122.796875 312.52734375 C122.02382711 312.52715933 121.25077923 312.52697491 120.45430565 312.5267849 C78.55845432 312.52449759 36.7182723 313.81745046 -5.14184284 315.42661476 C-54.60745111 317.32660077 -54.60745111 317.32660077 -76.65625 315.734375 C-77.91356934 315.64816895 -79.17088867 315.56196289 -80.46630859 315.47314453 C-89.08388091 314.83410852 -97.52777361 313.78235722 -106.0078125 312.1328125 C-109.38324247 311.42941022 -109.38324247 311.42941022 -113.28125 311.546875 C-114.9563144 315.64766431 -116.61985345 319.75303136 -118.28125 323.859375 C-118.75820312 325.02662109 -119.23515625 326.19386719 -119.7265625 327.39648438 C-120.40332031 329.07387695 -120.40332031 329.07387695 -121.09375 330.78515625 C-121.72216797 332.3326355 -121.72216797 332.3326355 -122.36328125 333.91137695 C-123.44571388 336.55392065 -123.44571388 336.55392065 -123.28125 339.546875 C-122.22550781 339.42570312 -121.16976562 339.30453125 -120.08203125 339.1796875 C-115.15023535 338.61870349 -110.21621034 338.07923914 -105.28125 337.546875 C-104.49524414 337.46147461 -103.70923828 337.37607422 -102.89941406 337.28808594 C-78.95212186 334.72768363 -54.91150953 333.52723521 -30.84375 332.921875 C-29.6754364 332.89104324 -29.6754364 332.89104324 -28.48352051 332.85958862 C-1.02990999 332.15798346 26.45925186 332.48467252 53.91490936 332.890625 C56.08016697 332.92259731 58.24543563 332.95373835 60.41070557 332.98486328 C83.64372132 333.32311454 106.86836597 333.86583527 130.09375 334.546875 C130.81525364 334.56790031 131.53675728 334.58892563 132.28012466 334.61058807 C149.7658624 335.12104965 167.24439732 335.72834297 184.71875 336.546875 C183.39727333 328.94528777 181.75019502 321.66847735 179.46875 314.296875 C179.19417969 313.37519531 178.91960937 312.45351563 178.63671875 311.50390625 C176.88376628 305.77340245 174.83868054 300.21522501 172.59082031 294.66503906 C172.17541489 293.6332402 172.17541489 293.6332402 171.75161743 292.58059692 C171.07557061 290.90205415 170.39738238 289.22437411 169.71875 287.546875 C160.40808634 287.43044682 151.09767759 287.34189136 141.7864418 287.28781414 C137.46169361 287.26184487 133.13744757 287.22668258 128.81298828 287.16967773 C124.63079728 287.11490035 120.44908579 287.08535948 116.26656342 287.07248878 C114.67990329 287.06333009 113.09326606 287.04544762 111.50681305 287.01822472 C101.49534277 286.85344049 93.84161382 288.07131754 84.71875 292.546875 C82.25527505 293.32707854 79.89221002 293.80975677 77.34375 294.296875 C76.22226562 294.51859375 75.10078125 294.7403125 73.9453125 294.96875 C72.88054687 295.15953125 71.81578125 295.3503125 70.71875 295.546875 C69.79320312 295.7325 68.86765625 295.918125 67.9140625 296.109375 C47.87552074 298.85303842 25.82441608 295.69402046 7.32006836 287.48242188 C4.57425889 286.49490973 2.64440986 286.32818046 -0.2578125 286.39453125 C-1.22750977 286.41273926 -2.19720703 286.43094727 -3.19628906 286.44970703 C-5.22419155 286.5135805 -7.25218832 286.57453931 -9.28027344 286.63232422 Z M-79.40625 341.484375 C-80.76919945 341.51709692 -80.76919945 341.51709692 -82.15968323 341.55047989 C-87.38084635 341.67605725 -92.60181416 341.80721335 -97.82260513 341.94744492 C-99.40170564 341.98966482 -100.9808351 342.03081802 -102.55999374 342.0708046 C-113.45696587 342.34090031 -113.45696587 342.34090031 -124.28125 343.546875 C-125.55842225 346.38346681 -125.55842225 346.38346681 -124.61450195 348.57275391 C-122.98261793 350.98905388 -121.5385866 351.81041282 -118.94921875 353.1328125 C-118.07442871 353.58615967 -117.19963867 354.03950684 -116.29833984 354.5065918 C-115.3645752 354.97363525 -114.43081055 355.44067871 -113.46875 355.921875 C-112.04103271 356.64661011 -112.04103271 356.64661011 -110.58447266 357.38598633 C-108.68506697 358.34568095 -106.78276373 359.29966485 -104.87744141 360.24755859 C-102.69835427 361.33812674 -100.53998849 362.45741657 -98.38671875 363.59765625 C-91.41151323 367.13164792 -86.06237897 368.38014824 -78.28125 367.546875 C-77.39566406 367.46566406 -76.51007813 367.38445312 -75.59765625 367.30078125 C-73.48806174 367.08685981 -71.38365972 366.82260087 -69.28125 366.546875 C-69.28125 362.916875 -69.28125 359.286875 -69.28125 355.546875 C-68.62125 355.546875 -67.96125 355.546875 -67.28125 355.546875 C-65.96125 359.176875 -64.64125 362.806875 -63.28125 366.546875 C-61.96935196 366.51370934 -61.96935196 366.51370934 -60.63095093 366.47987366 C-48.18112951 366.1656943 -35.73120736 365.85561696 -23.28125 365.546875 C-22.11799698 365.5179995 -20.95474396 365.48912399 -19.75624084 365.45937347 C-3.75127956 365.06235248 12.25381954 364.67186493 28.25918198 364.29138756 C35.37355661 364.12213069 42.48786316 363.95063827 49.60205078 363.77368164 C85.31240795 362.88671634 120.99453331 362.33768369 156.71875 362.546875 C156.71875 356.276875 156.71875 350.006875 156.71875 343.546875 C148.39584743 343.30261706 140.07292644 343.05901027 131.74997616 342.81638432 C127.8802631 342.70355404 124.01055703 342.59049703 120.14086914 342.47680664 C111.72273264 342.22962654 103.3045037 341.98619473 94.88606453 341.74952602 C90.89026199 341.63712471 86.89451816 341.52314087 82.89886475 341.4055481 C59.59229946 340.72173029 36.30279906 340.34602714 12.9859848 340.35819626 C10.4166196 340.35939941 7.8472584 340.35883311 5.27789307 340.35818481 C-22.95904587 340.35970183 -51.17816864 340.79537771 -79.40625 341.484375 Z M185.71875 342.546875 C185.38875 342.876875 185.05875 343.206875 184.71875 343.546875 C183.01311222 343.70428105 181.30147756 343.79780892 179.58984375 343.86328125 C178.03813477 343.92612305 178.03813477 343.92612305 176.45507812 343.99023438 C174.8221582 344.04920898 174.8221582 344.04920898 173.15625 344.109375 C171.5175293 344.17415039 171.5175293 344.17415039 169.84570312 344.24023438 C167.13685436 344.34669568 164.42791008 344.44871016 161.71875 344.546875 C161.86014481 346.79715829 162.00703003 349.04709706 162.15625 351.296875 C162.23746094 352.54984375 162.31867188 353.8028125 162.40234375 355.09375 C162.64128426 358.67051637 162.64128426 358.67051637 163.71875 362.546875 C172.62875 362.216875 181.53875 361.886875 190.71875 361.546875 C190.08329135 356.4632058 189.53178876 352.33135764 188.15625 347.546875 C187.88683594 346.598125 187.61742187 345.649375 187.33984375 344.671875 C187.13488281 343.970625 186.92992187 343.269375 186.71875 342.546875 C186.38875 342.546875 186.05875 342.546875 185.71875 342.546875 Z M164.71875 368.546875 C164.71875 369.536875 164.71875 370.526875 164.71875 371.546875 C169.66875 370.061875 169.66875 370.061875 174.71875 368.546875 C174.71875 368.216875 174.71875 367.886875 174.71875 367.546875 C173.44 367.52625 172.16125 367.505625 170.84375 367.484375 C170.12445313 367.47277344 169.40515625 367.46117187 168.6640625 367.44921875 C166.63689596 367.42038258 166.63689596 367.42038258 164.71875 368.546875 Z M138.703125 368.98828125 C124.6231111 369.78652539 110.52306127 370.07373361 96.42631912 370.42325592 C93.94637386 370.48493149 91.4664564 370.54764119 88.98654175 370.61053467 C38.57032733 371.88351584 -11.85661383 372.68995514 -62.28125 373.546875 C-61.62125 379.816875 -60.96125 386.086875 -60.28125 392.546875 C-55.84945312 392.52947266 -55.84945312 392.52947266 -51.328125 392.51171875 C-48.28222764 392.50379535 -45.23633166 392.49779546 -42.19042969 392.49194336 C-40.16308023 392.48708649 -38.13573385 392.48041055 -36.10839844 392.47143555 C-22.48486307 392.41289154 -8.88162765 392.6060544 4.73645973 392.95097542 C23.95020978 393.43653813 43.15953445 393.69168996 62.37890625 393.828125 C63.69836369 393.83767778 65.01782112 393.84723057 66.37726212 393.85707283 C77.24695058 393.93523969 88.11668883 394.0057334 98.9864502 394.07293701 C107.20213331 394.12379224 115.4177709 394.17844426 123.63339043 394.23875427 C127.44194615 394.26519485 131.25050683 394.28603972 135.05909729 394.3067627 C137.36239847 394.32334233 139.66569758 394.34021204 141.96899414 394.35742188 C143.0205217 394.36160629 144.07204926 394.36579071 145.15544128 394.37010193 C146.59341568 394.38261742 146.59341568 394.38261742 148.06044006 394.39538574 C148.89282228 394.40053947 149.72520449 394.40569321 150.5828104 394.41100311 C152.71875 394.546875 152.71875 394.546875 155.71875 395.546875 C156.04875 397.196875 156.37875 398.846875 156.71875 400.546875 C152.49600469 401.72787915 148.39274082 401.69455663 144.03710938 401.69213867 C143.15639298 401.6954463 142.27567659 401.69875393 141.36827183 401.70216179 C138.43300213 401.71157791 135.49778376 401.71347571 132.5625 401.71484375 C130.4885606 401.71882962 128.41462158 401.72301961 126.34068298 401.72740173 C119.63336419 401.73882831 112.92607546 401.7370607 106.21875 401.734375 C103.9258728 401.73443096 101.63299561 401.734492 99.34011841 401.73455811 C72.26873988 401.72874325 45.21290253 401.62471232 18.15625 400.671875 C17.01333496 400.63266937 15.87041992 400.59346375 14.69287109 400.55307007 C-7.01384756 399.78075074 -28.67643943 398.26863367 -50.26953125 395.9140625 C-53.61832761 395.57233252 -56.91245937 395.47189397 -60.28125 395.546875 C-60.4542563 397.31710021 -60.61920315 399.08811294 -60.78125 400.859375 C-60.8740625 401.84550781 -60.966875 402.83164062 -61.0625 403.84765625 C-61.24941875 407.00858589 -61.30313312 410.1136686 -61.29492188 413.27807617 C-61.292948 414.265634 -61.29097412 415.25319183 -61.28894043 416.27067566 C-61.28640259 417.02182144 -61.28386475 417.77296722 -61.28125 418.546875 C-45.58612485 418.81276555 -29.890924 419.07364589 -14.19562721 419.32917786 C-6.90153832 419.44803799 0.39252089 419.56832864 7.68652344 419.69238281 C36.23813983 420.17718512 64.78708439 420.64145857 93.34375 420.640625 C94.32189037 420.64107819 95.30003075 420.64153137 96.30781174 420.64199829 C117.11820142 420.64088763 137.91814836 420.15231131 158.71875 419.546875 C158.9167669 408.77145548 158.30216878 398.05096688 157.71875 387.296875 C157.62210775 385.47267149 157.52575141 383.64845281 157.4296875 381.82421875 C157.19600175 377.39825583 156.95845627 372.97251576 156.71875 368.546875 C150.69100782 368.44805955 144.71960571 368.63499583 138.703125 368.98828125 Z M-61.28125 423.546875 C-61.4544134 425.7547084 -61.61930976 427.96319004 -61.78125 430.171875 C-61.8740625 431.40164063 -61.966875 432.63140625 -62.0625 433.8984375 C-62.30142047 437.88011773 -62.30304885 441.84908763 -62.29492188 445.83740234 C-62.292948 447.09483246 -62.29097412 448.35226257 -62.28894043 449.64779663 C-62.28640259 450.60449249 -62.28386475 451.56118835 -62.28125 452.546875 C-20.72755264 451.9056416 20.82305908 451.14661702 62.37293863 450.29395294 C70.56032705 450.12596251 78.74777703 449.96150724 86.93529296 449.79985285 C93.4046101 449.67190411 99.87385932 449.54083215 106.3430655 449.40739202 C110.15475837 449.32883692 113.96646586 449.2515491 117.77825165 449.17762756 C121.97043277 449.09623986 126.1624541 449.0083711 130.35449219 448.91992188 C131.58215805 448.89703598 132.80982391 448.87415009 134.07469177 448.85057068 C144.50865946 449.40620094 144.50865946 449.40620094 153.71875 446.546875 C158.25363372 446.31431686 158.25363372 446.31431686 160.71875 447.546875 C160.38875 441.936875 160.05875 436.326875 159.71875 430.546875 C155.88321944 429.90761991 152.90960147 429.42210011 149.15956116 429.43334961 C147.86863808 429.43345535 147.86863808 429.43345535 146.55163574 429.43356323 C145.16107971 429.44131271 145.16107971 429.44131271 143.74243164 429.44921875 C142.2550071 429.45140915 142.2550071 429.45140915 140.73753357 429.4536438 C138.58343572 429.45744533 136.42934098 429.4635572 134.2752552 429.47171021 C130.82375085 429.48458067 127.37228553 429.49102043 123.92076111 429.49584961 C115.31769834 429.50916846 106.71467095 429.53292557 98.1116333 429.55725098 C67.63006697 429.64214787 37.18428679 429.62090634 6.71875 428.546875 C5.62315765 428.50888794 4.52756531 428.47090088 3.39877319 428.4317627 C-2.39305655 428.22451102 -8.18097149 427.97080318 -13.96875 427.671875 C-14.77328613 427.63185364 -15.57782227 427.59183228 -16.40673828 427.55059814 C-31.43749739 426.7923906 -46.34751982 425.42677696 -61.28125 423.546875 Z M159.71875 452.546875 C159.71875 453.206875 159.71875 453.866875 159.71875 454.546875 C153.46666045 455.95635009 147.17141953 455.92985232 140.7890625 456.1015625 C140.03930271 456.12249844 139.28954292 456.14343437 138.51706314 456.16500473 C110.91880351 456.90455766 83.29378741 456.69655416 55.68775964 456.67544436 C49.36563207 456.67111568 43.04352454 456.67419725 36.72139823 456.6790725 C30.51309625 456.68366104 24.3048027 456.68422725 18.09649956 456.68163383 C14.43420006 456.68010522 10.77191387 456.67978023 7.10961533 456.68317032 C-8.86814792 456.69600493 -24.80440447 456.49049646 -40.76754761 455.76705933 C-47.94015258 455.45199474 -55.10326414 455.44928909 -62.28125 455.546875 C-63.12954148 463.24209053 -63.37914069 470.80888545 -63.28125 478.546875 C-62.72852417 478.52181885 -62.17579834 478.4967627 -61.60632324 478.47094727 C-46.51869214 477.79113676 -31.42909624 477.20082416 -16.33544922 476.671875 C-12.83944197 476.54892159 -9.34355114 476.42297745 -5.84765625 476.296875 C1.67392385 476.0290742 9.19607806 475.78186865 16.71875 475.546875 C17.40692432 475.525219 18.09509865 475.503563 18.80412674 475.48125076 C48.37627392 474.55700671 77.94973095 474.25841178 107.53424072 474.01464844 C113.670635 473.9633593 119.80699502 473.90824871 125.94335938 473.85351562 C137.86845998 473.74768531 149.79359101 473.64589297 161.71875 473.546875 C161.72467452 471.7814982 161.72890737 470.01611567 161.73242188 468.25073242 C161.73622864 466.77608772 161.73622864 466.77608772 161.7401123 465.27165222 C161.71791256 462.44005926 161.54485858 459.67206151 161.21875 456.859375 C161.1259375 456.03050781 161.033125 455.20164062 160.9375 454.34765625 C160.8653125 453.75339844 160.793125 453.15914063 160.71875 452.546875 C160.38875 452.546875 160.05875 452.546875 159.71875 452.546875 Z M161.71875 479.546875 C161.38875 479.876875 161.05875 480.206875 160.71875 480.546875 C159.33353926 480.7035697 157.94087741 480.79534012 156.54829979 480.85929012 C155.66770004 480.90068113 154.78710029 480.94207214 153.8798157 480.98471743 C152.91999989 481.02351297 151.96018409 481.0623085 150.97128296 481.10227966 C149.97835342 481.14443397 148.98542388 481.18658828 147.96240556 481.23001999 C137.86603048 481.62888161 127.78097477 481.68098178 117.67822266 481.66040039 C115.68485516 481.66011727 113.69148756 481.66027869 111.69812012 481.6608429 C106.36487281 481.66112599 101.03164869 481.65530932 95.6984067 481.64826894 C90.09576318 481.64195305 84.49311894 481.64142516 78.89047241 481.64024353 C68.3159922 481.63715423 57.74152251 481.6289737 47.1670469 481.61889404 C35.11356313 481.60765771 23.06007881 481.60220363 11.00659108 481.59719861 C-13.75602841 481.58678867 -38.51863861 481.56923645 -63.28125 481.546875 C-64.28130304 484.54703412 -64.39700585 486.52111256 -64.37890625 489.65234375 C-64.37568359 490.63525391 -64.37246094 491.61816406 -64.36914062 492.63085938 C-64.36076172 493.65501953 -64.35238281 494.67917969 -64.34375 495.734375 C-64.33923828 496.77013672 -64.33472656 497.80589844 -64.33007812 498.87304688 C-64.3182901 501.43104766 -64.30183515 503.98893233 -64.28125 506.546875 C-62.48107422 506.45599609 -62.48107422 506.45599609 -60.64453125 506.36328125 C-58.96093823 506.27863132 -57.27734444 506.19399678 -55.59375 506.109375 C-54.81580078 506.07005859 -54.03785156 506.03074219 -53.23632812 505.99023438 C-51.45569889 505.90085916 -49.67499575 505.81295007 -47.89424133 505.72610474 C-45.31866076 505.59833786 -42.74360566 505.46557684 -40.16850281 505.32894897 C-25.49864169 504.57041955 -10.82187549 504.15141157 3.86146545 503.76149178 C8.37024276 503.64173619 12.87891239 503.51820244 17.38757324 503.39414978 C29.39850064 503.06420171 41.40953733 502.7383201 53.42066956 502.41591489 C63.61389944 502.14225874 73.80702423 501.86500257 84 501.58203125 C84.75965057 501.56097588 85.51930115 501.53992051 86.30197144 501.5182271 C112.12135195 500.80069688 137.92091381 499.83763019 163.71875 498.546875 C163.38875 492.276875 163.05875 486.006875 162.71875 479.546875 C162.38875 479.546875 162.05875 479.546875 161.71875 479.546875 Z " fill="#2E2E2E" transform="translate(180.28125,34.453125)"/>
<path d="M0 0 C1.38930004 0.43795798 2.78455124 0.85795843 4.1875 1.25 C19.41549036 6.30009884 30.00829459 16.68582335 37.31640625 30.62890625 C44.70279065 45.41881283 46.53920871 59.68394393 46 76 C46.33 76 46.66 76 47 76 C47 65.77 47 55.54 47 45 C47.33 45 47.66 45 48 45 C49.3354635 54.3372076 50.2709758 63.43511335 49.75 72.875 C49.71140869 73.62894043 49.67281738 74.38288086 49.63305664 75.15966797 C49.37716394 78.85141393 49.01460911 81.84598083 47 85 C46.67 83.02 46.34 81.04 46 79 C44.46478044 81.30282933 43.41642091 83.17862235 42.375 85.6875 C41.92125 86.780625 41.4675 87.87375 41 89 C40.67 89 40.34 89 40 89 C40.03480469 88.31035156 40.06960938 87.62070313 40.10546875 86.91015625 C40.37701137 77.4837483 39.2089569 71.22386087 33 63.9375 C26.62698358 57.2757385 19.25273675 52.3684848 11.4375 47.5625 C4.91745949 43.49684256 -0.5820208 38.4179792 -6 33 C-6.56520003 30.34462628 -6.73788198 27.70855287 -7 25 C-7.20753906 25.68964844 -7.41507813 26.37929687 -7.62890625 27.08984375 C-9.97033707 34.2316976 -13.00717272 39.41101423 -18 45 C-18.51175781 45.60457031 -19.02351563 46.20914063 -19.55078125 46.83203125 C-37.2087848 66.24269024 -65.312871 70.41703799 -90 72 C-90.07409878 76.05567333 -90.00615193 79.74069304 -89.0625 83.6875 C-85.40737673 101.13358483 -85.77533921 120.13067197 -88.8125 137.625 C-88.9777417 138.57802002 -89.1429834 139.53104004 -89.31323242 140.51293945 C-90.2593044 145.4614524 -91.46180818 149.58575336 -94 154 C-94.391875 154.78375 -94.78375 155.5675 -95.1875 156.375 C-95.455625 156.91125 -95.72375 157.4475 -96 158 C-94.02 158 -92.04 158 -90 158 C-89.67 159.32 -89.34 160.64 -89 162 C-90.68598758 162.10975688 -92.37414209 162.18637413 -94.0625 162.25 C-95.00222656 162.29640625 -95.94195312 162.3428125 -96.91015625 162.390625 C-102.5303279 161.68011025 -105.94218951 159.25739737 -109.484375 155.046875 C-110.24811755 153.95383046 -111.00310966 152.85462838 -111.75 151.75 C-115.70684003 146.22274097 -119.84834 142.70217464 -125.51953125 138.88671875 C-129.44862589 135.8981318 -131.71429789 132.31990301 -134 128 C-134.38800781 127.2678125 -134.77601563 126.535625 -135.17578125 125.78125 C-139.9262608 115.96935042 -140.32571913 105.9765972 -140.26074219 95.23291016 C-140.25005323 93.13544575 -140.26067518 91.03884424 -140.2734375 88.94140625 C-140.30305879 63.97581043 -132.27794801 41.57350555 -114.6796875 23.64453125 C-113.79539063 22.77183594 -112.91109375 21.89914063 -112 21 C-111.26007813 20.26136719 -110.52015625 19.52273437 -109.7578125 18.76171875 C-82.26401229 -7.17107815 -34.5306847 -15.73064525 0 0 Z M41 83 C42 85 42 85 42 85 Z " fill="#D4ABFB" transform="translate(276,73)"/>
<path d="M0 0 C11.81815037 6.72412004 18.51803286 15.69552849 22.71875 28.546875 C23.77707031 28.3303125 24.83539063 28.11375 25.92578125 27.890625 C56.35719178 22.13351569 91.2964791 23.723568 117.71875 41.546875 C130.06535664 50.81850289 139.46146722 63.19949756 142.71875 78.546875 C144.33754543 90.77777379 143.81653918 103.24198753 143.71875 115.546875 C142.72875 115.546875 141.73875 115.546875 140.71875 115.546875 C140.75355469 114.42152344 140.78835938 113.29617187 140.82421875 112.13671875 C141.28259582 90.90245893 136.52437223 69.87872149 121.65625 53.796875 C113.33121991 46.00894362 103.47975244 41.28313543 92.55859375 38.3359375 C89.71875 37.546875 89.71875 37.546875 87.3125 36.546875 C63.434341 27.34083779 34.70666686 32.30944907 11.71875 41.546875 C-11.77233442 52.1598568 -29.05594534 70.49469665 -38.3984375 94.40625 C-42.49553029 105.94988369 -43.63569199 117.26579621 -43.59692383 129.46484375 C-43.59375316 131.54479994 -43.61736418 133.62334204 -43.64257812 135.703125 C-43.69474801 146.47848322 -42.39169235 156.33035264 -37.34375 165.984375 C-36.86035156 166.93183594 -36.37695312 167.87929687 -35.87890625 168.85546875 C-32.90343349 173.86793997 -29.82172897 177.0844363 -24.96875 180.296875 C-20.343955 183.55273068 -17.06080943 186.85522527 -13.81640625 191.46875 C-11.16845469 195.0532544 -8.51146621 197.96446079 -4.28125 199.546875 C-1.46628259 199.99962778 -1.46628259 199.99962778 1.46875 200.171875 C2.45359375 200.24664062 3.4384375 200.32140625 4.453125 200.3984375 C5.20078125 200.44742188 5.9484375 200.49640625 6.71875 200.546875 C6.38875 199.556875 6.05875 198.566875 5.71875 197.546875 C3.73875 197.216875 1.75875 196.886875 -0.28125 196.546875 C0.35722697 193.6346382 1.3326375 191.17768115 2.59375 188.484375 C10.50903569 168.63838496 11.47802466 137.82469898 4.71875 117.546875 C4.59375 113.921875 4.59375 113.921875 4.71875 110.546875 C6.33880801 108.92681699 8.22127973 109.26709385 10.4609375 109.1171875 C11.44578125 109.04371094 12.430625 108.97023438 13.4453125 108.89453125 C15.50485911 108.74888093 17.5647543 108.608059 19.625 108.47265625 C25.77711171 108.00369683 31.3588636 107.01548192 37.25048828 105.16357422 C39.83280857 104.51837728 42.06813439 104.43843264 44.71875 104.546875 C44.71875 106.196875 44.71875 107.846875 44.71875 109.546875 C44.05875 109.546875 43.39875 109.546875 42.71875 109.546875 C42.71875 110.206875 42.71875 110.866875 42.71875 111.546875 C33.08823221 114.09358446 23.61049892 116.25959261 13.71875 117.546875 C13.85152344 118.19527344 13.98429687 118.84367187 14.12109375 119.51171875 C18.04334531 141.29882411 18.1881546 164.74239145 12.34375 186.171875 C11.44992155 189.56842311 11.02484678 192.07735888 11.71875 195.546875 C14.51291539 198.84978199 17.81622162 201.05637045 21.59375 203.109375 C23.71875 204.546875 23.71875 204.546875 24.53125 207.234375 C24.593125 207.9975 24.655 208.760625 24.71875 209.546875 C21.29010651 209.13543778 18.17353737 208.71694255 14.9296875 207.50390625 C11.2437721 206.40530616 8.30347627 206.45293742 4.46875 206.609375 C-4.88498601 206.71931117 -14.14511459 205.09350357 -21.28125 198.546875 C-22.91195038 196.0843527 -24.31209053 193.55286181 -25.7265625 190.9609375 C-27.75898938 187.80505858 -30.13826666 186.17925082 -33.19921875 184.08984375 C-44.1389983 175.98250244 -49.70746136 163.33857406 -51.95605469 150.21630859 C-53.77970096 135.24652754 -53.51554494 119.07402126 -49.28125 104.546875 C-49.08837402 103.87205078 -48.89549805 103.19722656 -48.69677734 102.50195312 C-46.62802778 95.33028797 -44.30894152 88.37678378 -41.28125 81.546875 C-42.3125 81.464375 -43.34375 81.381875 -44.40625 81.296875 C-51.2087111 79.98026963 -55.08389565 76.3118643 -58.9609375 70.80078125 C-65.25991818 60.04778761 -65.25212735 46.73695605 -62.3515625 34.96484375 C-57.89623185 20.73705425 -49.07753285 8.84306189 -36.14453125 1.30078125 C-24.43781705 -4.78671013 -12.09865816 -5.78914289 0 0 Z " fill="#1F1D21" transform="translate(180.28125,34.453125)"/>
<path d="M0 0 C5.06292184 4.92406533 8.51619823 11.18391581 10.8515625 17.80078125 C10.8515625 19.12078125 10.8515625 20.44078125 10.8515625 21.80078125 C10.13613281 22.06890625 9.42070312 22.33703125 8.68359375 22.61328125 C-13.40000302 31.29816277 -30.64433235 46.00316371 -42.1484375 66.80078125 C-47.60636972 66.40142036 -51.3720646 64.70039242 -55.1484375 60.80078125 C-61.76353744 50.13839652 -62.49607314 38.76518173 -60.5234375 26.55078125 C-57.62845381 14.52546439 -50.88645535 4.77036301 -40.7109375 -2.07421875 C-27.76453487 -9.79632575 -11.98065881 -9.61793924 0 0 Z " fill="#D4ACFB" transform="translate(185.1484375,45.19921875)"/>
<path d="M0 0 C8.3541112 0.02298366 16.70822713 0.0335058 25.06236243 0.04340696 C42.14629895 0.06391208 59.23017333 0.09872037 76.31406176 0.14405417 C76.93906176 1.95655417 76.93906176 1.95655417 77.31406176 4.14405417 C76.65406176 5.13405417 75.99406176 6.12405417 75.31406176 7.14405417 C72.73523383 7.44085359 70.39569026 7.53971185 67.81432116 7.51154685 C66.63976891 7.51645011 66.63976891 7.51645011 65.44148833 7.52145243 C62.8018954 7.52876911 60.16284982 7.51454055 57.52329028 7.50049949 C55.63579236 7.50129001 53.74829461 7.5033862 51.86079943 7.50669456 C46.71456412 7.51184785 41.56852741 7.49824389 36.42232406 7.48116755 C31.01904899 7.46612843 25.6157765 7.46730505 20.212484 7.4665029 C11.11032259 7.46280266 2.0082362 7.44781633 -7.09389722 7.42530417 C-18.6980531 7.39665828 -30.30214783 7.38610062 -41.90633523 7.38162208 C-51.94559275 7.37760212 -61.9848375 7.3650901 -72.02408564 7.35127521 C-75.21404224 7.34721795 -78.40399842 7.34427086 -81.59395635 7.34148002 C-103.64414045 7.31897079 -125.65816381 7.2542605 -147.68593824 6.14405417 C-118.07271915 -13.59809189 -35.95084782 -0.10075325 0 0 Z " fill="#141414" transform="translate(265.6859382390976,508.8559458255768)"/>
<path d="M0 0 C0.66 0.33 1.32 0.66 2 1 C2.74281962 8.92340928 -1.24295186 14.92842909 -6.05859375 20.76953125 C-6.69925781 21.50558594 -7.33992188 22.24164063 -8 23 C-8.60972656 23.70511719 -9.21945313 24.41023438 -9.84765625 25.13671875 C-18.21815987 34.16036228 -30.50274251 40.38563617 -42.8359375 41.27734375 C-46.249719 41.30850403 -49.598889 41.29595973 -53 41 C-53.33 40.67 -53.66 40.34 -54 40 C-54 42.31 -54 44.62 -54 47 C-56.37555161 44.62444839 -56.36834858 43.69703006 -56.6875 40.4375 C-56.77386719 39.63183594 -56.86023438 38.82617188 -56.94921875 37.99609375 C-56.96597656 37.33738281 -56.98273438 36.67867188 -57 36 C-55.18308401 34.18308401 -52.2067459 34.52056673 -49.75 34.25 C-35.09147995 32.20705265 -23.98870099 26.4093935 -14.51171875 15.0546875 C-12.13760599 11.82785724 -10.51253587 8.71831735 -9 5 C-9.495 3.515 -9.495 3.515 -10 2 C-4.555 3.485 -4.555 3.485 1 5 C0.505 2.525 0.505 2.525 0 0 Z " fill="#343434" transform="translate(204,239)"/>
<path d="M0 0 C0.87591797 0.3403125 0.87591797 0.3403125 1.76953125 0.6875 C1.50333445 4.50298744 1.02698852 6.37119535 -1.41796875 9.375 C-6.50756817 13.55978175 -10.51313117 15.2252496 -17.05859375 14.97265625 C-22.70514901 14.23129198 -26.78120333 11.07747417 -30.23046875 6.6875 C-30.03999256 2.49702381 -30.03999256 2.49702381 -28.23046875 0.6875 C-25.91796875 0.375 -25.91796875 0.375 -23.23046875 0.6875 C-22.65296875 1.326875 -22.07546875 1.96625 -21.48046875 2.625 C-18.58563335 5.27859911 -16.46513476 5.69020461 -12.609375 6.0078125 C-8.88264461 5.50601957 -6.73627905 3.45605978 -4.0546875 0.9375 C-2.23046875 -0.3125 -2.23046875 -0.3125 0 0 Z " fill="#373737" transform="translate(288.23046875,209.3125)"/>
<path d="M0 0 C5.04391356 1.68130452 8.27870106 3.21051386 11 8 C11.63561884 12.36987955 11.31573154 14.4229734 9.1875 18.3125 C7.04121551 20.9493638 5.46842323 22.75091835 2.01953125 23.3359375 C-3.65476701 23.43636756 -8.42329522 22.55600084 -13 19 C-14.22265625 16.859375 -14.22265625 16.859375 -15 15 C-14.34 14.01 -13.68 13.02 -13 12 C-10.75 11.5625 -10.75 11.5625 -8 12 C-7.01 12.680625 -6.02 13.36125 -5 14.0625 C-2.18893474 16.31250392 -2.18893474 16.31250392 0.875 15.75 C1.57625 15.5025 2.2775 15.255 3 15 C3.79356801 13.25328412 3.79356801 13.25328412 4 11 C2.35923508 7.55439366 1.21487558 6.14325038 -2 4 C-2 3.01 -2 2.02 -2 1 C-1.34 0.67 -0.68 0.34 0 0 Z " fill="#424242" transform="translate(279,175)"/>
<path d="M0 0 C2.0625 1.25 2.0625 1.25 3 3 C2.74853421 5.13745922 2.54074221 6.45925779 1 8 C-0.89048914 8.31226829 -2.78188375 8.61994292 -4.67724609 8.90112305 C-11.60559192 9.94175855 -17.41879567 11.01587994 -23.3359375 15.01171875 C-25 16 -25 16 -28 16 C-26.63326027 10.36219863 -22.56078464 7.20775186 -18 4 C-12.07579795 0.7941818 -6.72191236 -0.82549801 0 0 Z " fill="#3E3E3E" transform="translate(252,138)"/>
<path d="M0 0 C8.67184226 1.95050555 8.67184226 1.95050555 12.6953125 3.828125 C13.0253125 3.168125 13.3553125 2.508125 13.6953125 1.828125 C14.84678911 3.09384733 15.99130564 4.36590406 17.1328125 5.640625 C17.77089844 6.34832031 18.40898437 7.05601562 19.06640625 7.78515625 C20.6953125 9.828125 20.6953125 9.828125 21.6953125 12.828125 C21.3653125 13.488125 21.0353125 14.148125 20.6953125 14.828125 C15.65288598 14.28299781 11.24346932 12.65150852 6.53125 10.8828125 C2.61937359 9.42798243 -1.33699871 8.12129764 -5.3046875 6.828125 C-5.4921875 4.453125 -5.4921875 4.453125 -5.3046875 1.828125 C-2.3046875 -0.171875 -2.3046875 -0.171875 0 0 Z " fill="#3C3C3C" transform="translate(288.3046875,136.171875)"/>
<path d="M0 0 C1.4540625 0.0309375 1.4540625 0.0309375 2.9375 0.0625 C4.75176728 3.13279847 5.14651169 5.03535751 4.6875 8.5625 C4.55601562 9.69171875 4.55601562 9.69171875 4.421875 10.84375 C3.9038978 13.21641977 3.21987437 15.00073202 1.9375 17.0625 C-0.5 18 -0.5 18 -3.0625 18.0625 C-5.17352955 16.48928036 -5.96982436 15.59463757 -6.42578125 12.9765625 C-6.14068543 0.12532011 -6.14068543 0.12532011 0 0 Z " fill="#3E3E3E" transform="translate(243.0625,154.9375)"/>
<path d="M0 0 C2.9375 0.375 2.9375 0.375 6 1 C7.72275845 4.44551689 7.36875442 8.22529563 7 12 C5.8125 14.5625 5.8125 14.5625 4 16 C1.5 16.5625 1.5 16.5625 -1 16 C-3.25906051 13.3514463 -3.93615418 11.43779993 -4.4375 8 C-3.9001142 4.31506879 -2.51917486 2.67662329 0 0 Z " fill="#353535" transform="translate(294,155)"/>
<path d="M0 0 C0.33 0 0.66 0 1 0 C2.3354635 9.3372076 3.2709758 18.43511335 2.75 27.875 C2.71140869 28.62894043 2.67281738 29.38288086 2.63305664 30.15966797 C2.37716394 33.85141393 2.01460911 36.84598083 0 40 C-0.33 38.02 -0.66 36.04 -1 34 C-2.53521956 36.30282933 -3.58357909 38.17862235 -4.625 40.6875 C-5.305625 42.3271875 -5.305625 42.3271875 -6 44 C-6.33 44 -6.66 44 -7 44 C-6.96519531 43.31035156 -6.93039062 42.62070313 -6.89453125 41.91015625 C-6.70344137 35.27660763 -7.53266573 30.13637539 -10 24 C-10.33 23.01 -10.66 22.02 -11 21 C-9.125 21.25 -9.125 21.25 -7 22 C-5.75 24.0625 -5.75 24.0625 -5 26 C-4.34 26 -3.68 26 -3 26 C-2.34 27.65 -1.68 29.3 -1 31 C-0.67 31 -0.34 31 0 31 C0 20.77 0 10.54 0 0 Z M-6 38 C-5 40 -5 40 -5 40 Z " fill="#9A90A4" transform="translate(323,118)"/>
<path d="M0 0 C0.33 0 0.66 0 1 0 C1.33 5.94 1.66 11.88 2 18 C3.59328125 17.83628906 5.1865625 17.67257812 6.828125 17.50390625 C15.46517293 16.78415226 24.09069295 16.89202405 32.75 16.9375 C34.42968616 16.94252803 36.10937378 16.94708862 37.7890625 16.95117188 C41.85941196 16.96206736 45.92968929 16.97925916 50 17 C50 17.33 50 17.66 50 18 C36.8 18.33 23.6 18.66 10 19 C10 19.66 10 20.32 10 21 C11.65 21 13.3 21 15 21 C15 21.33 15 21.66 15 22 C10.71 21.67 6.42 21.34 2 21 C2 24.96 2 28.92 2 33 C1.67 33 1.34 33 1 33 C1.01160156 32.07316406 1.02320312 31.14632813 1.03515625 30.19140625 C1.04417969 28.99386719 1.05320312 27.79632813 1.0625 26.5625 C1.07410156 25.36753906 1.08570312 24.17257812 1.09765625 22.94140625 C1.33901792 20.11126659 1.33901792 20.11126659 0 19 C-0.08651611 17.58429877 -0.10704904 16.164405 -0.09765625 14.74609375 C-0.09443359 13.89208984 -0.09121094 13.03808594 -0.08789062 12.15820312 C-0.07951172 11.26037109 -0.07113281 10.36253906 -0.0625 9.4375 C-0.05798828 8.53580078 -0.05347656 7.63410156 -0.04882812 6.70507812 C-0.03700225 4.46998686 -0.0205222 2.23502563 0 0 Z " fill="#B3B3B3" transform="translate(118,409)"/>
<path d="M0 0 C0.33 0 0.66 0 1 0 C1.06058594 0.62648438 1.12117188 1.25296875 1.18359375 1.8984375 C1.30927734 3.12433594 1.30927734 3.12433594 1.4375 4.375 C1.55931641 5.59316406 1.55931641 5.59316406 1.68359375 6.8359375 C1.89090114 9.04272805 1.89090114 9.04272805 3 11 C2.01 11.33 1.02 11.66 0 12 C-0.474375 13.155 -0.94875 14.31 -1.4375 15.5 C-1.953125 16.655 -2.46875 17.81 -3 19 C-4.875 19.625 -4.875 19.625 -7 20 C-8.68662458 21.64646685 -10.35511706 23.31183067 -12 25 C-12.66 25 -13.32 25 -14 25 C-14.2475 25.598125 -14.495 26.19625 -14.75 26.8125 C-16.16370012 29.28647521 -17.65055383 30.43370255 -20 32 C-20.66 31.34 -21.32 30.68 -22 30 C-21.20335937 29.31035156 -20.40671875 28.62070313 -19.5859375 27.91015625 C-10.19715065 19.64464955 -4.23424818 11.93061692 0 0 Z " fill="#251F29" transform="translate(269,97)"/>
<path d="M0 0 C-1.98 0.99 -1.98 0.99 -4 2 C16.295 2.495 16.295 2.495 37 3 C37 3.33 37 3.66 37 4 C6.31 4.495 6.31 4.495 -25 5 C-25 4.34 -25 3.68 -25 3 C-24.34 3 -23.68 3 -23 3 C-22.67 2.34 -22.34 1.68 -22 1 C-14.8320953 -0.40184114 -7.27319321 -0.12661265 0 0 Z " fill="#707070" transform="translate(104,319)"/>
<path d="M0 0 C1.04296234 0.10277504 1.04296234 0.10277504 2.10699463 0.20762634 C10.32114938 0.96101927 18.48899449 1.20993373 26.734375 1.31640625 C28.10728486 1.33704127 29.4801893 1.3580391 30.85308838 1.37937927 C34.42362007 1.43392548 37.99420244 1.48362488 41.56481934 1.53222656 C45.22554909 1.58294222 48.88620749 1.63836381 52.546875 1.69335938 C59.69785452 1.80011261 66.84889841 1.9017326 74 2 C74 2.33 74 2.66 74 3 C52.88 3 31.76 3 10 3 C10 3.66 10 4.32 10 5 C11.423125 4.938125 11.423125 4.938125 12.875 4.875 C16 5 16 5 18 7 C7.44191344 6.03644647 7.44191344 6.03644647 3 5 C3.99 4.34 4.98 3.68 6 3 C3.03 2.505 3.03 2.505 0 2 C0 1.34 0 0.68 0 0 Z " fill="#DCDCDC" transform="translate(68,342)"/>
<path d="M0 0 C2.4491462 3.6737193 2.69807436 6.90728551 3.125 11.1875 C3.20991699 12.00452393 3.29483398 12.82154785 3.38232422 13.66333008 C4.37926306 24.41803353 4.18005595 35.2118784 4 46 C3.34 46 2.68 46 2 46 C1.91697632 44.3125769 1.91697632 44.3125769 1.83227539 42.59106445 C1.62542235 38.40695175 1.41366252 34.22309917 1.20043945 30.03930664 C1.10893605 28.23045437 1.01875336 26.42153477 0.92993164 24.61254883 C0.80183709 22.00843673 0.66895382 19.4046058 0.53515625 16.80078125 C0.49656998 15.99538406 0.4579837 15.18998688 0.41822815 14.36018372 C0.25226645 11.20252031 0.04978395 8.2391302 -0.59594727 5.13745117 C-1 3 -1 3 0 0 Z " fill="#AE95C4" transform="translate(185,152)"/>
<path d="M0 0 C0.66 0 1.32 0 2 0 C1.37240135 2.92879371 0.41377341 5.36095629 -1 8 C0.98 8 2.96 8 5 8 C5.33 9.32 5.66 10.64 6 12 C-1.28695785 12.474377 -5.97181491 12.28670939 -12 8 C-12 7.67 -12 7.34 -12 7 C-7.545 6.505 -7.545 6.505 -3 6 C-2.67 5.01 -2.34 4.02 -2 3 C-1.34 3 -0.68 3 0 3 C0 2.01 0 1.02 0 0 Z " fill="#CAAEE8" transform="translate(181,223)"/>
<path d="M0 0 C0 0.66 0 1.32 0 2 C-0.94101563 2.32613281 -1.88203125 2.65226562 -2.8515625 2.98828125 C-4.09679687 3.42527344 -5.34203125 3.86226563 -6.625 4.3125 C-7.85476562 4.74175781 -9.08453125 5.17101562 -10.3515625 5.61328125 C-14.00803256 6.92299035 -14.00803256 6.92299035 -17.3359375 8.73046875 C-18.21507812 9.14941406 -19.09421875 9.56835938 -20 10 C-20.66 9.67 -21.32 9.34 -22 9 C-22.625 6.9375 -22.625 6.9375 -23 5 C-20.9170757 4.35284867 -18.83364461 3.70732834 -16.75 3.0625 C-15.58984375 2.70285156 -14.4296875 2.34320313 -13.234375 1.97265625 C-8.56201866 0.56756358 -4.91009531 -0.11159308 0 0 Z " fill="#3C3C3C" transform="translate(147,270)"/>
<path d="M0 0 C0.33 0 0.66 0 1 0 C1.33 3.96 1.66 7.92 2 12 C3.32 11.67 4.64 11.34 6 11 C7.80581755 10.92008896 9.61431809 10.89230177 11.421875 10.90234375 C12.44667969 10.90556641 13.47148437 10.90878906 14.52734375 10.91210938 C15.59082031 10.92048828 16.65429688 10.92886719 17.75 10.9375 C18.82894531 10.94201172 19.90789062 10.94652344 21.01953125 10.95117188 C23.67974383 10.96294273 26.33984365 10.97938601 29 11 C29.33 10.01 29.66 9.02 30 8 C30.33 9.65 30.66 11.3 31 13 C21.1 13 11.2 13 1 13 C0.18279507 9.73118027 -0.11073543 7.53000931 -0.0625 4.25 C-0.05347656 3.45078125 -0.04445313 2.6515625 -0.03515625 1.828125 C-0.02355469 1.22484375 -0.01195312 0.6215625 0 0 Z " fill="#989898" transform="translate(342,385)"/>
<path d="M0 0 C-1.57525387 3.375544 -2.68349125 5.50186155 -6.3125 6.875 C-9.3514979 8.14713866 -11.45382454 9.93553341 -14 12 C-14.66 12 -15.32 12 -16 12 C-16.28875 12.61875 -16.5775 13.2375 -16.875 13.875 C-18 16 -18 16 -20 18 C-20.33 16.68 -20.66 15.36 -21 14 C-6.14893617 0 -6.14893617 0 0 0 Z " fill="#BDA2D9" transform="translate(186,79)"/>
<path d="M0 0 C-0.99 0 -1.98 0 -3 0 C-3.2475 0.61875 -3.495 1.2375 -3.75 1.875 C-5.22221442 4.37776452 -6.31748828 4.9940581 -9 6 C-9.66 6 -10.32 6 -11 6 C-12.02196992 6.97753644 -13.01979625 7.9805881 -14 9 C-16.91765 10.9451 -18.62537285 11.45276317 -22 12 C-19.1998287 8.16052162 -16.47842446 5.7350311 -12.4375 3.25 C-11.48746094 2.65703125 -10.53742188 2.0640625 -9.55859375 1.453125 C-5.90687639 -0.62082746 -3.97776559 -1.23447898 0 0 Z " fill="#C0A2DD" transform="translate(157,40)"/>
<path d="M0 0 C6.61085476 0.48969295 11.94977014 2.33442742 18 5 C17.01 5.495 17.01 5.495 16 6 C16.66 7.32 17.32 8.64 18 10 C13.44102728 8.25686337 9.14896822 6.10518366 4.8125 3.875 C2.84359635 2.87694337 2.84359635 2.87694337 0 2 C0 1.34 0 0.68 0 0 Z " fill="#6C6C6C" transform="translate(302,270)"/>
<path d="M0 0 C-0.5775 0.226875 -1.155 0.45375 -1.75 0.6875 C-4.2118792 1.92469103 -4.2118792 1.92469103 -5.9375 4.625 C-8 7 -8 7 -10.75 7.3125 C-11.86375 7.1578125 -11.86375 7.1578125 -13 7 C-13.33 6.01 -13.66 5.02 -14 4 C-14.66 3.67 -15.32 3.34 -16 3 C-14.08802961 2.29954544 -12.17019565 1.615081 -10.25 0.9375 C-9.18265625 0.55464844 -8.1153125 0.17179687 -7.015625 -0.22265625 C-4.07719958 -0.98010011 -2.77651052 -1.07151741 0 0 Z M-16 7 C-15.01 7.33 -14.02 7.66 -13 8 C-13.99 8.33 -14.98 8.66 -16 9 C-16 8.34 -16 7.68 -16 7 Z " fill="#C9A7EB" transform="translate(210,71)"/>
<path d="M0 0 C6.6 0.66 13.2 1.32 20 2 C20 2.33 20 2.66 20 3 C16.7 3 13.4 3 10 3 C10 3.66 10 4.32 10 5 C11.423125 4.938125 11.423125 4.938125 12.875 4.875 C16 5 16 5 18 7 C7.44191344 6.03644647 7.44191344 6.03644647 3 5 C3.99 4.34 4.98 3.68 6 3 C3.03 2.505 3.03 2.505 0 2 C0 1.34 0 0.68 0 0 Z " fill="#858585" transform="translate(68,342)"/>
<path d="M0 0 C2.475 0.495 2.475 0.495 5 1 C1.95700799 3.34847383 -1.18940206 5.44572446 -4.4375 7.5 C-5.36433594 8.0878125 -6.29117188 8.675625 -7.24609375 9.28125 C-9.81392695 10.8838693 -12.39910885 12.45173811 -15 14 C-13.79618552 11.50638429 -12.54571278 9.31856917 -11 7 C-9.68 7 -8.36 7 -7 7 C-7 6.34 -7 5.68 -7 5 C-5.5459375 4.5978125 -5.5459375 4.5978125 -4.0625 4.1875 C-3.051875 3.795625 -2.04125 3.40375 -1 3 C-0.67 2.01 -0.34 1.02 0 0 Z " fill="#C4A8DE" transform="translate(181,69)"/>
<path d="M0 0 C0.61328125 1.828125 0.61328125 1.828125 1 4 C-0.8125 6.75 -0.8125 6.75 -3 9 C-3.66 9 -4.32 9 -5 9 C-5.33 9.99 -5.66 10.98 -6 12 C-6.99 11.67 -7.98 11.34 -9 11 C-8.46324097 7.14896699 -6.88399077 5.68202413 -3.9375 3.25 C-3.20402344 2.63640625 -2.47054688 2.0228125 -1.71484375 1.390625 C-1.14894531 0.93171875 -0.58304687 0.4728125 0 0 Z " fill="#3D3D3D" transform="translate(263,115)"/>
<path d="M0 0 C3.53077646 5.29616468 3.75529654 12.71439659 3 19 C2.34 19.66 1.68 20.32 1 21 C0.93941406 20.11957031 0.87882813 19.23914063 0.81640625 18.33203125 C0.73261719 17.17058594 0.64882812 16.00914062 0.5625 14.8125 C0.48128906 13.66394531 0.40007812 12.51539063 0.31640625 11.33203125 C0.07479393 8.07997428 0.07479393 8.07997428 -0.59765625 5.26171875 C-1 3 -1 3 0 0 Z " fill="#BB9FD9" transform="translate(185,152)"/>
<path d="M0 0 C0 0.66 0 1.32 0 2 C-1.78910903 2.52955234 -3.58139148 3.0483937 -5.375 3.5625 C-6.87160156 3.99755859 -6.87160156 3.99755859 -8.3984375 4.44140625 C-11 5 -11 5 -13 4 C-14.32860925 3.64830932 -15.66158328 3.31229724 -17 3 C-5.47835991 -0.44419134 -5.47835991 -0.44419134 0 0 Z " fill="#999999" transform="translate(147,270)"/>
<path d="M0 0 C1.11375 0.598125 2.2275 1.19625 3.375 1.8125 C4.00148438 2.14894531 4.62796875 2.48539062 5.2734375 2.83203125 C7 4 7 4 9 7 C5.32831864 7 2.45689963 6.21631654 -1 5 C-1.33 4.01 -1.66 3.02 -2 2 C-1.34 2 -0.68 2 0 2 C0 1.34 0 0.68 0 0 Z " fill="#CCAAEC" transform="translate(291,80)"/>
<path d="M0 0 C2.19413151 3.29119726 2.2045464 3.75125478 1.7578125 7.44921875 C1.66113281 8.29677734 1.56445312 9.14433594 1.46484375 10.01757812 C1.29662109 11.33918945 1.29662109 11.33918945 1.125 12.6875 C1.02058594 13.58017578 0.91617188 14.47285156 0.80859375 15.39257812 C0.54931018 17.59648849 0.27941634 19.79856669 0 22 C-0.33 22 -0.66 22 -1 22 C-1.02700675 19.08327116 -1.04684237 16.16679323 -1.0625 13.25 C-1.07087891 12.425 -1.07925781 11.6 -1.08789062 10.75 C-1.09111328 9.95078125 -1.09433594 9.1515625 -1.09765625 8.328125 C-1.10289307 7.5949707 -1.10812988 6.86181641 -1.11352539 6.10644531 C-0.9975109 3.9538151 -0.59073271 2.0685865 0 0 Z " fill="#D2B5EF" transform="translate(137,146)"/>
<path d="M0 0 C2 3 2 3 2 7 C-2.95 8.485 -2.95 8.485 -8 10 C-8.66 8.68 -9.32 7.36 -10 6 C-5.25 4.875 -5.25 4.875 -3 6 C-2.34 5.67 -1.68 5.34 -1 5 C-0.34444881 2.47266765 -0.34444881 2.47266765 0 0 Z " fill="#CEACEF" transform="translate(194,60)"/>
<path d="M0 0 C0.33 0 0.66 0 1 0 C2.20443195 7.05453001 3.28100502 13.83437211 3 21 C-0.20726252 16.18910622 -0.11575794 12.50185764 -0.0625 6.75 C-0.05347656 5.48671875 -0.04445312 4.2234375 -0.03515625 2.921875 C-0.02355469 1.95765625 -0.01195312 0.9934375 0 0 Z " fill="#C7AAE3" transform="translate(136,168)"/>
<path d="M0 0 C0 0.66 0 1.32 0 2 C-1.72807318 2.33895656 -3.45751974 2.67091525 -5.1875 3 C-6.63189453 3.2784375 -6.63189453 3.2784375 -8.10546875 3.5625 C-10.7934206 3.96877612 -13.28771019 4.07933572 -16 4 C-10.75543553 -0.3080351 -6.5705829 -0.10950972 0 0 Z " fill="#C5A9E1" transform="translate(213,140)"/>
<path d="M0 0 C-5.0020928 2.5010464 -8.01749819 3.01254858 -13.625 2.5625 C-14.33140625 2.51029297 -15.0378125 2.45808594 -15.765625 2.40429688 C-17.51079987 2.27458793 -19.25545725 2.13795046 -21 2 C-21 1.67 -21 1.34 -21 1 C-13.97195301 0.14626761 -7.07721931 -0.12109311 0 0 Z " fill="#9E9E9E" transform="translate(104,319)"/>
<path d="M0 0 C2.55803184 3.83704776 4.34505724 7.75712791 3.625 12.4375 C3.41875 12.953125 3.2125 13.46875 3 14 C3 13.34 3 12.68 3 12 C2.34 12 1.68 12 1 12 C0.63762737 10.37681021 0.28534843 8.7513642 -0.0625 7.125 C-0.25972656 6.22007813 -0.45695312 5.31515625 -0.66015625 4.3828125 C-1 2 -1 2 0 0 Z " fill="#B69BCE" transform="translate(316,111)"/>
<path d="M0 0 C0.33 0 0.66 0 1 0 C1.06058594 0.62648438 1.12117188 1.25296875 1.18359375 1.8984375 C1.26738281 2.71570313 1.35117187 3.53296875 1.4375 4.375 C1.51871094 5.18710938 1.59992188 5.99921875 1.68359375 6.8359375 C1.89090114 9.04272805 1.89090114 9.04272805 3 11 C1.68 11.33 0.36 11.66 -1 12 C-1.92470553 7.28400182 -2.22923777 4.32734391 0 0 Z " fill="#1C0F1E" transform="translate(269,97)"/>
<path d="M0 0 C0.66 0.33 1.32 0.66 2 1 C-1.75 4 -1.75 4 -4 4 C-4.433125 4.928125 -4.433125 4.928125 -4.875 5.875 C-6 8 -6 8 -8 10 C-8.33 8.68 -8.66 7.36 -9 6 C-3.375 1.125 -3.375 1.125 0 0 Z " fill="#C6A7E4" transform="translate(174,87)"/>
<path d="M0 0 C2.530472 0.33739627 3.6818563 0.6061078 5.3125 2.625 C6.27383682 5.94598174 5.64496692 8.64617202 5 12 C4 10 4 10 3 8 C2.195625 6.453125 2.195625 6.453125 1.375 4.875 C0 2 0 2 0 0 Z " fill="#C7AAE3" transform="translate(312,139)"/>
<path d="M0 0 C2.97 0 5.94 0 9 0 C9.33 0.66 9.66 1.32 10 2 C9.67 2.66 9.34 3.32 9 4 C4.53159589 3.50351065 3.31012244 3.31012244 0 0 Z " fill="#C0A4DA" transform="translate(134,108)"/>
<path d="M0 0 C1.2065625 0.0309375 1.2065625 0.0309375 2.4375 0.0625 C1.65375 0.68125 0.87 1.3 0.0625 1.9375 C-2.53087647 3.96108661 -2.53087647 3.96108661 -4.5625 6.0625 C-5.2225 5.4025 -5.8825 4.7425 -6.5625 4.0625 C-8.55071313 3.66485737 -10.55194339 3.32474651 -12.5625 3.0625 C-12.5625 2.7325 -12.5625 2.4025 -12.5625 2.0625 C-11.60537109 1.97162109 -11.60537109 1.97162109 -10.62890625 1.87890625 C-9.38947266 1.75322266 -9.38947266 1.75322266 -8.125 1.625 C-7.30128906 1.54378906 -6.47757812 1.46257812 -5.62890625 1.37890625 C-2.92478859 0.96485421 -2.90505598 0.07085502 0 0 Z " fill="#888888" transform="translate(336.5625,479.9375)"/>
<path d="M0 0 C0 3 0 3 -2.25 5.625 C-4.85730848 7.87676642 -5.80056111 8.38472329 -9 9 C-8.06725891 7.87105124 -7.12859878 6.74699124 -6.1875 5.625 C-5.66542969 4.99851562 -5.14335937 4.37203125 -4.60546875 3.7265625 C-3 2 -3 2 0 0 Z " fill="#21172A" transform="translate(164,85)"/>
<path d="M0 0 C6.70518586 -0.19818283 12.65176798 -0.30844801 19 2 C18.34 2.66 17.68 3.32 17 4 C16.01 4 15.02 4 14 4 C14 3.34 14 2.68 14 2 C7.07 1.505 7.07 1.505 0 1 C0 0.67 0 0.34 0 0 Z " fill="#B699CE" transform="translate(158,38)"/>
<path d="M0 0 C0.33 0.99 0.66 1.98 1 3 C5.455 2.505 5.455 2.505 10 2 C9.01 3.485 9.01 3.485 8 5 C6.0546875 5.29296875 6.0546875 5.29296875 3.875 5.1875 C2.59625 5.125625 1.3175 5.06375 0 5 C0 3.35 0 1.7 0 0 Z " fill="#5C5C5C" transform="translate(56,371)"/>
<path d="M0 0 C1.258125 0.12375 2.51625 0.2475 3.8125 0.375 C4.87404297 0.47941406 4.87404297 0.47941406 5.95703125 0.5859375 C8 1 8 1 11 3 C9.02 3.66 7.04 4.32 5 5 C4.34 4.34 3.68 3.68 3 3 C2.01 2.67 1.02 2.34 0 2 C0 1.34 0 0.68 0 0 Z " fill="#AEAEAE" transform="translate(302,270)"/>
<path d="M0 0 C0.66 0.33 1.32 0.66 2 1 C1.60404157 2.48484412 1.18249294 3.9628831 0.75 5.4375 C0.51796875 6.26121094 0.2859375 7.08492188 0.046875 7.93359375 C-1 10 -1 10 -3.109375 10.78515625 C-3.73328125 10.85605469 -4.3571875 10.92695312 -5 11 C-3.55049545 7.2089881 -1.84827434 3.6125362 0 0 Z " fill="#C2A5DB" transform="translate(149,112)"/>
<path d="M0 0 C1.32 0 2.64 0 4 0 C4.33 2.64 4.66 5.28 5 8 C3.33333333 6.33333333 1.66666667 4.66666667 0 3 C0 2.01 0 1.02 0 0 Z " fill="#646265" transform="translate(269,108)"/>
<path d="M0 0 C1.125 1.6875 1.125 1.6875 2 4 C1.125 6.75 1.125 6.75 0 9 C-0.66 8.67 -1.32 8.34 -2 8 C-1.125 1.125 -1.125 1.125 0 0 Z " fill="#BFA3DC" transform="translate(140,135)"/>
<path d="M0 0 C3.63 0.33 7.26 0.66 11 1 C10.67 2.32 10.34 3.64 10 5 C9.67 4.34 9.34 3.68 9 3 C6.66752239 2.66073053 4.33414529 2.32759934 2 2 C1.34 1.34 0.68 0.68 0 0 Z " fill="#838186" transform="translate(130,113)"/>
<path d="M0 0 C0.99 0 1.98 0 3 0 C1.6302836 3.99500618 -0.25722422 6.80009492 -3 10 C-2.67 8.02 -2.34 6.04 -2 4 C-1.34 4 -0.68 4 0 4 C0 2.68 0 1.36 0 0 Z " fill="#C2A8DE" transform="translate(263,105)"/>
<path d="M0 0 C1.60156595 4.00391487 0.4087561 7.07031192 -1 11 C-1.99 11.495 -1.99 11.495 -3 12 C-2.49202991 7.6822542 -1.80317221 3.96697886 0 0 Z " fill="#AE95C5" transform="translate(128,62)"/>
<path d="M0 0 C1.98 1.65 3.96 3.3 6 5 C5.34 5.66 4.68 6.32 4 7 C3.01 7 2.02 7 1 7 C0.67 4.69 0.34 2.38 0 0 Z " fill="#0F0913" transform="translate(273,109)"/>
<path d="M0 0 C-0.33 1.32 -0.66 2.64 -1 4 C-2.32 4.33 -3.64 4.66 -5 5 C-5.33 3.35 -5.66 1.7 -6 0 C-3.50907189 -1.24546405 -2.58919267 -0.7767578 0 0 Z " fill="#696969" transform="translate(130,275)"/>
<path d="M0 0 C1.15224028 0.92961422 2.29659176 1.8690125 3.4375 2.8125 C4.07558594 3.33457031 4.71367187 3.85664063 5.37109375 4.39453125 C7 6 7 6 8 9 C4.20620942 7.50958227 2.31656242 5.30937488 0 2 C0 1.34 0 0.68 0 0 Z " fill="#DEDBE0" transform="translate(301,138)"/>
<path d="M0 0 C-0.66 1.65 -1.32 3.3 -2 5 C-4.97 4.505 -4.97 4.505 -8 4 C-2.7826087 0 -2.7826087 0 0 0 Z " fill="#BFA1DD" transform="translate(194,75)"/>
<path d="M0 0 C4.8 2.46153846 4.8 2.46153846 5.8125 5.1875 C5.874375 5.785625 5.93625 6.38375 6 7 C5.01 7 4.02 7 3 7 C0 2.77777778 0 2.77777778 0 0 Z " fill="#C9ADE7" transform="translate(161,218)"/>
<path d="M0 0 C2.4294516 3.6441774 2.16179575 5.71241272 2 10 C0.4375 8.9375 0.4375 8.9375 -1 7 C-0.6875 3.3125 -0.6875 3.3125 0 0 Z " fill="#B79CCE" transform="translate(185,152)"/>
<path d="M0 0 C0.33 0.99 0.66 1.98 1 3 C-0.8125 5.6875 -0.8125 5.6875 -3 8 C-3.66 8 -4.32 8 -5 8 C-3.62845496 5.04590299 -2.01136276 2.55991624 0 0 Z " fill="#BDA2D6" transform="translate(158,100)"/>
<path d="M0 0 C1.46726798 3.81489674 0.43336419 6.29011622 -1 10 C-1.33 10 -1.66 10 -2 10 C-2.25 3.375 -2.25 3.375 0 0 Z " fill="#C0A8DC" transform="translate(185,213)"/>
<path d="M0 0 C1.65 0 3.3 0 5 0 C6.125 3.75 6.125 3.75 5 6 C3.35 4.02 1.7 2.04 0 0 Z " fill="#C4A9E0" transform="translate(273,108)"/>
<path d="M0 0 C2.475 0.99 2.475 0.99 5 2 C3.02 4.97 3.02 4.97 1 8 C-0.26041675 5.4791665 0.33774109 4.64903564 1 2 C0.67 1.34 0.34 0.68 0 0 Z " fill="#6C6C6C" transform="translate(194,241)"/>
<path d="M0 0 C2 3 2 3 2 6 C1.34 6 0.68 6 0 6 C0 7.98 0 9.96 0 12 C-0.33 12 -0.66 12 -1 12 C-1.14285714 3.42857143 -1.14285714 3.42857143 0 0 Z " fill="#9A84AD" transform="translate(137,146)"/>
<path d="M0 0 C0.99 0.33 1.98 0.66 3 1 C1.10646634 2.89353366 -0.84526801 4.4198632 -3 6 C-3.66 5.34 -4.32 4.68 -5 4 C-2.6875 1.9375 -2.6875 1.9375 0 0 Z " fill="#0D0512" transform="translate(252,123)"/>
<path d="M0 0 C0.99 0.66 1.98 1.32 3 2 C1.02 3.32 -0.96 4.64 -3 6 C-3 5.34 -3 4.68 -3 4 C-3.66 3.67 -4.32 3.34 -5 3 C-3.35 2.67 -1.7 2.34 0 2 C0 1.34 0 0.68 0 0 Z " fill="#BEA3DB" transform="translate(250,121)"/>
<path d="M0 0 C1.32 0.33 2.64 0.66 4 1 C4 1.66 4 2.32 4 3 C4.99 3.33 5.98 3.66 7 4 C6.01 4.66 5.02 5.32 4 6 C2.68 4.02 1.36 2.04 0 0 Z " fill="#BDA2D6" transform="translate(128,102)"/>
<path d="M0 0 C2 3 2 3 2 7 C0.35 7.33 -1.3 7.66 -3 8 C-3 7.34 -3 6.68 -3 6 C-2.34 5.67 -1.68 5.34 -1 5 C-0.34444881 2.47266765 -0.34444881 2.47266765 0 0 Z " fill="#A28AB4" transform="translate(194,60)"/>
</svg>
