<?xml version="1.0" encoding="UTF-8"?>
<svg version="1.1" xmlns="http://www.w3.org/2000/svg" width="446" height="559">
<path d="M0 0 C9.06027021 0.03270856 17.71842755 0.96574809 26.52978516 3.09033203 C27.43129303 3.30692474 28.3328009 3.52351746 29.2616272 3.74667358 C39.48718233 6.30574686 49.28205234 9.91748786 59.13134766 13.63720703 C60.9512598 14.3127657 62.77157191 14.9872479 64.59228516 15.66064453 C71.71305159 18.30574218 78.79564814 20.96668445 85.75634766 24.01220703 C85.43383123 28.60806609 85.10963266 31.81581346 82.56884766 35.69970703 C81.97072266 36.79283203 81.37259766 37.88595703 80.75634766 39.01220703 C81.44566432 41.56932076 81.44566432 41.56932076 82.75634766 44.01220703 C83.3928135 47.76028364 83.46447774 49.99161223 81.26025391 53.16845703 C79.49172891 55.19803249 77.67461188 57.12432255 75.75634766 59.01220703 C75.09634766 59.67220703 74.43634766 60.33220703 73.75634766 61.01220703 C74.17955575 63.61183122 74.71540768 66.02604772 75.38916016 68.56298828 C75.58118011 69.32535294 75.77320007 70.08771759 75.97103882 70.8731842 C76.38400039 72.50991963 76.80196031 74.14540035 77.22436523 75.77972412 C78.31531071 80.00576959 79.36780356 84.24132085 80.42041016 88.47705078 C80.62752625 89.30775085 80.83464233 90.13845093 81.04803467 90.99432373 C83.34188317 100.26025528 85.21767053 109.59188263 86.75634766 119.01220703 C86.94583984 120.11048828 87.13533203 121.20876953 87.33056641 122.34033203 C90.3146706 148.07480853 85.71162111 171.32325733 69.75634766 192.01220703 C62.0861827 201.61357741 50.18843352 208.02829832 38.75634766 212.01220703 C40.40634766 214.98220703 42.05634766 217.95220703 43.75634766 221.01220703 C44.95130859 220.97740234 46.14626953 220.94259766 47.37744141 220.90673828 C66.33788925 220.5142608 66.33788925 220.5142608 73.75634766 226.38720703 C75.81781768 229.09288643 76.57411142 230.64083662 76.75634766 234.01220703 C76.42634766 234.67220703 76.09634766 235.33220703 75.75634766 236.01220703 C76.80822266 235.95033203 77.86009766 235.88845703 78.94384766 235.82470703 C92.57326726 235.92068886 105.99246966 241.58989011 115.86572266 250.96533203 C135.47323482 272.19329974 142.58529752 301.53357691 150.77514648 328.51733398 C156.32512315 347.08777857 156.32512315 347.08777857 165.81884766 363.82470703 C166.6889199 365.06657584 167.55482496 366.31137483 168.41650391 367.55908203 C168.82143066 368.14496094 169.22635742 368.73083984 169.64355469 369.33447266 C172.09313469 373.02765251 173.98829839 376.95881897 175.75634766 381.01220703 C176.18947266 381.96095703 176.62259766 382.90970703 177.06884766 383.88720703 C178.61285057 390.90540209 178.78610552 397.46425036 175.50634766 403.94970703 C173.52068882 408.31401968 173.86645066 410.4173489 175.50634766 414.88720703 C180.53315515 428.77233002 178.8160231 443.76646942 172.75634766 457.01220703 C166.58634199 469.90470681 155.84677244 491.63064714 142.94384766 498.51220703 C141.86103516 499.25470703 141.86103516 499.25470703 140.75634766 500.01220703 C140.08968099 503.01220703 140.08968099 503.01220703 140.75634766 506.01220703 C141.25134766 506.50720703 141.74634766 507.00220703 142.25634766 507.51220703 C143.75634766 509.01220703 143.75634766 509.01220703 144.06884766 512.07470703 C143.75634766 515.01220703 143.75634766 515.01220703 141.75634766 517.01220703 C138.94384766 517.44970703 138.94384766 517.44970703 135.75634766 517.01220703 C132.88134766 514.88720703 132.88134766 514.88720703 130.75634766 512.01220703 C130.44384766 508.69970703 130.44384766 508.69970703 130.75634766 506.01220703 C129.75776733 506.3305249 129.75776733 506.3305249 128.73901367 506.65527344 C121.92422066 508.69023393 115.78903069 509.49355227 108.69384766 509.38720703 C107.69216553 509.37705566 106.6904834 509.3669043 105.65844727 509.35644531 C96.45087483 509.16729381 87.73379681 508.0004268 78.75634766 506.01220703 C77.92248535 505.8347998 77.08862305 505.65739258 76.22949219 505.47460938 C50.81292089 499.96714061 25.26757955 491.53592078 1.56542969 480.81884766 C-1.1976099 479.58685268 -4.00286807 478.4614581 -6.80615234 477.32470703 C-11.26447031 475.49039211 -15.49147835 473.38399246 -19.69677734 471.02783203 C-24.91469426 468.94706762 -29.18583483 468.33148172 -34.41552734 470.35595703 C-35.95188612 471.05238108 -37.47747777 471.77286991 -38.99365234 472.51220703 C-39.83855225 472.90730469 -40.68345215 473.30240234 -41.55395508 473.70947266 C-50.5123893 477.98019588 -59.21634514 482.75287804 -67.93896484 487.48071289 C-113.24273218 512.01220703 -113.24273218 512.01220703 -132.24365234 512.01220703 C-132.18177734 513.12595703 -132.11990234 514.23970703 -132.05615234 515.38720703 C-132.11802734 516.58345703 -132.17990234 517.77970703 -132.24365234 519.01220703 C-135.24365234 521.01220703 -135.24365234 521.01220703 -138.30615234 520.82470703 C-141.24365234 520.01220703 -141.24365234 520.01220703 -143.24365234 517.01220703 C-143.36865234 514.32470703 -143.36865234 514.32470703 -143.24365234 512.01220703 C-144.16984375 511.86525391 -144.16984375 511.86525391 -145.11474609 511.71533203 C-160.31449393 509.0316627 -173.01653975 500.89960646 -182.15380859 488.39892578 C-205.13715879 451.87812975 -197.53563147 401.72782654 -188.69152832 361.97680664 C-184.15846058 342.09258961 -177.77619107 322.94595995 -170.24365234 304.01220703 C-169.9360498 303.23103516 -169.62844727 302.44986328 -169.31152344 301.64501953 C-158.39738088 274.25465826 -142.06975392 244.78251949 -116.24365234 229.01220703 C-115.31746094 228.41666016 -115.31746094 228.41666016 -114.37255859 227.80908203 C-106.81225126 223.45174361 -97.5917954 222.62671624 -89.06787109 221.40673828 C-81.39280846 220.24677465 -75.82236057 218.65497438 -69.60693359 213.73486328 C-64.49386833 210.00781902 -58.26176002 207.50990241 -51.86865234 208.07470703 C-48.42555844 208.96516235 -46.21131652 210.13064676 -43.24365234 212.01220703 C-39.38386196 204.15522273 -36.19639676 196.55974617 -34.24365234 188.01220703 C-35.10216797 187.63515625 -35.10216797 187.63515625 -35.97802734 187.25048828 C-45.09829403 182.2657908 -50.23162099 172.69011264 -55.24365234 164.01220703 C-55.90365234 163.02220703 -56.56365234 162.03220703 -57.24365234 161.01220703 C-59.71159653 160.76121287 -59.71159653 160.76121287 -62.49365234 161.01220703 C-68.1651315 161.13791126 -71.63357641 160.50278552 -75.86474609 156.46533203 C-81.22409374 150.65615905 -82.51958285 145.42271818 -82.43115234 137.51220703 C-82.42470703 136.24376953 -82.41826172 134.97533203 -82.41162109 133.66845703 C-82.24365234 130.01220703 -82.24365234 130.01220703 -81.62255859 126.87158203 C-81.17986952 123.53087686 -81.74150752 121.86534856 -82.99365234 118.76220703 C-91.65283179 94.70227244 -93.00492221 61.5734396 -84.43896484 37.38720703 C-81.9354704 32.41294356 -78.43565499 29.16917212 -74.05615234 25.82470703 C-70.61837175 23.36129715 -70.61837175 23.36129715 -68.24365234 20.01220703 C-67.58365234 20.01220703 -66.92365234 20.01220703 -66.24365234 20.01220703 C-66.24365234 19.35220703 -66.24365234 18.69220703 -66.24365234 18.01220703 C-50.03633794 2.56149944 -21.26174699 0.11567871 0 0 Z M-46.55615234 55.26220703 C-50.03759963 59.70438158 -52.18250075 64.1992338 -52.30615234 69.88720703 C-51.25167059 72.98862397 -49.92048868 75.25070148 -48.18115234 78.01220703 C-46.45135379 80.82260614 -45.28210075 82.85520936 -44.49365234 86.07470703 C-45.48870794 89.97200813 -47.4755026 92.73381766 -49.83349609 95.96142578 C-54.91298844 103.34849914 -52.31291966 115.55353877 -51.24365234 124.01220703 C-54.24365234 124.01220703 -54.24365234 124.01220703 -56.93115234 122.44970703 C-61.08532712 120.64695194 -63.96443169 120.56751288 -68.24365234 122.01220703 C-72.54485949 125.40789688 -73.27474599 129.96330149 -74.05224609 135.16064453 C-74.44620739 141.02986378 -73.53379572 145.29201587 -69.99365234 150.01220703 C-64.56681661 153.95899665 -59.52159506 152.98637056 -53.24365234 152.01220703 C-52.91365234 153.10533203 -52.58365234 154.19845703 -52.24365234 155.32470703 C-47.89036386 166.89260038 -37.69412118 178.50531134 -27.24365234 185.01220703 C-24.48404197 186.30295075 -24.48404197 186.30295075 -22.24365234 187.01220703 C-22.57365234 188.66220703 -22.90365234 190.31220703 -23.24365234 192.01220703 C-25.55365234 192.01220703 -27.86365234 192.01220703 -30.24365234 192.01220703 C-30.33001953 192.72763672 -30.41638672 193.44306641 -30.50537109 194.18017578 C-31.65518364 202.33435096 -34.11039247 209.42469619 -37.24365234 217.01220703 C-37.57365234 218.00220703 -37.90365234 218.99220703 -38.24365234 220.01220703 C-20.18005046 227.33366693 -3.06749473 231.38492705 16.50634766 231.26220703 C18.38 231.27380859 18.38 231.27380859 20.29150391 231.28564453 C27.10136195 231.27126257 33.18092209 230.80550491 39.75634766 229.01220703 C39.26263672 228.03638672 38.76892578 227.06056641 38.26025391 226.05517578 C37.61301235 224.77007298 36.96588278 223.48491378 36.31884766 222.19970703 C35.99335938 221.55710938 35.66787109 220.91451172 35.33251953 220.25244141 C33.9640209 217.52955237 32.72151501 214.90770909 31.75634766 212.01220703 C31.05251953 212.04701172 30.34869141 212.08181641 29.62353516 212.11767578 C16.3435168 212.48174939 5.41503383 210.20360474 -5.24365234 202.01220703 C-5.90365234 201.35220703 -6.56365234 200.69220703 -7.24365234 200.01220703 C-7.24365234 199.02220703 -7.24365234 198.03220703 -7.24365234 197.01220703 C-3.37410418 197.63837028 -0.18072791 198.83189104 3.38134766 200.44970703 C15.48627002 205.54263168 27.88585377 206.585015 40.50634766 202.32470703 C56.65834509 195.69338844 67.40936522 184.49754673 74.29541016 168.41845703 C77.98260217 158.49969489 80.14990738 148.91508974 80.13134766 138.32470703 C80.13118652 137.43984619 80.13102539 136.55498535 80.13085938 135.64331055 C79.9438276 124.37316935 79.25703195 110.07664587 73.75634766 100.01220703 C73.75634766 101.00220703 73.75634766 101.99220703 73.75634766 103.01220703 C73.11310547 102.80724609 72.46986328 102.60228516 71.80712891 102.39111328 C65.3224707 100.45774158 59.26693664 99.58894914 52.50634766 99.32080078 C49.75634766 99.01220703 49.75634766 99.01220703 46.75634766 97.01220703 C47.06884766 95.13720703 47.06884766 95.13720703 47.75634766 93.01220703 C51.52627585 90.49892157 54.39720958 90.41044049 58.75634766 91.01220703 C64.46701182 92.69589829 69.36125501 94.91012056 73.75634766 99.01220703 C73.12860575 92.8682275 71.88287066 87.10938106 70.28759766 81.14892578 C70.04722778 80.2351265 69.80685791 79.32132721 69.5592041 78.37983704 C68.79639966 75.48516381 68.02636835 72.59246794 67.25634766 69.69970703 C66.73896936 67.73823745 66.2220379 65.77664995 65.70556641 63.81494141 C64.76087568 60.23637518 63.8159398 56.65788288 62.86376953 53.08129883 C62.67359253 52.36596481 62.48341553 51.6506308 62.28747559 50.91362 C61.82697853 49.26506224 61.29762394 47.63603589 60.75634766 46.01220703 C56.02053882 46.52210975 53.06050413 47.78784187 49.13134766 50.44970703 C39.83495826 56.68636042 39.83495826 56.68636042 32.75634766 56.01220703 C27.71700375 54.55104636 22.90603204 52.48911315 18.06494141 50.48095703 C-0.88243986 42.64132472 -30.6090068 38.23389907 -46.55615234 55.26220703 Z M-65.24365234 221.01220703 C-65.24365234 221.67220703 -65.24365234 222.33220703 -65.24365234 223.01220703 C-65.90365234 223.01220703 -66.56365234 223.01220703 -67.24365234 223.01220703 C-67.24365234 223.67220703 -67.24365234 224.33220703 -67.24365234 225.01220703 C-67.90365234 225.01220703 -68.56365234 225.01220703 -69.24365234 225.01220703 C-68.77162748 229.26043077 -66.27709717 231.21210412 -63.24365234 234.01220703 C-63.01548828 233.27357422 -62.78732422 232.53494141 -62.55224609 231.77392578 C-60.97574004 228.4467921 -59.22424877 227.0400607 -56.30615234 224.82470703 C-55.43087891 224.15052734 -54.55560547 223.47634766 -53.65380859 222.78173828 C-51.88209525 221.48095036 -50.07246357 220.23141452 -48.24365234 219.01220703 C-48.24365234 218.35220703 -48.24365234 217.69220703 -48.24365234 217.01220703 C-47.58365234 216.68220703 -46.92365234 216.35220703 -46.24365234 216.01220703 C-53.76188636 214.56131976 -59.376279 215.61422355 -65.24365234 221.01220703 Z M-51.74365234 228.88720703 C-54.6942604 232.53390924 -56.71156532 234.62385643 -61.24365234 236.01220703 C-57.58950781 239.88697916 -53.80317676 242.94791701 -49.36865234 245.88720703 C-48.72532959 246.31630371 -48.08200684 246.74540039 -47.41918945 247.1875 C-40.70255591 251.55026064 -33.59165913 254.86455022 -26.24365234 258.01220703 C-26.06713135 257.39176514 -25.89061035 256.77132324 -25.70874023 256.13208008 C-24.90857018 253.32109138 -24.10737301 250.51039645 -23.30615234 247.69970703 C-23.02835938 246.72324219 -22.75056641 245.74677734 -22.46435547 244.74072266 C-22.06313477 243.3340332 -22.06313477 243.3340332 -21.65380859 241.89892578 C-21.40767822 241.03485107 -21.16154785 240.17077637 -20.90795898 239.28051758 C-20.39034743 237.51310525 -19.82603264 235.75934791 -19.24365234 234.01220703 C-23.69865234 233.02220703 -23.69865234 233.02220703 -28.24365234 232.01220703 C-28.93201172 233.00800781 -28.93201172 233.00800781 -29.63427734 234.02392578 C-30.89582835 235.8393931 -32.16565627 237.64913141 -33.44287109 239.45361328 C-34.76132932 241.32691076 -36.04430575 243.22531825 -37.30615234 245.13720703 C-39.24365234 247.01220703 -39.24365234 247.01220703 -42.49365234 247.32470703 C-43.40115234 247.22158203 -44.30865234 247.11845703 -45.24365234 247.01220703 C-45.04676031 239.13652573 -38.58820302 234.14297568 -33.24365234 229.01220703 C-34.6314772 228.16560363 -36.02934631 227.33545364 -37.43115234 226.51220703 C-38.20845703 226.04814453 -38.98576172 225.58408203 -39.78662109 225.10595703 C-45.6620444 222.49050627 -47.87429214 224.07775579 -51.74365234 228.88720703 Z M-125.24365234 246.01220703 C-165.80032343 287.94064788 -185.81793844 366.69909986 -185.47583008 423.6015625 C-185.10444839 445.8508717 -182.346021 473.51945946 -166.17724609 490.33642578 C-158.10935828 497.32859522 -147.66159012 501.82980587 -136.84521484 501.35205078 C-102.41494277 496.85440263 -68.83085345 475.48657988 -39.09179688 458.80517578 C-6.35993419 440.51448527 25.81737808 426.18892112 62.75634766 419.01220703 C62.99223783 413.24026943 62.62267346 408.49036176 60.75634766 402.94970703 C60.38509766 401.82435547 60.01384766 400.69900391 59.63134766 399.53955078 C59.34259766 398.70552734 59.05384766 397.87150391 58.75634766 397.01220703 C35.56737916 397.86947019 12.67393548 402.60027099 -9.72894287 408.37231445 C-12.56309153 409.09349148 -15.40231126 409.79244819 -18.2421875 410.49072266 C-23.78870964 411.8607843 -29.31634393 413.29374269 -34.83782959 414.7612915 C-37.05012398 415.34088945 -39.26703683 415.90316205 -41.48834229 416.44720459 C-54.05324029 418.9068886 -54.05324029 418.9068886 -64.00830078 426.10253906 C-65.71052319 429.35134411 -66.97668144 432.57601614 -68.24365234 436.01220703 C-70.1508409 438.7695951 -72.33304246 441.18957923 -74.61865234 443.63720703 C-78.64685867 447.8622175 -78.64685867 447.8622175 -81.24365234 453.01220703 C-81.90365234 453.01220703 -82.56365234 453.01220703 -83.24365234 453.01220703 C-84.17177734 453.94033203 -84.17177734 453.94033203 -85.11865234 454.88720703 C-88.52074491 458.2892996 -91.39225889 459.32426606 -96.18115234 459.44970703 C-100.21948399 459.39625852 -100.95816594 459.25517418 -104.18115234 456.51220703 C-104.86177734 455.68720703 -105.54240234 454.86220703 -106.24365234 454.01220703 C-110.4990332 454.01220703 -112.55458404 456.22238313 -115.89208984 458.69970703 C-118.61086663 460.21716384 -120.17655017 460.37819737 -123.24365234 460.01220703 C-125.48536585 458.23429632 -126.14419164 456.81721709 -126.49365234 453.98876953 C-126.63077685 448.96658457 -125.85737087 444.75250522 -124.24365234 440.01220703 C-124.96810547 440.44533203 -125.69255859 440.87845703 -126.43896484 441.32470703 C-127.40576172 441.88158203 -128.37255859 442.43845703 -129.36865234 443.01220703 C-130.31998047 443.56908203 -131.27130859 444.12595703 -132.25146484 444.69970703 C-135.52725004 446.13660498 -137.70576556 446.34035885 -141.24365234 446.01220703 C-142.24365234 445.01220703 -142.24365234 445.01220703 -142.26318359 443.11376953 C-141.03411888 428.41137281 -134.38605621 418.35966728 -124.24365234 408.01220703 C-123.35468262 407.34958862 -123.35468262 407.34958862 -122.44775391 406.67358398 C-118.99824962 404.08379 -116.90115359 402.26981947 -116.07958984 397.93017578 C-115.89811299 396.35631311 -115.74607766 394.77886514 -115.61865234 393.19970703 C-115.41529451 391.43074491 -115.20531989 389.66253455 -114.98974609 387.89501953 C-114.87872559 386.95303711 -114.76770508 386.01105469 -114.65332031 385.04052734 C-113.90470747 379.50668127 -112.7867568 374.04645125 -111.68115234 368.57470703 C-111.36573486 366.96728638 -111.36573486 366.96728638 -111.04394531 365.32739258 C-110.84043457 364.31717041 -110.63692383 363.30694824 -110.42724609 362.26611328 C-110.15738892 360.92528687 -110.15738892 360.92528687 -109.88208008 359.55737305 C-109.22077345 356.92099768 -108.3087342 354.50994053 -107.24365234 352.01220703 C-106.58365234 352.01220703 -105.92365234 352.01220703 -105.24365234 352.01220703 C-101.36248418 359.77454336 -105.13503501 372.26119382 -106.24365234 380.63720703 C-106.43693816 382.13322628 -106.62965087 383.6293197 -106.82177734 385.12548828 C-107.28913641 388.75527273 -107.76422589 392.38399433 -108.24365234 396.01220703 C-107.51339844 395.8050708 -106.78314453 395.59793457 -106.03076172 395.38452148 C-105.05945313 395.11341553 -104.08814453 394.84230957 -103.08740234 394.56298828 C-102.13027344 394.29397705 -101.17314453 394.02496582 -100.18701172 393.74780273 C-97.37323998 393.04459319 -94.6163366 392.58219768 -91.74365234 392.19970703 C-89.30996485 391.81509146 -89.30996485 391.81509146 -87.24365234 391.01220703 C-85.27636273 388.16154974 -85.27636273 388.16154974 -84.24365234 385.01220703 C-79.51821391 380.59163559 -74.52606293 380.87010259 -68.36474609 380.90283203 C-64.20822751 381.04849226 -60.09808516 381.48808445 -55.97021484 381.98876953 C-52.57263447 382.01013796 -49.71397134 381.63307574 -46.38037109 381.05517578 C-38.3881337 379.74437603 -30.50226237 379.659644 -22.43115234 379.69970703 C-21.66829926 379.70152985 -20.90544617 379.70335266 -20.11947632 379.70523071 C23.55820561 379.88011233 23.55820561 379.88011233 38.75634766 390.01220703 C41.41826437 390.04704127 43.92606432 389.96826267 46.56884766 389.76220703 C47.26816406 389.72224609 47.96748047 389.68228516 48.68798828 389.64111328 C53.01288173 389.3417287 56.65299638 388.49513079 60.75634766 387.01220703 C66.64836444 386.44566696 72.4002965 387.48917972 77.75634766 390.01220703 C78.51302734 390.78564453 79.26970703 391.55908203 80.04931641 392.35595703 C83.36906078 395.61342626 86.78235164 397.33999355 90.94384766 399.32470703 C91.66765625 399.68371094 92.39146484 400.04271484 93.13720703 400.41259766 C96.77633856 402.33697184 96.77633856 402.33697184 100.75634766 403.01220703 C100.96916645 391.87777456 100.3224753 380.97014032 99.31884766 369.88720703 C99.182171 368.33127082 99.04610144 366.77528116 98.91064453 365.21923828 C98.84421249 364.45813248 98.77778046 363.69702667 98.70933533 362.91285706 C98.57698101 361.39475393 98.44478813 359.87663672 98.3127594 358.35850525 C98.03106018 355.12548248 97.74506191 351.89356398 97.43774414 348.6628418 C96.59331777 339.17334757 96.64360074 329.71723197 96.69384766 320.19970703 C96.6988771 318.52457817 96.70343743 316.84944784 96.70751953 315.17431641 C96.71840058 311.12024264 96.73558395 307.06624173 96.75634766 303.01220703 C97.41634766 303.01220703 98.07634766 303.01220703 98.75634766 303.01220703 C100.79485582 314.95034993 102.61389883 326.92201948 104.42895508 338.89575195 C106.12153949 350.0375822 106.12153949 350.0375822 108.00244141 361.14892578 C110.40228669 374.87871793 111.28342137 388.27774568 111.34155273 402.19311523 C111.4042972 409.61081482 111.95067366 416.26157685 114.21313477 423.36816406 C114.85950084 426.51429644 114.44371714 428.8980723 113.75634766 432.01220703 C101.7730178 436.74914683 88.8273938 436.29601708 76.75634766 432.01220703 C73.99338205 430.68147258 71.28478655 429.32265789 68.61962891 427.80517578 C60.74978078 425.62566805 51.14553921 430.80963224 43.81884766 433.44970703 C42.5989917 433.88782715 41.37913574 434.32594727 40.12231445 434.77734375 C19.21890074 442.35608039 -2.00651457 450.77613812 -21.24365234 462.01220703 C-4.55085611 473.14073786 16.17597106 477.90873814 35.12713623 483.83786011 C36.92985969 484.40196773 38.7320085 484.96791588 40.5335083 485.53591919 C57.61039749 490.90684082 74.89627931 495.96071058 92.75634766 497.82470703 C93.80959229 497.94088379 94.86283691 498.05706055 95.94799805 498.17675781 C114.91587579 500.22840235 114.91587579 500.22840235 132.19384766 493.19970703 C137.79088947 488.50922833 142.06536395 482.70874889 146.38330078 476.86621094 C147.70436071 475.0824042 149.04853347 473.31832553 150.39697266 471.55517578 C163.49151698 454.15963087 169.45440685 437.83302027 168.75634766 416.01220703 C165.81415345 415.78322874 165.81415345 415.78322874 163.69384766 417.07470703 C163.05447266 417.38408203 162.41509766 417.69345703 161.75634766 418.01220703 C161.09634766 417.68220703 160.43634766 417.35220703 159.75634766 417.01220703 C160.08460871 412.19771163 161.30892966 408.5026978 163.25634766 404.07470703 C166.49229217 396.5116274 167.56110213 391.33785084 164.81298828 383.44506836 C162.97055122 379.20295068 160.23970257 375.65537862 157.50634766 371.94970703 C144.44831782 353.47214453 138.87043449 332.3025515 133.20846558 310.60824585 C127.16645095 287.46671713 119.85482838 260.3505528 98.49853516 246.51220703 C91.01204873 242.41703497 83.30216512 239.51490218 74.75634766 239.01220703 C74.40443359 239.64126953 74.05251953 240.27033203 73.68994141 240.91845703 C64.77778825 256.36929174 53.07548942 264.85778611 36.22900391 270.13720703 C8.14926863 277.21241592 -21.86953104 269.4210609 -46.23876953 255.00830078 C-52.13384126 251.33678427 -57.11342458 246.95499858 -62.02099609 242.06689453 C-63.98394352 239.78593506 -63.98394352 239.78593506 -66.24365234 240.01220703 C-66.48986328 239.47080078 -66.73607422 238.92939453 -66.98974609 238.37158203 C-68.53031631 235.4728144 -70.37298799 232.91460677 -72.30615234 230.26220703 C-73.01900391 229.27736328 -73.73185547 228.29251953 -74.46630859 227.27783203 C-75.05283203 226.53017578 -75.63935547 225.78251953 -76.24365234 225.01220703 C-95.59783747 225.01220703 -111.71813887 232.8064353 -125.24365234 246.01220703 Z M57.75634766 228.01220703 C58.38451263 231.96170407 59.62090056 235.21112732 61.31884766 238.82470703 C61.77388672 239.80052734 62.22892578 240.77634766 62.69775391 241.78173828 C63.04708984 242.51779297 63.39642578 243.25384766 63.75634766 244.01220703 C67.65270719 239.23602437 68.89104295 237.20819058 68.75634766 231.01220703 C67.11101978 230.51054626 65.46507066 230.01092256 63.81884766 229.51220703 C62.90232422 229.23376953 61.98580078 228.95533203 61.04150391 228.66845703 C58.99240921 227.96620322 58.99240921 227.96620322 57.75634766 228.01220703 Z M-10.24365234 237.01220703 C-14.20365234 243.94220703 -18.16365234 250.87220703 -22.24365234 258.01220703 C-18.7125386 261.54332077 -15.68948053 262.16823024 -10.99365234 263.19970703 C-9.88570312 263.46557617 -9.88570312 263.46557617 -8.75537109 263.73681641 C-3.95495963 264.83320668 -0.39209345 265.01220703 4.75634766 265.01220703 C4.75634766 256.43220703 4.75634766 247.85220703 4.75634766 239.01220703 C-5.03617564 236.89295007 -5.03617564 236.89295007 -10.24365234 237.01220703 Z M41.00634766 237.01220703 C39.52908203 237.29064453 39.52908203 237.29064453 38.02197266 237.57470703 C37.27431641 237.71908203 36.52666016 237.86345703 35.75634766 238.01220703 C35.5960177 243.89097199 36.14709425 249.24608798 37.25634766 255.01220703 C37.39943359 255.78693359 37.54251953 256.56166016 37.68994141 257.35986328 C38.03907095 259.24516282 38.39680081 261.12886642 38.75634766 263.01220703 C45.47031657 261.15546784 50.30948133 258.09689192 55.38134766 253.44970703 C55.91405273 252.96655029 56.44675781 252.48339355 56.99560547 251.9855957 C58.31692078 250.72869776 59.54504489 249.37544296 60.75634766 248.01220703 C60.75634766 247.02220703 60.75634766 246.03220703 60.75634766 245.01220703 C58.13783523 242.58506944 58.13783523 242.58506944 54.75634766 242.01220703 C54.75634766 241.35220703 54.75634766 240.69220703 54.75634766 240.01220703 C53.04849811 237.80411735 53.04849811 237.80411735 50.75634766 236.01220703 C47.27658263 236.01220703 44.40096405 236.36561343 41.00634766 237.01220703 Z M13.11962891 241.19775391 C11.32988203 243.57980956 11.14948677 245.38562708 10.80712891 248.33642578 C10.68144531 249.36445313 10.55576172 250.39248047 10.42626953 251.45166016 C10.30832031 252.52351562 10.19037109 253.59537109 10.06884766 254.69970703 C9.93929687 255.78316406 9.80974609 256.86662109 9.67626953 257.98291016 C9.35806247 260.65820656 9.05191827 263.33433093 8.75634766 266.01220703 C11.42329714 266.06675827 14.08910263 266.10614095 16.75634766 266.13720703 C17.50013672 266.15396484 18.24392578 266.17072266 19.01025391 266.18798828 C24.26183208 266.23365418 28.70804226 265.46933154 33.75634766 264.01220703 C33.13534293 261.13629193 32.50968601 258.26152076 31.88134766 255.38720703 C31.70732422 254.57896484 31.53330078 253.77072266 31.35400391 252.93798828 C30.38564541 248.52657735 29.28642495 244.27161139 27.75634766 240.01220703 C25.65281271 239.93118643 23.54838814 239.87300796 21.44384766 239.82470703 C20.27208984 239.78990234 19.10033203 239.75509766 17.89306641 239.71923828 C14.84620498 239.7355193 14.84620498 239.7355193 13.11962891 241.19775391 Z M-40.24365234 385.01220703 C-37.3695945 386.9282456 -34.54480155 388.34033842 -31.43115234 389.82470703 C-24.98474767 393.02455283 -20.50877688 396.15229679 -16.24365234 402.01220703 C-8.8342582 400.61884751 -1.54540469 398.88397603 5.75634766 397.01220703 C13.0581 395.14043803 20.34695352 393.40556655 27.75634766 392.01220703 C14.42038297 385.12684811 -2.36581165 384.74973004 -17.05615234 384.32470703 C-18.30074219 384.27765625 -19.54533203 384.23060547 -20.82763672 384.18212891 C-27.42654352 383.96880971 -33.70628503 384.07223962 -40.24365234 385.01220703 Z M-82.24365234 390.01220703 C-82.24365234 390.34220703 -82.24365234 390.67220703 -82.24365234 391.01220703 C-78.28365234 391.34220703 -74.32365234 391.67220703 -70.24365234 392.01220703 C-69.25365234 390.36220703 -68.26365234 388.71220703 -67.24365234 387.01220703 C-73.08539634 386.66170239 -77.09683314 386.84493368 -82.24365234 390.01220703 Z M-64.24365234 393.01220703 C-60.38982473 395.58142544 -56.9082511 397.52868155 -52.24365234 398.01220703 C-48.59720119 396.81698137 -45.46679779 395.07798084 -42.24365234 393.01220703 C-49.96216662 387.86653085 -56.90152839 387.41820783 -64.24365234 393.01220703 Z M61.75634766 390.01220703 C62.33809611 395.32089193 62.33809611 395.32089193 64.75634766 400.01220703 C68.71634766 399.35220703 72.67634766 398.69220703 76.75634766 398.01220703 C73.5970405 393.1416085 70.22940336 391.39451884 64.75634766 390.01220703 C63.76634766 390.01220703 62.77634766 390.01220703 61.75634766 390.01220703 Z M-120.05615234 409.82470703 C-121.13331572 411.20925606 -122.1956741 412.6054382 -123.24365234 414.01220703 C-124.15244141 415.08148438 -124.15244141 415.08148438 -125.07958984 416.17236328 C-129.3207364 421.24563353 -132.65026952 426.52151522 -134.24365234 433.01220703 C-133.91365234 434.00220703 -133.58365234 434.99220703 -133.24365234 436.01220703 C-126.4834429 431.00464448 -119.55977189 425.7412096 -114.68505859 418.78955078 C-114.20939453 418.20302734 -113.73373047 417.61650391 -113.24365234 417.01220703 C-110.55615234 416.76220703 -110.55615234 416.76220703 -108.24365234 417.01220703 C-107.12532989 419.79872198 -107.23905439 420.99758367 -108.15576172 423.91308594 C-108.62820312 425.01056152 -109.10064453 426.10803711 -109.58740234 427.23876953 C-110.09142578 428.43501953 -110.59544922 429.63126953 -111.11474609 430.86376953 C-111.65674764 432.12199911 -112.19972829 433.37980734 -112.74365234 434.63720703 C-113.80508644 437.10483609 -114.85495111 439.57652569 -115.89990234 442.05126953 C-116.37234375 443.14648926 -116.84478516 444.24170898 -117.33154297 445.37011719 C-117.63253906 446.24200684 -117.93353516 447.11389648 -118.24365234 448.01220703 C-117.91365234 448.67220703 -117.58365234 449.33220703 -117.24365234 450.01220703 C-112.02402582 445.54220772 -108.19143018 440.75672192 -104.80615234 434.82470703 C-104.46455078 434.23093262 -104.12294922 433.6371582 -103.77099609 433.02539062 C-101.9489725 429.71926956 -100.74473453 426.75973722 -100.24365234 423.01220703 C-97.93365234 423.01220703 -95.62365234 423.01220703 -93.24365234 423.01220703 C-92.15206011 426.28513278 -92.34000428 428.14371303 -93.45849609 431.38330078 C-93.73242188 432.20507812 -94.00634766 433.02685547 -94.28857422 433.87353516 C-94.583125 434.72367187 -94.87767578 435.57380859 -95.18115234 436.44970703 C-95.75954675 438.1335914 -96.33138148 439.81974608 -96.89599609 441.50830078 C-97.15372803 442.25265381 -97.41145996 442.99700684 -97.67700195 443.76391602 C-98.30447776 446.25354322 -98.34074832 448.4547834 -98.24365234 451.01220703 C-95.11855196 451.3330138 -93.60726024 451.24320499 -90.91943359 449.53564453 C-84.87215149 444.03811535 -80.14324156 438.16139978 -75.56787109 431.44189453 C-75.18445557 430.88236084 -74.80104004 430.32282715 -74.40600586 429.74633789 C-73.60696147 428.55423281 -72.83252221 427.34538137 -72.0793457 426.1237793 C-69.14745353 421.57687691 -66.7460928 419.85806221 -61.43115234 418.19970703 C-60.20525391 417.80783203 -58.97935547 417.41595703 -57.71630859 417.01220703 C-53.90381592 415.91434637 -50.118415 414.86465482 -46.24365234 414.01220703 C-55.82184119 403.50709668 -68.58239392 398.11269003 -82.60302734 396.78955078 C-95.60071567 396.30107557 -111.10358203 399.83761748 -120.05615234 409.82470703 Z M-33.24365234 397.01220703 C-34.23365234 397.67220703 -35.22365234 398.33220703 -36.24365234 399.01220703 C-37.95810124 399.44959399 -39.69033018 399.82069391 -41.43115234 400.13720703 C-42.78273437 400.38857422 -42.78273437 400.38857422 -44.16162109 400.64501953 C-44.84869141 400.76619141 -45.53576172 400.88736328 -46.24365234 401.01220703 C-45.48052734 401.75470703 -44.71740234 402.49720703 -43.93115234 403.26220703 C-41.80428215 405.43853933 -39.98765675 407.53388499 -38.24365234 410.01220703 C-34.5819276 409.38542532 -31.36175284 408.36768857 -27.93115234 406.94970703 C-26.60664063 406.40636719 -26.60664063 406.40636719 -25.25537109 405.85205078 C-24.59150391 405.57490234 -23.92763672 405.29775391 -23.24365234 405.01220703 C-26.35381689 401.72431879 -29.25984159 399.17484715 -33.24365234 397.01220703 Z M87.75634766 401.01220703 C88.03349609 402.08599609 88.31064453 403.15978516 88.59619141 404.26611328 C88.96226861 405.70226232 89.32814323 407.13846302 89.69384766 408.57470703 C89.87625 409.27917969 90.05865234 409.98365234 90.24658203 410.70947266 C91.36789906 415.13357801 92.19091095 419.48276141 92.75634766 424.01220703 C95.72634766 424.01220703 98.69634766 424.01220703 101.75634766 424.01220703 C101.52238189 416.52530249 99.90884598 412.44968867 94.75634766 407.01220703 C92.50421108 404.89970292 90.18954478 402.91269236 87.75634766 401.01220703 Z M67.75634766 404.01220703 C68.41634766 407.31220703 69.07634766 410.61220703 69.75634766 414.01220703 C74.47234584 414.93691256 77.42900374 415.24144481 81.75634766 413.01220703 C82.17415645 410.63915125 82.17415645 410.63915125 81.75634766 408.01220703 C77.69901032 404.34751525 72.98023667 404.4020495 67.75634766 404.01220703 Z " fill="#252525" transform="translate(230.24365234375,28.98779296875)"/>
<path d="M0 0 C9.06027021 0.03270856 17.71842755 0.96574809 26.52978516 3.09033203 C27.43129303 3.30692474 28.3328009 3.52351746 29.2616272 3.74667358 C39.48718233 6.30574686 49.28205234 9.91748786 59.13134766 13.63720703 C60.9512598 14.3127657 62.77157191 14.9872479 64.59228516 15.66064453 C71.71305159 18.30574218 78.79564814 20.96668445 85.75634766 24.01220703 C85.43383123 28.60806609 85.10963266 31.81581346 82.56884766 35.69970703 C81.97072266 36.79283203 81.37259766 37.88595703 80.75634766 39.01220703 C81.44566432 41.56932076 81.44566432 41.56932076 82.75634766 44.01220703 C83.3928135 47.76028364 83.46447774 49.99161223 81.26025391 53.16845703 C79.49172891 55.19803249 77.67461188 57.12432255 75.75634766 59.01220703 C74.76634766 60.00220703 74.76634766 60.00220703 73.75634766 61.01220703 C74.17955575 63.61183122 74.71540768 66.02604772 75.38916016 68.56298828 C75.58118011 69.32535294 75.77320007 70.08771759 75.97103882 70.8731842 C76.38400039 72.50991963 76.80196031 74.14540035 77.22436523 75.77972412 C78.31531071 80.00576959 79.36780356 84.24132085 80.42041016 88.47705078 C80.62752625 89.30775085 80.83464233 90.13845093 81.04803467 90.99432373 C83.34188317 100.26025528 85.21767053 109.59188263 86.75634766 119.01220703 C86.94583984 120.11048828 87.13533203 121.20876953 87.33056641 122.34033203 C90.3146706 148.07480853 85.71162111 171.32325733 69.75634766 192.01220703 C62.0861827 201.61357741 50.18843352 208.02829832 38.75634766 212.01220703 C40.40634766 214.98220703 42.05634766 217.95220703 43.75634766 221.01220703 C44.95130859 220.97740234 46.14626953 220.94259766 47.37744141 220.90673828 C66.33788925 220.5142608 66.33788925 220.5142608 73.75634766 226.38720703 C75.81781768 229.09288643 76.57411142 230.64083662 76.75634766 234.01220703 C76.42634766 234.67220703 76.09634766 235.33220703 75.75634766 236.01220703 C77.55072266 235.98126953 77.55072266 235.98126953 79.38134766 235.94970703 C82.93639635 235.94338132 86.26190389 236.31331828 89.75634766 237.01220703 C89.75634766 237.34220703 89.75634766 237.67220703 89.75634766 238.01220703 C86.12634766 238.01220703 82.49634766 238.01220703 78.75634766 238.01220703 C79.74634766 238.67220703 80.73634766 239.33220703 81.75634766 240.01220703 C79.44634766 239.68220703 77.13634766 239.35220703 74.75634766 239.01220703 C74.50884766 239.71345703 74.26134766 240.41470703 74.00634766 241.13720703 C72.5677352 244.44601568 70.87880634 247.08665587 68.75634766 250.01220703 C68.31935547 250.62064453 67.88236328 251.22908203 67.43212891 251.85595703 C58.21149639 263.56174743 43.84687337 269.96085681 29.48291016 272.61767578 C0.18984243 275.71893348 -30.60609892 269.12406971 -54.06689453 250.5703125 C-57.62764458 247.55080449 -60.95998496 244.33156645 -64.24365234 241.01220703 C-65.13955078 240.13822266 -66.03544922 239.26423828 -66.95849609 238.36376953 C-69.2004957 236.0566178 -70.71419853 233.82962195 -72.24365234 231.01220703 C-71.25365234 230.68220703 -70.26365234 230.35220703 -69.24365234 230.01220703 C-68.91365234 229.35220703 -68.58365234 228.69220703 -68.24365234 228.01220703 C-66.26365234 230.48720703 -66.26365234 230.48720703 -64.24365234 233.01220703 C-63.84919922 232.27099609 -63.45474609 231.52978516 -63.04833984 230.76611328 C-61.10269914 227.7971161 -59.17863099 226.09776061 -56.36865234 223.94970703 C-55.52560547 223.29873047 -54.68255859 222.64775391 -53.81396484 221.97705078 C-52.96576172 221.32865234 -52.11755859 220.68025391 -51.24365234 220.01220703 C-50.35419922 219.27099609 -49.46474609 218.52978516 -48.54833984 217.76611328 C-46.24365234 216.01220703 -46.24365234 216.01220703 -44.24365234 216.01220703 C-42.51605129 211.74303904 -40.87034804 207.44553475 -39.24365234 203.13720703 C-38.98326172 202.45529297 -38.72287109 201.77337891 -38.45458984 201.07080078 C-36.82969488 196.76236717 -35.45040812 192.45631723 -34.24365234 188.01220703 C-34.81599609 187.76083984 -35.38833984 187.50947266 -35.97802734 187.25048828 C-45.09829403 182.2657908 -50.23162099 172.69011264 -55.24365234 164.01220703 C-55.90365234 163.02220703 -56.56365234 162.03220703 -57.24365234 161.01220703 C-59.71159653 160.76121287 -59.71159653 160.76121287 -62.49365234 161.01220703 C-68.1651315 161.13791126 -71.63357641 160.50278552 -75.86474609 156.46533203 C-81.22409374 150.65615905 -82.51958285 145.42271818 -82.43115234 137.51220703 C-82.42148438 135.60955078 -82.42148438 135.60955078 -82.41162109 133.66845703 C-82.24365234 130.01220703 -82.24365234 130.01220703 -81.62255859 126.87158203 C-81.17986952 123.53087686 -81.74150752 121.86534856 -82.99365234 118.76220703 C-91.65283179 94.70227244 -93.00492221 61.5734396 -84.43896484 37.38720703 C-81.9354704 32.41294356 -78.43565499 29.16917212 -74.05615234 25.82470703 C-70.61837175 23.36129715 -70.61837175 23.36129715 -68.24365234 20.01220703 C-67.58365234 20.01220703 -66.92365234 20.01220703 -66.24365234 20.01220703 C-66.24365234 19.35220703 -66.24365234 18.69220703 -66.24365234 18.01220703 C-50.03633794 2.56149944 -21.26174699 0.11567871 0 0 Z M-46.55615234 55.26220703 C-50.03759963 59.70438158 -52.18250075 64.1992338 -52.30615234 69.88720703 C-51.25167059 72.98862397 -49.92048868 75.25070148 -48.18115234 78.01220703 C-46.45135379 80.82260614 -45.28210075 82.85520936 -44.49365234 86.07470703 C-45.48870794 89.97200813 -47.4755026 92.73381766 -49.83349609 95.96142578 C-54.91298844 103.34849914 -52.31291966 115.55353877 -51.24365234 124.01220703 C-54.24365234 124.01220703 -54.24365234 124.01220703 -56.93115234 122.44970703 C-61.08532712 120.64695194 -63.96443169 120.56751288 -68.24365234 122.01220703 C-72.54485949 125.40789688 -73.27474599 129.96330149 -74.05224609 135.16064453 C-74.44620739 141.02986378 -73.53379572 145.29201587 -69.99365234 150.01220703 C-64.56681661 153.95899665 -59.52159506 152.98637056 -53.24365234 152.01220703 C-52.91365234 153.10533203 -52.58365234 154.19845703 -52.24365234 155.32470703 C-47.89036386 166.89260038 -37.69412118 178.50531134 -27.24365234 185.01220703 C-24.48404197 186.30295075 -24.48404197 186.30295075 -22.24365234 187.01220703 C-22.57365234 188.66220703 -22.90365234 190.31220703 -23.24365234 192.01220703 C-25.55365234 192.01220703 -27.86365234 192.01220703 -30.24365234 192.01220703 C-30.33001953 192.72763672 -30.41638672 193.44306641 -30.50537109 194.18017578 C-31.65518364 202.33435096 -34.11039247 209.42469619 -37.24365234 217.01220703 C-37.57365234 218.00220703 -37.90365234 218.99220703 -38.24365234 220.01220703 C-20.18005046 227.33366693 -3.06749473 231.38492705 16.50634766 231.26220703 C18.38 231.27380859 18.38 231.27380859 20.29150391 231.28564453 C27.10136195 231.27126257 33.18092209 230.80550491 39.75634766 229.01220703 C39.26263672 228.03638672 38.76892578 227.06056641 38.26025391 226.05517578 C37.61301235 224.77007298 36.96588278 223.48491378 36.31884766 222.19970703 C35.99335938 221.55710938 35.66787109 220.91451172 35.33251953 220.25244141 C33.9640209 217.52955237 32.72151501 214.90770909 31.75634766 212.01220703 C31.05251953 212.04701172 30.34869141 212.08181641 29.62353516 212.11767578 C16.3435168 212.48174939 5.41503383 210.20360474 -5.24365234 202.01220703 C-5.90365234 201.35220703 -6.56365234 200.69220703 -7.24365234 200.01220703 C-7.24365234 199.02220703 -7.24365234 198.03220703 -7.24365234 197.01220703 C-3.37410418 197.63837028 -0.18072791 198.83189104 3.38134766 200.44970703 C15.48627002 205.54263168 27.88585377 206.585015 40.50634766 202.32470703 C56.65834509 195.69338844 67.40936522 184.49754673 74.29541016 168.41845703 C77.98260217 158.49969489 80.14990738 148.91508974 80.13134766 138.32470703 C80.13118652 137.43984619 80.13102539 136.55498535 80.13085938 135.64331055 C79.9438276 124.37316935 79.25703195 110.07664587 73.75634766 100.01220703 C73.75634766 101.00220703 73.75634766 101.99220703 73.75634766 103.01220703 C73.11310547 102.80724609 72.46986328 102.60228516 71.80712891 102.39111328 C65.3224707 100.45774158 59.26693664 99.58894914 52.50634766 99.32080078 C49.75634766 99.01220703 49.75634766 99.01220703 46.75634766 97.01220703 C47.06884766 95.13720703 47.06884766 95.13720703 47.75634766 93.01220703 C51.52627585 90.49892157 54.39720958 90.41044049 58.75634766 91.01220703 C64.46701182 92.69589829 69.36125501 94.91012056 73.75634766 99.01220703 C73.12860575 92.8682275 71.88287066 87.10938106 70.28759766 81.14892578 C70.04722778 80.2351265 69.80685791 79.32132721 69.5592041 78.37983704 C68.79639966 75.48516381 68.02636835 72.59246794 67.25634766 69.69970703 C66.73896936 67.73823745 66.2220379 65.77664995 65.70556641 63.81494141 C64.76087568 60.23637518 63.8159398 56.65788288 62.86376953 53.08129883 C62.67359253 52.36596481 62.48341553 51.6506308 62.28747559 50.91362 C61.82697853 49.26506224 61.29762394 47.63603589 60.75634766 46.01220703 C56.02053882 46.52210975 53.06050413 47.78784187 49.13134766 50.44970703 C39.83495826 56.68636042 39.83495826 56.68636042 32.75634766 56.01220703 C27.71700375 54.55104636 22.90603204 52.48911315 18.06494141 50.48095703 C-0.88243986 42.64132472 -30.6090068 38.23389907 -46.55615234 55.26220703 Z M-51.74365234 228.88720703 C-54.6942604 232.53390924 -56.71156532 234.62385643 -61.24365234 236.01220703 C-57.58950781 239.88697916 -53.80317676 242.94791701 -49.36865234 245.88720703 C-48.72532959 246.31630371 -48.08200684 246.74540039 -47.41918945 247.1875 C-40.70255591 251.55026064 -33.59165913 254.86455022 -26.24365234 258.01220703 C-26.06713135 257.39176514 -25.89061035 256.77132324 -25.70874023 256.13208008 C-24.90857018 253.32109138 -24.10737301 250.51039645 -23.30615234 247.69970703 C-23.02835938 246.72324219 -22.75056641 245.74677734 -22.46435547 244.74072266 C-22.06313477 243.3340332 -22.06313477 243.3340332 -21.65380859 241.89892578 C-21.40767822 241.03485107 -21.16154785 240.17077637 -20.90795898 239.28051758 C-20.39034743 237.51310525 -19.82603264 235.75934791 -19.24365234 234.01220703 C-23.69865234 233.02220703 -23.69865234 233.02220703 -28.24365234 232.01220703 C-28.93201172 233.00800781 -28.93201172 233.00800781 -29.63427734 234.02392578 C-30.89582835 235.8393931 -32.16565627 237.64913141 -33.44287109 239.45361328 C-34.76132932 241.32691076 -36.04430575 243.22531825 -37.30615234 245.13720703 C-39.24365234 247.01220703 -39.24365234 247.01220703 -42.49365234 247.32470703 C-43.40115234 247.22158203 -44.30865234 247.11845703 -45.24365234 247.01220703 C-45.04676031 239.13652573 -38.58820302 234.14297568 -33.24365234 229.01220703 C-34.6314772 228.16560363 -36.02934631 227.33545364 -37.43115234 226.51220703 C-38.20845703 226.04814453 -38.98576172 225.58408203 -39.78662109 225.10595703 C-45.6620444 222.49050627 -47.87429214 224.07775579 -51.74365234 228.88720703 Z M57.75634766 228.01220703 C58.38451263 231.96170407 59.62090056 235.21112732 61.31884766 238.82470703 C61.77388672 239.80052734 62.22892578 240.77634766 62.69775391 241.78173828 C63.04708984 242.51779297 63.39642578 243.25384766 63.75634766 244.01220703 C67.65270719 239.23602437 68.89104295 237.20819058 68.75634766 231.01220703 C67.11101978 230.51054626 65.46507066 230.01092256 63.81884766 229.51220703 C62.90232422 229.23376953 61.98580078 228.95533203 61.04150391 228.66845703 C58.99240921 227.96620322 58.99240921 227.96620322 57.75634766 228.01220703 Z M-10.24365234 237.01220703 C-14.20365234 243.94220703 -18.16365234 250.87220703 -22.24365234 258.01220703 C-18.7125386 261.54332077 -15.68948053 262.16823024 -10.99365234 263.19970703 C-9.88570312 263.46557617 -9.88570312 263.46557617 -8.75537109 263.73681641 C-3.95495963 264.83320668 -0.39209345 265.01220703 4.75634766 265.01220703 C4.75634766 256.43220703 4.75634766 247.85220703 4.75634766 239.01220703 C-5.03617564 236.89295007 -5.03617564 236.89295007 -10.24365234 237.01220703 Z M41.00634766 237.01220703 C39.52908203 237.29064453 39.52908203 237.29064453 38.02197266 237.57470703 C37.27431641 237.71908203 36.52666016 237.86345703 35.75634766 238.01220703 C35.5960177 243.89097199 36.14709425 249.24608798 37.25634766 255.01220703 C37.39943359 255.78693359 37.54251953 256.56166016 37.68994141 257.35986328 C38.03907095 259.24516282 38.39680081 261.12886642 38.75634766 263.01220703 C45.47031657 261.15546784 50.30948133 258.09689192 55.38134766 253.44970703 C55.91405273 252.96655029 56.44675781 252.48339355 56.99560547 251.9855957 C58.31692078 250.72869776 59.54504489 249.37544296 60.75634766 248.01220703 C60.75634766 247.02220703 60.75634766 246.03220703 60.75634766 245.01220703 C58.13783523 242.58506944 58.13783523 242.58506944 54.75634766 242.01220703 C54.75634766 241.35220703 54.75634766 240.69220703 54.75634766 240.01220703 C53.04849811 237.80411735 53.04849811 237.80411735 50.75634766 236.01220703 C47.27658263 236.01220703 44.40096405 236.36561343 41.00634766 237.01220703 Z M13.11962891 241.19775391 C11.32988203 243.57980956 11.14948677 245.38562708 10.80712891 248.33642578 C10.68144531 249.36445313 10.55576172 250.39248047 10.42626953 251.45166016 C10.30832031 252.52351562 10.19037109 253.59537109 10.06884766 254.69970703 C9.93929687 255.78316406 9.80974609 256.86662109 9.67626953 257.98291016 C9.35806247 260.65820656 9.05191827 263.33433093 8.75634766 266.01220703 C11.42329714 266.06675827 14.08910263 266.10614095 16.75634766 266.13720703 C17.50013672 266.15396484 18.24392578 266.17072266 19.01025391 266.18798828 C24.26183208 266.23365418 28.70804226 265.46933154 33.75634766 264.01220703 C33.13534293 261.13629193 32.50968601 258.26152076 31.88134766 255.38720703 C31.70732422 254.57896484 31.53330078 253.77072266 31.35400391 252.93798828 C30.38564541 248.52657735 29.28642495 244.27161139 27.75634766 240.01220703 C25.65281271 239.93118643 23.54838814 239.87300796 21.44384766 239.82470703 C20.27208984 239.78990234 19.10033203 239.75509766 17.89306641 239.71923828 C14.84620498 239.7355193 14.84620498 239.7355193 13.11962891 241.19775391 Z " fill="#2C2C2D" transform="translate(230.24365234375,28.98779296875)"/>
<path d="M0 0 C2.10011092 -0.00959722 4.19919486 -0.04061788 6.29907227 -0.07226562 C20.49122867 -0.18706557 33.42504408 2.8008273 46.82446289 7.42773438 C48.54620728 8.01167969 48.54620728 8.01167969 50.30273438 8.60742188 C76.09260169 17.43680377 76.09260169 17.43680377 83.69946289 21.24023438 C82.71964214 24.98136815 81.60265612 27.5442573 79.01196289 30.36523438 C76.45789966 32.92561989 76.45789966 32.92561989 76.69946289 35.55273438 C77.65800495 37.59026536 77.65800495 37.59026536 80.69946289 38.24023438 C81.06404622 42.73676215 81.06404622 42.73676215 79.38696289 45.05273438 C77.69946289 46.24023438 77.69946289 46.24023438 74.69946289 46.24023438 C74.52930664 45.5415625 74.35915039 44.84289062 74.18383789 44.12304688 C73.94149414 43.21296875 73.69915039 42.30289063 73.44946289 41.36523438 C73.21743164 40.4603125 72.98540039 39.55539063 72.74633789 38.62304688 C71.90282734 36.14095242 71.90282734 36.14095242 69.83227539 34.93945312 C65.19373847 33.41876062 61.08957547 33.70121113 56.63696289 35.42773438 C53.74811619 37.21021425 51.01572599 39.10375892 48.31274414 41.15429688 C44.45195509 43.75308466 40.17448118 43.72930199 35.69946289 43.24023438 C32.76680687 42.38467722 30.04011126 41.1900982 27.26196289 39.92773438 C25.76410819 39.27994782 24.26541748 38.63409066 22.76586914 37.99023438 C22.05962402 37.6834375 21.35337891 37.37664062 20.62573242 37.06054688 C4.05125938 30.00221615 -14.83222236 28.22175569 -31.87084961 34.70117188 C-40.85454171 38.73257813 -46.34711731 44.80762685 -51.30053711 53.24023438 C-53.61158193 60.17336885 -52.17979288 65.4196496 -49.46850586 71.94335938 C-48.2873144 74.26623757 -46.92628381 76.20921558 -45.30053711 78.24023438 C-46.32529772 80.34721881 -47.38676671 82.38447298 -48.58959961 84.39648438 C-53.57634712 93.14516422 -53.05814823 101.57337319 -51.30053711 111.24023438 C-51.93991211 110.91023438 -52.57928711 110.58023438 -53.23803711 110.24023438 C-57.28305359 108.91941267 -61.11477733 108.29612767 -65.30053711 109.24023438 C-67.75360545 110.75833768 -70.03574142 112.45578868 -72.30053711 114.24023438 C-72.95464207 111.3043679 -73.59890319 108.36686577 -74.23803711 105.42773438 C-74.51164063 104.20666992 -74.51164063 104.20666992 -74.79077148 102.9609375 C-77.24474072 91.58344377 -77.5390018 80.21805982 -77.55053711 68.61523438 C-77.55154419 67.91045959 -77.55255127 67.20568481 -77.55358887 66.47955322 C-77.5257404 37.64082959 -77.5257404 37.64082959 -68.66772461 27.34179688 C-64.52275933 23.24023438 -64.52275933 23.24023438 -62.30053711 23.24023438 C-62.04014648 22.64984375 -61.77975586 22.05945313 -61.51147461 21.45117188 C-57.35037194 13.85380378 -48.20906713 9.01807922 -40.30053711 6.24023438 C-26.92240063 2.34056644 -13.93218192 0.0383147 0 0 Z " fill="#C6C7D8" transform="translate(225.300537109375,35.759765625)"/>
<path d="M0 0 C3 1 3 1 4 3 C4.80568722 11.71032201 3.17893863 20.51241811 2 29.125 C1.80669557 30.57283721 1.61398283 32.02075354 1.421875 33.46875 C0.95472752 36.98010422 0.47960693 40.49032321 0 44 C0.94101563 43.71125 1.88203125 43.4225 2.8515625 43.125 C4.09679687 42.75375 5.34203125 42.3825 6.625 42 C7.85476562 41.62875 9.08453125 41.2575 10.3515625 40.875 C13.73846826 40.06272281 16.53854429 39.82958987 20 40 C20.226875 39.0925 20.45375 38.185 20.6875 37.25 C22.20849961 33.48371524 23.61669295 32.17498311 27 30 C34.62756788 27.54312024 43.48541562 29.03192373 51.2734375 29.9765625 C54.67101787 29.99793093 57.52968101 29.62086871 60.86328125 29.04296875 C68.85551864 27.732169 76.74138997 27.64743696 84.8125 27.6875 C85.57535309 27.68932281 86.33820618 27.69114563 87.12417603 27.69302368 C130.80185796 27.8679053 130.80185796 27.8679053 146 38 C148.66191672 38.03483424 151.16971666 37.95605564 153.8125 37.75 C154.86147461 37.69005859 154.86147461 37.69005859 155.93164062 37.62890625 C160.25995566 37.32928482 163.88832859 36.46337585 168 35 C172.18509244 34.77973198 175.9283039 35.01292216 180 36 C180 36.33 180 36.66 180 37 C178.72125 37.12375 177.4425 37.2475 176.125 37.375 C172.65209064 37.69042399 172.65209064 37.69042399 170 40 C170.19890456 42.23344065 170.19890456 42.23344065 170.875 44.625 C171.18050781 45.85089844 171.18050781 45.85089844 171.4921875 47.1015625 C171.65976562 47.72804688 171.82734375 48.35453125 172 49 C169.03 48.505 169.03 48.505 166 48 C166 47.34 166 46.68 166 46 C142.94013104 48.89846782 120.28075869 52.67789787 97.72631836 58.31976318 C95.80428179 58.79932568 93.88115978 59.27454811 91.95727539 59.74664307 C85.27136276 61.38847475 78.60582501 63.09291352 71.95465088 64.87039185 C69.75223344 65.45221391 67.54559662 66.01831399 65.3348999 66.56784058 C53.27468302 69.108973 53.27468302 69.108973 43.484375 75.86108398 C42.0307733 78.86831665 41.02317363 81.82660905 40 85 C38.14970416 87.74682472 35.99826006 90.13629976 33.75 92.5625 C29.64467225 97.09515598 29.64467225 97.09515598 26 102 C25.34 102 24.68 102 24 102 C23.505 103.485 23.505 103.485 23 105 C18.1360907 108.62206012 14.36214031 109.63778974 8.3046875 109.3984375 C5.01107549 108.82903339 3.26025532 107.40152128 1 105 C0.01 104.01 0.01 104.01 -1 103 C-1.49628906 103.42152344 -1.99257812 103.84304688 -2.50390625 104.27734375 C-6.83300188 107.76854991 -10.17775626 110.33589868 -16 110 C-18.7325048 107.89807323 -19.81007937 106.31021197 -20.30859375 102.87109375 C-20.44248626 98.21636004 -19.7826405 94.34518621 -18 90 C-18.65226562 90.433125 -19.30453125 90.86625 -19.9765625 91.3125 C-28.92600423 97.01479915 -28.92600423 97.01479915 -34 96 C-36 94 -36 94 -36.1171875 92.00390625 C-34.66464748 77.36136571 -28.13874988 67.34373238 -18 57 C-17.40735352 56.55825439 -16.81470703 56.11650879 -16.20410156 55.66137695 C-12.75459728 53.07158297 -10.65750125 51.25761243 -9.8359375 46.91796875 C-9.65460723 45.34408918 -9.50256952 43.76664647 -9.375 42.1875 C-9.17016137 40.41725239 -8.95889578 38.64774005 -8.7421875 36.87890625 C-8.63100586 35.9367627 -8.51982422 34.99461914 -8.40527344 34.02392578 C-7.66690864 28.51465684 -6.58339638 23.0751145 -5.5 17.625 C-5.29810059 16.56176514 -5.09620117 15.49853027 -4.88818359 14.40307617 C-3.8420898 9.14357242 -2.7373034 4.6311354 0 0 Z M67 34 C69.87405785 35.91603856 72.69885079 37.32813138 75.8125 38.8125 C82.25890468 42.0123458 86.73487546 45.14008976 91 51 C98.40939414 49.60664048 105.69824765 47.871769 113 46 C120.30175235 44.128231 127.59060586 42.39335952 135 41 C121.66403531 34.11464108 104.87784069 33.73752301 90.1875 33.3125 C88.94291016 33.26544922 87.69832031 33.21839844 86.41601562 33.16992188 C79.81710882 32.95660268 73.53736732 33.06003259 67 34 Z M25 39 C25 39.33 25 39.66 25 40 C28.96 40.33 32.92 40.66 37 41 C37.99 39.35 38.98 37.7 40 36 C34.158256 35.64949536 30.1468192 35.83272665 25 39 Z M43 42 C46.85382762 44.56921841 50.33540125 46.51647452 55 47 C58.64645116 45.80477434 61.77685455 44.0657738 65 42 C57.28148573 36.85432382 50.34212396 36.4060008 43 42 Z M-12.8125 58.8125 C-13.88966338 60.19704902 -14.95202175 61.59323117 -16 63 C-16.90878906 64.06927734 -16.90878906 64.06927734 -17.8359375 65.16015625 C-22.07708406 70.2334265 -25.40661717 75.50930819 -27 82 C-26.67 82.99 -26.34 83.98 -26 85 C-19.23979055 79.99243745 -12.31611955 74.72900257 -7.44140625 67.77734375 C-6.96574219 67.19082031 -6.49007812 66.60429687 -6 66 C-3.3125 65.75 -3.3125 65.75 -1 66 C0.11832246 68.78651495 0.00459795 69.98537664 -0.91210938 72.90087891 C-1.38455078 73.99835449 -1.85699219 75.09583008 -2.34375 76.2265625 C-2.84777344 77.4228125 -3.35179688 78.6190625 -3.87109375 79.8515625 C-4.4130953 81.10979208 -4.95607595 82.36760031 -5.5 83.625 C-6.5614341 86.09262906 -7.61129877 88.56431865 -8.65625 91.0390625 C-9.12869141 92.13428223 -9.60113281 93.22950195 -10.08789062 94.35791016 C-10.38888672 95.2297998 -10.68988281 96.10168945 -11 97 C-10.67 97.66 -10.34 98.32 -10 99 C-4.78037347 94.53000069 -0.94777784 89.74451489 2.4375 83.8125 C2.77910156 83.21872559 3.12070313 82.62495117 3.47265625 82.01318359 C5.29467985 78.70706252 6.49891781 75.74753019 7 72 C9.31 72 11.62 72 14 72 C15.09159223 75.27292575 14.90364807 77.131506 13.78515625 80.37109375 C13.51123047 81.19287109 13.23730469 82.01464844 12.95507812 82.86132812 C12.66052734 83.71146484 12.36597656 84.56160156 12.0625 85.4375 C11.4841056 87.12138437 10.91227086 88.80753905 10.34765625 90.49609375 C10.08992432 91.24044678 9.83219238 91.9847998 9.56665039 92.75170898 C8.93917458 95.24133619 8.90290402 97.44257637 9 100 C12.12510038 100.32080677 13.6363921 100.23099796 16.32421875 98.5234375 C22.37150085 93.02590831 27.10041079 87.14919275 31.67578125 80.4296875 C32.05919678 79.87015381 32.4426123 79.31062012 32.83764648 78.73413086 C33.63669088 77.54202577 34.41113013 76.33317434 35.16430664 75.11157227 C38.09619881 70.56466988 40.49755954 68.84585518 45.8125 67.1875 C47.03839844 66.795625 48.26429688 66.40375 49.52734375 66 C53.33983642 64.90213934 57.12523735 63.85244778 61 63 C51.42181115 52.49488965 38.66125842 47.100483 24.640625 45.77734375 C11.64293668 45.28886854 -3.85992969 48.82541045 -12.8125 58.8125 Z M74 46 C73.01 46.66 72.02 47.32 71 48 C69.28555111 48.43738696 67.55332216 48.80848688 65.8125 49.125 C64.46091797 49.37636719 64.46091797 49.37636719 63.08203125 49.6328125 C62.39496094 49.75398438 61.70789063 49.87515625 61 50 C61.763125 50.7425 62.52625 51.485 63.3125 52.25 C65.4393702 54.4263323 67.2559956 56.52167796 69 59 C72.66172475 58.37321829 75.8818995 57.35548154 79.3125 55.9375 C80.63701172 55.39416016 80.63701172 55.39416016 81.98828125 54.83984375 C82.65214844 54.56269531 83.31601563 54.28554688 84 54 C80.88983545 50.71211176 77.98381075 48.16264012 74 46 Z " fill="#333333" transform="translate(123,380)"/>
<path d="M0 0 C0.66 0.33 1.32 0.66 2 1 C1.66385861 4.58550812 0.52714919 6.88286135 -1.4375 9.8125 C-4.06459303 13.79869607 -5.08327889 17.33305618 -6 22 C0.72729683 16.981223 7.17447059 11.90587889 12.125 5.0625 C14 3 14 3 16.625 2.5625 C19 3 19 3 21 5 C20.59793174 8.90103454 19.17938453 12.34202553 17.71484375 15.95703125 C17.26689453 17.06884766 16.81894531 18.18066406 16.35742188 19.32617188 C15.88884766 20.47666016 15.42027344 21.62714844 14.9375 22.8125 C14.46505859 23.98232422 13.99261719 25.15214844 13.50585938 26.35742188 C12.34111284 29.23987543 11.17236766 32.12063965 10 35 C17.00858897 29.52471924 21.23121764 23.1954765 24.5 14.9375 C25.66796875 12.1640625 25.66796875 12.1640625 27 10 C30.8125 8.8125 30.8125 8.8125 34 9 C35.51210284 11.45151556 36.13582892 13.24728867 35.61865234 16.11328125 C34.87756442 18.60457613 34.05599139 21.0502165 33.1875 23.5 C32.61631126 25.17634268 32.04723609 26.85340729 31.48046875 28.53125 C31.21540527 29.30855469 30.9503418 30.08585937 30.67724609 30.88671875 C29.92529799 33.23310043 29.3840422 35.5660702 29 38 C41.40025828 35.20994189 48.26723502 22.2762237 54.72265625 12.3515625 C58.13054904 7.31696888 58.13054904 7.31696888 60.91796875 6.30078125 C62.875 6 62.875 6 66 6 C65.66666667 7.66666667 65.33333333 9.33333333 65 11 C64.82597656 12.16595703 64.82597656 12.16595703 64.6484375 13.35546875 C62.48386207 22.18328542 55.14329959 29.35818759 49.0390625 35.78515625 C46.97197354 37.82539478 46.97197354 37.82539478 46 40 C45.34 40 44.68 40 44 40 C43.67 40.99 43.34 41.98 43 43 C38.1360907 46.62206012 34.36214031 47.63778974 28.3046875 47.3984375 C25.01107549 46.82903339 23.26025532 45.40152128 21 43 C20.34 42.34 19.68 41.68 19 41 C18.50371094 41.42152344 18.00742188 41.84304688 17.49609375 42.27734375 C13.16699812 45.76854991 9.82224374 48.33589868 4 48 C1.2674952 45.89807323 0.18992063 44.31021197 -0.30859375 40.87109375 C-0.44248626 36.21636004 0.2173595 32.34518621 2 28 C1.34773438 28.433125 0.69546875 28.86625 0.0234375 29.3125 C-8.92600423 35.01479915 -8.92600423 35.01479915 -14 34 C-16 32 -16 32 -16.1171875 30.00390625 C-15.23006619 21.06115112 -12.85184723 12.02221667 -7 5 C-4.74032452 3.16492877 -2.44317365 1.59745969 0 0 Z " fill="#2B2B2B" transform="translate(103,442)"/>
<path d="M0 0 C3 1 3 1 4 3 C4.80568722 11.71032201 3.17893863 20.51241811 2 29.125 C1.80669557 30.57283721 1.61398283 32.02075354 1.421875 33.46875 C0.95472752 36.98010422 0.47960693 40.49032321 0 44 C1.32 44.66 2.64 45.32 4 46 C3.8359375 47.84375 3.8359375 47.84375 3 50 C0.6015625 51.34375 0.6015625 51.34375 -2.375 52.5 C-6.52286018 54.11974487 -8.47769671 55.34807621 -11 59 C-11.66 59 -12.32 59 -13 59 C-13.268125 59.61875 -13.53625 60.2375 -13.8125 60.875 C-15 63 -15 63 -18 65 C-18.66 64.34 -19.32 63.68 -20 63 C-21.65 63.99 -23.3 64.98 -25 66 C-23.63438497 62.93241156 -22.08648636 60.8404745 -19.6875 58.5 C-19.11386719 57.9328125 -18.54023437 57.365625 -17.94921875 56.78125 C-16 55 -16 55 -13.36328125 53.32421875 C-9.9569634 49.97420368 -9.95982452 46.9333744 -9.5 42.3125 C-9.27648239 40.52402452 -9.04701487 38.73628546 -8.8125 36.94921875 C-8.68875 35.99450684 -8.565 35.03979492 -8.4375 34.05615234 C-7.64827791 28.54304851 -6.58005159 23.08735292 -5.5 17.625 C-5.29826172 16.56192627 -5.09652344 15.49885254 -4.88867188 14.40356445 C-3.84190007 9.14404099 -2.73740476 4.6313069 0 0 Z " fill="#333333" transform="translate(123,380)"/>
<path d="M0 0 C2.9938405 0.23519533 4.51533979 0.44183092 6.51953125 2.75 C6.94621094 3.4925 7.37289062 4.235 7.8125 5 C12.90115196 13.19403444 19.45780318 21.72445328 28.875 25 C31 26 31 26 31.9375 28.5 C31.958125 29.325 31.97875 30.15 32 31 C31.34 31.66 30.68 32.32 30 33 C26.375 32.625 26.375 32.625 23 32 C23 34.97 23 37.94 23 41 C22.67 41 22.34 41 22 41 C21.505 36.05 21.505 36.05 21 31 C20.34 31 19.68 31 19 31 C19 30.01 19 29.02 19 28 C18.42894531 27.75121094 17.85789063 27.50242188 17.26953125 27.24609375 C9.33199122 22.88796075 2.80105182 14.06654085 -1 6 C-1.24609375 3.234375 -1.24609375 3.234375 -1 1 C-0.67 0.67 -0.34 0.34 0 0 Z " fill="#383838" transform="translate(177,189)"/>
<path d="M0 0 C1.093125 0.433125 2.18625 0.86625 3.3125 1.3125 C4.23482422 1.67794922 4.23482422 1.67794922 5.17578125 2.05078125 C8.03850297 3.54037735 9.66070628 4.93335805 10.65234375 8.05078125 C11.19689131 12.36986397 11.28289595 14.44431153 9.25 18.4375 C6.95709298 21.04886632 5.30077702 22.78050832 1.80078125 23.37109375 C-3.97806702 23.52531733 -7.65403161 22.6460639 -12.50390625 19.484375 C-14.31716022 17.68532406 -14.79200651 16.53650602 -15 14 C-14.34 13.34 -13.68 12.68 -13 12 C-9.54702746 12.23019817 -7.37334084 12.76324727 -4.4375 14.625 C-2.05279302 16.28323261 -2.05279302 16.28323261 0.8125 15.6875 C1.534375 15.460625 2.25625 15.23375 3 15 C3.95020416 12.760165 3.95020416 12.760165 4 10 C2.37550757 8.29220027 0.70779973 6.62449243 -1 5 C-1 1 -1 1 0 0 Z " fill="#404040" transform="translate(275,153)"/>
<path d="M0 0 C0.53625 0.495 1.0725 0.99 1.625 1.5 C1.295 3.15 0.965 4.8 0.625 6.5 C-11.293257 8.72160492 -23.34511959 10.04368988 -35.375 11.5 C-35.375 10.51 -35.375 9.52 -35.375 8.5 C-27.86815227 2.64465877 -9.06918922 -5.72790898 0 0 Z " fill="#2E2E2E" transform="translate(255.375,122.5)"/>
<path d="M0 0 C0.45760607 5.7200759 -0.36151868 8.55296727 -4 13 C-6.47896729 15.56444892 -7.74152262 15.96098455 -11.3125 16.5 C-15.99903749 15.86453729 -18.65717245 14.29113434 -22 11 C-24.19608478 7.70587283 -25.11676912 6.07427595 -24.6875 2.125 C-24.460625 1.42375 -24.23375 0.7225 -24 0 C-22.1875 0.1875 -22.1875 0.1875 -20 1 C-18.95107762 2.63631892 -17.95093297 4.30485863 -17 6 C-14.32314652 8.16622058 -14.32314652 8.16622058 -12 8.0625 C-8.77643111 6.34997903 -8.2897344 3.28296029 -7 0 C-4.3333581 -1.33332095 -2.83319697 -0.67102033 0 0 Z " fill="#393939" transform="translate(252,143)"/>
<path d="M0 0 C4.58665775 1.71154043 8.29501938 3.28847636 11.3984375 7.23828125 C12.0584375 6.90828125 12.7184375 6.57828125 13.3984375 6.23828125 C13.0684375 8.21828125 12.7384375 10.19828125 12.3984375 12.23828125 C4.7734375 11.36328125 4.7734375 11.36328125 1.3984375 10.23828125 C-1.89066259 10.00671488 -5.17855552 9.85725084 -8.47265625 9.71484375 C-11.76406573 9.21353045 -13.18374018 8.46006392 -15.6015625 6.23828125 C-15.25135009 3.69924129 -14.76144377 2.41734827 -13.0390625 0.48828125 C-8.61908404 -1.77837437 -4.61299197 -1.3506508 0 0 Z " fill="#3E3E3E" transform="translate(291.6015625,119.76171875)"/>
<path d="M0 0 C0.66 0.66 1.32 1.32 2 2 C1.625 5.625 1.625 5.625 1 9 C-6.88067292 12.3266775 -14.28314715 15.43584264 -23 15 C-22.6310411 12.28636682 -22.16571371 11.16215762 -20.1796875 9.21875 C-6.58593054 -0.91896705 -6.58593054 -0.91896705 0 0 Z " fill="#2A2A2A" transform="translate(139,300)"/>
<path d="M0 0 C4.60372964 0.4876482 6.8262207 2.20547784 10.1875 5.3125 C11.04730469 6.09238281 11.90710938 6.87226563 12.79296875 7.67578125 C14.79630912 9.78549367 16.03074196 11.28162114 17 14 C16.45652174 19.54347826 16.45652174 19.54347826 15 21 C12.1875 21.3125 12.1875 21.3125 9 21 C5.73132691 18.28555279 3.99370888 15.46761772 2.25 11.625 C1.82203125 10.70976562 1.3940625 9.79453125 0.953125 8.8515625 C-0.08692501 5.73993746 -0.17302595 3.25865534 0 0 Z " fill="#363636" transform="translate(180,314)"/>
<path d="M0 0 C2.375 0.6875 2.375 0.6875 4.375 1.6875 C4.375 3.3375 4.375 4.9875 4.375 6.6875 C-0.99863017 10.34614182 -5.1080762 11.72678428 -11.625 10.6875 C-14.59412882 9.29769502 -16.32157028 7.99092972 -18.625 5.6875 C-18.25 3.0625 -18.25 3.0625 -17.625 0.6875 C-16.87734375 0.78289062 -16.1296875 0.87828125 -15.359375 0.9765625 C-14.37453125 1.08742187 -13.3896875 1.19828125 -12.375 1.3125 C-11.40046875 1.42851562 -10.4259375 1.54453125 -9.421875 1.6640625 C-5.70142705 1.69523944 -3.62970264 -0.43210746 0 0 Z " fill="#3D3D3D" transform="translate(279.625,185.3125)"/>
<path d="M0 0 C-0.34963618 5.7107243 -1.6489185 10.04850762 -6 14 C-9.625 15.125 -9.625 15.125 -13 15 C-15 13.9375 -15 13.9375 -16 12 C-16.1875 9.1875 -16.1875 9.1875 -15 6 C-10.63845303 1.80358955 -6.18216153 -1.91860185 0 0 Z " fill="#393939" transform="translate(75,409)"/>
<path d="M0 0 C1.66611905 -0.042721 3.33382885 -0.04063832 5 0 C5.33 0.33 5.66 0.66 6 1 C5.84351527 5.14684542 5.64955741 7.31435607 2.75 10.375 C-0.08308269 12.04909432 -1.71700767 12.91992702 -5 13 C-8.93614016 11.45641562 -10.63226576 10.55160136 -13 7 C-13.125 4.3125 -13.125 4.3125 -13 2 C-11.25 1.25 -11.25 1.25 -9 1 C-6.75 2.9375 -6.75 2.9375 -5 5 C-1.88667752 4.33131686 -1.88667752 4.33131686 -0.8125 1.9375 C-0.544375 1.298125 -0.27625 0.65875 0 0 Z " fill="#424242" transform="translate(294,140)"/>
<path d="M0 0 C3.05293166 0.16068061 4.73653633 0.81703912 7.25 2.5625 C9.84643033 6.17895653 10 8.5304782 10 13 C8.375 15.5625 8.375 15.5625 6 17 C2.60845705 16.83849795 1.41703243 16.41703243 -1 14 C-1.484375 11.25 -1.484375 11.25 -1.75 8 C-1.84796875 6.9275 -1.9459375 5.855 -2.046875 4.75 C-2 2 -2 2 0 0 Z " fill="#393939" transform="translate(159,357)"/>
<path d="M0 0 C3.44192705 0.09302506 4.98182064 0.98636548 7.75 3.0625 C10.72464843 6.94606879 10.92041379 9.14524122 11 14 C9 16 9 16 6.125 16.4375 C3 16 3 16 0.6875 13.625 C-1.99805936 9.44746322 -2.26866598 7.01509835 -2 2 C-1.34 1.34 -0.68 0.68 0 0 Z " fill="#282828" transform="translate(367,413)"/>
<path d="M0 0 C2.29950819 1.42457337 3.67295333 2.87380608 4.8515625 5.3046875 C4.8515625 7.2421875 4.8515625 7.2421875 2.8515625 10.2421875 C-0.02346113 9.83146984 -1.9181142 9.40012348 -4.3359375 7.7421875 C-7.89331395 5.84492006 -10.96001384 5.70382737 -14.94140625 5.453125 C-17.1484375 5.2421875 -17.1484375 5.2421875 -19.1484375 4.2421875 C-19.1484375 3.2521875 -19.1484375 2.2621875 -19.1484375 1.2421875 C-13.76061559 -2.04306976 -5.88208832 -2.07477297 0 0 Z " fill="#3E3E3E" transform="translate(177.1484375,160.7578125)"/>
<path d="M0 0 C3.18764837 0 5.27429461 0.40273804 7.765625 2.453125 C12.02115595 7.02682648 12.02115595 7.02682648 11.9375 10.875 C11 13 11 13 10 14 C7.1875 14.375 7.1875 14.375 4 14 C0.89197155 10.80797078 -0.94230905 8.41342822 -1.125 3.9375 C-1 1 -1 1 0 0 Z " fill="#373737" transform="translate(82,497)"/>
<path d="M0 0 C4.37187834 0.23631775 6.94364817 1.94364817 10 5 C11.0625 7.5 11.0625 7.5 11 10 C9.375 12.375 9.375 12.375 7 14 C4.21479881 13.93206826 2.61652887 13.3743211 0.25 11.9375 C-1.81550056 8.73597413 -1.81956641 5.78910549 -2 2 C-1.34 1.34 -0.68 0.68 0 0 Z " fill="#3F3F3F" transform="translate(212,525)"/>
<path d="M0 0 C-0.84967776 5.05334666 -4.0671165 7.94201643 -8 11 C-10.75 11.6875 -10.75 11.6875 -13 11 C-14.875 9.3125 -14.875 9.3125 -16 7 C-15.6875 4.25 -15.6875 4.25 -15 2 C-9.87080814 -0.10428384 -5.4389165 -0.21755666 0 0 Z " fill="#3F3F3F" transform="translate(335,300)"/>
<path d="M0 0 C-0.88993029 4.73233517 -3.35480463 7.91884179 -7 11 C-10.25 11.625 -10.25 11.625 -13 11 C-15 8 -15 8 -14.9375 4.9375 C-14 2 -14 2 -12 0.625 C-7.96896593 -0.21479876 -4.10102592 -0.16082455 0 0 Z " fill="#424242" transform="translate(314,381)"/>
<path d="M0 0 C3.91118799 1.30372933 5.84008328 3.89538052 8.09375 7.1796875 C9 9 9 9 8.8125 11.9375 C8 14 8 14 6.3125 14.8125 C4 15 4 15 1.25 13.125 C-1.6819539 9.0528418 -1.70638397 5.88414062 -1 1 C-0.67 0.67 -0.34 0.34 0 0 Z " fill="#363636" transform="translate(278,337)"/>
<path d="M0 0 C3.84465931 1.64771113 5.10583483 3.16526994 7.5 6.5 C8.49 6.83 9.48 7.16 10.5 7.5 C10.86458333 11.99652778 10.86458333 11.99652778 9.1875 14.3125 C7.5 15.5 7.5 15.5 4.5 15.5 C4.38785156 14.81292969 4.27570313 14.12585938 4.16015625 13.41796875 C3.52720617 10.52625562 2.87215669 8.12996698 1.5 5.5 C-1.3775617 3.76019763 -4.19814582 3.03992584 -7.5 2.5 C-4.81854835 -0.28870972 -3.92166116 -0.56023731 0 0 Z " fill="#BEBFCC" transform="translate(295.5,66.5)"/>
<path d="M0 0 C1.32 0.33 2.64 0.66 4 1 C4.08107583 2.93681161 4.13922475 4.8745934 4.1875 6.8125 C4.22230469 7.89144531 4.25710938 8.97039062 4.29296875 10.08203125 C4 13 4 13 2.48828125 14.88671875 C1.99714844 15.25410156 1.50601562 15.62148438 1 16 C0.01 15.67 -0.98 15.34 -2 15 C-3.38766322 8.94474232 -2.49118146 5.67989374 0 0 Z " fill="#535353" transform="translate(273,478)"/>
<path d="M0 0 C3.27034459 -0.36337162 4.60883753 -0.28544288 7.3125 1.6875 C9 4 9 4 9.375 6.625 C9 9 9 9 7 11 C4.5625 10.9375 4.5625 10.9375 2 10 C0.125 7.75 0.125 7.75 -1 5 C-0.6875 2.1875 -0.6875 2.1875 0 0 Z " fill="#454545" transform="translate(267,530)"/>
<path d="M0 0 C3.52775489 0.30237899 5.03808865 1.02980851 7.875 3.25 C10 6 10 6 9.8125 8.8125 C9.544375 9.534375 9.27625 10.25625 9 11 C7.35 11.33 5.7 11.66 4 12 C0.46209597 8.30827405 0.40884117 4.90609405 0 0 Z " fill="#4E4E4E" transform="translate(332,491)"/>
<path d="M0 0 C-0.375 2.4375 -0.375 2.4375 -1 5 C-3.45382134 6.22691067 -5.19984103 6.20175931 -7.9375 6.25 C-9.25041016 6.28867187 -9.25041016 6.28867187 -10.58984375 6.328125 C-13.4193869 5.94290357 -14.25132925 5.19305243 -16 3 C-5.88888889 -1.47222222 -5.88888889 -1.47222222 0 0 Z " fill="#5E5E5E" transform="translate(364,363)"/>
<path d="M0 0 C0.6875 1.8125 0.6875 1.8125 1 4 C-0.0625 5.75 -0.0625 5.75 -2 7 C-6.07794425 7.42478586 -7.53076119 7.31282587 -11 5 C-10.67 3.35 -10.34 1.7 -10 0 C-6.30581799 -1.231394 -3.7943739 -0.64432764 0 0 Z " fill="#454545" transform="translate(155,491)"/>
<path d="M0 0 C1.43836751 0.11458693 2.87570966 0.24209116 4.3125 0.375 C5.51326172 0.47941406 5.51326172 0.47941406 6.73828125 0.5859375 C9 1 9 1 12 3 C11.67 4.65 11.34 6.3 11 8 C8.03155565 8.35338623 5.84401782 8.5417682 3.265625 6.88671875 C1.79651181 5.64496832 0.39295186 4.32662082 -1 3 C-0.67 2.01 -0.34 1.02 0 0 Z " fill="#525252" transform="translate(139,263)"/>
<path d="M0 0 C1 1 1 1 1.1875 3.4375 C1 6 1 6 -1 8 C-3.1640625 8.1953125 -3.1640625 8.1953125 -5.625 8.125 C-6.44226563 8.10695313 -7.25953125 8.08890625 -8.1015625 8.0703125 C-8.72804688 8.04710937 -9.35453125 8.02390625 -10 8 C-10 4 -10 4 -7.8125 1.75 C-4.81045348 -0.11794005 -3.45274311 -0.47954765 0 0 Z " fill="#4D4D4D" transform="translate(74,455)"/>
<path d="M0 0 C2 2 2 2 2 4 C1 6 1 6 -1.625 7.25 C-5.19034509 8.04229891 -8.35924688 8.14563012 -12 8 C-9.87895566 2.60097804 -5.98870358 -0.97114112 0 0 Z " fill="#525252" transform="translate(237,349)"/>
<path d="M0 0 C0 0.99 0 1.98 0 3 C-0.66 3 -1.32 3 -2 3 C-1.938125 4.175625 -1.938125 4.175625 -1.875 5.375 C-2 8 -2 8 -4 10 C-6.625 10.125 -6.625 10.125 -9 10 C-9.75 7.25 -9.75 7.25 -10 4 C-7.24457744 -0.1882423 -4.82225135 -0.43838649 0 0 Z " fill="#535353" transform="translate(166,534)"/>
<path d="M0 0 C0 2.66666667 0 5.33333333 0 8 C-0.66 8 -1.32 8 -2 8 C-2.268125 8.61875 -2.53625 9.2375 -2.8125 9.875 C-4 12 -4 12 -7 14 C-7.66 13.34 -8.32 12.68 -9 12 C-11.475 13.485 -11.475 13.485 -14 15 C-11.16037299 8.62133045 -5.4725275 4.14585416 0 0 Z " fill="#656565" transform="translate(112,431)"/>
<path d="M0 0 C5.37583893 0.59731544 5.37583893 0.59731544 7.9375 2.25 C9 4 9 4 8.6875 6.6875 C8.460625 7.450625 8.23375 8.21375 8 9 C5.75 9.3125 5.75 9.3125 3 9 C0.625 6.75 0.625 6.75 -1 4 C-0.75 1.6875 -0.75 1.6875 0 0 Z " fill="#4B4B4B" transform="translate(191,454)"/>
<path d="M0 0 C-0.875 3.875 -0.875 3.875 -2 5 C-9.45864662 5.36090226 -9.45864662 5.36090226 -13 3 C-13 2.01 -13 1.02 -13 0 C-4.57142857 -2.57142857 -4.57142857 -2.57142857 0 0 Z " fill="#535353" transform="translate(112,376)"/>
<path d="M0 0 C-0.375 2.4375 -0.375 2.4375 -1 5 C-3.88415883 6.44207941 -6.41721528 6.09394887 -9.625 6.0625 C-10.81351562 6.05347656 -12.00203125 6.04445313 -13.2265625 6.03515625 C-14.14179687 6.02355469 -15.05703125 6.01195312 -16 6 C-13.73701772 3.41889881 -11.81995115 2.35070956 -8.5625 1.3125 C-7.80066406 1.06113281 -7.03882812 0.80976563 -6.25390625 0.55078125 C-4 0 -4 0 0 0 Z " fill="#616161" transform="translate(110,343)"/>
<path d="M0 0 C0.8125 2.125 0.8125 2.125 1 4 C-1.125 5.1875 -1.125 5.1875 -4 6 C-7.3125 4.625 -7.3125 4.625 -10 3 C-9.67 1.68 -9.34 0.36 -9 -1 C-5.41174342 -2.32898392 -3.3131576 -1.8804408 0 0 Z " fill="#515151" transform="translate(268,438)"/>
<path d="M0 0 C1.8125 0.1875 1.8125 0.1875 4 1 C5.97133174 3.51514739 7.05484816 5.01273308 6.875 8.25 C6.58625 8.8275 6.2975 9.405 6 10 C5.01 10.33 4.02 10.66 3 11 C0 9 0 9 -0.75 5.5 C-1 2 -1 2 0 0 Z " fill="#5A5A5A" transform="translate(246,381)"/>
<path d="M0 0 C-1.43963639 3.35915158 -3.12416589 5.71624938 -6 8 C-8.25 7.75 -8.25 7.75 -10 7 C-10.625 5.125 -10.625 5.125 -11 3 C-7.88866897 -0.11133103 -4.26881718 0 0 0 Z " fill="#646464" transform="translate(251,325)"/>
<path d="M0 0 C0.66 0.33 1.32 0.66 2 1 C2 1.66 2 2.32 2 3 C7.28 3 12.56 3 18 3 C18 3.33 18 3.66 18 4 C10.08 4.99 2.16 5.98 -6 7 C-6 6.01 -6 5.02 -6 4 C-3 1.8125 -3 1.8125 0 0 Z " fill="#8B8B8B" transform="translate(226,127)"/>
<path d="M0 0 C1.18239258 0.00676758 1.18239258 0.00676758 2.38867188 0.01367188 C4.32164761 0.02538688 6.25458393 0.04332002 8.1875 0.0625 C8.1875 0.3925 8.1875 0.7225 8.1875 1.0625 C7.17171875 1.17207031 6.1559375 1.28164062 5.109375 1.39453125 C-2.60954312 2.2703768 -9.97129636 3.39561177 -17.45703125 5.57421875 C-19.8125 6.0625 -19.8125 6.0625 -22.8125 5.0625 C-21.41971983 4.41010842 -20.02310788 3.76589448 -18.625 3.125 C-17.84769531 2.76535156 -17.07039062 2.40570313 -16.26953125 2.03515625 C-10.86017729 -0.10622552 -5.73172869 -0.06245807 0 0 Z " fill="#C2C1C5" transform="translate(214.8125,71.9375)"/>
<path d="M0 0 C0.66 0 1.32 0 2 0 C2.33 2.31 2.66 4.62 3 7 C2.34 6.34 1.68 5.68 1 5 C0.67 15.23 0.34 25.46 0 36 C-0.33 36 -0.66 36 -1 36 C-1.02472039 31.35522856 -1.04286968 26.71049543 -1.05493164 22.06567383 C-1.05996014 20.48558892 -1.06678378 18.90550866 -1.07543945 17.32543945 C-1.08756992 15.05418754 -1.09324313 12.78299715 -1.09765625 10.51171875 C-1.10281754 9.80536789 -1.10797882 9.09901703 -1.11329651 8.3712616 C-1.11364803 5.29745609 -0.9803186 2.9409558 0 0 Z " fill="#A0A0A0" transform="translate(327,332)"/>
<path d="M0 0 C6.75 -0.125 6.75 -0.125 9 1 C9 2.32 9 3.64 9 5 C5.61608307 6.06351675 4.4195366 6.21442982 1.1875 4.5625 C0.465625 4.046875 -0.25625 3.53125 -1 3 C-0.67 2.01 -0.34 1.02 0 0 Z " fill="#727272" transform="translate(108,278)"/>
<path d="M0 0 C0.928125 0.20625 1.85625 0.4125 2.8125 0.625 C2.4825 2.275 2.1525 3.925 1.8125 5.625 C-1.1875 6.625 -1.1875 6.625 -3.875 5.3125 C-4.638125 4.755625 -5.40125 4.19875 -6.1875 3.625 C-6.1875 2.965 -6.1875 2.305 -6.1875 1.625 C-3.1875 -0.375 -3.1875 -0.375 0 0 Z " fill="#646464" transform="translate(369.1875,470.375)"/>
<path d="M0 0 C0.66 0.33 1.32 0.66 2 1 C-2.16048113 5.84979161 -6.31778162 10.64444802 -11 15 C-11.66 15 -12.32 15 -13 15 C-11.38989473 10.92623969 -8.46177729 8.23492931 -5.375 5.25 C-4.859375 4.74339844 -4.34375 4.23679687 -3.8125 3.71484375 C-2.54616661 2.47196098 -1.2736856 1.23534724 0 0 Z " fill="#666666" transform="translate(104,265)"/>
<path d="M0 0 C2.64 0.66 5.28 1.32 8 2 C7.67 3.65 7.34 5.3 7 7 C5.35 6.67 3.7 6.34 2 6 C2 5.01 2 4.02 2 3 C1.34 3 0.68 3 0 3 C0 2.01 0 1.02 0 0 Z " fill="#6B6B6B" transform="translate(194,390)"/>
<path d="M0 0 C0.66 0 1.32 0 2 0 C2.05802698 3.43742918 2.09360486 6.87473253 2.125 10.3125 C2.14175781 11.28896484 2.15851563 12.26542969 2.17578125 13.27148438 C2.18222656 14.20927734 2.18867188 15.14707031 2.1953125 16.11328125 C2.20578613 16.97735596 2.21625977 17.84143066 2.22705078 18.73168945 C2 21 2 21 0 24 C0 16 0 8 0 0 Z " fill="#A5A5A5" transform="translate(398,442)"/>
<path d="M0 0 C0.66 0.33 1.32 0.66 2 1 C-0.31 3.31 -2.62 5.62 -5 8 C-4.01 8.66 -3.02 9.32 -2 10 C-3.98 10 -5.96 10 -8 10 C-7.44449305 6.40094092 -6.25112752 5.00090201 -3.4375 2.75 C-2.79683594 2.22921875 -2.15617187 1.7084375 -1.49609375 1.171875 C-1.00238281 0.78515625 -0.50867188 0.3984375 0 0 Z " fill="#8E8E8E" transform="translate(124,305)"/>
<path d="M0 0 C0.66 0.33 1.32 0.66 2 1 C0.73657512 2.48549956 -0.5360103 3.96321189 -1.8125 5.4375 C-2.52019531 6.26121094 -3.22789062 7.08492188 -3.95703125 7.93359375 C-6 10 -6 10 -9 11 C-7.59155282 7.78475695 -5.89655214 5.67816132 -3.375 3.25 C-2.74335938 2.63640625 -2.11171875 2.0228125 -1.4609375 1.390625 C-0.73777344 0.70226562 -0.73777344 0.70226562 0 0 Z " fill="#727272" transform="translate(195,259)"/>
<path d="M0 0 C0.66 0 1.32 0 2 0 C2.66 0.99 3.32 1.98 4 3 C4.99 3.66 5.98 4.32 7 5 C4.69 5.66 2.38 6.32 0 7 C-0.38133299 5.0085944 -0.71325582 3.00720923 -1 1 C-0.67 0.67 -0.34 0.34 0 0 Z " fill="#B8BAC2" transform="translate(299,70)"/>
<path d="M0 0 C1.98 0.495 1.98 0.495 4 1 C4.33 2.32 4.66 3.64 5 5 C4.34 5 3.68 5 3 5 C3 4.01 3 3.02 3 2 C2.34 2 1.68 2 1 2 C1 3.98 1 5.96 1 8 C-1 5 -1 5 -0.625 2.3125 C-0.41875 1.549375 -0.2125 0.78625 0 0 Z " fill="#848484" transform="translate(228,143)"/>
<path d="M0 0 C-0.61875 0.28875 -1.2375 0.5775 -1.875 0.875 C-4.13325765 1.93720042 -4.13325765 1.93720042 -6 4 C-6.66 4 -7.32 4 -8 4 C-8.99 4.495 -8.99 4.495 -10 5 C-10.66 4.34 -11.32 3.68 -12 3 C-10.3789897 2.30314502 -8.75303934 1.61777139 -7.125 0.9375 C-6.22007812 0.55464844 -5.31515625 0.17179687 -4.3828125 -0.22265625 C-2 -1 -2 -1 0 0 Z " fill="#A09FA9" transform="translate(190,42)"/>
<path d="M0 0 C2.475 0.495 2.475 0.495 5 1 C4.67 2.32 4.34 3.64 4 5 C2.68 4.67 1.36 4.34 0 4 C0 2.68 0 1.36 0 0 Z " fill="#C3C3CD" transform="translate(304,56)"/>
<path d="M0 0 C1.32 0.66 2.64 1.32 4 2 C3.67 2.66 3.34 3.32 3 4 C2.34 3.67 1.68 3.34 1 3 C0.67 5.31 0.34 7.62 0 10 C-0.33 10 -0.66 10 -1 10 C-1.02689216 8.52093108 -1.04634621 7.04172517 -1.0625 5.5625 C-1.07410156 4.73878906 -1.08570313 3.91507812 -1.09765625 3.06640625 C-1 1 -1 1 0 0 Z " fill="#9F9F9F" transform="translate(278,337)"/>
<path d="M0 0 C0.33 1.32 0.66 2.64 1 4 C2.98 4 4.96 4 7 4 C6.34 4.66 5.68 5.32 5 6 C1.375 5.625 1.375 5.625 -2 5 C-1.34 3.35 -0.68 1.7 0 0 Z " fill="#AAAAAA" transform="translate(167,259)"/>
<path d="M0 0 C2.125 0.375 2.125 0.375 4 1 C3.0409375 1.5878125 3.0409375 1.5878125 2.0625 2.1875 C-0.43778819 4.38472296 -0.64950425 5.75791433 -1 9 C-1.33 9 -1.66 9 -2 9 C-2.125 5.625 -2.125 5.625 -2 2 C-1.34 1.34 -0.68 0.68 0 0 Z " fill="#959595" transform="translate(367,413)"/>
<path d="M0 0 C-1.39332574 3.36720387 -2.9789286 4.9859524 -6 7 C-5.37162381 3.35541809 -4.14650034 0 0 0 Z " fill="#5E5E5E" transform="translate(174,254)"/>
</svg>
