<?xml version="1.0" encoding="UTF-8"?>
<svg version="1.1" xmlns="http://www.w3.org/2000/svg" width="491" height="508">
<path d="M0 0 C2.30356568 0.18705646 4.48046843 0.18516085 6.78515625 0.0859375 C11.08222832 0.22682511 14.91512427 0.89422724 18.59765625 3.2109375 C19.0771875 4.24154297 19.0771875 4.24154297 19.56640625 5.29296875 C19.90671875 5.92589844 20.24703125 6.55882812 20.59765625 7.2109375 C22.52262028 7.72783436 22.52262028 7.72783436 24.72265625 7.6484375 C31.30091653 8.103937 35.66967612 11.08521582 40.03515625 15.8984375 C41.59765625 18.2109375 41.59765625 18.2109375 42.59765625 20.2109375 C43.21511719 20.17613281 43.83257812 20.14132813 44.46875 20.10546875 C50.60471578 19.90934199 56.10557776 20.25194011 61.59765625 23.2109375 C65.87761966 27.70489908 66.33314955 32.25953684 66.59765625 38.2109375 C67.17773438 38.16453125 67.7578125 38.118125 68.35546875 38.0703125 C72.4526812 37.88100235 75.11787271 37.99367703 78.91015625 39.7109375 C82.28792076 42.85304402 84.4398739 45.7033049 85.59765625 50.2109375 C85.37109375 52.7421875 85.37109375 52.7421875 84.91015625 55.3359375 C84.42023371 57.83666379 84.42023371 57.83666379 84.59765625 60.2109375 C86.19020724 62.23075827 87.78222775 63.46227278 89.93359375 64.859375 C92.03562208 66.56665622 92.11489179 67.58553323 92.59765625 70.2109375 C92.59193981 72.96626295 92.54482153 75.70759941 92.47265625 78.4609375 C92.35399314 86.13500545 93.24942736 93.08959321 94.94140625 100.5625 C96.4278247 108.82627875 95.64876501 115.69077638 90.91015625 122.7109375 C90.47703125 123.2059375 90.04390625 123.7009375 89.59765625 124.2109375 C90.19578125 124.4378125 90.79390625 124.6646875 91.41015625 124.8984375 C94.43301118 126.71215046 95.25110366 127.91188364 96.59765625 131.2109375 C97.13460114 136.4812581 97.05854011 141.28307916 95.22265625 146.2734375 C94.38586048 151.54525083 96.20666361 153.49426222 99.06640625 157.796875 C101.18763235 161.14105288 102.01058941 164.35753068 102.59765625 168.2109375 C102.78070313 169.30535156 102.96375 170.39976562 103.15234375 171.52734375 C105.79832157 189.4873713 107.93243523 212.56522619 96.59765625 228.2109375 C92.71851731 232.43151655 89.1415077 234.64419687 83.59765625 236.2109375 C82.83066406 236.71109375 82.06367188 237.21125 81.2734375 237.7265625 C78.26264642 239.39678237 76.32547984 239.63208232 72.91015625 239.7734375 C68.96360155 240.00047308 65.31664287 240.41896755 61.47265625 241.3359375 C56.36092594 242.46450133 51.73273363 242.01943904 46.59765625 241.2109375 C46.26765625 241.8709375 45.93765625 242.5309375 45.59765625 243.2109375 C46.23832031 243.63503906 46.87898438 244.05914062 47.5390625 244.49609375 C75.62133394 263.53846857 89.69208248 301.21866756 95.87791443 333.43379211 C97.14773744 340.33929033 97.97363529 347.2647708 98.6796875 354.24609375 C98.76915649 355.1136731 98.85862549 355.98125244 98.95080566 356.87512207 C99.16830886 358.98686711 99.38325339 361.09887543 99.59765625 363.2109375 C102.59558514 358.8535851 105.56657351 354.4794516 108.51489258 350.08837891 C109.51955072 348.59986501 110.53116758 347.11602163 111.55004883 345.63720703 C118.93412314 335.42054675 118.93412314 335.42054675 121.31860352 323.36425781 C121.90273325 318.85680004 125.23447904 315.99238434 128.59765625 313.2109375 C131.64703878 311.22272947 134.80508762 309.63079198 138.09765625 308.0859375 C143.74535824 305.38253513 148.54421788 302.77414328 153.08300781 298.40698242 C154.59765625 297.2109375 154.59765625 297.2109375 157.84765625 296.6484375 C160.59765625 297.2109375 160.59765625 297.2109375 162.53515625 298.2109375 C164.31516285 301.56153816 163.64673776 304.72654362 162.59765625 308.2109375 C161.40625 310.38208008 161.40625 310.38208008 160.03515625 312.48046875 C159.58011719 313.18405518 159.12507813 313.8876416 158.65625 314.61254883 C158.30691406 315.14001709 157.95757812 315.66748535 157.59765625 316.2109375 C173.81702146 316.83342913 186.39437183 315.30353541 200.5625 306.6015625 C204.12242756 304.97050174 206.72553927 304.95893489 210.59765625 305.2109375 C210.03710964 308.57421713 209.17924587 311.20205969 207.59765625 314.2109375 C208.53867187 313.705625 209.4796875 313.2003125 210.44921875 312.6796875 C211.70669644 312.02279617 212.96452794 311.36658183 214.22265625 310.7109375 C214.84011719 310.37707031 215.45757812 310.04320312 216.09375 309.69921875 C220.11278419 307.62624322 223.0870687 306.82233303 227.59765625 307.2109375 C227.87890625 309.41015625 227.87890625 309.41015625 227.59765625 312.2109375 C225.62890625 314.66796875 225.62890625 314.66796875 223.09765625 317.0234375 C222.26234375 317.81363281 221.42703125 318.60382813 220.56640625 319.41796875 C219.91671875 320.00964844 219.26703125 320.60132813 218.59765625 321.2109375 C219.87640625 321.0046875 221.15515625 320.7984375 222.47265625 320.5859375 C224.65234375 320.234375 224.65234375 320.234375 226.59765625 320.2109375 C227.25765625 320.8709375 227.91765625 321.5309375 228.59765625 322.2109375 C228.40002494 325.10953001 227.94965956 326.76669803 226.13671875 329.0546875 C213.30955336 340.15411224 197.23265343 342.32911801 180.953125 344.58398438 C168.33357171 346.46198763 154.58980484 349.85988711 146.03515625 360.0234375 C133.56408382 377.68107743 126.94090945 398.65276129 119.8449707 418.8515625 C100.03447918 475.18486076 100.03447918 475.18486076 82.59765625 491.2109375 C81.27765625 490.5509375 79.95765625 489.8909375 78.59765625 489.2109375 C80.07462569 485.0210084 82.25322912 481.55304365 84.72265625 477.8984375 C97.2884568 458.70265711 104.58888485 437.04017669 112.16015625 415.5234375 C133.5232961 354.81401719 133.5232961 354.81401719 154.16015625 343.5234375 C167.86406898 337.21757691 183.10159619 335.71899795 197.88134766 333.62817383 C200.46615856 333.23113609 203.03331379 332.72380599 205.59765625 332.2109375 C200.64765625 331.8809375 195.69765625 331.5509375 190.59765625 331.2109375 C190.59765625 330.5509375 190.59765625 329.8909375 190.59765625 329.2109375 C191.18933594 329.11296875 191.78101563 329.015 192.390625 328.9140625 C197.51239325 327.9448535 200.71394541 326.87272201 204.59765625 323.2109375 C205.92309761 322.20050048 207.25526018 321.19873838 208.59765625 320.2109375 C207.97761719 320.41589844 207.35757812 320.62085938 206.71875 320.83203125 C198.64034496 323.28965374 190.99174998 323.88242371 182.59765625 324.2109375 C182.26765625 323.5509375 181.93765625 322.8909375 181.59765625 322.2109375 C182.37109375 321.98019531 183.14453125 321.74945313 183.94140625 321.51171875 C191.30717953 319.20535657 198.05688152 316.75171223 203.59765625 311.2109375 C200.25226848 312.49353316 197.12731535 313.95505026 193.97265625 315.6484375 C181.44169804 321.83159644 166.77816152 323.6017287 153.0546875 320.37890625 C147.0189029 318.0534308 147.0189029 318.0534308 145.59765625 315.2109375 C148.23765625 315.5409375 150.87765625 315.8709375 153.59765625 316.2109375 C153.86578125 315.5096875 154.13390625 314.8084375 154.41015625 314.0859375 C155.59765625 311.2109375 155.59765625 311.2109375 157.22265625 308.1484375 C158.88028299 305.1477078 158.88028299 305.1477078 158.59765625 301.2109375 C155.21110627 302.23716477 153.00880636 303.63780868 150.4609375 306.0078125 C146.59034329 309.39197747 142.44539162 311.58922563 137.84765625 313.8359375 C131.20066384 316.8195974 131.20066384 316.8195974 126.59765625 322.2109375 C125.92681513 325.65672791 125.92681513 325.65672791 125.59765625 329.2109375 C125.04542803 333.54706745 123.51336454 336.23603968 121.0546875 339.83203125 C120.31750488 340.92128906 119.58032227 342.01054687 118.82080078 343.1328125 C118.42781799 343.70580078 118.03483521 344.27878906 117.62994385 344.86914062 C115.55397982 347.89733693 113.50537627 350.94398807 111.453125 353.98828125 C111.03881226 354.60138153 110.62449951 355.21448181 110.19763184 355.84616089 C106.44546873 361.40851814 102.80974384 367.04071154 99.22265625 372.7109375 C98.65796631 373.60329102 98.09327637 374.49564453 97.51147461 375.41503906 C95.87119663 378.01220547 94.23435031 380.61151161 92.59765625 383.2109375 C91.05585027 385.65085027 89.51292001 388.09003334 87.96777344 390.52783203 C86.97707437 392.0986498 85.9932452 393.67382298 85.01660156 395.25341797 C82.56542241 399.20253994 80.03786543 403.01481621 77.25390625 406.73828125 C67.86544965 419.61466666 66.57181287 430.54166267 66.59765625 446.2109375 C66.59477614 448.00113997 66.59149256 449.79134181 66.58789062 451.58154297 C66.57241394 463.57606564 66.57241394 463.57606564 66.66894531 475.57006836 C66.67782776 476.51350601 66.68671021 477.45694366 66.69586182 478.42897034 C66.7133557 480.21979191 66.73883504 482.01055831 66.77337646 483.8011322 C66.82240118 489.87382011 66.82240118 489.87382011 64.59765625 493.2109375 C62.2013073 493.46182442 62.2013073 493.46182442 59.15036011 493.28982544 C58.0090822 493.2356439 56.8678043 493.18146236 55.69194221 493.12563896 C54.44508078 493.05340174 53.19821934 492.98116451 51.91357422 492.90673828 C49.24470122 492.78314372 46.57590897 492.66296093 43.90667725 492.5479126 C43.21788471 492.51703596 42.52909217 492.48615931 41.81942713 492.45434701 C34.7124959 492.14690786 27.60981522 492.09012635 20.49658203 492.08154297 C19.2188133 492.07939852 17.94104458 492.07725407 16.62455559 492.07504463 C13.2895582 492.07246495 9.95460611 492.07339669 6.61961222 492.076612 C3.03879645 492.07922091 -0.54201733 492.0767751 -4.12283325 492.07522583 C-10.12795482 492.0734277 -16.13306393 492.07574688 -22.13818359 492.08056641 C-28.98473483 492.08599937 -35.83125622 492.08424367 -42.67780674 492.07874 C-48.65674838 492.07413442 -54.63568129 492.07359406 -60.61462414 492.07617867 C-64.14137133 492.07770199 -67.66810474 492.07804892 -71.19485092 492.07464218 C-89.54641858 492.05929651 -107.84816428 492.42544023 -126.1849556 493.09900284 C-146.73676283 493.81401125 -146.73676283 493.81401125 -152.40234375 490.2109375 C-152.89734375 488.7259375 -152.89734375 488.7259375 -153.40234375 487.2109375 C-154.39234375 487.5409375 -155.38234375 487.8709375 -156.40234375 488.2109375 C-166.5692157 488.74084719 -178.48757924 485.91279005 -186.40234375 479.2109375 C-198.1950981 467.09060664 -198.66908654 448.03469911 -198.4921875 432.1171875 C-198.24944983 417.42106995 -197.58089626 403.00574325 -195.1550293 388.48388672 C-195.01492432 387.57396973 -194.87481934 386.66405273 -194.73046875 385.7265625 C-194.59543945 384.92508789 -194.46041016 384.12361328 -194.32128906 383.29785156 C-194.18527888 381.10644708 -194.18527888 381.10644708 -195.85693359 379.57421875 C-196.36691895 379.12433594 -196.8769043 378.67445313 -197.40234375 378.2109375 C-199.95290848 363.3076377 -195.57612848 344.53116259 -191.40234375 330.2109375 C-192.06371338 330.18153076 -192.72508301 330.15212402 -193.40649414 330.12182617 C-200.70655374 329.64822912 -206.98923515 328.02871729 -213.83984375 325.5234375 C-214.84756836 325.16040527 -215.85529297 324.79737305 -216.89355469 324.42333984 C-231.09462825 319.21903435 -244.84079209 312.95340018 -252.61328125 299.0859375 C-253.8405289 296.16970545 -254.16567712 293.34677029 -254.40234375 290.2109375 C-254.96174798 286.69468236 -255.37685124 285.24917627 -257.40234375 282.2109375 C-257.65234375 279.1484375 -257.65234375 279.1484375 -257.40234375 276.2109375 C-255.40234375 274.2109375 -255.40234375 274.2109375 -252.1171875 273.7734375 C-247.41968992 274.3266654 -246.11174772 275.76227561 -242.96484375 279.2109375 C-242.09988281 280.1390625 -241.23492187 281.0671875 -240.34375 282.0234375 C-239.38275391 283.10625 -239.38275391 283.10625 -238.40234375 284.2109375 C-237.74878906 283.00630859 -237.74878906 283.00630859 -237.08203125 281.77734375 C-235.40234375 279.2109375 -235.40234375 279.2109375 -232.52734375 278.1484375 C-228.93668319 277.86370735 -226.14708653 278.87364549 -222.7734375 280.046875 C-214.43120184 282.69235861 -205.99671467 283.77593381 -197.33984375 284.8984375 C-194.97143973 285.21527036 -192.60347986 285.53518233 -190.23573303 285.85688782 C-188.77708475 286.05405876 -187.31798349 286.24791689 -185.85838318 286.43791199 C-182.65016511 286.86237214 -179.51836082 287.32385247 -176.40234375 288.2109375 C-176.21671875 287.10298828 -176.21671875 287.10298828 -176.02734375 285.97265625 C-174.0242482 277.12147781 -167.58144939 270.49931993 -161.40234375 264.2109375 C-160.66242188 263.44652344 -159.9225 262.68210937 -159.16015625 261.89453125 C-149.78198876 252.81633881 -137.70063651 246.43847564 -125.40234375 242.2109375 C-128.3089223 239.78378218 -128.3089223 239.78378218 -131.96484375 240.7734375 C-138.23079086 241.75610448 -143.68653961 239.4243819 -149.33984375 236.8984375 C-151.40234375 235.2109375 -151.40234375 235.2109375 -152.83984375 232.2734375 C-154.75037242 228.5288013 -156.91759333 227.46150548 -160.40234375 225.2109375 C-163.93530333 220.971386 -163.67110406 217.49655694 -163.40234375 212.2109375 C-163.97984375 212.0253125 -164.55734375 211.8396875 -165.15234375 211.6484375 C-168.50039833 209.50940263 -170.10316619 206.87225607 -171.40234375 203.2109375 C-172.80519012 195.43583983 -170.99303645 190.98551375 -166.66015625 184.6171875 C-164.88923708 181.22934213 -165.42780024 179.01861482 -166.15625 175.3828125 C-166.57915377 171.65051891 -165.23503409 168.42541817 -163.40234375 165.2109375 C-162.60376953 164.59025391 -162.60376953 164.59025391 -161.7890625 163.95703125 C-159.56509098 161.15670655 -160.27060273 158.04491401 -160.46484375 154.6484375 C-160.66784566 146.5637053 -159.87394241 140.14498176 -154.3203125 133.8515625 C-153.58425781 133.08328125 -152.84820312 132.315 -152.08984375 131.5234375 C-149.97663192 129.39192135 -149.97663192 129.39192135 -148.40234375 127.2109375 C-148.4015184 123.63337064 -148.4015184 123.63337064 -149.40234375 120.2109375 C-148.06616737 110.85770286 -142.63731815 104.75435476 -135.625 98.71484375 C-133.16913665 97.05314359 -130.91170663 96.28155325 -128.08984375 95.3984375 C-124.39880228 94.12718621 -124.39880228 94.12718621 -122.3125 90.9921875 C-121.87046034 89.25541628 -121.46697402 87.50839984 -121.1015625 85.75390625 C-119.81976108 81.09215917 -116.61884315 77.57708178 -112.5390625 75.0625 C-110.03353609 74.06395383 -107.83737406 73.79791358 -105.15234375 73.5859375 C-103.81429687 73.47378906 -103.81429687 73.47378906 -102.44921875 73.359375 C-101.77375 73.31039062 -101.09828125 73.26140625 -100.40234375 73.2109375 C-100.23734375 72.3446875 -100.07234375 71.4784375 -99.90234375 70.5859375 C-97.35988135 64.8653971 -92.61136692 62.07876803 -86.90234375 59.8359375 C-86.07734375 59.6296875 -85.25234375 59.4234375 -84.40234375 59.2109375 C-84.55703125 57.7259375 -84.55703125 57.7259375 -84.71484375 56.2109375 C-84.75455815 51.34592304 -82.22034048 47.99906425 -79.40234375 44.2109375 C-79.07234375 43.8809375 -78.74234375 43.5509375 -78.40234375 43.2109375 C-78.13312798 41.63075798 -77.88691368 40.04663022 -77.65234375 38.4609375 C-76.72030527 33.62124138 -75.40380355 31.28182525 -71.40234375 28.2109375 C-70.57734375 27.7365625 -69.75234375 27.2621875 -68.90234375 26.7734375 C-65.69372778 24.76805252 -63.80705231 22.10891961 -61.40234375 19.2109375 C-58.40434799 17.31115492 -56.17090645 16.98245036 -52.65234375 17.0859375 C-51.853125 17.10398437 -51.05390625 17.12203125 -50.23046875 17.140625 C-49.6271875 17.16382812 -49.02390625 17.18703125 -48.40234375 17.2109375 C-47.97501953 16.29828125 -47.97501953 16.29828125 -47.5390625 15.3671875 C-45.76818918 12.00800512 -43.69066081 10.00404419 -40.40234375 8.2109375 C-36.6001646 7.07028376 -32.83937523 6.14833511 -28.9609375 5.30078125 C-25.25087904 4.16455039 -23.25838241 2.77775705 -20.40234375 0.2109375 C-14.71054845 -2.63496015 -6.1296483 -0.63796621 0 0 Z M-53.40234375 93.2109375 C-53.29535156 93.99597656 -53.18835938 94.78101562 -53.078125 95.58984375 C-52.33168798 102.13120043 -51.95635401 106.50723035 -55.40234375 112.2109375 C-56.51609375 113.231875 -56.51609375 113.231875 -57.65234375 114.2734375 C-58.22984375 114.9128125 -58.80734375 115.5521875 -59.40234375 116.2109375 C-59.30065214 119.15821285 -59.30065214 119.15821285 -58.40234375 122.2109375 C-55.02592231 141.08699438 -55.02592231 141.08699438 -60.203125 149.7109375 C-62.03296301 153.52558352 -61.91764063 157.24193582 -62.09765625 161.4140625 C-62.40096519 164.19828304 -62.94395 165.70171021 -64.33984375 168.0859375 C-67.53258667 173.65872514 -67.80190266 179.9239661 -68.40234375 186.2109375 C-68.52222656 187.17257813 -68.64210937 188.13421875 -68.765625 189.125 C-69.18832774 193.82101049 -69.18832774 193.82101049 -67.046875 197.8046875 C-65.84053367 198.76336935 -64.60680799 199.6883372 -63.3515625 200.58203125 C-57.85729779 205.17343082 -54.10327249 213.30075645 -52.85546875 220.26171875 C-52.32635733 228.75802712 -52.32635733 228.75802712 -55.3203125 232.80078125 C-59.92000706 236.74439535 -63.88204761 238.9395173 -69.953125 239.0703125 C-74.88198584 239.35330929 -79.65078252 240.93259869 -84.40234375 242.2109375 C-82.97611966 246.67705637 -80.52088503 249.62983688 -77.33984375 252.9609375 C-76.84742188 253.48534424 -76.355 254.00975098 -75.84765625 254.55004883 C-74.37417265 256.11181771 -72.88972346 257.66241165 -71.40234375 259.2109375 C-70.63019531 260.02433594 -69.85804688 260.83773437 -69.0625 261.67578125 C-63.55630294 267.34128961 -57.6236859 272.35285901 -51.40234375 277.2109375 C-50.74073242 277.72769043 -50.07912109 278.24444336 -49.39746094 278.77685547 C-37.69763926 287.91034853 -37.69763926 287.91034853 -25.40234375 296.2109375 C-18.99150944 291.6445611 -13.15509456 286.57648393 -7.40234375 281.2109375 C-6.72171875 280.58445312 -6.04109375 279.95796875 -5.33984375 279.3125 C4.26553505 270.13316623 12.27774147 258.87983043 18.59765625 247.2109375 C18.59765625 246.5509375 18.59765625 245.8909375 18.59765625 245.2109375 C18.07816406 244.98019531 17.55867188 244.74945313 17.0234375 244.51171875 C12.40949169 242.35399548 8.77443151 240.32205842 5.59765625 236.2109375 C4.64590011 233.53505768 4.12132768 231.01972064 3.59765625 228.2109375 C2.76105469 228.18515625 1.92445313 228.159375 1.0625 228.1328125 C-11.15089093 227.53769711 -26.08767457 226.00812506 -35.40234375 217.2109375 C-36.16015625 214.51953125 -36.16015625 214.51953125 -36.40234375 212.2109375 C-31.48920773 213.16186705 -27.01993559 214.27125942 -22.40234375 216.2109375 C-9.43549132 221.5655083 2.54016733 221.60528286 15.59765625 216.2109375 C27.92143691 209.85230738 35.10298731 201.04267257 39.3828125 187.77734375 C42.61283137 173.5891868 41.7312947 158.17217546 41.66015625 143.7109375 C41.65512429 141.90494918 41.65056442 140.09895947 41.64648438 138.29296875 C41.63562908 133.93225666 41.618461 129.57161301 41.59765625 125.2109375 C40.47625244 124.59541016 39.35484863 123.97988281 38.19946289 123.34570312 C35.14730027 121.67040156 33.67506161 120.00448545 31.59765625 117.2109375 C29.25136955 116.23747533 29.25136955 116.23747533 26.66015625 115.7109375 C23.44867762 114.97467091 21.93724414 114.56191196 19.6171875 112.1640625 C17.06217687 109.69306575 15.72761818 109.7052512 12.22265625 109.4609375 C5.58911674 108.65233449 -0.17763332 106.60233976 -6.40234375 104.2109375 C-13.6506333 101.43194659 -20.12702481 99.45477752 -27.859375 98.64453125 C-30.47940491 98.19779804 -31.86734459 97.51882154 -34.02734375 96.0234375 C-38.35019429 93.70190666 -41.02546601 94.24751118 -45.75390625 95.046875 C-48.82429231 95.23707591 -50.65590504 94.52962468 -53.40234375 93.2109375 Z M10.59765625 232.2109375 C14.67784073 237.10715888 19.4186874 239.5981219 25.59765625 241.2109375 C26.58765625 240.8809375 27.57765625 240.5509375 28.59765625 240.2109375 C27.94796875 239.56125 27.94796875 239.56125 27.28515625 238.8984375 C26.24617167 237.85945292 25.23456925 236.79108468 24.2734375 235.6796875 C22.23508948 233.89316336 20.74175658 233.53903706 18.09765625 233.0234375 C17.32421875 232.86488281 16.55078125 232.70632812 15.75390625 232.54296875 C13.46709146 232.13484164 13.46709146 232.13484164 10.59765625 232.2109375 Z M-253.40234375 278.2109375 C-251.26967768 284.116782 -249.04488267 287.24233605 -243.33984375 290.0234375 C-242.46199219 290.46300781 -241.58414063 290.90257812 -240.6796875 291.35546875 C-239.55240234 291.77892578 -239.55240234 291.77892578 -238.40234375 292.2109375 C-237.74234375 291.8809375 -237.08234375 291.5509375 -236.40234375 291.2109375 C-236.92183594 290.77523438 -237.44132812 290.33953125 -237.9765625 289.890625 C-241.33022384 287.026685 -244.47379733 284.29165364 -247.15234375 280.7734375 C-247.89484375 279.9278125 -248.63734375 279.0821875 -249.40234375 278.2109375 C-250.72234375 278.2109375 -252.04234375 278.2109375 -253.40234375 278.2109375 Z M-232.40234375 283.2109375 C-232.73234375 284.2009375 -233.06234375 285.1909375 -233.40234375 286.2109375 C-228.50345898 292.50950364 -221.28726367 294.38763639 -213.62109375 295.6796875 C-211.55399783 295.91517944 -209.47820262 296.07254691 -207.40234375 296.2109375 C-207.40234375 297.2009375 -207.40234375 298.1909375 -207.40234375 299.2109375 C-212.35234375 298.8809375 -217.30234375 298.5509375 -222.40234375 298.2109375 C-219.75581025 300.857471 -216.84013111 301.81035747 -213.40234375 303.2109375 C-215.38234375 304.2009375 -215.38234375 304.2009375 -217.40234375 305.2109375 C-211.69902842 308.7737493 -206.34177238 311.01275108 -199.78515625 312.53515625 C-197.40234375 313.2109375 -197.40234375 313.2109375 -194.40234375 315.2109375 C-194.40234375 315.8709375 -194.40234375 316.5309375 -194.40234375 317.2109375 C-203.83955324 315.28277668 -211.69330511 313.08805355 -219.8515625 307.69921875 C-222.43496932 306.19190175 -224.45841386 305.60876586 -227.40234375 305.2109375 C-224.97580828 312.28833261 -220.99291126 316.01978395 -214.625 319.66796875 C-206.51938361 323.54883963 -197.74753729 326.14339443 -189.046875 328.3359375 C-188.36778076 328.50722168 -187.68868652 328.67850586 -186.98901367 328.85498047 C-185.14425731 329.30727294 -183.29297072 329.7326895 -181.44140625 330.15625 C-177.96139483 331.36396605 -176.46964164 332.15493192 -174.40234375 335.2109375 C-173.99057825 338.0751299 -173.84292228 340.4787551 -173.90234375 343.3359375 C-173.886875 344.02558594 -173.87140625 344.71523438 -173.85546875 345.42578125 C-173.96803487 361.49459552 -180.19614063 377.49788367 -185.26879883 392.53100586 C-193.75449562 417.80154046 -198.25329975 446.16679014 -186.40234375 471.2109375 C-180.83706051 479.080248 -172.93924456 481.09454216 -163.8125 482.8515625 C-158.97043208 483.3618377 -155.47906116 482.94275844 -151.40234375 480.2109375 C-148.89598876 477.79469865 -147.13388437 475.22115426 -145.40234375 472.2109375 C-145.03496094 471.57542969 -144.66757813 470.93992187 -144.2890625 470.28515625 C-123.95708429 429.85670537 -138.77126025 376.36447954 -146.86361694 334.84423828 C-147.29015753 332.64941609 -147.71204007 330.4537467 -148.1328125 328.2578125 C-148.37153076 327.02385742 -148.61024902 325.78990234 -148.85620117 324.51855469 C-149.34555793 321.55485091 -149.60513282 318.70890782 -149.71484375 315.7109375 C-150.19539677 310.30698276 -152.57030418 306.94637103 -156.40234375 303.2109375 C-170.98931327 291.18503897 -190.39572382 290.05617017 -208.41552734 287.74414062 C-214.40259502 286.94131224 -219.95748143 285.97297877 -225.61352539 283.81518555 C-227.92008162 283.03604993 -229.99037491 282.97752116 -232.40234375 283.2109375 Z M-249.40234375 291.2109375 C-249.04402532 298.37730613 -245.03357514 302.82003906 -239.921875 307.46484375 C-234.73368781 311.95935359 -234.73368781 311.95935359 -228.40234375 314.2109375 C-228.70269531 313.69144531 -229.00304687 313.17195313 -229.3125 312.63671875 C-232.44657465 306.88914457 -232.44657465 306.88914457 -232.21484375 303.3359375 C-231.40234375 301.2109375 -231.40234375 301.2109375 -230.40234375 299.2109375 C-233.00294879 297.87023432 -235.60739291 296.53820396 -238.21484375 295.2109375 C-238.95283203 294.829375 -239.69082031 294.4478125 -240.45117188 294.0546875 C-241.51948242 293.51328125 -241.51948242 293.51328125 -242.609375 292.9609375 C-243.26397705 292.62578125 -243.9185791 292.290625 -244.59301758 291.9453125 C-246.54018924 291.02289487 -246.54018924 291.02289487 -249.40234375 291.2109375 Z M-190.40234375 381.2109375 C-190.76606762 383.45941231 -191.11798471 385.70979938 -191.46484375 387.9609375 C-191.66207031 389.21390625 -191.85929687 390.466875 -192.0625 391.7578125 C-192.35315193 394.71110339 -192.39170102 396.4711789 -191.40234375 399.2109375 C-190.53709622 396.77686745 -189.6849151 394.33950566 -188.83984375 391.8984375 C-188.59298828 391.20814453 -188.34613281 390.51785156 -188.09179688 389.80664062 C-186.57239724 385.55780745 -186.57239724 385.55780745 -187.40234375 381.2109375 C-188.39234375 381.2109375 -189.38234375 381.2109375 -190.40234375 381.2109375 Z M80.03515625 381.8984375 C78.30072266 382.36830078 78.30072266 382.36830078 76.53125 382.84765625 C73.50670142 383.93028563 73.50670142 383.93028563 72.265625 386.328125 C71.3945254 390.08760749 70.87914583 393.81344159 70.47265625 397.6484375 C70.38628906 398.38642578 70.29992187 399.12441406 70.2109375 399.88476562 C69.74832486 404.01523559 69.50528176 408.04748711 69.59765625 412.2109375 C72.48500525 408.73824519 74.92293189 405.20202782 77.234375 401.32421875 C77.89373047 400.22142578 78.55308594 399.11863281 79.23242188 397.98242188 C79.91668416 396.82943747 80.60092876 395.67644256 81.28515625 394.5234375 C81.98079512 393.35853001 82.67675582 392.19381465 83.37304688 391.02929688 C86.6202731 385.69497393 86.6202731 385.69497393 89.59765625 380.2109375 C86.12404716 380.2109375 83.37815535 380.95343329 80.03515625 381.8984375 Z " fill="#000000" transform="translate(259.40234375,5.7890625)"/>
<path d="M0 0 C2 1.1875 2 1.1875 3 3 C2.875 5.5625 2.875 5.5625 2 8 C-0.85844161 9.90562774 -2.07251362 10.32660852 -5.3125 10.875 C-12.5824334 12.40675258 -16.59529788 16.29979726 -21 22 C-21.99 21.34 -22.98 20.68 -24 20 C-23.73294634 13.59071215 -21.63734567 9.4690549 -17 5 C-11.69859667 1.39016286 -6.5279481 -1.06578744 0 0 Z " fill="#050505" transform="translate(246,124)"/>
<path d="M0 0 C3.20594602 0.22899614 4.03154521 1.03605167 6.1875 3.5 C9.50335699 6.44742844 11.46628503 6.93173947 15.79296875 7.21875 C19.19842887 6.88121767 21.31562574 5.01328069 24 3 C26.8125 2.6875 26.8125 2.6875 29 3 C30 4 30 4 30.4375 6.25 C30 9 30 9 27.1875 11.75 C21.71594475 15.61227429 16.51868694 15.6724147 10 15 C5.57668075 12.82855237 2.70650438 10.10987702 0 6 C-0.8125 3.25 -0.8125 3.25 -1 1 C-0.67 0.67 -0.34 0.34 0 0 Z " fill="#040404" transform="translate(251,186)"/>
<path d="M0 0 C6.8951893 -0.96774587 11.42161405 0.97293662 17 5 C20.38261521 7.85232399 22.23088887 10.81318045 23 15.1875 C23 19 23 19 21.5 20.73828125 C20.7575 21.36283203 20.7575 21.36283203 20 22 C19.72027344 21.45730469 19.44054687 20.91460937 19.15234375 20.35546875 C16.17757303 15.04679432 13.98328733 12.89470765 8 11 C6.3539329 10.43818444 4.70810303 9.87567341 3.0625 9.3125 C1.70931276 8.87197995 0.35548844 8.43338746 -1 8 C-1.625 5.6875 -1.625 5.6875 -2 3 C-1.34 2.01 -0.68 1.02 0 0 Z " fill="#050505" transform="translate(275,123)"/>
<path d="M0 0 C8.14604592 3.07397959 8.14604592 3.07397959 10 7 C10.56920689 11.3910246 10.29015343 13.47772383 8.125 17.375 C5.32636214 20.83214089 5.32636214 20.83214089 2.1171875 21.23828125 C-4.0292522 21.44173483 -7.69343497 20.08745602 -13 17 C-13 15.35 -13 13.7 -13 12 C-10.8125 11.3125 -10.8125 11.3125 -8 11 C-6.32580562 11.9873454 -4.65948148 12.98812105 -3 14 C0.20916171 14.25136033 0.20916171 14.25136033 3 14 C3.35338623 11.03155565 3.5417682 8.84401782 1.88671875 6.265625 C0.64496832 4.79651181 -0.67337918 3.39295186 -2 2 C-1.34 1.34 -0.68 0.68 0 0 Z " fill="#020202" transform="translate(272,157)"/>
<path d="M0 0 C2.75 2.4375 2.75 2.4375 5 5 C5.66 5.66 6.32 6.32 7 7 C6.625 9.625 6.625 9.625 6 12 C4.35 12.33 2.7 12.66 1 13 C0.5875 12.195625 0.175 11.39125 -0.25 10.5625 C-1.75423334 7.9445445 -1.75423334 7.9445445 -3.9375 6.9375 C-6.1778932 6.80867599 -6.1778932 6.80867599 -8.1875 8.625 C-10.13480924 11.1766466 -10.64947365 12.84526281 -11 16 C-12.32 16 -13.64 16 -15 16 C-15.95467209 12.35488839 -16.16846416 10.44332674 -14.8125 6.875 C-10.88135876 0.63939665 -7.44891469 -2.08569611 0 0 Z " fill="#030303" transform="translate(245,146)"/>
<path d="M0 0 C2.57213136 1.42961288 3.92563047 2.77746122 6 5 C6.375 7.8125 6.375 7.8125 6 10 C4.02 10.99 4.02 10.99 2 12 C0.29159719 10.36587557 -0.93453047 9.13093906 -2 7 C-5.35595828 7.59927826 -7.37801226 8.84622436 -10 11 C-10.66 10.34 -11.32 9.68 -12 9 C-11.90849201 5.52269657 -11.21809552 4.23055813 -8.8125 1.6875 C-5.41376524 -0.35174086 -3.89698186 -0.71577218 0 0 Z " fill="#070707" transform="translate(289,145)"/>
<path d="M0 0 C1.546875 0.99 1.546875 0.99 3.125 2 C3.125 2.99 3.125 3.98 3.125 5 C-2.39440299 4.22985075 -2.39440299 4.22985075 -5.03125 2.96875 C-8.95907339 1.63070027 -12.57207953 1.78530936 -16.6875 1.875 C-17.47576172 1.88402344 -18.26402344 1.89304687 -19.07617188 1.90234375 C-21.00924666 1.92577496 -22.9421638 1.96164162 -24.875 2 C-24.875 1.34 -24.875 0.68 -24.875 0 C-17.04654525 -2.97433691 -7.67396412 -3.86438907 0 0 Z " fill="#080808" transform="translate(97.875,313)"/>
<path d="M0 0 C-1.41519715 2.0343459 -2.54982123 2.90410393 -4.98046875 3.421875 C-6.98176954 3.66273952 -8.9909944 3.83532741 -11 4 C-11.33 3.34 -11.66 2.68 -12 2 C-10.37787941 1.47026689 -8.75218416 0.95146893 -7.125 0.4375 C-6.22007812 0.14746094 -5.31515625 -0.14257812 -4.3828125 -0.44140625 C-2 -1 -2 -1 0 0 Z " fill="#0E0E0E" transform="translate(453,326)"/>
</svg>
