<?xml version="1.0" encoding="utf-8"?>
<!-- Generator: Adobe Illustrator 25.0.1, SVG Export Plug-In . SVG Version: 6.00 Build 0)  -->
<svg version="1.1" id="Capa_1" xmlns="http://www.w3.org/2000/svg" xmlns:xlink="http://www.w3.org/1999/xlink" x="0px" y="0px"
	 viewBox="0 0 595.28 841.89" style="enable-background:new 0 0 595.28 841.89;" xml:space="preserve">
<style type="text/css">
	.st0{fill:#E2B8A8;stroke:#1D1D1B;stroke-width:2;stroke-miterlimit:10;}
	.st1{fill:#E2E0F1;stroke:#1D1D1B;stroke-width:2;stroke-miterlimit:10;}
	.st2{fill:#F7F8FC;}
	.st3{fill:#C7C7D8;}
	.st4{fill:#F2CEC2;stroke:#1D1D1B;stroke-width:2;stroke-miterlimit:10;}
	.st5{fill:#E1D1E5;stroke:#1D1D1B;stroke-width:2;stroke-miterlimit:10;}
	.st6{fill:#BDAECC;stroke:#1D1D1B;stroke-width:2;stroke-miterlimit:10;}
	.st7{fill:#A89AB7;stroke:#1D1D1B;stroke-width:2;stroke-miterlimit:10;}
	.st8{fill:#1D1D1B;}
	.st9{fill:#847990;stroke:#1D1D1B;stroke-miterlimit:10;}
	.st10{fill:#DED2E9;stroke:#1D1D1B;stroke-width:2;stroke-miterlimit:10;}
	.st11{fill:#AEAA87;stroke:#1D1D1B;stroke-width:2;stroke-miterlimit:10;}
	.st12{fill:#8D896B;}
	.st13{fill:#CCC7A6;}
	.st14{fill:#89888D;stroke:#1D1D1B;stroke-miterlimit:10;}
	.st15{fill:#89888D;stroke:#1D1D1B;stroke-width:2;stroke-miterlimit:10;}
	.st16{fill:#6B7B9D;stroke:#1D1D1B;stroke-width:2;stroke-miterlimit:10;}
	.st17{fill:#57647D;}
	.st18{fill:#899AB7;}
	.st19{fill:#6D2F3B;stroke:#1D1D1B;stroke-width:2;stroke-miterlimit:10;}
	.st20{fill:#6D2F3B;stroke:#1D1D1B;stroke-miterlimit:10;}
	.st21{fill:#E2B8A8;}
	.st22{fill:#F2CEC2;}
	.st23{fill:#AEAA87;}
	.st24{fill:#89888D;}
	.st25{fill:#6B7B9D;}
	.st26{fill:#6D2F3B;}
	.st27{fill:#E2E0F1;}
	.st28{fill:#847990;}
	.st29{fill:#E1D1E5;}
	.st30{fill:#BDAECC;}
	.st31{fill:#A89AB7;}
	.st32{fill:#DED2E9;}
	.st33{fill:none;stroke:#1D1D1B;stroke-width:3;stroke-miterlimit:10;}
	.st34{clip-path:url(#SVGID_2_);}
	.st35{fill:none;stroke:#1D1D1B;stroke-width:4;stroke-miterlimit:10;}
	.st36{fill:none;stroke:#1D1D1B;stroke-width:0.5;stroke-miterlimit:10;}
</style>
<path class="st16" d="M200.75,453.11c0,0,71.02,43.75,80.83,52.12c8.85,7.55,30,15.29,30,15.29s19.77-16.36,25.67-22.79
	c5.9-6.43,9.03-12.81,9.03-12.81l-10.02-32.09c0,0,32.68,4.22,40.95,4.79c8.27,0.57,44.99,2.88,57.51,5.23
	c12.52,2.35,24.16,2.67,37.47,18.22s20.46,41.32,25.15,54.62c4.7,13.3,14.09,78.26,14.09,78.26H91.96H64.39
	c0,0,2.07-36.33,6.97-52.2c4.9-15.86,20.96-68.86,27.01-80.68c6.06-11.83,15.1-20.38,29.81-27.79s44.93-5.74,51.28-6.03
	s44.43-2.39,44.43-2.39l-6.07,6.42L200.75,453.11z"/>
<path class="st17" d="M230.77,447.1c0,0-63.61,2.36-68.05,2.57c-4.44,0.21-21.48-1.73-33.95,5.81s-21.47,17.5-21.47,17.5
	s23.08-6.15,42.79-12.94c15.97-5.51,59.43-5.4,63.23-5.81C217.13,453.83,230.77,447.1,230.77,447.1z"/>
<path class="st17" d="M340.04,474.22c3,4.88,6.13,12.32,5.35,14.67c-0.78,2.35-30.71,28.28-30.71,28.28s33.45-18.88,40.88-20.45
	s16.04-4.74,19.17-8.66c3.13-3.91,7.83-3.87,10.17-8.17c2.35-4.3,2.74-1.15,5.87-5.48s4.3-1.54,10.17-2.32
	c5.87-0.78,23.87-2.32,32.48,0c8.61,2.32,11.35-3.55,24.65,7.8c13.3,11.35,22.26,18.69,24.26,23.26s-4.85-13.13-12.63-20.75
	c-7.78-7.62-13.9-15.03-34.79-17.74c-21.1-2.73-60.19-5.71-60.19-5.71l-16.43,10.37l-16.43-4.7L340.04,474.22z"/>
<path class="st18" d="M200.75,453.11c4.3,3.13,56.34,36.01,61.03,39.53c4.7,3.52,29.6,22.12,33.39,23.19s12.25,2.36,17.24,6.86
	c1.01,0.91,4.16,5.95,8.46,15.34s16.83,53.61,18,63.39c1.17,9.78,0,12.52,0,12.52s-4.53-21.52-9.9-30.91
	c-5.36-9.39-21.8-37.96-25.71-42.46c-3.91-4.5-26.61-20.73-33.26-24.75c-6.65-4.01-29.74-15.75-35.61-26.32
	C228.53,478.94,200.75,453.11,200.75,453.11z"/>
<path class="st0" d="M224.61,383.86c0,0,10.93,32.14,8.61,45.39c-2.32,13.25-11.86,17.88-18.85,20.7
	c-6.99,2.82-13.62,3.15-13.62,3.15s77.53,50.36,85.15,56.99c7.62,6.63,26.51,12.59,26.51,12.59s19.88-19.55,27.5-24.85
	c7.62-5.3,13.12-11.6,13.12-11.6s-11.46-14.9-12.45-28.16c-0.99-13.25-1.73-27.57-1.73-27.57s-71.49-16.17-76.79-21.47
	C256.75,403.74,224.61,383.86,224.61,383.86z"/>
<path class="st19" d="M293.52,193.35c-5.3,0-21.54-5.96-29.82-0.33c-8.28,5.63-9.61,1.33-16.57,8.95
	c-6.96,7.62-9.61,12.13-17.56,16.33s-13.92,2.55-22.53,8.18c-8.61,5.63-6.63-0.66-11.6,11.27c-4.97,11.93-2.65,19.88-13.58,24.19
	c-10.93,4.31-19.55,10.27-20.54,17.23c-0.99,6.96,1.33,10.93-6.96,17.23c-8.28,6.3-12.92,8.28-15.57,15.57
	c-2.65,7.29-4.31,8.61-4.31,8.61s6.3-7.29,11.27-9.61c4.97-2.32,8.94-2.96,12.92-8.61c3.29-4.68,6.14-4.77,6.14-4.77
	s2.48-1.52-3.16,6.43c-5.63,7.95-10.93,11.93-12.59,21.87c-1.66,9.94,0,15.24,0.99,20.87c0.99,5.63,4.31,13.25,4.31,13.25
	s0.66-11.93,0.66-16.24c0-4.31,2.65-17.89,4.97-21.54c2.32-3.64,2.65-1.99,1.99,2.32s4.64,22.53,1.66,31.48
	c-2.98,8.95,0.33,13.58-7.95,20.54c-8.28,6.96-9.94,4.97-13.92,8.61s-13.58,5.3-13.58,5.3s11.6,0.99,16.9,0
	c5.3-0.99,21.53-3.31,24.85-6.96c3.32-3.64,4.97-6.63,4.97-6.63s-7.29,17.23-9.94,20.87c-2.65,3.64-10.93,10.6-11.93,10.6
	c-0.99,0,10.6-1.66,10.6-1.66s5.3,0.66,4.31,1.66c-0.99,0.99-1.99,5.96-1.99,5.96s8.28,6.63,12.26,8.95s8.29-0.45,11.6,0
	s8.28-2.65,10.6-4.97c2.32-2.32,5.96-25.18,5.96-26.84c0-1.66,2.32-124.91,2.32-126.57c0-1.66,33.8-35.45,33.8-35.45
	s53.34-28.16,55-27.17c1.66,0.99,31.48,3.64,31.48,3.64s-18.55-12.92-22.53-12.92S293.52,193.35,293.52,193.35z"/>
<path class="st4" d="M243.84,281.87c-4.5,8.35-13.49,25.05-16.06,47.53c-2.57,22.48-5.78,36.61,0,52.67
	c5.78,16.06,18.63,34.04,23.12,38.54c4.5,4.5,26.09,22.65,37.01,25.22c10.92,2.57,32.36,1.76,45.21-7.24
	c12.85-8.99,25.05-26.98,29.55-36.61c4.5-9.63,9.63-43.68,10.28-58.45c0.64-14.77,4.5-54.6,0-68.08
	c-4.5-13.49-11.66-52.46-27.07-56.31c-15.42-3.85-39.53,13.28-46.05,15.21c-6.52,1.93-36.07,17.34-40.56,26.98
	C254.76,270.95,243.84,281.87,243.84,281.87z"/>
<path class="st19" d="M331.54,227.48c0,7.07,1.68,9.27-3.46,18.91c-5.14,9.63-8.99,8.99-10.92,18.63s0,6.42-7.07,16.7
	c-7.07,10.28-5.13,7.53-10.27,12.03c-5.14,4.5-1.43-2.58,0.89-8.88c3.78-10.26-5.49-10.64-4.21-20.28
	c1.28-9.63-5.42-8.56-4.59-14.99c0.83-6.42-3.02-17.34-9.45-3.21s-10.92,16.06-20.55,26.33c-9.63,10.28-10.28,10.28-20.55,25.05
	c-10.28,14.77-18.63,14.77-23.12,26.98c-4.5,12.2-1.93,17.98,0,34.68c1.93,16.7,7.71,27.62,3.85,39.18
	c-3.85,11.56-16.06,25.69-22.48,28.9c-6.42,3.21-19.91,4.5-19.91,4.5s20.55-8.35,20.55-21.2c0-12.85-8.99-18.63-16.06-30.83
	c-7.07-12.2-15.42-23.77-14.13-38.54c1.28-14.77,11.56-25.69,16.06-35.33c4.5-9.63-1.57-19.6-0.28-27.95
	c1.28-8.35,6.76-27.74,21.54-35.45c14.77-7.71,18.57-8.53,25.63-16.88c7.07-8.35,14.77-15.42,28.26-17.98
	c13.49-2.57,22.48-10.28,34.04-10.92c11.56-0.64,27.94,0.79,34.65,2.71c6.71,1.93,12.88-4.64,21.87,5.64
	c8.99,10.28,19.91,10.92,28.26,22.48c8.35,11.56,8.99,16.06,13.49,28.26c4.5,12.2,1.28-0.64,13.49,19.91
	c12.2,20.55,7.07,16.06,12.85,35.33c5.78,19.27,4.5,3.21,8.99,25.05c4.5,21.84,9.63,14.13,1.93,33.4
	c-7.71,19.27-5.78,37.25,1.28,39.82s16.7,3.21,16.7,3.21s-22.48,10.92-31.47,2.57c-8.99-8.35-14.77-10.92-14.77-10.92
	s12.85,19.27,19.27,19.91c6.42,0.64-11.56,5.78-16.06,3.85s-13.49-4.5-13.49-4.5s11.56,13.49,16.7,14.13s-1.93,11.56-4.5,11.56
	s-20.55,2.57-20.55,8.35c0,5.78-3.21,10.28-6.42,12.85s-8.99,1.93-10.28,8.35s-11.52,10.89-15.98,6.01
	c-5.93-6.48-9.43-16.07-9.68-19.97c-0.33-4.96-6.71-27.92-6.71-27.92s17.17-16.1,22.18-25.36c6.37-11.78,12.41-58.56,14-71.4
	c5.94-47.82-3.17-65.61-7.02-69.47s-7.07-25.05-11.56-28.9c-4.5-3.85,0-3.21,0,8.35s-2.23,15.62-0.31,20.31
	c2.25,5.5,9.37,12.8,11.87,16.3c0,0-13.6-5.94-16.84-9.68c-6.42-7.41-6.92-19.87-6.92-30.14S331.54,227.48,331.54,227.48z"/>
<path class="st19" d="M194.79,444.82c-5.16,3.22,15.57-4.64,22.53-15.24s11.27-11.27,12.92-20.87c1.66-9.61,0.33-17.89,0-28.16
	c-0.33-10.27-3.31-20.21-1.66-36.78c1.66-16.57,1.51-14.09,3.98-26.17c2.46-12.08,3.64-19.22,5.96-23.86
	c2.32-4.64-14.25,2.98-20.21,10.27c-5.96,7.29-13.92,27.83-10.93,44.73c2.98,16.9,10.6,47.05,6.3,58.98
	C209.37,419.64,197.44,443.17,194.79,444.82z"/>
<path class="st19" d="M258.07,260.71c-0.93,5.32-9.43,27.93-9.82,33.19c-0.39,5.27,2.96,10.88,1.32,18.18
	c-1.64,7.3-4.58,12.11-9.04,19.69s-6.42,15.16-7.1,20.29c-0.69,5.14,3.15,27.72,3.15,27.72s-10.84-15.83-10.99-19.99
	c-0.15-4.16-1.74-9.29,0.63-17.92c2.37-8.63,9.46-14.71,7.85-22.38c-1.6-7.68-1.21-9.77-0.41-15.26c0.79-5.5,3.02-18.24,3.02-18.24"
	/>
<g>
	<path class="st8" d="M320.65,360.46c0.54,1.17,1.25,2.1,2.09,3.07c0.2,0.25,0.4,0.54,0.57,0.89c0.18,0.37,0.23,0.88,0.1,1.34
		c-0.31,0.86-0.88,1.33-1.37,1.78c-1.03,0.94-2.4,1.5-3.71,1.79c-1.3,0.3-2.7,0.28-3.58,0.57c-0.21,0.06-0.33,0.13-0.38,0.19
		c-0.01,0.02-0.03,0.03-0.04,0.04l-0.15,0.22c-0.1,0.15-0.22,0.3-0.35,0.45c-0.47,0.59-1.35,1.18-2.24,1.21
		c-0.43,0.03-0.82-0.02-1.16-0.07l-0.25-0.05l-0.33-0.08c-0.2-0.07-0.38-0.14-0.54-0.22c-0.66-0.31-1.19-0.7-1.71-1.1
		c-0.51-0.4-1.01-0.81-1.48-1.26c-0.23-0.23-0.46-0.46-0.69-0.71c-0.14-0.15-0.14-0.17-0.27-0.27c-0.09-0.09-0.22-0.16-0.33-0.25
		c-0.99-0.66-2.15-1.19-3.27-1.77c1.27,0.16,2.49,0.42,3.74,0.9c0.16,0.07,0.31,0.14,0.47,0.24c0.14,0.07,0.37,0.26,0.45,0.32
		c0.23,0.18,0.47,0.35,0.72,0.52c0.5,0.34,1.01,0.68,1.53,0.98c0.52,0.3,1.05,0.59,1.54,0.78c0.12,0.05,0.23,0.08,0.33,0.11
		l0.13,0.02l0.21,0.02c0.28,0.03,0.52,0.03,0.71,0c0.37-0.06,0.63-0.21,0.94-0.59c0.07-0.09,0.15-0.19,0.22-0.3l0.11-0.17
		c0.08-0.11,0.16-0.22,0.25-0.32c0.37-0.41,0.83-0.63,1.21-0.75c0.79-0.23,1.44-0.26,2.07-0.32c0.63-0.05,1.21-0.11,1.78-0.2
		c1.14-0.16,2.18-0.54,3.11-1.16c0.49-0.31,0.91-0.7,1.1-1c0.06-0.14,0.11-0.28,0.06-0.5c-0.06-0.22-0.18-0.48-0.32-0.75
		c-0.27-0.55-0.6-1.12-0.83-1.73C320.85,361.73,320.72,361.09,320.65,360.46z"/>
</g>
<g>
	<path class="st8" d="M296.87,366.44c-1.65-1.05-2.32-3.4-1.63-5.38c0.34-0.99,0.98-1.86,1.8-2.44c0.81-0.58,1.75-0.94,2.74-0.89
		c-1.29,1.42-2.18,2.62-2.64,3.98C296.66,363.08,296.61,364.54,296.87,366.44z"/>
</g>
<path class="st20" d="M331.65,292.76c0.79,1.57,2.51,2.61,3.99,2.09c1.48-0.52,3.14-1.3,7.73-2.09c4.59-0.78,8.04,0.26,10.75,0
	c2.71-0.26,6.65,2.64,9.36,5.1s3.45,4.29,3.45,4.29s-0.99-4.7-3.69-6.78c-2.71-2.09-7.39-7.04-10.1-7.04s-8.8-0.52-11.29,0
	s-10.06,2.09-10.06,2.09L331.65,292.76z"/>
<path class="st20" d="M297.83,289.71c0.06,0.26-2.81,0-4.11,0s-17.17-4.64-18.37-4.41c-1.2,0.23-11.07,0.27-13.04-0.01
	c-1.98-0.28-9.57,1.52-11.89,4.53c-1.92,2.49-1.92,2.49-1.92,2.49s0.88-5.42,3.23-7.01s7.35-4.72,10.59-4.99s12.63-1.04,16.28,0
	c3.65,1.04,8.35,1.3,9.91,1.83s7.14,2.67,8.27,3.16C297.89,285.8,297.83,289.71,297.83,289.71z"/>
<g>
	<path class="st8" d="M316.89,313.26c-0.55,2.88-0.97,5.77-1.17,8.67c-0.19,2.9-0.21,5.81-0.01,8.7c0.19,2.9,0.61,5.77,1.19,8.62
		c0.59,2.85,1.4,5.65,2.33,8.44c-0.66-1.31-1.23-2.67-1.76-4.04c-0.5-1.38-0.94-2.79-1.33-4.22c-0.77-2.85-1.22-5.78-1.44-8.73
		c-0.18-2.95-0.13-5.92,0.24-8.84c0.19-1.46,0.43-2.92,0.74-4.36C316.04,316.07,316.41,314.64,316.89,313.26z"/>
</g>
<g>
	<path class="st8" d="M330.38,400.57c-1.97,1.57-4.25,2.71-6.53,3.77c-2.3,1.03-4.67,1.94-7.1,2.65c-2.43,0.73-4.92,1.28-7.47,1.57
		c-1.28,0.15-2.57,0.22-3.87,0.18c-0.65-0.02-1.3-0.07-1.96-0.14l-1.89-0.26c-2.51-0.39-5.01-0.99-7.44-1.8
		c-2.42-0.85-4.76-1.93-6.93-3.29c-4.36-2.7-7.98-6.33-11.09-10.26c3.74,3.34,7.58,6.54,11.89,8.87c4.3,2.35,9.02,3.74,13.87,4.51
		c4.78,0.96,9.67,0.23,14.49-0.85c2.4-0.57,4.79-1.25,7.14-2.06C325.85,402.65,328.19,401.79,330.38,400.57z"/>
</g>
<g>
	<path class="st8" d="M326.19,396.49c-1.9-1.2-3.4-2.93-4.84-4.64l-0.53-0.65l-0.26-0.32c-0.08-0.09-0.18-0.17-0.29-0.26
		c-0.42-0.34-0.89-0.63-1.36-0.89c-0.47-0.25-0.97-0.47-1.45-0.56c-0.24-0.05-0.48-0.06-0.74-0.05c-0.25,0.01-0.49,0.05-0.76,0.1
		c-1.09,0.21-2.21,0.41-3.32,0.57c-1.12,0.14-2.27,0.34-3.59,0.13c-2.35-0.72-4.32-1.53-6.43-2.25c-1.07-0.38-1.94-0.62-2.94-0.59
		c-0.98,0-2.01,0.21-3.09,0.47c-2.17,0.51-4.34,0.98-6.5,1.53c-1.08,0.25-2.19,0.55-3.38,0.68c-1.17,0.14-2.35,0.1-3.49-0.05
		c-2.3-0.31-4.47-1.13-6.41-2.27c2.14,0.68,4.32,1.16,6.49,1.19c1.08,0.03,2.15-0.09,3.2-0.28c1.03-0.19,2.06-0.57,3.14-0.9
		c2.15-0.65,4.32-1.27,6.5-1.79c1.09-0.27,2.26-0.55,3.52-0.57c1.26-0.04,2.57,0.36,3.6,0.75c2.13,0.74,4.25,1.76,6.13,2.45
		c0.88,0.24,2,0.17,3.09,0.11c1.11-0.07,2.21-0.12,3.34-0.22c0.59-0.06,1.23-0.01,1.84,0.17c0.6,0.18,1.11,0.49,1.59,0.81
		c0.48,0.33,0.92,0.7,1.32,1.12c0.43,0.46,0.69,0.91,1.05,1.35C322.98,393.39,324.36,395.19,326.19,396.49z"/>
</g>
<g>
	<path class="st8" d="M331.65,398.47c-2.4,0.63-4.97,0.74-7.48,0.32c-1.26-0.21-2.51-0.65-3.66-1.19c-1.15-0.54-2.19-1.06-3.32-1.38
		c-1.13-0.34-2.3-0.56-3.41-0.59c-1.12-0.04-2.25,0.23-3.56,0.4c-1.3,0.17-2.66,0.12-3.94-0.06c-1.28-0.18-2.57-0.44-3.84-0.97
		c-0.63-0.27-1.23-0.63-1.75-0.96c-0.52-0.33-0.97-0.59-1.48-0.79c-0.51-0.19-1.04-0.35-1.61-0.45c-0.28-0.06-0.57-0.1-0.86-0.15
		l-0.22-0.04c-0.23-0.03-0.01-0.01-0.14-0.02l-0.45-0.02l-3.71-0.15c-1.24-0.07-2.47-0.14-3.71-0.18c-1.24-0.05-2.47-0.11-3.71-0.19
		c-1.25-0.1-2.45-0.1-3.78-0.36c-1.31-0.34-2.42-1.02-3.41-1.79c-1-0.77-1.88-1.65-2.74-2.55c0.99,0.74,2,1.47,3.05,2.09
		c1.05,0.61,2.16,1.14,3.29,1.29c1.12,0.11,2.41,0.08,3.63,0.08l3.71-0.03l7.42-0.08l0.47,0c0.03-0.01,0.39,0.03,0.32,0.02
		l0.24,0.03c0.32,0.04,0.64,0.07,0.97,0.14c0.65,0.11,1.31,0.28,1.96,0.52c0.65,0.24,1.28,0.6,1.81,0.93c0.53,0.33,1,0.59,1.51,0.81
		c1.01,0.42,2.16,0.7,3.33,0.87c1.17,0.18,2.31,0.21,3.46,0.11c1.15-0.1,2.46-0.36,3.82-0.27c1.36,0.08,2.63,0.41,3.84,0.86
		c1.23,0.44,2.38,1.08,3.42,1.69c1.05,0.61,2.11,1.08,3.28,1.4C326.7,398.49,329.18,398.66,331.65,398.47z"/>
</g>
<g>
	<path class="st8" d="M278.74,385.24c-1.12-0.55-2.17-0.84-3.19-0.82c-1.01,0.01-1.96,0.28-2.69,0.78c-0.73,0.5-1.24,1.27-1.51,2.24
		c-0.27,0.97-0.27,2.07-0.01,3.29c-0.99-0.78-1.56-2.1-1.55-3.48c0-1.36,0.69-2.86,1.93-3.69c1.22-0.84,2.74-1.03,4.05-0.69
		C277.1,383.2,278.23,384.11,278.74,385.24z"/>
</g>
<g>
	<g>
		<path class="st8" d="M256.66,312.8c2.59-3.41,6.08-6.17,10.05-8.08c3.97-1.91,8.55-2.86,13.07-2.46c4.53,0.32,8.9,2.1,12.46,4.72
			c3.56,2.65,6.39,6.12,8.14,10.03c-3.11-2.93-6.32-5.5-9.84-7.38c-3.51-1.86-7.25-3.09-11.1-3.38c-3.85-0.35-7.77,0.18-11.57,1.39
			C264.03,308.8,260.34,310.64,256.66,312.8z"/>
	</g>
	<g>
		<circle class="st8" cx="280.72" cy="313.18" r="8.03"/>
		<g>
			<path class="st8" d="M279.8,321.16c-2.09-0.23-4.08-1.31-5.42-2.94c-1.36-1.62-2.07-3.82-1.88-5.98
				c0.18-2.16,1.26-4.26,2.97-5.68c1.7-1.42,4.01-2.1,6.23-1.85c2.22,0.25,4.31,1.44,5.65,3.21c1.35,1.76,1.91,4.06,1.6,6.2
				c-0.3,2.15-1.49,4.12-3.19,5.4C284.07,320.81,281.89,321.41,279.8,321.16z M279.8,321.16c2.09,0.24,4.26-0.4,5.86-1.74
				c1.61-1.33,2.61-3.31,2.78-5.34c0.18-2.04-0.49-4.09-1.77-5.61c-1.27-1.54-3.12-2.54-5.09-2.76c-1.96-0.24-4,0.32-5.58,1.53
				c-1.6,1.19-2.72,3.04-3.01,5.06c-0.3,2.02,0.23,4.17,1.49,5.84C275.75,319.8,277.71,320.91,279.8,321.16z"/>
		</g>
	</g>
	<g>
		<path class="st8" d="M257.64,306.91c2.59-1.99,5.28-3.9,8.21-5.43c2.89-1.57,6.15-2.65,9.45-2.95c3.29-0.4,6.71-0.17,9.89,0.81
			c1.59,0.49,3.12,1.14,4.58,1.92c1.44,0.81,2.81,1.74,4.03,2.83c-1.37-0.9-2.78-1.73-4.26-2.38c-1.47-0.68-3-1.22-4.56-1.6
			c-3.12-0.8-6.36-0.96-9.56-0.6c-1.62,0.17-3.19,0.43-4.73,0.89c-1.54,0.46-3.04,1.06-4.51,1.73
			C263.22,303.5,260.45,305.22,257.64,306.91z"/>
	</g>
</g>
<g>
	<g>
		<path class="st8" d="M326.91,321.53c2.86-2.77,6.39-4.94,10.36-6.15c3.95-1.19,8.39-1.34,12.47-0.13
			c1.03,0.25,2.01,0.68,2.99,1.06c0.49,0.21,0.95,0.47,1.42,0.71c0.47,0.23,0.94,0.48,1.37,0.78c1.8,1.09,3.4,2.46,4.81,3.96
			c2.83,3.01,4.86,6.62,5.98,10.44c-2.6-3.03-5.17-5.87-8.12-8.13c-1.46-1.13-2.97-2.18-4.58-2.99c-1.59-0.84-3.25-1.54-4.97-1.99
			c-1.71-0.53-3.48-0.78-5.26-0.89c-1.79-0.1-3.61-0.03-5.44,0.24C334.28,318.93,330.66,320.17,326.91,321.53z"/>
	</g>
	<g>
		<circle class="st8" cx="347.15" cy="325.08" r="6.57"/>
		<path class="st8" d="M346.04,331.55c-1.7-0.28-3.27-1.24-4.31-2.64c-1.05-1.39-1.55-3.21-1.3-4.98c0.24-1.77,1.21-3.46,2.68-4.56
			c1.47-1.1,3.41-1.57,5.23-1.25c1.82,0.31,3.5,1.39,4.52,2.92c1.03,1.52,1.37,3.45,1.01,5.19c-0.36,1.75-1.44,3.31-2.89,4.27
			C349.54,331.46,347.74,331.85,346.04,331.55z M346.04,331.55c1.7,0.29,3.5-0.14,4.86-1.17c1.37-1.02,2.26-2.59,2.47-4.24
			c0.23-1.65-0.24-3.33-1.22-4.61c-0.96-1.29-2.41-2.18-3.98-2.44c-1.57-0.28-3.23,0.07-4.57,0.97c-1.35,0.88-2.35,2.32-2.68,3.94
			c-0.34,1.62-0.03,3.4,0.92,4.82C342.79,330.25,344.35,331.25,346.04,331.55z"/>
	</g>
	<g>
		<path class="st8" d="M334.48,313.65c3-1.77,6.46-2.83,10-3.01c3.54-0.16,7.14,0.64,10.28,2.31c1.58,0.82,3.03,1.85,4.39,2.96
			c1.44,1.12,2.45,2.64,3.36,4.13c1.81,3.02,2.97,6.32,4.42,9.47c-1.74-3.02-3.1-6.24-4.98-9.12c-0.95-1.43-1.99-2.8-3.33-3.79
			c-1.37-1.05-2.79-1.99-4.3-2.77c-3.02-1.56-6.4-2.38-9.81-2.36C341.09,311.46,337.68,312.3,334.48,313.65z"/>
	</g>
</g>
<path class="st19" d="M293.48,230.86c-0.03,3.74,1.38,9.13-1.09,17.27s-2.15,7.77-3.61,17.77c-1.46,10-2.65,11.34-7.42,14.74
	c-4.77,3.4-14.03,13.02-14.77,14.87c-0.74,1.85-0.79-5,1.64-8.61c2.43-3.61,5.38-6.27,6.31-12.53c0.93-6.26,2.3-0.97,4.07-11.81
	c1.78-10.84,0.47-10.37,0.14-17.77"/>
</svg>
