<?xml version="1.0" encoding="utf-8"?>
<!-- Generator: Adobe Illustrator 25.0.1, SVG Export Plug-In . SVG Version: 6.00 Build 0)  -->
<svg version="1.1" id="Capa_1" xmlns="http://www.w3.org/2000/svg" xmlns:xlink="http://www.w3.org/1999/xlink" x="0px" y="0px"
	 viewBox="0 0 595.28 841.89" style="enable-background:new 0 0 595.28 841.89;" xml:space="preserve">
<style type="text/css">
	.st0{fill:#E2B8A8;stroke:#1D1D1B;stroke-width:2;stroke-miterlimit:10;}
	.st1{fill:#E2E0F1;stroke:#1D1D1B;stroke-width:2;stroke-miterlimit:10;}
	.st2{fill:#F7F8FC;}
	.st3{fill:#C7C7D8;}
	.st4{fill:#F2CEC2;stroke:#1D1D1B;stroke-width:2;stroke-miterlimit:10;}
	.st5{fill:#E1D1E5;stroke:#1D1D1B;stroke-width:2;stroke-miterlimit:10;}
	.st6{fill:#BDAECC;stroke:#1D1D1B;stroke-width:2;stroke-miterlimit:10;}
	.st7{fill:#A89AB7;stroke:#1D1D1B;stroke-width:2;stroke-miterlimit:10;}
	.st8{fill:#1D1D1B;}
	.st9{fill:#847990;stroke:#1D1D1B;stroke-miterlimit:10;}
	.st10{fill:#DED2E9;stroke:#1D1D1B;stroke-width:2;stroke-miterlimit:10;}
	.st11{fill:#AEAA87;stroke:#1D1D1B;stroke-width:2;stroke-miterlimit:10;}
	.st12{fill:#8D896B;}
	.st13{fill:#CCC7A6;}
	.st14{fill:#89888D;stroke:#1D1D1B;stroke-miterlimit:10;}
	.st15{fill:#89888D;stroke:#1D1D1B;stroke-width:2;stroke-miterlimit:10;}
	.st16{fill:#6B7B9D;stroke:#1D1D1B;stroke-width:2;stroke-miterlimit:10;}
	.st17{fill:#57647D;}
	.st18{fill:#899AB7;}
	.st19{fill:#6D2F3B;stroke:#1D1D1B;stroke-width:2;stroke-miterlimit:10;}
	.st20{fill:#6D2F3B;stroke:#1D1D1B;stroke-miterlimit:10;}
	.st21{fill:#E2B8A8;}
	.st22{fill:#F2CEC2;}
	.st23{fill:#AEAA87;}
	.st24{fill:#89888D;}
	.st25{fill:#6B7B9D;}
	.st26{fill:#6D2F3B;}
	.st27{fill:#E2E0F1;}
	.st28{fill:#847990;}
	.st29{fill:#E1D1E5;}
	.st30{fill:#BDAECC;}
	.st31{fill:#A89AB7;}
	.st32{fill:#DED2E9;}
	.st33{fill:none;stroke:#1D1D1B;stroke-width:3;stroke-miterlimit:10;}
	.st34{clip-path:url(#SVGID_2_);}
	.st35{fill:none;stroke:#1D1D1B;stroke-width:4;stroke-miterlimit:10;}
	.st36{fill:none;stroke:#1D1D1B;stroke-width:0.5;stroke-miterlimit:10;}
</style>
<path class="st16" d="M209.1,438.09c0,0,71.02,43.75,80.83,52.12c8.85,7.55,30,15.29,30,15.29s19.77-16.36,25.67-22.79
	c5.9-6.43,9.03-12.81,9.03-12.81l-10.02-32.09c0,0,32.68,4.22,40.95,4.79c8.27,0.57,44.99,2.88,57.51,5.23
	c12.52,2.35,24.16,2.67,37.47,18.22s20.46,41.32,25.15,54.62c4.7,13.3,14.09,78.26,14.09,78.26H100.31H72.74
	c0,0,2.07-36.33,6.97-52.2c4.9-15.86,20.96-68.86,27.01-80.68c6.06-11.83,15.1-20.38,29.81-27.79c14.71-7.41,44.93-5.74,51.28-6.03
	s44.43-2.39,44.43-2.39l-6.07,6.42L209.1,438.09z"/>
<path class="st17" d="M240.02,431.81c0,0-63.61,2.36-68.05,2.57c-4.44,0.21-21.48-1.73-33.95,5.81s-21.47,17.5-21.47,17.5
	s23.08-6.15,42.79-12.94c15.97-5.51,59.43-5.4,63.23-5.81C226.37,438.54,240.02,431.81,240.02,431.81z"/>
<path class="st17" d="M350.87,460.02c3,4.88,6.13,12.32,5.35,14.67c-0.78,2.35-30.71,28.28-30.71,28.28s33.45-18.88,40.88-20.45
	s16.04-4.74,19.17-8.66c3.13-3.91,7.83-3.87,10.17-8.17c2.35-4.3,2.74-1.15,5.87-5.48c3.13-4.33,4.3-1.54,10.17-2.32
	c5.87-0.78,23.87-2.32,32.48,0c8.61,2.32,11.35-3.55,24.65,7.8c13.3,11.35,22.26,18.69,24.26,23.26c2,4.57-4.85-13.13-12.63-20.75
	c-7.78-7.62-13.9-15.03-34.79-17.74c-21.1-2.73-60.19-5.71-60.19-5.71l-16.43,10.37l-16.43-4.7L350.87,460.02z"/>
<path class="st18" d="M209.1,438.09c4.3,3.13,56.34,36.01,61.03,39.53c4.7,3.52,29.6,22.12,33.39,23.19s12.25,2.36,17.24,6.86
	c1.01,0.91,4.16,5.95,8.46,15.34s16.83,53.61,18,63.39c1.17,9.78,0,12.52,0,12.52s-4.53-21.52-9.9-30.91s-21.8-37.96-25.71-42.46
	c-3.91-4.5-26.61-20.73-33.26-24.75c-6.65-4.01-29.74-15.75-35.61-26.32S209.1,438.09,209.1,438.09z"/>
<path class="st0" d="M232.96,368.84c0,0,10.93,32.14,8.61,45.39c-2.32,13.25-11.86,17.88-18.85,20.7s-13.62,3.15-13.62,3.15
	s77.53,50.36,85.15,56.99c7.62,6.63,26.51,12.59,26.51,12.59s19.88-19.55,27.5-24.85c7.62-5.3,13.12-11.6,13.12-11.6
	s-11.46-14.9-12.45-28.16c-0.99-13.25-1.73-27.57-1.73-27.57s-71.49-16.17-76.79-21.47C265.09,388.72,232.96,368.84,232.96,368.84z"
	/>
<path class="st19" d="M301.87,178.33c-5.3,0-21.54-5.96-29.82-0.33c-8.28,5.63-9.61,1.33-16.57,8.95s-9.61,12.13-17.56,16.33
	c-7.95,4.21-13.92,2.55-22.53,8.18s-6.63-0.66-11.6,11.27s-2.65,19.88-13.58,24.19c-10.93,4.31-19.55,10.27-20.54,17.23
	c-0.99,6.96,1.33,10.93-6.96,17.23c-8.28,6.3-12.92,8.28-15.57,15.57c-2.65,7.29-4.31,8.61-4.31,8.61s6.3-7.29,11.27-9.61
	c4.97-2.32,8.94-2.96,12.92-8.61c3.29-4.68,6.14-4.77,6.14-4.77s2.48-1.52-3.16,6.43c-5.63,7.95-10.93,11.93-12.59,21.87
	s0,15.24,0.99,20.87c0.99,5.63,4.31,13.25,4.31,13.25s0.66-11.93,0.66-16.24s2.65-17.89,4.97-21.54c2.32-3.64,2.65-1.99,1.99,2.32
	c-0.66,4.31,4.64,22.53,1.66,31.48c-2.98,8.95,0.33,13.58-7.95,20.54s-9.94,4.97-13.92,8.61s-13.58,5.3-13.58,5.3s11.6,0.99,16.9,0
	s21.53-3.31,24.85-6.96s4.97-6.63,4.97-6.63s-7.29,17.23-9.94,20.87c-2.65,3.64-10.93,10.6-11.93,10.6c-0.99,0,10.6-1.66,10.6-1.66
	s5.3,0.66,4.31,1.66c-0.99,0.99-1.99,5.96-1.99,5.96s8.28,6.63,12.26,8.95c3.98,2.32,8.29-0.45,11.6,0s8.28-2.65,10.6-4.97
	c2.32-2.32,5.96-25.18,5.96-26.84c0-1.66,2.32-124.91,2.32-126.57s33.8-35.45,33.8-35.45s53.34-28.16,55-27.17
	c1.66,0.99,31.48,3.64,31.48,3.64S318.77,178,314.79,178S301.87,178.33,301.87,178.33z"/>
<path class="st4" d="M252.19,266.58c-4.5,8.35-13.49,25.05-16.06,47.53c-2.57,22.48-5.78,36.61,0,52.67
	c5.78,16.06,18.63,34.04,23.12,38.54c4.5,4.5,26.09,22.65,37.01,25.22c10.92,2.57,32.36,1.76,45.21-7.24
	c12.85-8.99,25.05-26.98,29.55-36.61c4.5-9.63,9.63-43.68,10.28-58.45c0.64-14.77,4.5-54.6,0-68.08
	c-4.5-13.49-11.66-52.46-27.07-56.31c-15.42-3.85-39.53,13.28-46.05,15.21c-6.52,1.93-36.07,17.34-40.56,26.98
	C263.11,255.66,252.19,266.58,252.19,266.58z"/>
<path class="st19" d="M339.88,212.46c0,7.07,1.68,9.27-3.46,18.91c-5.14,9.63-8.99,8.99-10.92,18.63s0,6.42-7.07,16.7
	c-7.07,10.28-5.13,7.53-10.27,12.03s-1.43-2.58,0.89-8.88c3.78-10.26-5.49-10.64-4.21-20.28c1.28-9.63-5.42-8.56-4.59-14.99
	c0.83-6.42-3.02-17.34-9.45-3.21c-6.42,14.13-10.92,16.06-20.55,26.33c-9.63,10.28-10.28,10.28-20.55,25.05
	c-10.28,14.77-18.63,14.77-23.12,26.98c-4.5,12.2-1.93,17.98,0,34.68c1.93,16.7,7.71,27.62,3.85,39.18
	c-3.85,11.56-16.06,25.69-22.48,28.9c-6.42,3.21-19.91,4.5-19.91,4.5s20.55-8.35,20.55-21.2c0-12.85-8.99-18.63-16.06-30.83
	c-7.07-12.2-15.42-23.77-14.13-38.54c1.28-14.77,11.56-25.69,16.06-35.33c4.5-9.63-1.57-19.6-0.28-27.95
	c1.28-8.35,6.76-27.74,21.54-35.45c14.77-7.71,18.57-8.53,25.63-16.88c7.07-8.35,14.77-15.42,28.26-17.98s22.48-10.28,34.04-10.92
	s27.94,0.79,34.65,2.71c6.71,1.93,12.88-4.64,21.87,5.64c8.99,10.28,19.91,10.92,28.26,22.48c8.35,11.56,8.99,16.06,13.49,28.26
	s1.28-0.64,13.49,19.91c12.2,20.55,7.07,16.06,12.85,35.33c5.78,19.27,4.5,3.21,8.99,25.05c4.5,21.84,9.63,14.13,1.93,33.4
	c-7.71,19.27-5.78,37.25,1.28,39.82c7.07,2.57,16.7,3.21,16.7,3.21s-22.48,10.92-31.47,2.57c-8.99-8.35-14.77-10.92-14.77-10.92
	s12.85,19.27,19.27,19.91s-11.56,5.78-16.06,3.85s-13.49-4.5-13.49-4.5s11.56,13.49,16.7,14.13s-1.93,11.56-4.5,11.56
	s-20.55,2.57-20.55,8.35c0,5.78-3.21,10.28-6.42,12.85s-8.99,1.93-10.28,8.35c-1.28,6.42-11.52,10.89-15.98,6.01
	c-5.93-6.48-9.43-16.07-9.68-19.97c-0.33-4.96-6.71-27.92-6.71-27.92s17.17-16.1,22.18-25.36c6.37-11.78,12.41-58.56,14-71.4
	c5.94-47.82-3.17-65.61-7.02-69.47c-3.85-3.85-7.07-25.05-11.56-28.9s0-3.21,0,8.35c0,11.56-2.23,15.62-0.31,20.31
	c2.25,5.5,9.37,12.8,11.87,16.3c0,0-13.6-5.94-16.84-9.68c-6.42-7.41-6.92-19.87-6.92-30.14
	C348.62,221.73,339.88,212.46,339.88,212.46z"/>
<path class="st19" d="M203.14,429.81c-5.16,3.22,15.57-4.64,22.53-15.24c6.96-10.6,11.27-11.27,12.92-20.87s0.33-17.89,0-28.16
	s-3.31-20.21-1.66-36.78c1.66-16.57,1.51-14.09,3.98-26.17s3.64-19.22,5.96-23.86c2.32-4.64-14.25,2.98-20.21,10.27
	s-13.92,27.83-10.93,44.73s10.6,47.05,6.3,58.98C217.71,404.63,205.79,428.15,203.14,429.81z"/>
<path class="st19" d="M267.61,246.03c-0.93,5.32-10.63,27.6-11.01,32.86c-0.39,5.27,2.96,10.88,1.32,18.18
	c-1.64,7.3-4.58,12.11-9.04,19.69c-4.46,7.58-6.42,15.16-7.1,20.29c-0.69,5.14,3.15,27.72,3.15,27.72s-10.84-15.83-10.99-19.99
	c-0.15-4.16-1.74-9.29,0.63-17.92c2.37-8.63,9.46-14.71,7.85-22.38c-1.6-7.68-1.21-9.77-0.41-15.26c0.79-5.5,3.02-18.24,3.02-18.24"
	/>
<g>
	<path class="st8" d="M328.99,345.44c0.54,1.17,1.25,2.1,2.09,3.07c0.2,0.25,0.4,0.54,0.57,0.89c0.18,0.37,0.23,0.88,0.1,1.34
		c-0.31,0.86-0.88,1.33-1.37,1.78c-1.03,0.94-2.4,1.5-3.71,1.79c-1.3,0.3-2.7,0.28-3.58,0.57c-0.21,0.06-0.33,0.13-0.38,0.19
		c-0.01,0.02-0.03,0.03-0.04,0.04l-0.15,0.22c-0.1,0.15-0.22,0.3-0.35,0.45c-0.47,0.59-1.35,1.18-2.24,1.21
		c-0.43,0.03-0.82-0.02-1.16-0.07l-0.25-0.05l-0.33-0.08c-0.2-0.07-0.38-0.14-0.54-0.22c-0.66-0.31-1.19-0.7-1.71-1.1
		c-0.51-0.4-1.01-0.81-1.48-1.26c-0.23-0.23-0.46-0.46-0.69-0.71c-0.14-0.15-0.14-0.17-0.27-0.27c-0.09-0.09-0.22-0.16-0.33-0.25
		c-0.99-0.66-2.15-1.19-3.27-1.77c1.27,0.16,2.49,0.42,3.74,0.9c0.16,0.07,0.31,0.14,0.47,0.24c0.14,0.07,0.37,0.26,0.45,0.32
		c0.23,0.18,0.47,0.35,0.72,0.52c0.5,0.34,1.01,0.68,1.53,0.98c0.52,0.3,1.05,0.59,1.54,0.78c0.12,0.05,0.23,0.08,0.33,0.11
		l0.13,0.02l0.21,0.02c0.28,0.03,0.52,0.03,0.71,0c0.37-0.06,0.63-0.21,0.94-0.59c0.07-0.09,0.15-0.19,0.22-0.3l0.11-0.17
		c0.08-0.11,0.16-0.22,0.25-0.32c0.37-0.41,0.83-0.63,1.21-0.75c0.79-0.23,1.44-0.26,2.07-0.32c0.63-0.05,1.21-0.11,1.78-0.2
		c1.14-0.16,2.18-0.54,3.11-1.16c0.49-0.31,0.91-0.7,1.1-1c0.06-0.14,0.11-0.28,0.06-0.5c-0.06-0.22-0.18-0.48-0.32-0.75
		c-0.27-0.55-0.6-1.12-0.83-1.73C329.2,346.71,329.07,346.07,328.99,345.44z"/>
</g>
<g>
	<path class="st8" d="M305.22,351.43c-1.65-1.05-2.32-3.4-1.63-5.38c0.34-0.99,0.98-1.86,1.8-2.44c0.81-0.58,1.75-0.94,2.74-0.89
		c-1.29,1.42-2.18,2.62-2.64,3.98C305.01,348.06,304.96,349.52,305.22,351.43z"/>
</g>
<path class="st20" d="M345.53,273.51c0.07,1.85,0.11,3.96,1.78,4.13s4.05,1.84,8.85,3.16s8.41,1.88,11.15,2.85
	c2.74,0.98,5.27,5.52,6.8,9.1c1.53,3.58,1.43,5.66,1.43,5.66s1.14-4.93-0.56-8.15c-1.7-3.22-3.52-10.69-6.15-11.91
	s-9.31-1.22-11.96-1.85c-2.65-0.63-10.18-5.19-10.18-5.19L345.53,273.51z"/>
<path class="st20" d="M301.72,267.74c0.15,0.22-2.84,0.44-4.05,0.93c-1.21,0.49-6.41,4.27-12.74,5.74
	c-6.46,1.5-15.87,2.05-17.81,2.53s-9.61,4.86-9.33,8.65c0.25,3.39-0.26,0.68-0.26,0.68s-1.8-3-0.22-5.36
	c1.58-2.36,4.14-8.14,7.05-9.59c2.91-1.45,12.43-1.47,16.21-1.87c3.78-0.4,11.31-4.42,12.91-4.82c1.85-0.46,4.38-0.61,5.61-0.58
	C300.31,264.09,301.72,267.74,301.72,267.74z"/>
<g>
	<path class="st8" d="M325.24,298.24c-0.55,2.88-0.97,5.77-1.17,8.67c-0.19,2.9-0.21,5.81-0.01,8.7c0.19,2.9,0.61,5.77,1.19,8.62
		c0.59,2.85,1.4,5.65,2.33,8.44c-0.67-1.31-1.23-2.67-1.76-4.04c-0.5-1.38-0.94-2.79-1.33-4.22c-0.77-2.85-1.22-5.78-1.44-8.73
		c-0.18-2.95-0.13-5.92,0.24-8.84c0.19-1.46,0.43-2.92,0.74-4.36C324.39,301.05,324.76,299.63,325.24,298.24z"/>
</g>
<g>
	<path class="st8" d="M330.83,387.94c-1.31,1.21-2.88,2.11-4.45,2.95c-1.59,0.82-3.23,1.54-4.94,2.12c-1.7,0.59-3.46,1.04-5.28,1.3
		l-1.38,0.15c-0.46,0.02-0.93,0.02-1.4,0.03c-0.47-0.01-0.94-0.06-1.42-0.09l-1.35-0.18c-1.79-0.28-3.57-0.73-5.29-1.35
		c-1.71-0.65-3.37-1.48-4.87-2.51c-3.02-2.06-5.44-4.79-7.43-7.71c2.64,2.37,5.3,4.67,8.28,6.36c2.97,1.7,6.23,2.71,9.62,3.26
		c3.31,0.68,6.7,0.12,10.07-0.7c1.68-0.43,3.35-0.93,4.99-1.53C327.64,389.43,329.28,388.8,330.83,387.94z"/>
</g>
<g>
	<path class="st8" d="M331.87,381.31c-1.48-0.93-2.7-2.22-3.86-3.52c-0.58-0.64-1.12-1.38-1.67-1.97c-0.65-0.53-1.4-0.98-2.15-1.28
		c-0.77-0.33-1.47-0.27-2.32-0.06c-0.86,0.19-1.73,0.35-2.59,0.49c-0.87,0.13-1.75,0.29-2.72,0.28c-0.48,0-1.01-0.06-1.52-0.21
		l-1.27-0.44l-2.46-0.92l-2.41-0.88c-0.8-0.29-1.46-0.44-2.24-0.45c-0.76-0.03-1.56,0.08-2.39,0.23l-5.12,0.96
		c-1.71,0.28-3.43,0.72-5.21,0.71c1.67-0.51,3.25-1.26,4.92-1.81c1.66-0.59,3.32-1.09,5.03-1.56c0.86-0.22,1.79-0.42,2.78-0.45
		c0.96-0.03,2.03,0.2,2.87,0.49c0.86,0.27,1.68,0.58,2.49,0.91l2.41,0.97l1.16,0.5c0.32,0.11,0.66,0.18,1.05,0.21
		c0.77,0.05,1.63,0.02,2.49-0.02l2.6-0.13c0.86-0.1,1.98,0.03,2.79,0.49c0.82,0.44,1.52,1,2.14,1.66l1.59,2.1
		C329.31,378.96,330.44,380.3,331.87,381.31z"/>
</g>
<g>
	<path class="st8" d="M334.54,384.54c-2.02-0.86-4.09-1.44-6.23-1.83l-3.22-0.65c-1.06-0.24-2.06-0.41-3.06-0.39
		c-1,0.02-1.99,0.21-3.12,0.39c-1.12,0.18-2.32,0.22-3.47,0.11c-1.16-0.11-2.26-0.31-3.37-0.56c-1.1-0.27-2.25-0.65-3.31-1.29
		c-0.53-0.32-0.97-0.66-1.36-0.9c-0.2-0.12-0.4-0.23-0.61-0.33c-0.23-0.11-0.53-0.23-0.79-0.38c-0.27-0.14-0.55-0.31-0.8-0.48
		c-0.25-0.18-0.39-0.28-0.53-0.34c-0.29-0.13-0.83-0.2-1.34-0.25c-2.1-0.17-4.32-0.29-6.46-0.36c-0.54-0.02-1.07-0.02-1.6-0.01
		c-0.26,0.01-0.54,0.03-0.87,0.02c-0.32-0.02-0.61-0.07-0.86-0.1c-1.05-0.13-2.14-0.18-3.21-0.19c-2.16,0-4.34,0.12-6.47,0.62
		c2.05-0.77,4.25-1.14,6.44-1.33c1.1-0.09,2.2-0.13,3.33-0.09c0.6,0.05,0.95,0.02,1.54-0.08c0.56-0.08,1.12-0.13,1.67-0.17
		c1.11-0.07,2.21-0.09,3.3-0.1c1.1-0.01,2.19-0.02,3.32,0.05c0.57,0.05,1.14,0.05,1.87,0.32c0.37,0.14,0.68,0.36,0.88,0.49
		c0.21,0.13,0.4,0.24,0.62,0.34c0.22,0.11,0.43,0.18,0.7,0.3c0.29,0.12,0.58,0.25,0.85,0.41c0.55,0.32,0.97,0.64,1.38,0.88
		c0.82,0.48,1.78,0.77,2.79,1.03c1.01,0.26,2.06,0.47,3.08,0.57c1.03,0.1,2.02,0.13,3.06,0.02c1.03-0.09,2.2-0.31,3.39-0.21
		c1.18,0.08,2.33,0.38,3.37,0.72l3.12,0.97C330.66,382.4,332.74,383.27,334.54,384.54z"/>
</g>
<g>
	<g>
		<g>
			<path class="st8" d="M262.59,298.12c2.59-3.41,6.08-6.17,10.05-8.08c3.97-1.91,8.55-2.86,13.07-2.46
				c4.53,0.32,8.9,2.1,12.46,4.72c3.56,2.65,6.39,6.12,8.14,10.03c-3.11-2.93-6.32-5.5-9.84-7.38c-3.51-1.86-7.25-3.09-11.1-3.38
				c-3.85-0.35-7.77,0.18-11.57,1.39C269.96,294.13,266.28,295.96,262.59,298.12z"/>
		</g>
		<g>
			<circle class="st8" cx="286.66" cy="298.5" r="8.03"/>
			<g>
				<path class="st8" d="M285.74,306.48c-2.09-0.23-4.08-1.31-5.42-2.94c-1.36-1.62-2.07-3.82-1.88-5.98
					c0.18-2.16,1.26-4.26,2.97-5.68c1.7-1.42,4.01-2.1,6.23-1.85c2.22,0.25,4.31,1.44,5.65,3.21c1.35,1.76,1.91,4.06,1.6,6.2
					c-0.3,2.15-1.49,4.12-3.19,5.4C290.01,306.13,287.83,306.73,285.74,306.48z M285.74,306.48c2.09,0.24,4.26-0.4,5.86-1.74
					c1.61-1.33,2.61-3.31,2.78-5.34c0.18-2.04-0.49-4.09-1.77-5.61c-1.27-1.54-3.12-2.54-5.09-2.76c-1.96-0.24-4,0.32-5.58,1.53
					c-1.6,1.19-2.72,3.04-3.01,5.06c-0.3,2.02,0.23,4.17,1.49,5.84C281.68,305.12,283.65,306.24,285.74,306.48z"/>
			</g>
		</g>
		<g>
			<path class="st8" d="M263.57,292.23c2.59-1.99,5.28-3.9,8.21-5.43c2.89-1.57,6.15-2.65,9.45-2.95c3.29-0.4,6.71-0.17,9.89,0.81
				c1.59,0.49,3.12,1.14,4.58,1.92c1.44,0.81,2.81,1.74,4.03,2.83c-1.37-0.9-2.78-1.73-4.26-2.38c-1.47-0.68-3-1.22-4.56-1.6
				c-3.12-0.8-6.36-0.96-9.56-0.6c-1.62,0.17-3.19,0.43-4.73,0.89c-1.54,0.46-3.04,1.06-4.51,1.73
				C269.16,288.82,266.38,290.55,263.57,292.23z"/>
		</g>
	</g>
	<g>
		<g>
			<path class="st8" d="M332.84,306.86c2.86-2.77,6.39-4.94,10.36-6.15c3.95-1.19,8.39-1.34,12.47-0.13
				c1.03,0.25,2.01,0.68,2.99,1.06c0.49,0.21,0.95,0.47,1.42,0.71c0.47,0.23,0.94,0.48,1.37,0.78c1.8,1.09,3.4,2.46,4.81,3.96
				c2.83,3.01,4.86,6.62,5.98,10.44c-2.6-3.03-5.17-5.87-8.12-8.13c-1.46-1.13-2.97-2.18-4.58-2.99c-1.59-0.84-3.25-1.54-4.97-1.99
				c-1.71-0.53-3.48-0.78-5.26-0.89c-1.79-0.1-3.61-0.03-5.44,0.24C340.22,304.25,336.6,305.49,332.84,306.86z"/>
		</g>
		<g>
			<circle class="st8" cx="353.09" cy="310.4" r="6.57"/>
			<path class="st8" d="M351.98,316.87c-1.7-0.28-3.27-1.24-4.31-2.64c-1.05-1.39-1.55-3.21-1.3-4.98c0.24-1.77,1.21-3.46,2.68-4.56
				c1.47-1.1,3.41-1.57,5.23-1.25c1.82,0.31,3.5,1.39,4.52,2.92c1.03,1.52,1.37,3.45,1.01,5.19c-0.36,1.75-1.44,3.31-2.89,4.27
				C355.48,316.79,353.67,317.17,351.98,316.87z M351.98,316.87c1.7,0.29,3.5-0.14,4.86-1.17c1.37-1.02,2.26-2.59,2.47-4.24
				c0.23-1.65-0.24-3.33-1.22-4.61c-0.96-1.29-2.41-2.18-3.98-2.44c-1.57-0.28-3.23,0.07-4.57,0.97c-1.35,0.88-2.35,2.32-2.68,3.94
				c-0.34,1.62-0.03,3.4,0.92,4.82C348.73,315.57,350.28,316.58,351.98,316.87z"/>
		</g>
		<g>
			<path class="st8" d="M340.42,298.98c3-1.77,6.46-2.83,10-3.01c3.54-0.16,7.14,0.64,10.28,2.31c1.58,0.82,3.03,1.85,4.39,2.96
				c1.44,1.12,2.45,2.64,3.36,4.13c1.81,3.02,2.97,6.32,4.42,9.47c-1.74-3.02-3.1-6.24-4.98-9.12c-0.95-1.43-1.99-2.8-3.33-3.79
				c-1.37-1.05-2.79-1.99-4.3-2.77c-3.02-1.56-6.4-2.38-9.81-2.36C347.02,296.78,343.62,297.62,340.42,298.98z"/>
		</g>
	</g>
</g>
<path class="st19" d="M300.73,214.6c-0.03,3.74,2.47,10.37,0,18.51c-2.47,8.14-2.15,7.77-3.61,17.77c-1.46,10-2.65,11.34-7.42,14.74
	c-4.77,3.4-14.03,13.02-14.77,14.87c-0.74,1.85-0.79-5,1.64-8.61c2.43-3.61,5.38-6.27,6.31-12.53c0.93-6.26,2.3-0.97,4.07-11.81
	s0.47-10.37,0.14-17.77"/>
</svg>
