<?xml version="1.0" encoding="utf-8"?>
<!-- Generator: Adobe Illustrator 25.0.1, SVG Export Plug-In . SVG Version: 6.00 Build 0)  -->
<svg version="1.1" id="Capa_1" xmlns="http://www.w3.org/2000/svg" xmlns:xlink="http://www.w3.org/1999/xlink" x="0px" y="0px"
	 viewBox="0 0 595.28 841.89" style="enable-background:new 0 0 595.28 841.89;" xml:space="preserve">
<style type="text/css">
	.st0{fill:#E2B8A8;stroke:#1D1D1B;stroke-width:2;stroke-miterlimit:10;}
	.st1{fill:#E2E0F1;stroke:#1D1D1B;stroke-width:2;stroke-miterlimit:10;}
	.st2{fill:#F7F8FC;}
	.st3{fill:#C7C7D8;}
	.st4{fill:#F2CEC2;stroke:#1D1D1B;stroke-width:2;stroke-miterlimit:10;}
	.st5{fill:#E1D1E5;stroke:#1D1D1B;stroke-width:2;stroke-miterlimit:10;}
	.st6{fill:#BDAECC;stroke:#1D1D1B;stroke-width:2;stroke-miterlimit:10;}
	.st7{fill:#A89AB7;stroke:#1D1D1B;stroke-width:2;stroke-miterlimit:10;}
	.st8{fill:#1D1D1B;}
	.st9{fill:#847990;stroke:#1D1D1B;stroke-miterlimit:10;}
	.st10{fill:#DED2E9;stroke:#1D1D1B;stroke-width:2;stroke-miterlimit:10;}
	.st11{fill:#AEAA87;stroke:#1D1D1B;stroke-width:2;stroke-miterlimit:10;}
	.st12{fill:#8D896B;}
	.st13{fill:#CCC7A6;}
	.st14{fill:#89888D;stroke:#1D1D1B;stroke-miterlimit:10;}
	.st15{fill:#89888D;stroke:#1D1D1B;stroke-width:2;stroke-miterlimit:10;}
	.st16{fill:#6B7B9D;stroke:#1D1D1B;stroke-width:2;stroke-miterlimit:10;}
	.st17{fill:#57647D;}
	.st18{fill:#899AB7;}
	.st19{fill:#6D2F3B;stroke:#1D1D1B;stroke-width:2;stroke-miterlimit:10;}
	.st20{fill:#6D2F3B;stroke:#1D1D1B;stroke-miterlimit:10;}
	.st21{fill:#E2B8A8;}
	.st22{fill:#F2CEC2;}
	.st23{fill:#AEAA87;}
	.st24{fill:#89888D;}
	.st25{fill:#6B7B9D;}
	.st26{fill:#6D2F3B;}
	.st27{fill:#E2E0F1;}
	.st28{fill:#847990;}
	.st29{fill:#E1D1E5;}
	.st30{fill:#BDAECC;}
	.st31{fill:#A89AB7;}
	.st32{fill:#DED2E9;}
	.st33{fill:none;stroke:#1D1D1B;stroke-width:3;stroke-miterlimit:10;}
	.st34{clip-path:url(#SVGID_2_);}
	.st35{fill:none;stroke:#1D1D1B;stroke-width:4;stroke-miterlimit:10;}
	.st36{fill:none;stroke:#1D1D1B;stroke-width:0.5;stroke-miterlimit:10;}
</style>
<path class="st16" d="M231.68,439.01c0,0,71.02,43.75,80.83,52.12c8.85,7.55,30,15.29,30,15.29s19.77-16.36,25.67-22.79
	c5.9-6.43,9.03-12.81,9.03-12.81l-10.02-32.09c0,0,32.68,4.22,40.95,4.79c8.27,0.57,44.99,2.88,57.51,5.23
	c12.52,2.35,24.16,2.67,37.47,18.22s20.46,41.32,25.15,54.62c4.7,13.3,14.09,78.26,14.09,78.26H122.89H95.33
	c0,0,2.07-36.33,6.97-52.2c4.9-15.86,20.96-68.86,27.01-80.68c6.06-11.83,15.1-20.38,29.81-27.79s44.93-5.74,51.28-6.03
	c6.35-0.29,44.43-2.39,44.43-2.39l-6.07,6.42L231.68,439.01z"/>
<path class="st17" d="M262.6,432.73c0,0-63.61,2.36-68.05,2.57c-4.44,0.21-21.48-1.73-33.95,5.81c-12.47,7.54-21.47,17.5-21.47,17.5
	s23.08-6.15,42.79-12.94c15.97-5.51,59.43-5.4,63.23-5.81C248.95,439.46,262.6,432.73,262.6,432.73z"/>
<path class="st17" d="M371.83,460.94c3,4.88,6.13,12.32,5.35,14.67c-0.78,2.35-30.71,28.28-30.71,28.28s33.45-18.88,40.88-20.45
	s16.04-4.74,19.17-8.66s7.83-3.87,10.17-8.17c2.35-4.3,2.74-1.15,5.87-5.48c3.13-4.33,4.3-1.54,10.17-2.32
	c5.87-0.78,23.87-2.32,32.48,0c8.61,2.32,11.35-3.55,24.65,7.8c13.3,11.35,22.26,18.69,24.26,23.26s-4.85-13.13-12.63-20.75
	c-7.78-7.62-13.9-15.03-34.79-17.74c-21.1-2.73-60.19-5.71-60.19-5.71l-16.43,10.37l-16.43-4.7L371.83,460.94z"/>
<path class="st18" d="M231.68,439.01c4.3,3.13,56.34,36.01,61.03,39.53c4.7,3.52,29.6,22.12,33.39,23.19
	c3.79,1.07,12.25,2.36,17.24,6.86c1.01,0.91,4.16,5.95,8.46,15.34c4.3,9.39,16.83,53.61,18,63.39c1.17,9.78,0,12.52,0,12.52
	s-4.53-21.52-9.9-30.91s-21.8-37.96-25.71-42.46c-3.91-4.5-26.61-20.73-33.26-24.75c-6.65-4.01-29.74-15.75-35.61-26.32
	S231.68,439.01,231.68,439.01z"/>
<path class="st0" d="M255.54,369.76c0,0,10.93,32.14,8.61,45.39c-2.32,13.25-11.86,17.88-18.85,20.7s-13.62,3.15-13.62,3.15
	s77.53,50.36,85.15,56.99s26.51,12.59,26.51,12.59s19.88-19.55,27.5-24.85c7.62-5.3,13.12-11.6,13.12-11.6s-11.46-14.9-12.45-28.16
	c-0.99-13.25-1.73-27.57-1.73-27.57s-71.49-16.17-76.79-21.47C287.68,389.64,255.54,369.76,255.54,369.76z"/>
<path class="st19" d="M324.46,179.25c-5.3,0-21.54-5.96-29.82-0.33c-8.28,5.63-9.61,1.33-16.57,8.95
	c-6.96,7.62-9.61,12.13-17.56,16.33c-7.95,4.21-13.92,2.55-22.53,8.18c-8.61,5.63-6.63-0.66-11.6,11.27
	c-4.97,11.93-2.65,19.88-13.58,24.19c-10.93,4.31-19.55,10.27-20.54,17.23c-0.99,6.96,1.33,10.93-6.96,17.23
	c-8.28,6.3-12.92,8.28-15.57,15.57c-2.65,7.29-4.31,8.61-4.31,8.61s6.3-7.29,11.27-9.61c4.97-2.32,8.94-2.96,12.92-8.61
	c3.29-4.68,6.14-4.77,6.14-4.77s2.48-1.52-3.16,6.43c-5.63,7.95-10.93,11.93-12.59,21.87c-1.66,9.94,0,15.24,0.99,20.87
	c0.99,5.63,4.31,13.25,4.31,13.25s0.66-11.93,0.66-16.24c0-4.31,2.65-17.89,4.97-21.54c2.32-3.64,2.65-1.99,1.99,2.32
	c-0.66,4.31,4.64,22.53,1.66,31.48c-2.98,8.95,0.33,13.58-7.95,20.54c-8.28,6.96-9.94,4.97-13.92,8.61
	c-3.98,3.64-13.58,5.3-13.58,5.3s11.6,0.99,16.9,0c5.3-0.99,21.53-3.31,24.85-6.96s4.97-6.63,4.97-6.63s-7.29,17.23-9.94,20.87
	c-2.65,3.64-10.93,10.6-11.93,10.6c-0.99,0,10.6-1.66,10.6-1.66s5.3,0.66,4.31,1.66c-0.99,0.99-1.99,5.96-1.99,5.96
	s8.28,6.63,12.26,8.95s8.29-0.45,11.6,0s8.28-2.65,10.6-4.97c2.32-2.32,5.96-25.18,5.96-26.84s2.32-124.91,2.32-126.57
	s33.8-35.45,33.8-35.45s53.34-28.16,55-27.17c1.66,0.99,31.48,3.64,31.48,3.64s-18.55-12.92-22.53-12.92
	C333.4,178.92,324.46,179.25,324.46,179.25z"/>
<path class="st4" d="M274.78,267.5c-4.5,8.35-13.49,25.05-16.06,47.53c-2.57,22.48-5.78,36.61,0,52.67
	c5.78,16.06,18.63,34.04,23.12,38.54c4.5,4.5,26.09,22.65,37.01,25.22c10.92,2.57,32.36,1.76,45.21-7.24
	c12.85-8.99,25.05-26.98,29.55-36.61c4.5-9.63,9.63-43.68,10.28-58.45c0.64-14.77,4.5-54.6,0-68.08
	c-4.5-13.49-11.66-52.46-27.07-56.31c-15.42-3.85-39.53,13.28-46.05,15.21c-6.52,1.93-36.07,17.34-40.56,26.98
	C285.69,256.58,274.78,267.5,274.78,267.5z"/>
<path class="st19" d="M362.47,213.38c0,7.07,1.68,9.27-3.46,18.91s-8.99,8.99-10.92,18.63c-1.93,9.63,0,6.42-7.07,16.7
	c-7.07,10.28-5.13,7.53-10.27,12.03c-5.14,4.5-1.43-2.58,0.89-8.88c3.78-10.26-5.49-10.64-4.21-20.28s-5.42-8.56-4.59-14.99
	c0.83-6.42-3.02-17.34-9.45-3.21c-6.42,14.13-10.92,16.06-20.55,26.33c-9.63,10.28-10.28,10.28-20.55,25.05
	c-10.28,14.77-18.63,14.77-23.12,26.98c-4.5,12.2-1.93,17.98,0,34.68c1.93,16.7,7.71,27.62,3.85,39.18
	c-3.85,11.56-16.06,25.69-22.48,28.9c-6.42,3.21-19.91,4.5-19.91,4.5s20.55-8.35,20.55-21.2c0-12.85-8.99-18.63-16.06-30.83
	c-7.07-12.2-15.42-23.77-14.13-38.54c1.28-14.77,11.56-25.69,16.06-35.33c4.5-9.63-1.57-19.6-0.28-27.95s6.76-27.74,21.54-35.45
	c14.77-7.71,18.57-8.53,25.63-16.88c7.07-8.35,14.77-15.42,28.26-17.98c13.49-2.57,22.48-10.28,34.04-10.92
	c11.56-0.64,27.94,0.79,34.65,2.71c6.71,1.93,12.88-4.64,21.87,5.64c8.99,10.28,19.91,10.92,28.26,22.48
	c8.35,11.56,8.99,16.06,13.49,28.26c4.5,12.2,1.28-0.64,13.49,19.91c12.2,20.55,7.07,16.06,12.85,35.33
	c5.78,19.27,4.5,3.21,8.99,25.05c4.5,21.84,9.63,14.13,1.93,33.4c-7.71,19.27-5.78,37.25,1.28,39.82c7.07,2.57,16.7,3.21,16.7,3.21
	s-22.48,10.92-31.47,2.57c-8.99-8.35-14.77-10.92-14.77-10.92s12.85,19.27,19.27,19.91s-11.56,5.78-16.06,3.85
	c-4.5-1.93-13.49-4.5-13.49-4.5s11.56,13.49,16.7,14.13c5.14,0.64-1.93,11.56-4.5,11.56s-20.55,2.57-20.55,8.35
	c0,5.78-3.21,10.28-6.42,12.85c-3.21,2.57-8.99,1.93-10.28,8.35s-11.52,10.89-15.98,6.01c-5.93-6.48-9.43-16.07-9.68-19.97
	c-0.33-4.96-6.71-27.92-6.71-27.92s17.17-16.1,22.18-25.36c6.37-11.78,12.41-58.56,14-71.4c5.94-47.82-3.17-65.61-7.02-69.47
	s-7.07-25.05-11.56-28.9s0-3.21,0,8.35c0,11.56-2.23,15.62-0.31,20.31c2.25,5.5,9.37,12.8,11.87,16.3c0,0-13.6-5.94-16.84-9.68
	c-6.42-7.41-6.92-19.87-6.92-30.14S362.47,213.38,362.47,213.38z"/>
<path class="st19" d="M225.72,430.73c-5.16,3.22,15.57-4.64,22.53-15.24s11.27-11.27,12.92-20.87c1.66-9.61,0.33-17.89,0-28.16
	s-3.31-20.21-1.66-36.78c1.66-16.57,1.51-14.09,3.98-26.17c2.46-12.08,3.64-19.22,5.96-23.86c2.32-4.64-14.25,2.98-20.21,10.27
	c-5.96,7.29-13.92,27.83-10.93,44.73c2.98,16.9,10.6,47.05,6.3,58.98C240.3,405.54,228.37,429.07,225.72,430.73z"/>
<path class="st19" d="M289.99,251.87c-0.93,5.32-10.42,22.67-10.81,27.93c-0.39,5.27,2.96,10.88,1.32,18.18
	c-1.64,7.3-4.58,12.11-9.04,19.69c-4.46,7.58-6.42,15.16-7.1,20.29s3.15,27.72,3.15,27.72s-10.84-15.83-10.99-19.99
	s-1.74-9.29,0.63-17.92c2.37-8.63,9.46-14.71,7.85-22.38s-1.21-9.77-0.41-15.26c0.79-5.5,3.02-18.24,3.02-18.24"/>
<g>
	<path class="st8" d="M351.58,346.36c0.54,1.17,1.25,2.1,2.09,3.07c0.2,0.25,0.4,0.54,0.57,0.89c0.18,0.37,0.23,0.88,0.1,1.34
		c-0.31,0.86-0.88,1.33-1.37,1.78c-1.03,0.94-2.4,1.5-3.71,1.79c-1.3,0.3-2.7,0.28-3.58,0.57c-0.21,0.06-0.33,0.13-0.38,0.19
		c-0.01,0.02-0.03,0.03-0.04,0.04l-0.15,0.22c-0.1,0.15-0.22,0.3-0.35,0.45c-0.47,0.59-1.35,1.18-2.24,1.21
		c-0.43,0.03-0.82-0.02-1.16-0.08l-0.25-0.05l-0.33-0.08c-0.2-0.07-0.38-0.14-0.54-0.22c-0.66-0.31-1.19-0.7-1.71-1.1
		c-0.51-0.4-1.01-0.81-1.48-1.26c-0.23-0.23-0.46-0.46-0.69-0.71c-0.14-0.15-0.14-0.17-0.27-0.27c-0.09-0.09-0.22-0.16-0.33-0.25
		c-0.99-0.66-2.15-1.19-3.27-1.77c1.27,0.16,2.49,0.42,3.74,0.9c0.16,0.07,0.31,0.14,0.47,0.24c0.14,0.07,0.37,0.26,0.45,0.32
		c0.23,0.18,0.47,0.35,0.72,0.52c0.5,0.34,1.01,0.68,1.53,0.98c0.52,0.3,1.05,0.59,1.54,0.78c0.12,0.05,0.23,0.08,0.33,0.11
		l0.13,0.02l0.21,0.02c0.28,0.03,0.52,0.03,0.71,0c0.37-0.06,0.63-0.21,0.94-0.59c0.07-0.09,0.15-0.19,0.22-0.3l0.11-0.17
		c0.08-0.11,0.16-0.22,0.25-0.32c0.37-0.41,0.83-0.63,1.21-0.75c0.79-0.23,1.44-0.26,2.07-0.32c0.63-0.05,1.21-0.11,1.78-0.2
		c1.14-0.16,2.18-0.54,3.11-1.16c0.49-0.31,0.91-0.7,1.1-1c0.06-0.14,0.11-0.28,0.06-0.5c-0.06-0.22-0.18-0.48-0.32-0.75
		c-0.27-0.55-0.6-1.12-0.83-1.73C351.78,347.63,351.65,346.99,351.58,346.36z"/>
</g>
<g>
	<path class="st8" d="M327.8,352.34c-1.65-1.05-2.32-3.4-1.63-5.38c0.34-0.99,0.98-1.86,1.8-2.44c0.81-0.58,1.75-0.94,2.74-0.89
		c-1.29,1.42-2.18,2.62-2.64,3.98C327.59,348.98,327.54,350.44,327.8,352.34z"/>
</g>
<path class="st20" d="M360.82,272.63c0.77,1.89,1.75,3.83,3.51,3.37c1.77-0.47,6.19-1.86,11.6-2.34c5.41-0.47,7.82,1.14,10.99,1.1
	c3.17-0.05,7.48,3.69,10.39,6.81s3.6,5.31,3.6,5.31s-0.7-5.55-3.65-8.23c-2.95-2.68-7.92-8.88-11.07-9.14s-8.93-2.44-11.88-2.07
	c-2.95,0.37-13.13,2.47-13.13,2.47L360.82,272.63z"/>
<path class="st20" d="M330.68,284.55c0.05,1.09-4.57-1.3-5.87-1.45c-1.29-0.14-7.41-1.68-11.28-2.58
	c-1.19-0.27-10.54-4.65-12.49-5.08c-1.95-0.42-14.68,2.06-17.72,4.34c-3.04,2.28-3.04,2.28-3.04,2.28s2.21-5.28,4.66-6.7
	c2.46-1.42,7.67-4.19,10.92-4.22s7.6-1.31,11.17-0.01c3.57,1.3,8.27,4.78,13.11,5.99c6.42,1.6,8.74,2.41,9.83,2.98
	C331.06,280.69,330.68,284.55,330.68,284.55z"/>
<g>
	<path class="st8" d="M347.82,299.16c-0.55,2.88-0.97,5.77-1.17,8.67c-0.19,2.9-0.21,5.81-0.01,8.7c0.19,2.9,0.61,5.77,1.19,8.62
		c0.59,2.85,1.4,5.65,2.33,8.44c-0.67-1.31-1.23-2.67-1.76-4.04c-0.5-1.38-0.94-2.79-1.32-4.22c-0.77-2.85-1.22-5.78-1.44-8.73
		c-0.18-2.95-0.13-5.92,0.24-8.84c0.19-1.46,0.43-2.92,0.74-4.36C346.97,301.97,347.34,300.55,347.82,299.16z"/>
</g>
<g>
	<path class="st8" d="M353.41,386.62c-1.31,1.21-2.88,2.11-4.45,2.95c-1.59,0.82-3.23,1.54-4.94,2.12c-1.7,0.59-3.46,1.04-5.28,1.3
		l-1.38,0.15c-0.46,0.02-0.93,0.02-1.4,0.03c-0.47-0.01-0.94-0.06-1.42-0.09l-1.35-0.18c-1.79-0.28-3.57-0.73-5.29-1.35
		c-1.71-0.65-3.37-1.48-4.87-2.51c-3.02-2.06-5.44-4.79-7.43-7.71c2.64,2.37,5.3,4.67,8.28,6.36c2.97,1.7,6.23,2.71,9.62,3.26
		c3.31,0.68,6.7,0.12,10.07-0.7c1.68-0.43,3.35-0.93,4.99-1.53C350.23,388.12,351.86,387.49,353.41,386.62z"/>
</g>
<g>
	<path class="st8" d="M352.49,379.52c-0.93-1.37-1.68-2.85-2.48-4.29c-0.2-0.36-0.4-0.72-0.62-1.06c-0.1-0.15-0.24-0.37-0.33-0.43
		c-0.14-0.08-0.33-0.16-0.51-0.22c-0.76-0.25-1.55-0.43-2.34-0.51c-0.39-0.04-0.78-0.04-1.13,0.02c-0.36,0.06-0.78,0.16-1.18,0.24
		c-0.82,0.18-1.63,0.31-2.46,0.44c-0.83,0.12-1.68,0.25-2.62,0.2c-0.45-0.02-1.02-0.12-1.41-0.27l-1.2-0.42
		c-1.58-0.6-3.09-1.16-4.61-1.71c-0.77-0.28-1.4-0.45-2.13-0.48c-0.71-0.04-1.46,0.02-2.24,0.16c-1.58,0.3-3.22,0.6-4.84,0.88
		l-2.43,0.44c-0.81,0.15-1.67,0.29-2.5,0.25c0.81-0.23,1.54-0.58,2.3-0.91c0.77-0.33,1.54-0.64,2.33-0.91
		c0.78-0.29,1.57-0.55,2.37-0.79c0.8-0.25,1.57-0.49,2.41-0.69c0.83-0.2,1.73-0.37,2.67-0.35c0.93,0.01,1.91,0.26,2.7,0.53
		c1.6,0.51,3.15,1.2,4.65,1.79l1.1,0.47c0.37,0.16,0.63,0.22,0.99,0.27c0.7,0.08,1.51,0.06,2.32,0.03l2.46-0.12
		c0.41-0.02,0.81-0.06,1.27-0.06c0.48,0,0.92,0.1,1.33,0.18c0.84,0.19,1.64,0.46,2.41,0.85c0.19,0.1,0.38,0.2,0.57,0.36
		c0.21,0.22,0.27,0.37,0.4,0.56c0.21,0.37,0.39,0.74,0.58,1.11C351.01,376.58,351.66,378.09,352.49,379.52z"/>
</g>
<g>
	<path class="st8" d="M355.78,383.23c-1-0.07-2.01-0.26-2.99-0.58c-0.97-0.33-1.89-0.77-2.8-1.14c-0.9-0.37-1.82-0.65-2.76-0.85
		c-0.94-0.21-1.87-0.33-2.79-0.3c-0.91,0.03-1.83,0.21-2.86,0.37c-1.03,0.16-2.12,0.24-3.18,0.16c-1.06-0.08-2.1-0.25-3.1-0.45
		c-1.02-0.2-2.04-0.5-3.05-0.95c-0.5-0.23-1.01-0.53-1.44-0.83c-0.43-0.3-0.79-0.55-1.16-0.74c-0.33-0.18-0.91-0.41-1.38-0.69
		c-0.25-0.14-0.49-0.31-0.69-0.45c-0.18-0.13-0.28-0.18-0.43-0.24c-0.7-0.21-1.78-0.26-2.74-0.33l-2.98-0.17
		c-0.99-0.05-1.98-0.09-2.96-0.1c-0.49-0.01-0.94,0.04-1.54,0.03c-0.58-0.04-1.03-0.15-1.55-0.24c-2-0.42-3.9-0.99-5.85-1.49
		c2,0.12,4.01,0.44,5.97,0.61c0.48,0.03,1.02,0.08,1.44,0.06c0.4-0.03,0.95-0.13,1.46-0.18c1.02-0.11,2.03-0.15,3.04-0.17
		c1.01-0.02,2.01-0.02,3.02-0.02c0.51,0,1.01,0.02,1.53,0.05c0.52,0.04,1.05,0.07,1.68,0.24c0.32,0.09,0.67,0.28,0.9,0.43
		c0.22,0.14,0.39,0.25,0.58,0.35c0.39,0.21,0.75,0.33,1.33,0.59c0.53,0.25,0.99,0.58,1.39,0.84c0.39,0.26,0.76,0.47,1.17,0.65
		c1.64,0.66,3.65,1.08,5.49,1.27c0.94,0.08,1.85,0.07,2.81-0.03c0.95-0.09,2.01-0.27,3.1-0.21c2.19,0.13,4.17,0.85,5.98,1.85
		c0.9,0.51,1.71,1.07,2.58,1.53C353.9,382.56,354.82,382.93,355.78,383.23z"/>
</g>
<g>
	<g>
		<path class="st8" d="M285.18,302.88c2.59-3.41,6.08-6.17,10.05-8.08c3.97-1.91,8.55-2.86,13.07-2.46c4.53,0.32,8.9,2.1,12.46,4.72
			c3.56,2.65,6.39,6.12,8.14,10.03c-3.11-2.93-6.32-5.5-9.84-7.38c-3.51-1.86-7.25-3.09-11.1-3.38c-3.85-0.35-7.77,0.18-11.57,1.39
			C292.55,298.89,288.86,300.73,285.18,302.88z"/>
	</g>
	<g>
		<circle class="st8" cx="309.25" cy="303.26" r="8.03"/>
		<g>
			<path class="st8" d="M308.33,311.24c-2.09-0.23-4.08-1.31-5.42-2.94c-1.36-1.62-2.07-3.82-1.88-5.98
				c0.18-2.16,1.26-4.26,2.97-5.68c1.7-1.42,4.01-2.1,6.23-1.85c2.22,0.25,4.31,1.44,5.65,3.21c1.35,1.76,1.91,4.06,1.6,6.2
				c-0.3,2.15-1.49,4.12-3.19,5.4C312.59,310.89,310.42,311.49,308.33,311.24z M308.33,311.24c2.09,0.24,4.26-0.4,5.86-1.74
				c1.61-1.33,2.61-3.31,2.78-5.34c0.18-2.04-0.49-4.09-1.77-5.61c-1.27-1.54-3.12-2.54-5.09-2.76c-1.96-0.24-4,0.32-5.58,1.53
				c-1.6,1.19-2.72,3.04-3.01,5.06c-0.3,2.02,0.23,4.17,1.49,5.84C304.27,309.88,306.24,311,308.33,311.24z"/>
		</g>
	</g>
	<g>
		<path class="st8" d="M286.16,296.99c2.59-1.99,5.28-3.9,8.21-5.43c2.89-1.57,6.15-2.65,9.45-2.95c3.29-0.4,6.71-0.17,9.89,0.81
			c1.59,0.49,3.12,1.14,4.58,1.92c1.44,0.81,2.81,1.74,4.03,2.83c-1.37-0.9-2.78-1.73-4.26-2.38c-1.47-0.68-3-1.22-4.56-1.6
			c-3.12-0.8-6.36-0.96-9.56-0.6c-1.62,0.17-3.19,0.43-4.73,0.89c-1.54,0.46-3.04,1.06-4.51,1.73
			C291.75,293.58,288.97,295.31,286.16,296.99z"/>
	</g>
</g>
<g>
	<g>
		<path class="st8" d="M355.45,312.64c2.71-2.91,6.13-5.26,10.03-6.67c3.89-1.39,8.31-1.76,12.45-0.77c1.04,0.2,2.04,0.58,3.04,0.91
			c0.5,0.19,0.97,0.42,1.45,0.64c0.49,0.21,0.96,0.44,1.41,0.71c1.85,1,3.52,2.28,5.01,3.71c2.98,2.86,5.19,6.36,6.51,10.13
			c-2.75-2.89-5.46-5.6-8.52-7.71c-1.52-1.05-3.08-2.02-4.73-2.75c-1.63-0.75-3.32-1.37-5.07-1.73c-1.73-0.44-3.51-0.61-5.3-0.62
			c-1.79-0.01-3.61,0.15-5.42,0.51C362.68,309.66,359.13,311.08,355.45,312.64z"/>
	</g>
	<g>
		<circle class="st8" cx="375.85" cy="315.14" r="6.57"/>
		<path class="st8" d="M375.07,321.66c-1.71-0.19-3.33-1.08-4.44-2.42c-1.12-1.33-1.71-3.13-1.55-4.91
			c0.14-1.78,1.03-3.52,2.44-4.69c1.41-1.18,3.32-1.74,5.16-1.52c1.84,0.22,3.57,1.21,4.66,2.69c1.1,1.47,1.55,3.37,1.27,5.13
			c-0.27,1.77-1.26,3.38-2.67,4.41C378.56,321.4,376.78,321.88,375.07,321.66z M375.07,321.66c1.71,0.2,3.49-0.32,4.79-1.41
			c1.31-1.09,2.12-2.71,2.25-4.36c0.14-1.65-0.41-3.31-1.45-4.54c-1.03-1.24-2.52-2.05-4.1-2.23c-1.58-0.2-3.22,0.24-4.51,1.2
			c-1.3,0.95-2.23,2.43-2.48,4.07c-0.26,1.63,0.15,3.4,1.17,4.77C371.76,320.53,373.36,321.45,375.07,321.66z"/>
	</g>
	<g>
		<path class="st8" d="M362.61,304.38c2.91-1.92,6.3-3.16,9.83-3.52c3.53-0.34,7.17,0.27,10.39,1.78c1.62,0.74,3.12,1.69,4.53,2.73
			c1.5,1.04,2.58,2.51,3.57,3.95c1.97,2.92,3.29,6.16,4.89,9.24c-1.89-2.92-3.42-6.07-5.44-8.86c-1.02-1.38-2.13-2.69-3.52-3.62
			c-1.42-0.98-2.89-1.85-4.44-2.55c-3.09-1.4-6.51-2.05-9.92-1.85C369.1,301.85,365.74,302.86,362.61,304.38z"/>
	</g>
</g>
<path class="st19" d="M323.32,215.52c-0.03,3.74,2.47,10.37,0,18.51c-2.47,8.14-2.15,7.77-3.61,17.77
	c-1.46,10-2.65,11.34-7.42,14.74c-4.77,3.4-14.03,13.02-14.77,14.87c-0.74,1.85-0.79-5,1.64-8.61s5.38-6.27,6.31-12.53
	c0.93-6.26,2.3-0.97,4.07-11.81c1.78-10.84,0.47-10.37,0.14-17.77"/>
</svg>
