<?xml version="1.0" encoding="utf-8"?>
<!-- Generator: Adobe Illustrator 25.0.1, SVG Export Plug-In . SVG Version: 6.00 Build 0)  -->
<svg version="1.1" id="Capa_1" xmlns="http://www.w3.org/2000/svg" xmlns:xlink="http://www.w3.org/1999/xlink" x="0px" y="0px"
	 viewBox="0 0 1071.89 1105.84" style="enable-background:new 0 0 1071.89 1105.84;" xml:space="preserve">
<style type="text/css">
	.st0{fill:#E2B8A8;stroke:#1D1D1B;stroke-width:2;stroke-miterlimit:10;}
	.st1{fill:#E2E0F1;stroke:#1D1D1B;stroke-width:2;stroke-miterlimit:10;}
	.st2{fill:#F7F8FC;}
	.st3{fill:#C7C7D8;}
	.st4{fill:#F2CEC2;stroke:#1D1D1B;stroke-width:2;stroke-miterlimit:10;}
	.st5{fill:#E1D1E5;stroke:#1D1D1B;stroke-width:2;stroke-miterlimit:10;}
	.st6{fill:#BDAECC;stroke:#1D1D1B;stroke-width:2;stroke-miterlimit:10;}
	.st7{fill:#A89AB7;stroke:#1D1D1B;stroke-width:2;stroke-miterlimit:10;}
	.st8{fill:#1D1D1B;}
	.st9{fill:#847990;stroke:#1D1D1B;stroke-miterlimit:10;}
	.st10{fill:#DED2E9;stroke:#1D1D1B;stroke-width:2;stroke-miterlimit:10;}
	.st11{fill:#AEAA87;stroke:#1D1D1B;stroke-width:2;stroke-miterlimit:10;}
	.st12{fill:#8D896B;}
	.st13{fill:#CCC7A6;}
	.st14{fill:#89888D;stroke:#1D1D1B;stroke-miterlimit:10;}
	.st15{fill:#89888D;stroke:#1D1D1B;stroke-width:2;stroke-miterlimit:10;}
	.st16{fill:#6B7B9D;stroke:#1D1D1B;stroke-width:2;stroke-miterlimit:10;}
	.st17{fill:#57647D;}
	.st18{fill:#899AB7;}
	.st19{fill:#6D2F3B;stroke:#1D1D1B;stroke-width:2;stroke-miterlimit:10;}
	.st20{fill:#6D2F3B;stroke:#1D1D1B;stroke-miterlimit:10;}
	.st21{fill:#E2B8A8;}
	.st22{fill:#F2CEC2;}
	.st23{fill:#AEAA87;}
	.st24{fill:#89888D;}
	.st25{fill:#6B7B9D;}
	.st26{fill:#6D2F3B;}
	.st27{fill:#E2E0F1;}
	.st28{fill:#847990;}
	.st29{fill:#E1D1E5;}
	.st30{fill:#BDAECC;}
	.st31{fill:#A89AB7;}
	.st32{fill:#DED2E9;}
	.st33{fill:none;stroke:#1D1D1B;stroke-width:3;stroke-miterlimit:10;}
	.st34{clip-path:url(#SVGID_2_);}
	.st35{fill:none;stroke:#1D1D1B;stroke-width:4;stroke-miterlimit:10;}
	.st36{fill:none;stroke:#1D1D1B;stroke-width:0.5;stroke-miterlimit:10;}
</style>
<g>
	<defs>
		<circle id="SVGID_1_" cx="541.37" cy="548.55" r="462.79"/>
	</defs>
	<use xlink:href="#SVGID_1_"  style="overflow:visible;fill:#B2D8D0;"/>
	<clipPath id="SVGID_2_">
		<use xlink:href="#SVGID_1_"  style="overflow:visible;"/>
	</clipPath>
	<g class="st34">
		<g>
			<path class="st0" d="M500.53,557.11c3.52,15.2,10.6,55.81,7.08,78.13c-3.52,22.33-44.88,33.5-44.88,33.5s49.54,41.85,53.06,44.89
				c3.52,3.04,94.2,21.27,94.2,21.27l65.45-50.15l17.61-30.39l-31.6,24.88c0,0-31.33-26.05-35.48-48.07
				c-6.98-37.08,4.27-95.59,4.27-95.59L500.53,557.11z"/>
			<path class="st4" d="M506.37,373.78c-9.47,4.7-26.05,7.04-28.41,34.04c-2.37,27-2.94,31.79-2.57,68.48
				c0.39,38.93,15.59,98.22,30.98,109.96s39.94,21.13,62.59,18.78c22.65-2.35,23.23-3.52,40.7-16.43
				c17.47-12.91,26.94-34.04,30.49-62.22c3.55-28.17,8.29-70.43,8.29-99.78c0-29.35-12.63-67.17-24.47-71.87
				C612.13,350.04,506.37,373.78,506.37,373.78z"/>
			<path class="st11" d="M624.52,622.97c0,0,33.96-1.95,50.65-1.47c7.31,0.21,39.86,0.89,48,0.29c11.19-0.82,18.46-1.14,32.9,1.62
				c14.19,2.71,23.84,5.73,37.54,25.32c11.52,16.49,14.09,52.17,18.26,67.83c3.8,14.26,7.49,51.36,8.87,60
				c2.09,13.04,5.22,40.96,5.22,40.96H323.07c0,0,0-18.78,6.26-44.61c6.26-25.83,9.76-46.11,18.39-74.74
				c7.43-24.65,11.31-37.06,28.53-49.58c17.22-12.52,46.68-15.52,66.11-16.79c18.11-1.18,32.91-4.38,43.45-3.9
				c9.49,0.44,22.61-1.11,22.61-1.11s0.51,18.94,6.87,30.67s40.6,36.78,46.57,41.87s7.77,11.74,7.77,11.74s0.57-2.74,6.43-9.39
				s41.7-43.04,43.54-52.43C621.44,639.86,624.52,622.97,624.52,622.97z"/>
			<path class="st12" d="M482.66,632.56c-10.96,0.52-54.26,0.52-67.3,5.74c-13.04,5.22-26.09,5.22-35.48,15.13
				c-9.39,9.91-7.3,6.78-16.17,36.52s-17.22,58.43-20.35,80.35c-3.13,21.91-6.78,36.52-6.78,36.52s8.35-40.17,19.3-68.87
				c10.96-28.7,22.43-59.01,36-70.46c13.57-11.45,31.3-20.32,53.74-23.97C468.05,639.86,482.66,632.56,482.66,632.56z"/>
			<path class="st13" d="M574.7,767.92c-0.55-6.26-4.14-23.85,0-42.19s5.71-21.47,20.05-35.55c14.35-14.09,22.57-22.96,28.63-34.96
				c6.07-12,5.81-29.22,5.81-29.22s4.43,19.3,2.86,25.04c-1.57,5.74-10.96,35.48-17.74,45.91c-6.78,10.43-15.65,9.56-19.57,36.08
				c-3.91,26.53-13.2,59.92-11.43,66.7C585.11,806.53,574.7,767.92,574.7,767.92z"/>
			<path class="st8" d="M579,504.72c1.04,0.6,1.88,1.52,2.56,2.51c0.69,1,1.25,2.08,1.71,3.21c0.23,0.58,0.44,1.12,0.57,1.82
				c0.11,0.72,0.06,1.35-0.02,1.99c-0.18,1.27-0.6,2.5-1.28,3.64c-0.35,0.56-0.76,1.11-1.31,1.57c-0.57,0.48-1.18,0.79-1.78,1.03
				c-1.21,0.49-2.42,0.77-3.65,0.92c-0.61,0.08-1.22,0.14-1.85,0.16c-0.33,0.01-0.61,0.02-1.02-0.02c-0.06-0.02-0.28,0.02-0.52,0.08
				c-0.99,0.26-2.1,0.73-3.12,1.2l0.13-0.08c-0.97,0.68-1.92,1.29-3.03,1.84c-0.3,0.12-0.54,0.3-1.12,0.33
				c-0.13-0.01-0.43,0.05-0.69,0.1c-0.55,0.11-1.13,0.23-1.72,0.31c-1.17,0.16-2.38,0.17-3.55-0.08c-1.16-0.27-2.24-0.75-3.17-1.42
				c1.05,0.45,2.17,0.71,3.26,0.77c1.09,0.07,2.19-0.11,3.25-0.37c0.53-0.13,1.05-0.31,1.6-0.48c0.29-0.09,0.55-0.19,0.98-0.22
				c0,0,0.27-0.11,0.47-0.24c0.89-0.53,1.8-1.26,2.67-1.92l0.06-0.04l0.07-0.04c1.1-0.56,2.13-1.09,3.4-1.49
				c0.33-0.08,0.68-0.2,1.22-0.16c0.18,0.01,0.49,0,0.75-0.01c0.55-0.03,1.11-0.09,1.66-0.17c1.1-0.17,2.21-0.39,3.19-0.77
				c0.49-0.19,0.94-0.42,1.28-0.7c0.35-0.29,0.7-0.67,0.99-1.09c0.59-0.84,0.98-1.88,1.23-2.92c0.12-0.52,0.2-1.07,0.17-1.52
				c-0.03-0.47-0.19-1.06-0.32-1.6c-0.29-1.1-0.68-2.19-1.15-3.24C580.43,506.57,579.85,505.56,579,504.72z"/>
			<path class="st8" d="M547.94,521.41c-0.96-0.01-1.88,0.22-2.83,0.34c-0.95,0.12-1.92,0.23-2.94,0.17c-1-0.07-2.15-0.19-3.16-1.12
				c-0.24-0.22-0.45-0.53-0.6-0.81c-0.11-0.23-0.24-0.46-0.33-0.7c-0.2-0.47-0.37-0.96-0.5-1.46c-0.27-1-0.38-2.04-0.37-3.05
				c0-0.51,0.04-1.01,0.11-1.51l0.11-0.74c0.07-0.31,0.15-0.62,0.27-0.88c0.49-1.03,1.16-1.77,1.87-2.45
				c0.72-0.67,1.49-1.27,2.35-1.75c-0.51,0.83-1.04,1.63-1.51,2.43c-0.47,0.79-0.93,1.61-1.12,2.36c-0.06,0.19-0.07,0.34-0.09,0.5
				l-0.03,0.68c-0.01,0.45-0.01,0.9,0,1.34c0.03,0.88,0.14,1.74,0.34,2.58c0.11,0.42,0.22,0.84,0.37,1.24l0.23,0.61
				c0.06,0.14,0.11,0.24,0.2,0.35c0.36,0.43,1.19,0.75,2.04,0.93c0.87,0.17,1.8,0.29,2.75,0.38
				C546.03,520.97,547.03,521.01,547.94,521.41z"/>
			<path class="st14" d="M538.18,432.61c0.15,2.25-4.91,4.49-5.19,4.49s-8.98-1.97-10.95-2.25s-11.85-3.06-14.65-2.24
				c-2.87,0.83-11.74,3.93-12.86,4.49c-1.12,0.56-9.26,8.31-9.26,8.31s6.74-10.6,10.11-12.82s12.91-6.71,18.53-5.31
				s12.91,3.37,15.44,3.65C531.87,431.21,538.18,432.61,538.18,432.61z"/>
			<path class="st14" d="M576.06,433.73c0.84,0.61,4.09,5.06,4.94,5.06c0.84,0,11.51-3.93,14.04-4.21
				c2.53-0.28,16.02-2.77,18.25-2.53c3.46,0.38,9.26,2.99,9.83,4.16c0.56,1.17,5.9,6.23,5.9,6.23s-3.65-9.26-4.49-10.39
				c-0.84-1.12-8.98-6.74-9.83-7.02c-0.84-0.28-26.11,5.33-27.79,5.61C585.21,430.93,576.06,433.73,576.06,433.73z"/>
			<path class="st8" d="M564.83,454.95c-0.4,2.98-0.7,5.97-0.81,8.95c-0.1,2.99-0.04,5.97,0.21,8.94c0.23,2.97,0.68,5.93,1.25,8.86
				c0.59,2.93,1.35,5.83,2.21,8.71c-0.63-1.37-1.16-2.78-1.68-4.2c-0.48-1.43-0.91-2.88-1.29-4.34c-0.76-2.93-1.24-5.93-1.49-8.95
				c-0.23-3.02-0.26-6.06,0.02-9.07c0.14-1.51,0.33-3.01,0.58-4.49C564.12,457.88,564.42,456.4,564.83,454.95z"/>
			<path class="st8" d="M539.57,547.42c2.01-0.53,3.91-1.25,5.76-2.13c1.86-0.84,3.77-1.81,5.97-2.16c2.08-0.39,4.33-0.37,6.47,0.12
				c1.07,0.23,2.13,0.69,3.02,1.02c0.44,0.16,0.84,0.26,1.26,0.3c0.41,0.04,0.88,0.02,1.28-0.04c0.38-0.05,0.71-0.2,1.23-0.42
				c0.5-0.22,1.05-0.41,1.58-0.55c1.07-0.28,2.08-0.5,3.18-0.61c1.08-0.11,2.18-0.13,3.27-0.01c1.08,0.1,2.22,0.37,3.22,0.81
				c1.92,0.89,3.71,1.66,5.68,2.34c1.93,0.71,3.87,1.44,5.82,2.11c-2.07-0.24-4.08-0.72-6.1-1.17c-1.01-0.24-2.01-0.5-3.02-0.8
				c-1-0.29-2-0.7-2.93-1.03c-1.79-0.61-3.77-0.66-5.7-0.38c-0.95,0.14-1.96,0.35-2.88,0.61c-0.46,0.14-0.89,0.29-1.33,0.49
				c-0.42,0.19-1.04,0.48-1.69,0.58c-0.62,0.09-1.19,0.1-1.81,0.04c-0.61-0.06-1.21-0.23-1.73-0.43c-1.04-0.41-1.87-0.78-2.81-1.03
				c-1.87-0.53-3.81-0.6-5.81-0.41c-1.92,0.17-3.83,0.88-5.81,1.53C543.7,546.84,541.64,547.33,539.57,547.42z"/>
			<path class="st8" d="M537.96,556.88c3.84,1.81,7.79,3.25,11.83,4.24c4.04,0.98,8.18,1.52,12.32,1.53
				c4.14,0.07,8.28-0.43,12.34-1.33c4.06-0.92,8.03-2.31,11.9-4.05c-3.46,2.47-7.39,4.32-11.5,5.56c-4.12,1.24-8.44,1.86-12.76,1.82
				c-4.32-0.05-8.63-0.71-12.72-2.04C545.28,561.31,541.38,559.41,537.96,556.88z"/>
			<path class="st8" d="M530.34,549.21c2.72,0.7,5.41,1.55,8.14,2.1c1.35,0.29,2.71,0.5,4.05,0.52c1.31,0.01,2.71-0.17,4.06-0.36
				c2.72-0.42,5.46-1.11,8.39-1.31c1.46-0.1,2.97,0.01,4.41,0.26c1.45,0.24,2.8,0.64,4.07,0.77c1.28,0.14,2.66,0.13,3.9-0.09
				c1.21-0.23,2.68-0.77,4.15-0.91c1.43-0.17,3.01-0.22,4.5,0.16c1.46,0.39,2.67,0.85,4.02,1.1c1.33,0.25,2.72,0.48,4.09,0.52
				c1.38,0.04,2.77,0.06,4.16-0.02c2.78-0.15,5.56-0.53,8.23-1.43c-2.55,1.22-5.36,1.8-8.16,2.18c-2.8,0.38-5.67,0.46-8.54,0.15
				c-1.43-0.16-2.9-0.56-4.17-0.84c-1.25-0.26-2.53-0.17-3.87,0.04c-0.66,0.11-1.3,0.24-1.95,0.41c-0.65,0.18-1.35,0.4-2.11,0.54
				c-1.52,0.28-2.98,0.3-4.49,0.15c-1.52-0.18-2.87-0.6-4.19-0.83c-1.33-0.25-2.63-0.33-3.98-0.29c-2.68,0.07-5.43,0.73-8.28,0.99
				c-1.43,0.13-2.84,0.25-4.33,0.14c-1.47-0.14-2.87-0.48-4.24-0.88C535.53,551.39,532.92,550.36,530.34,549.21z"/>
			<path class="st15" d="M600.57,359.69c-8.35,12.52-12.52,21.91-19.3,25.04c-6.78,3.13-32.87,9.91-32.87,9.91l16.17-11.48
				c0,0-16.7,5.22-24,8.35c-7.3,3.13-18.78,0-18.78,0s7.3-7.83,9.91-9.91c2.61-2.09,6.26-7.83,6.26-7.83s-17.22,13.57-20.87,15.13
				S503,390.99,503,390.99s-6.78,0-9.91,1.04c-3.13,1.04-4.7,2.61-7.3,6.26c-2.61,3.65-4.81,1.9-5.41,6.78
				c-0.57,4.6-0.52,12.33-1.57,17.02c-1.04,4.7-2.03,15.65-2.12,18.78c-0.08,3.13-0.54,21.53,0.94,32.48
				c1.48,10.96-0.81,19.19,0.3,22.32c1.12,3.13,3.68,23.92,3.68,23.92s-9.4,3.39-13.05-9.66c-3.65-13.04-3.13-21.91-5.22-27.65
				c-2.09-5.74-2.61-8.87-4.7-13.04c-2.09-4.17-1.04-2.61-6.78-9.39c-5.74-6.78-9.39-8.87-9.39-16.7c0-7.83,0.52-8.35,1.57-16.17
				c1.04-7.83,4.7-8.35,4.17-18.78s-6.78-14.09-5.74-22.43s2.61-13.57,3.65-21.91c1.04-8.35,4.7-14.09,9.39-22.43
				c4.7-8.35,16.17-18.78,20.87-25.04s2.61-7.83,10.43-10.96c7.83-3.13,6.78-3.13,16.17-11.48c9.39-8.35,9.8-10.43,18.46-12
				s27.97-4.7,34.75-5.22c6.78-0.52,12-1.57,18.26,0s7.83-4.78,14.09-0.83c6.26,3.96,10.43,13.35,18.78,13.35s8.87-3.65,17.22-1.04
				s19.83,12.52,25.57,16.7s16.7,12.52,24,23.48c7.3,10.96,11.48,10.96,13.04,22.96c1.57,12,0,26.09,0,38.09s0.52,43.83-2.09,51.65
				s-3.13,8.35-6.78,16.17c-3.65,7.83-2.61,8.35-4.17,15.13c-1.57,6.78-15.13,11.8-16.7,15.81c-1.57,4.01-14.47,15.08-14.47,15.08
				s1.59-28.93,2.61-37.54c0.86-7.27-3.26-17.35-3.26-25.7c0-8.35-1.04-21.91-1.57-30.78s-6.26-16.17-7.83-20.87
				c-1.57-4.7,0,6.31-1.57,8.64c-1.57,2.32-6.78-4.46-7.3-9.16c-0.52-4.7-2.61-14.09-4.7-15.65s-3.13,1.57-3.13,4.7
				s-2.03,11.48-6.23,13.04s-12.55-0.52-14.64,1.04c-2.09,1.57,2.09-4.7,3.65-7.83c1.57-3.13,1.04-8.35,1.04-12
				C600.05,367.52,600.57,359.69,600.57,359.69z"/>
			<g>
				<path class="st8" d="M576.58,466.06c2.64-3.78,6.12-7.07,10.31-9.4c2.09-1.17,4.37-2.04,6.74-2.6c2.37-0.56,4.84-0.81,7.27-0.64
					c1.22,0.02,2.43,0.25,3.63,0.43c0.6,0.11,1.18,0.29,1.77,0.43c0.59,0.14,1.18,0.3,1.74,0.53c2.3,0.76,4.46,1.89,6.45,3.2
					c3.98,2.64,7.24,6.15,9.59,10.12c-3.62-2.87-7.23-5.51-11.17-7.39c-1.96-0.94-3.95-1.77-6-2.3c-2.04-0.56-4.13-0.95-6.23-1.02
					c-2.1-0.17-4.21,0-6.29,0.35c-2.08,0.35-4.15,0.92-6.16,1.73C584.18,461.05,580.4,463.45,576.58,466.06z"/>
				<path class="st8" d="M493.56,466.39c1.74-3.48,4.42-6.51,7.69-8.85c3.26-2.34,7.23-3.89,11.36-4.21
					c4.12-0.39,8.32,0.56,11.91,2.4c3.58,1.87,6.62,4.59,8.71,7.87c-3.27-2.09-6.53-3.86-9.94-4.98c-3.4-1.11-6.89-1.62-10.34-1.3
					c-3.45,0.26-6.85,1.29-10.06,2.91C499.62,461.82,496.58,463.97,493.56,466.39z"/>
				<g>
					<circle class="st8" cx="515.1" cy="463.14" r="7.27"/>
					<g>
						<path class="st8" d="M515.47,470.4c-1.9,0.11-3.83-0.55-5.29-1.81c-1.46-1.24-2.44-3.09-2.59-5.06
							c-0.17-1.96,0.47-4.01,1.79-5.54c1.31-1.54,3.28-2.5,5.32-2.6c2.03-0.1,4.09,0.65,5.55,2.04c1.47,1.38,2.32,3.36,2.35,5.33
							c0.05,1.97-0.73,3.91-2.06,5.3C519.23,469.46,517.38,470.31,515.47,470.4z M515.47,470.4c1.9-0.1,3.74-1,4.97-2.43
							c1.23-1.43,1.83-3.35,1.66-5.18c-0.15-1.84-1.06-3.56-2.43-4.72c-1.36-1.17-3.15-1.79-4.93-1.68
							c-1.77,0.08-3.5,0.87-4.73,2.18c-1.24,1.29-1.97,3.1-1.93,4.94c0.03,1.84,0.81,3.68,2.19,4.98
							C511.65,469.79,513.57,470.49,515.47,470.4z"/>
					</g>
				</g>
				<g>
					<circle class="st8" cx="600.49" cy="464.91" r="7.65"/>
					<path class="st8" d="M600.88,472.55c-2,0.12-4.03-0.58-5.56-1.91c-1.54-1.31-2.56-3.26-2.71-5.32
						c-0.17-2.06,0.5-4.21,1.89-5.81c1.38-1.61,3.45-2.62,5.58-2.72c2.13-0.11,4.29,0.68,5.83,2.14c1.55,1.45,2.44,3.53,2.47,5.59
						c0.05,2.07-0.76,4.11-2.16,5.57C604.84,471.56,602.89,472.46,600.88,472.55z M600.88,472.55c2-0.1,3.94-1.05,5.23-2.56
						c1.3-1.51,1.93-3.52,1.76-5.45c-0.15-1.94-1.11-3.75-2.55-4.98c-1.43-1.24-3.33-1.89-5.2-1.78c-1.87,0.08-3.69,0.92-4.99,2.3
						c-1.31,1.36-2.08,3.27-2.03,5.21c0.03,1.94,0.86,3.88,2.31,5.25C596.86,471.91,598.88,472.65,600.88,472.55z"/>
				</g>
				<path class="st8" d="M493.55,460.99c2.01-2.18,4.11-4.3,6.5-6.1c2.34-1.84,5.1-3.3,8.01-4.06c2.88-0.85,5.97-1.16,8.96-0.75
					c1.49,0.2,2.96,0.56,4.38,1.04c1.41,0.52,2.77,1.15,4.02,1.95c-1.36-0.59-2.74-1.11-4.17-1.46c-1.41-0.38-2.86-0.63-4.31-0.73
					c-2.9-0.24-5.81,0.1-8.61,0.9c-1.42,0.39-2.78,0.86-4.08,1.49c-1.3,0.63-2.55,1.39-3.77,2.21
					C498.05,457.13,495.82,459.08,493.55,460.99z"/>
				<path class="st8" d="M583.18,455.17c2.98-2.75,6.64-4.82,10.61-5.91c3.98-1.04,8.25-1.09,12.23,0.02
					c1.99,0.54,3.9,1.32,5.73,2.23c1.92,0.89,3.45,2.35,4.86,3.8c2.84,2.96,5.01,6.4,7.48,9.6c-1.41-1.46-2.61-3.11-3.92-4.64
					c-1.31-1.54-2.6-3.09-4.04-4.49c-1.44-1.39-2.98-2.69-4.76-3.49c-1.82-0.86-3.68-1.58-5.6-2.07c-1.93-0.48-3.9-0.77-5.88-0.81
					c-1.98-0.04-3.97,0.21-5.91,0.66C590.1,450.94,586.45,452.78,583.18,455.17z"/>
			</g>
			<path class="st8" d="M531.84,543.67c-0.58,0.28-1.12,0.62-1.65,0.98c-0.53,0.34-1.05,0.71-1.55,1.09
				c-0.5,0.38-0.99,0.77-1.43,1.2c-0.45,0.42-0.88,0.86-1.22,1.35c-0.73,0.95-1.07,2.05-0.65,3.17c0.39,1.12,1.15,2.2,1.8,3.31
				c-0.95-0.88-1.92-1.76-2.53-3.02c-0.31-0.62-0.44-1.39-0.31-2.12c0.13-0.73,0.48-1.37,0.88-1.93c0.83-1.11,1.9-1.93,3.03-2.6
				C529.34,544.43,530.54,543.88,531.84,543.67z"/>
		</g>
		<g>
			<path class="st16" d="M150.03,628.14c0,0,83.63,51.52,95.17,61.37c10.42,8.89,35.32,18,35.32,18s23.28-19.26,30.23-26.83
				c6.95-7.57,10.64-15.08,10.64-15.08l-11.8-37.79c0,0,38.49,4.97,48.22,5.64c9.74,0.67,52.97,3.39,67.72,6.16
				c14.74,2.76,28.45,3.14,44.12,21.45c15.67,18.31,24.09,48.65,29.62,64.32c5.53,15.67,16.59,92.15,16.59,92.15H21.93h-32.46
				c0,0,2.43-42.78,8.21-61.46c5.77-18.68,24.67-81.08,31.81-95.01s17.78-24,35.11-32.72c17.32-8.72,52.91-6.76,60.38-7.1
				c7.47-0.34,52.32-2.81,52.32-2.81l-7.15,7.56L150.03,628.14z"/>
			<path class="st17" d="M185.38,621.06c0,0-74.9,2.78-80.13,3.03s-25.29-2.03-39.98,6.84c-14.69,8.88-25.28,20.61-25.28,20.61
				s27.18-7.24,50.39-15.24c18.81-6.48,69.98-6.36,74.46-6.84S185.38,621.06,185.38,621.06z"/>
			<path class="st17" d="M314.03,653.01c3.53,5.75,7.22,14.51,6.3,17.27c-0.92,2.76-36.16,33.29-36.16,33.29
				s39.38-22.24,48.14-24.08s18.89-5.58,22.58-10.19c3.69-4.61,9.22-4.55,11.98-9.62c2.76-5.07,3.23-1.35,6.91-6.45
				c3.69-5.1,5.07-1.81,11.98-2.74c6.91-0.92,28.11-2.74,38.24,0c10.14,2.74,13.36-4.18,29.03,9.19
				c15.67,13.36,26.21,22.01,28.57,27.39s-5.71-15.46-14.87-24.43s-16.37-17.7-40.96-20.88c-24.84-3.21-70.87-6.72-70.87-6.72
				l-19.35,12.21l-19.35-5.53L314.03,653.01z"/>
			<path class="st18" d="M150.03,628.14c5.07,3.69,66.34,42.4,71.87,46.55c5.53,4.15,34.85,26.04,39.31,27.3
				c4.46,1.26,14.43,2.78,20.3,8.08c1.19,1.07,4.9,7.01,9.97,18.07s19.81,63.12,21.19,74.64c1.38,11.52,0,14.74,0,14.74
				s-5.34-25.34-11.65-36.4c-6.32-11.06-25.67-44.69-30.28-49.99s-31.33-24.41-39.16-29.14c-7.83-4.73-35.02-18.55-41.93-30.99
				C182.73,658.56,150.03,628.14,150.03,628.14z"/>
			<path class="st0" d="M178.12,546.6c0,0,12.87,37.84,10.14,53.45c-2.73,15.61-13.96,21.06-22.2,24.38s-16.04,3.71-16.04,3.71
				s91.29,59.3,100.26,67.1c8.97,7.8,31.21,14.83,31.21,14.83s23.41-23.02,32.38-29.26c8.97-6.24,15.44-13.66,15.44-13.66
				s-13.49-17.55-14.66-33.15s-2.04-32.46-2.04-32.46s-84.18-19.04-90.42-25.28S178.12,546.6,178.12,546.6z"/>
			<path class="st19" d="M259.27,322.27c-6.24,0-25.36-7.02-35.11-0.39c-9.75,6.63-11.31,1.56-19.51,10.53
				c-8.19,8.97-11.31,14.28-20.68,19.23c-9.36,4.95-16.39,3-26.53,9.64c-10.14,6.63-7.8-0.78-13.65,13.26
				c-5.85,14.04-3.12,23.41-16,28.48c-12.87,5.07-23.02,12.09-24.19,20.29s1.56,12.87-8.19,20.29c-9.75,7.41-15.22,9.75-18.34,18.34
				c-3.12,8.58-5.07,10.14-5.07,10.14s7.41-8.58,13.26-11.31c5.85-2.73,10.53-3.48,15.22-10.14c3.88-5.51,7.23-5.62,7.23-5.62
				s2.92-1.79-3.72,7.57s-12.87,14.04-14.83,25.75s0,17.95,1.17,24.58c1.17,6.63,5.07,15.61,5.07,15.61s0.78-14.04,0.78-19.12
				s3.12-21.07,5.85-25.36c2.73-4.29,3.12-2.34,2.34,2.73c-0.78,5.07,5.46,26.53,1.95,37.06s0.39,16-9.36,24.19
				s-11.7,5.85-16.39,10.14c-4.68,4.29-16,6.24-16,6.24s13.65,1.17,19.9,0c6.24-1.17,25.35-3.9,29.25-8.19
				c3.91-4.29,5.86-7.8,5.86-7.8s-8.58,20.29-11.7,24.58c-3.12,4.29-12.87,12.48-14.04,12.48s12.48-1.95,12.48-1.95
				s6.24,0.78,5.07,1.95s-2.34,7.02-2.34,7.02s9.75,7.8,14.43,10.53c4.68,2.73,9.77-0.53,13.65,0c3.89,0.53,9.75-3.12,12.48-5.85
				s7.02-29.65,7.02-31.6c0-1.95,2.73-147.08,2.73-149.03c0-1.95,39.79-41.74,39.79-41.74s62.81-33.16,64.76-31.99
				c1.95,1.17,37.06,4.29,37.06,4.29s-21.85-15.22-26.53-15.22S259.27,322.27,259.27,322.27z"/>
			<path class="st4" d="M200.77,426.51c-5.29,9.83-15.88,29.5-18.91,55.97c-3.03,26.47-6.81,43.11,0,62.02
				c6.81,18.91,21.93,40.08,27.23,45.38s30.72,26.67,43.57,29.7c12.86,3.03,38.11,2.07,53.23-8.52
				c15.13-10.59,29.5-31.76,34.79-43.11c5.29-11.34,11.34-51.43,12.1-68.82c0.76-17.4,5.29-64.29,0-80.17
				c-5.29-15.88-13.73-61.77-31.88-66.31c-18.15-4.54-46.55,15.64-54.23,17.91c-7.68,2.27-42.47,20.42-47.76,31.76
				C213.63,413.65,200.77,426.51,200.77,426.51z"/>
			<path class="st19" d="M304.02,362.46c0,8.32,1.97,10.92-4.08,22.26c-6.05,11.34-10.59,10.59-12.86,21.93
				c-2.27,11.34,0,7.56-8.32,19.66c-8.32,12.1-6.04,8.87-12.09,14.16c-6.05,5.29-1.68-3.04,1.05-10.45
				c4.46-12.08-6.47-12.53-4.95-23.88c1.51-11.34-6.38-10.08-5.4-17.64c0.98-7.56-3.56-20.42-11.12-3.78
				c-7.56,16.64-12.86,18.91-24.2,31.01s-12.1,12.1-24.2,29.5c-12.1,17.4-21.93,17.4-27.23,31.76c-5.29,14.37-2.27,21.18,0,40.84
				c2.27,19.66,9.08,32.52,4.54,46.13c-4.54,13.61-18.91,30.25-26.47,34.03c-7.56,3.78-23.45,5.29-23.45,5.29s24.2-9.83,24.2-24.96
				c0-15.13-10.59-21.93-18.91-36.3s-18.15-27.98-16.64-45.38c1.51-17.4,13.61-30.25,18.91-41.6c5.29-11.34-1.84-23.08-0.33-32.91
				c1.51-9.83,7.96-32.67,25.36-41.74c17.4-9.08,21.86-10.05,30.18-19.88s17.4-18.15,33.28-21.18s26.47-12.1,40.08-12.86
				c13.61-0.76,32.9,0.93,40.81,3.2s15.16-5.46,25.75,6.64c10.59,12.1,23.45,12.86,33.28,26.47c9.83,13.61,10.59,18.91,15.88,33.28
				s1.51-0.76,15.88,23.45c14.37,24.2,8.32,18.91,15.13,41.6s5.29,3.78,10.59,29.5c5.29,25.71,11.34,16.64,2.27,39.33
				c-9.08,22.69-6.81,43.87,1.51,46.89c8.32,3.03,19.66,3.78,19.66,3.78s-26.47,12.86-37.06,3.03c-10.59-9.83-17.4-12.86-17.4-12.86
				s15.13,22.69,22.69,23.45s-13.61,6.81-18.91,4.54c-5.29-2.27-15.88-5.29-15.88-5.29s13.61,15.88,19.66,16.64
				c6.05,0.76-2.27,13.61-5.29,13.61c-3.03,0-24.2,3.03-24.2,9.83c0,6.81-3.78,12.1-7.56,15.13s-10.59,2.27-12.1,9.83
				s-13.56,12.83-18.82,7.08c-6.98-7.63-11.1-18.92-11.4-23.52c-0.39-5.84-7.9-32.87-7.9-32.87s20.22-18.95,26.11-29.86
				c7.5-13.87,14.61-68.96,16.49-84.08c7-56.31-3.73-77.26-8.27-81.8s-8.32-29.5-13.61-34.03c-5.29-4.54,0-3.78,0,9.83
				c0,13.61-2.63,18.39-0.37,23.91c2.65,6.48,11.03,15.08,13.98,19.2c0,0-16.02-6.99-19.83-11.4c-7.56-8.72-8.15-23.39-8.15-35.5
				S304.02,362.46,304.02,362.46z"/>
			<path class="st19" d="M143.01,618.39c-6.07,3.8,18.34-5.46,26.53-17.95c8.19-12.48,13.26-13.26,15.22-24.58s0.39-21.07,0-33.16
				c-0.39-12.09-3.9-23.8-1.95-43.3c1.95-19.51,1.78-16.6,4.68-30.82c2.9-14.22,4.29-22.63,7.02-28.09
				c2.73-5.46-16.78,3.51-23.8,12.09s-16.39,32.77-12.87,52.67c3.51,19.9,12.48,55.4,7.41,69.44
				C160.17,588.74,146.13,616.44,143.01,618.39z"/>
			<path class="st19" d="M217.52,401.6c-1.09,6.26-11.11,32.88-11.56,39.08s3.49,12.81,1.56,21.4c-1.93,8.59-5.39,14.26-10.65,23.19
				s-7.55,17.85-8.36,23.9s3.71,32.64,3.71,32.64s-12.76-18.64-12.94-23.54s-2.05-10.94,0.74-21.11
				c2.79-10.17,11.13-17.32,9.25-26.36c-1.89-9.04-1.42-11.5-0.49-17.97s3.56-21.47,3.56-21.47"/>
			<path class="st8" d="M291.2,519.05c0.31,0.68,0.64,1.33,1.05,1.93c0.41,0.6,0.86,1.15,1.34,1.74c0.23,0.3,0.46,0.63,0.65,1.04
				c0.2,0.42,0.25,0.99,0.1,1.5c-0.36,0.96-1.01,1.51-1.59,2.03c-1.21,1.08-2.79,1.72-4.32,2.05c-1.51,0.35-3.15,0.32-4.24,0.66
				c-0.15,0.03-0.22,0.09-0.33,0.13c-0.06,0.06-0.16,0.09-0.19,0.15c-0.02,0.03-0.04,0.05-0.07,0.07l-0.18,0.26
				c-0.12,0.18-0.26,0.35-0.4,0.52c-0.54,0.68-1.52,1.33-2.52,1.37c-0.49,0.04-0.93-0.01-1.33-0.08l-0.29-0.05l-0.37-0.09
				c-0.22-0.08-0.44-0.16-0.62-0.25c-0.76-0.36-1.38-0.8-2-1.26c-0.61-0.46-1.2-0.94-1.75-1.46c-0.28-0.26-0.55-0.53-0.82-0.82
				c-0.16-0.17-0.18-0.21-0.33-0.33c-0.12-0.1-0.26-0.19-0.4-0.29c-1.19-0.76-2.56-1.36-3.9-2c1.48,0.23,2.92,0.56,4.36,1.14
				c0.18,0.08,0.36,0.17,0.54,0.28c0.16,0.08,0.42,0.3,0.52,0.38c0.27,0.22,0.56,0.43,0.85,0.63c0.59,0.41,1.18,0.82,1.79,1.18
				c0.61,0.36,1.24,0.71,1.82,0.95c0.15,0.06,0.29,0.1,0.41,0.14l0.17,0.03l0.25,0.03c0.33,0.03,0.63,0.04,0.88,0
				c0.49-0.07,0.84-0.29,1.22-0.75c0.09-0.12,0.18-0.23,0.27-0.37l0.13-0.2c0.09-0.12,0.18-0.24,0.28-0.35
				c0.19-0.24,0.44-0.38,0.67-0.54c0.23-0.11,0.47-0.25,0.69-0.3c0.89-0.27,1.66-0.3,2.39-0.37c0.74-0.06,1.43-0.14,2.11-0.24
				c1.36-0.2,2.61-0.67,3.72-1.42c0.57-0.38,1.08-0.84,1.31-1.25c0.08-0.2,0.13-0.39,0.05-0.66c-0.08-0.28-0.23-0.58-0.4-0.9
				c-0.34-0.64-0.72-1.31-1-2.01C291.47,520.53,291.31,519.78,291.2,519.05z"/>
			<path class="st8" d="M263.21,526.09c-1.82-1.31-2.55-4-1.75-6.28c0.39-1.13,1.12-2.15,2.05-2.83c0.92-0.69,2-1.14,3.12-1.15
				c-0.79,0.78-1.47,1.5-2.02,2.27c-0.57,0.75-0.97,1.54-1.26,2.36C262.77,522.13,262.78,523.93,263.21,526.09z"/>
			<path class="st20" d="M304.16,439.33c0.93,1.84,2.96,3.07,4.7,2.46s3.69-1.54,9.1-2.46s9.46,0.31,12.65,0
				c3.19-0.31,7.83,3.1,11.02,6.01s4.06,5.05,4.06,5.05s-1.16-5.53-4.35-7.99s-8.7-8.29-11.89-8.29s-10.36-0.61-13.3,0
				c-2.94,0.61-11.85,2.46-11.85,2.46L304.16,439.33z"/>
			<path class="st20" d="M264.34,435.74c0.07,0.31-3.31,0-4.84,0s-20.22-5.46-21.63-5.19s-13.03,0.32-15.36-0.01
				c-2.33-0.33-11.27,1.79-14,5.33c-2.27,2.94-2.27,2.94-2.27,2.94s1.04-6.38,3.8-8.26c2.76-1.88,8.65-5.56,12.47-5.87
				c3.81-0.31,14.87-1.23,19.17,0s9.83,1.54,11.67,2.15c1.84,0.61,8.41,3.14,9.73,3.72C264.41,431.14,264.34,435.74,264.34,435.74z"
				/>
			<path class="st8" d="M286.78,463.47c-0.68,3.39-1.19,6.79-1.44,10.21c-0.24,3.42-0.27,6.85-0.03,10.26
				c0.23,3.41,0.72,6.81,1.42,10.16c0.71,3.35,1.68,6.66,2.81,9.92c-0.76-1.55-1.42-3.15-2.03-4.77c-0.58-1.63-1.09-3.29-1.54-4.97
				c-0.89-3.36-1.42-6.8-1.67-10.27c-0.22-3.47-0.16-6.96,0.27-10.4c0.21-1.72,0.49-3.43,0.85-5.13
				C285.81,466.78,286.23,465.11,286.78,463.47z"/>
			<path class="st8" d="M302.67,566.28c-1.15,0.92-2.44,1.69-3.74,2.39c-1.3,0.71-2.63,1.36-3.98,1.97c-2.71,1.2-5.5,2.24-8.36,3.07
				c-2.86,0.84-5.79,1.48-8.78,1.82c-1.5,0.17-3.01,0.25-4.53,0.2c-0.76-0.02-1.53-0.08-2.29-0.17l-2.22-0.31
				c-2.95-0.46-5.88-1.16-8.73-2.11c-2.84-0.99-5.59-2.25-8.14-3.83c-5.14-3.13-9.39-7.4-13.13-11.95
				c4.32,4.01,8.86,7.78,13.93,10.57c5.06,2.81,10.65,4.46,16.38,5.37c5.66,1.13,11.45,0.26,17.12-1.05
				c2.83-0.69,5.64-1.51,8.4-2.48C297.37,568.82,300.1,567.74,302.67,566.28z"/>
			<path class="st8" d="M297.73,561.47c-2.23-1.43-3.99-3.46-5.67-5.48l-0.62-0.77l-0.31-0.38c-0.09-0.1-0.22-0.21-0.34-0.31
				c-0.5-0.4-1.04-0.76-1.6-1.07c-0.56-0.3-1.14-0.57-1.72-0.68c-0.28-0.07-0.57-0.08-0.88-0.07c-0.3,0.01-0.59,0.05-0.91,0.11
				c-1.29,0.24-2.61,0.46-3.92,0.65c-1.32,0.16-2.67,0.39-4.18,0.13c-2.73-0.84-5.06-1.82-7.54-2.67c-1.25-0.44-2.32-0.74-3.52-0.7
				c-1.18,0-2.4,0.26-3.68,0.56c-2.55,0.61-5.11,1.17-7.65,1.83c-1.27,0.3-2.57,0.66-3.95,0.82c-1.36,0.17-2.74,0.13-4.09-0.03
				c-2.69-0.35-5.25-1.27-7.55-2.58c2.5,0.85,5.07,1.44,7.63,1.5c1.28,0.05,2.55-0.08,3.79-0.3c1.22-0.22,2.45-0.66,3.72-1.04
				c2.53-0.76,5.08-1.48,7.65-2.09c1.28-0.31,2.65-0.64,4.11-0.66c0.73,0,1.47,0.07,2.18,0.24c0.73,0.17,1.36,0.4,1.99,0.63
				c2.5,0.87,4.99,2.05,7.25,2.87c1.08,0.28,2.4,0.19,3.69,0.11c1.31-0.09,2.61-0.17,3.93-0.29c0.69-0.07,1.42-0.03,2.13,0.18
				c0.7,0.21,1.3,0.56,1.86,0.93c0.56,0.38,1.08,0.82,1.56,1.29c0.51,0.53,0.82,1.06,1.24,1.58
				C293.93,557.84,295.57,559.95,297.73,561.47z"/>
			<path class="st8" d="M304.16,563.8c-2.84,0.71-5.85,0.78-8.79,0.29c-1.47-0.26-2.94-0.77-4.27-1.42
				c-1.34-0.64-2.58-1.27-3.92-1.65c-1.34-0.41-2.72-0.68-4.06-0.72c-1.34-0.05-2.69,0.27-4.21,0.46c-1.52,0.19-3.1,0.14-4.59-0.07
				c-1.49-0.21-3-0.52-4.48-1.13c-0.73-0.32-1.43-0.73-2.04-1.12c-0.61-0.39-1.16-0.71-1.77-0.94c-0.61-0.23-1.25-0.42-1.93-0.54
				c-0.33-0.07-0.68-0.12-1.02-0.17l-0.26-0.04c-0.24-0.03-0.04-0.02-0.18-0.03l-0.54-0.02l-4.37-0.16l-4.37-0.2
				c-1.46-0.05-2.91-0.12-4.37-0.2c-1.47-0.11-2.89-0.11-4.44-0.4c-1.53-0.38-2.82-1.19-4-2.07c-1.18-0.89-2.24-1.9-3.26-2.95
				c1.16,0.89,2.33,1.76,3.55,2.52c1.22,0.75,2.54,1.37,3.89,1.55c1.34,0.14,2.85,0.11,4.29,0.12l4.37-0.01l8.74-0.05l0.56,0
				c0.04-0.01,0.42,0.03,0.36,0.03l0.28,0.03c0.38,0.05,0.75,0.08,1.13,0.16c0.76,0.12,1.53,0.33,2.28,0.61
				c0.76,0.28,1.48,0.69,2.1,1.08c0.62,0.38,1.19,0.71,1.79,0.96c1.21,0.51,2.58,0.83,3.97,1.03c1.38,0.22,2.74,0.25,4.12,0.13
				c1.36-0.12,2.89-0.43,4.48-0.33c1.58,0.09,3.07,0.47,4.49,0.99c1.44,0.5,2.78,1.26,4.02,1.97c1.24,0.71,2.52,1.26,3.89,1.63
				C298.33,563.92,301.26,564.06,304.16,563.8z"/>
			<path class="st8" d="M241.86,548.23c-1.27-0.7-2.51-1.09-3.74-1.11c-1.22-0.02-2.39,0.3-3.29,0.92c-0.9,0.61-1.53,1.58-1.82,2.76
				c-0.28,1.18-0.24,2.49,0.14,3.89c-1.09-0.96-1.73-2.49-1.69-4.07c0.02-1.57,0.81-3.27,2.23-4.22c1.39-0.96,3.13-1.18,4.65-0.81
				C239.88,545.93,241.2,546.95,241.86,548.23z"/>
			<g>
				<path class="st8" d="M215.85,462.93c3.15-3.91,7.27-7.07,11.93-9.26c4.66-2.19,9.99-3.27,15.25-2.8
					c5.27,0.38,10.36,2.42,14.55,5.43c4.18,3.05,7.56,7.06,9.73,11.57c-3.54-3.53-7.28-6.64-11.43-8.92
					c-4.14-2.26-8.59-3.76-13.2-4.1c-4.59-0.41-9.26,0.24-13.76,1.73C224.42,458.03,220.09,460.28,215.85,462.93z"/>
				<g>
					<circle class="st8" cx="244.19" cy="463.38" r="9.45"/>
					<g>
						<path class="st8" d="M243.11,472.77c-2.46-0.27-4.8-1.54-6.38-3.47c-1.6-1.92-2.42-4.49-2.18-7.03
							c0.22-2.53,1.49-4.99,3.5-6.63c2-1.66,4.69-2.45,7.28-2.14c2.59,0.3,5.04,1.68,6.6,3.74c1.58,2.06,2.26,4.74,1.9,7.25
							c-0.34,2.52-1.73,4.85-3.72,6.35C248.13,472.36,245.57,473.07,243.11,472.77z M243.11,472.77c2.46,0.28,5.02-0.46,6.91-2.04
							c1.9-1.56,3.1-3.89,3.31-6.3c0.22-2.41-0.56-4.84-2.07-6.66c-1.5-1.83-3.71-3.03-6.04-3.29c-2.33-0.28-4.76,0.38-6.63,1.82
							c-1.89,1.42-3.21,3.62-3.54,6.01c-0.34,2.39,0.29,4.93,1.79,6.89C238.33,471.17,240.65,472.48,243.11,472.77z"/>
					</g>
				</g>
				<path class="st8" d="M217.01,455.99c3.07-2.32,6.24-4.55,9.69-6.34c3.4-1.84,7.24-3.06,11.11-3.44
					c3.87-0.46,7.87-0.19,11.61,0.93c1.87,0.57,3.68,1.32,5.39,2.23c1.7,0.94,3.31,2.03,4.77,3.29c-1.6-1.08-3.25-2.06-5-2.84
					c-1.73-0.81-3.53-1.46-5.37-1.92c-3.68-0.99-7.51-1.16-11.29-0.73c-1.91,0.19-3.77,0.49-5.58,1.05
					c-1.81,0.55-3.58,1.27-5.32,2.07C223.56,451.93,220.3,453.98,217.01,455.99z"/>
			</g>
			<g>
				<path class="st8" d="M298.57,473.22c3.44-3.14,7.61-5.61,12.26-6.97c2.32-0.69,4.76-1.04,7.22-1.07
					c2.46-0.03,4.95,0.27,7.31,0.98c1.2,0.29,2.34,0.79,3.48,1.23c0.57,0.24,1.1,0.55,1.65,0.82c0.55,0.27,1.09,0.56,1.6,0.91
					c2.1,1.26,3.98,2.85,5.65,4.58c3.34,3.48,5.78,7.66,7.23,12.09c-2.93-3.64-5.9-7.05-9.37-9.78c-1.72-1.36-3.5-2.63-5.41-3.61
					c-1.89-1.01-3.87-1.85-5.93-2.39c-2.04-0.63-4.15-0.93-6.29-1.05c-2.14-0.11-4.3-0.01-6.47,0.34
					C307.17,469.94,302.91,471.48,298.57,473.22z"/>
				<g>
					<circle class="st8" cx="322.41" cy="477.38" r="7.73"/>
					<path class="st8" d="M321.11,485c-2-0.33-3.85-1.47-5.06-3.12c-1.23-1.63-1.8-3.78-1.5-5.85c0.29-2.07,1.43-4.04,3.15-5.31
						c1.72-1.28,3.98-1.82,6.1-1.45c2.13,0.36,4.08,1.62,5.27,3.4c1.2,1.77,1.62,4.01,1.2,6.06c-0.41,2.06-1.66,3.89-3.36,5.02
						C325.23,484.9,323.1,485.36,321.11,485z M321.11,485c2,0.34,4.12-0.16,5.73-1.36c1.62-1.2,2.68-3.05,2.95-4.99
						c0.28-1.95-0.26-3.95-1.41-5.48c-1.14-1.54-2.87-2.6-4.74-2.91c-1.87-0.33-3.85,0.09-5.44,1.17c-1.6,1.06-2.77,2.77-3.16,4.7
						c-0.4,1.92-0.01,4.02,1.12,5.69C317.27,483.48,319.11,484.66,321.11,485z"/>
				</g>
				<path class="st8" d="M307.49,463.94c3.55-2.05,7.62-3.28,11.77-3.47c4.15-0.14,8.38,0.75,12.06,2.73
					c1.84,0.97,3.56,2.17,5.16,3.46c1.69,1.3,2.88,3.08,3.96,4.83c1.05,1.78,1.97,3.62,2.78,5.5c0.84,1.87,1.57,3.78,2.47,5.62
					c-1.06-1.76-1.88-3.64-2.83-5.45c-0.95-1.81-1.88-3.63-2.98-5.33c-1.11-1.69-2.34-3.31-3.92-4.5c-1.6-1.25-3.28-2.38-5.07-3.29
					c-1.79-0.9-3.67-1.63-5.62-2.1c-1.95-0.48-3.96-0.67-5.97-0.66C315.26,461.29,311.24,462.3,307.49,463.94z"/>
			</g>
			<path class="st19" d="M259.21,366.44c-0.03,4.4,1.62,10.75-1.29,20.34c-2.91,9.59-2.53,9.15-4.25,20.92
				c-1.72,11.77-3.12,13.36-8.74,17.36c-5.62,4-16.52,15.33-17.39,17.51c-0.87,2.18-0.93-5.89,1.93-10.14
				c2.86-4.25,6.33-7.38,7.43-14.75c1.1-7.37,2.71-1.14,4.8-13.91c2.09-12.76,0.55-12.2,0.17-20.92"/>
		</g>
		<g>
			<path class="st0" d="M758.2,624.69c7.4-4.32,12.8-9.44,18.35-17.46c5.55-8.02,8.44-12.26,8.79-26.94c0.19-8.04,0-19.12,0-19.12
				s30.22-1.23,34.54-3.08c4.32-1.85,36.39-11.72,40.09-15.42s37-19.12,40.7-25.9c3.7-6.78,15.34-25.47,15.34-25.47
				s-13.95,39.12-14.56,50.84c-0.62,11.72-10.3,51.8-2.9,58.58c7.4,6.78,19.55,11.03,19.55,11.03l-13.73,6.78l-54.89,45.02
				l-33.3,17.88c0,0-24.05,21.74-24.67,26.9c-0.62,5.17-23.97,40.2-23.97,40.2l-14.88-2.97l14.8-43.79l-22.2-17.88
				c0,0-9.87-26.52-8.02-28.37C739.08,653.68,758.2,624.69,758.2,624.69z"/>
			<path class="st0" d="M901.44,510.68c3.23,3.93,1.15,7.86,7.86,6.24s8.33-3.01,12.95-9.02c4.63-6.01,8.71-7.09,10.48-12.1
				c1.77-5.01,4.32-11.25,4.09-14.96c-0.23-3.7-8.43-12.72-8.43-12.72l-19.09-8.33l-9.94,2.78L901.44,510.68z"/>
			<path class="st1" d="M783.12,594.07c0,0,3.72,0.79-18.83,32.24c-8.28,11.55-8.79,21.97-10.18,27.52
				c-1.39,5.55-2.54,15.73,0,17.81c2.54,2.08,3.47,5.55,14.11,8.56c10.64,3.01,20.35,3.7,20.35,3.7h2.78c0,0-5.32,9.94-10.87,17.11
				c-5.55,7.17-9.25,9.94-13.41,21.05c-4.16,11.1-6.24,23.82-6.24,23.82s2.78,0,10.18-9.48c7.4-9.48,11.33-20.81,14.8-30.3
				c3.47-9.48,4.86-26.36,5.55-29.37c0.69-3.01,4.63-6.82,4.63-6.82s1.39-1.5,17.58-6.13c16.19-4.63,25.44-6.71,33.53-14.57
				c8.09-7.86,14.11-14.34,21.74-21.74c7.63-7.4,8.33-7.17,15.96-15.03c7.63-7.86,12.67-10.02,12.37-11.72
				c-0.12-0.65-0.99-5.77-0.99-5.77s3.88,2.83,9.66,5.77c5.78,2.93,48.33,11.72,61.05,17.27s30.06,12.03,39.08,19.2
				c9.02,7.17,11.1,3.7,19.89,18.04c8.79,14.34,10.18,4.86,16.88,30.53c6.71,25.67,15.73,60.13,15.73,60.13s2.54,31.14,3.78,47.8
				c1.23,16.65,0,29.6,0,29.6l-500.15-5.55c0,0,20.35-38.85,25.9-55.5c5.55-16.65,12.33-36.39,19.73-50.57
				c7.4-14.18,28.37-38.85,33.92-51.8c5.55-12.95,8.63-16.65,17.88-20.97c9.25-4.32,39.47-16.65,48.1-18.5
				c8.63-1.85,29.6-6.78,38.85-10.48S783.12,594.07,783.12,594.07z"/>
			<path class="st2" d="M759.7,779.79c5.55-16.03,8.92-30.68,9.56-32.69c0.64-2.01,4.82-3.04,10.54-12.64
				c5.72-9.6,12.33-22.84,14.24-31.11c1.91-8.27,1.45-12.66,3.89-21.31c2.44-8.65-0.92-9.48,5.4-12.14s27.71-7.97,35.76-11.6
				s15.58-9.32,26.33-20.08c10.76-10.76,25.37-24.44,26.71-25.79c1.34-1.35-15.46,26.38-18.66,33.23
				c-3.2,6.85-25.92,20.59-34.39,27.41s-18.03,14.83-20.81,27.17s-12.03,34.23-19.12,40.7c-7.09,6.48-24.98,22.2-29.29,28.68
				c-4.32,6.48-14.18,32.07-14.18,32.07L759.7,779.79z"/>
			<path class="st2" d="M963.47,626.52c8.48,1.54,26.52,7.4,41.01,20.97c14.49,13.57,16.96,13.88,24.98,25.59
				c8.02,11.72,15.42,47.18,17.27,52.42c1.85,5.24,6.17,33.92,7.71,44.09c1.54,10.18,3.08,49.95,3.08,51.8"/>
			<path class="st3" d="M571.03,809.57c2.47-2.78,11.41-21.89,14.8-28.68s-1.23,1.85,10.79-24.67
				c12.03-26.52,20.35-40.7,27.14-53.35c6.78-12.64,12.95-24.98,19.73-37c6.78-12.03,3.39-14.49,16.96-22.51
				c13.57-8.02,23.13-8.33,41.01-15.42c17.88-7.09,35.77-13.51,47.49-16.62c11.72-3.11,22.51-10.22,26.21-10.61
				c3.7-0.39-81.1,38.95-90.35,48.81c-9.25,9.87-35.15,24.67-45.64,44.71C628.69,714.29,571.03,809.57,571.03,809.57z"/>
			<path class="st3" d="M775.86,600.37c0,0-31.11,12.72-34.19,21.35s-7.66,23.63-5.64,35.15c2.02,11.52,2.72,10.66,5.64,16.03
				c1.15,2.12-0.69,0.13,5.98,5.97c0,0-5.67-11.22-2.28-25.4c1.79-7.5,5.24-23.13,8.63-27.44
				C757.4,621.72,775.86,600.37,775.86,600.37z"/>
			<path class="st4" d="M765.92,398.72c-2.02,8.57-4.54,18.16-5.55,25.72c-1.01,7.57-3.53,17.15-3.53,22.7c0,5.55,0.5,17.15,0,30.77
				s-4.04,36.82,4.54,52.96c8.58,16.14,19.67,31.27,27.74,35.81c8.07,4.54,10.59,5.04,15.64,5.55c5.04,0.5,19.17-2.52,31.78-7.57
				c12.61-5.04,41.87-23.71,47.41-26.73c5.55-3.03,12.11-11.1,16.14-17.15s6.56-12.61,6.56-24.72s2.52-30.77,0-43.88
				c-2.52-13.11-7.57-33.8-12.61-42.37c-5.04-8.57-13.04-21.69-22.91-26.73s-26.04-8.07-39.39-8.07s-45.13,3.53-52.19,7.06
				C772.48,385.61,765.92,398.72,765.92,398.72z"/>
			<path class="st8" d="M786.84,472.03c-1.53,1.2-2.43,2.99-2.69,4.8c-0.19,1.82-0.21,3.82,0.04,5.6c0.26,1.8,1.04,3.42,2.52,3.99
				c0.34,0.14,0.79,0.28,1.23,0.38c0.43,0.1,0.86,0.17,1.29,0.21c0.42,0.03,0.83,0.03,1.21-0.03c0.19-0.02,0.37-0.08,0.53-0.13
				c0.08-0.03,0.15-0.06,0.22-0.09c0.04-0.02,0.16-0.1,0.09-0.05l-0.33,0.73c0.01-0.33,0.05-0.51,0.15-0.8
				c0.11-0.26,0.27-0.57,0.6-0.81c0.15-0.13,0.33-0.19,0.51-0.26c0.17-0.05,0.34-0.06,0.51-0.07c0.29,0.01,0.56,0.07,0.75,0.14
				c0.83,0.31,1.33,0.73,1.86,1.16c0.52,0.45,0.91,0.84,1.36,1.21c0.44,0.38,0.9,0.72,1.37,1.05c0.94,0.63,1.94,1.15,2.97,1.41
				c1.01,0.25,2.15,0.2,3.08-0.13c0.92-0.35,1.77-1.14,2.64-2c0.44-0.43,0.9-0.88,1.54-1.26c0.33-0.17,0.72-0.35,1.18-0.32
				c0.23-0.01,0.43,0.07,0.64,0.13l0.38,0.14c1.05,0.3,2.3,0.36,3.5,0.4c1.21,0.03,2.43,0.02,3.66-0.01
				c-1.2,0.27-2.41,0.48-3.63,0.62c-1.23,0.11-2.45,0.25-3.79,0.02c-0.16-0.04-0.38-0.11-0.5-0.14c-0.09-0.01-0.17-0.05-0.25-0.02
				c-0.16,0-0.34,0.1-0.53,0.23c-0.39,0.29-0.78,0.74-1.18,1.18c-0.8,0.89-1.67,1.93-3.01,2.56c-1.35,0.56-2.74,0.64-4.11,0.38
				c-1.36-0.27-2.58-0.87-3.66-1.59c-0.54-0.37-1.06-0.75-1.55-1.16c-0.49-0.4-0.98-0.86-1.39-1.2c-0.42-0.34-0.89-0.69-1.21-0.8
				c-0.09-0.04-0.12-0.03-0.14-0.04c0.02,0.01,0.09-0.01,0.16-0.06c0.07-0.07,0.08-0.09,0.07-0.08c-0.01,0-0.03,0.12-0.03,0.09
				l-0.33,0.73c-0.26,0.21-0.35,0.24-0.52,0.33c-0.15,0.08-0.3,0.13-0.45,0.19c-0.3,0.09-0.59,0.17-0.88,0.2
				c-0.58,0.08-1.14,0.07-1.68,0.02c-0.54-0.07-1.06-0.17-1.56-0.32c-0.5-0.14-0.98-0.3-1.52-0.55c-1.04-0.48-1.94-1.36-2.42-2.37
				c-0.5-1-0.7-2.06-0.79-3.08c-0.09-1.02-0.04-2.03,0.06-3.01c0.11-0.99,0.2-1.94,0.47-2.94
				C783.81,474.69,785.09,472.91,786.84,472.03z"/>
			<path class="st8" d="M825.69,488.68c0.63-0.89,1.06-1.74,1.42-2.61c0.35-0.84,0.6-1.75,0.53-2.35c-0.1-0.72-0.46-1.68-0.79-2.57
				c-0.35-0.92-0.67-1.84-1.15-2.81c1.07,0.37,1.86,1.2,2.52,2.03c0.64,0.89,1.2,1.8,1.4,3.1c0.12,1.46-0.49,2.53-1.17,3.41
				C827.73,487.75,826.8,488.49,825.69,488.68z"/>
			<path class="st8" d="M778.28,515.22c2.53,0.88,5.18,1.02,7.79,0.79c1.32-0.1,2.63-0.24,3.91-0.46c1.29-0.21,2.54-0.52,3.88-0.81
				c2.73-0.63,5.74-0.22,8.28,0.72c0.62,0.22,1.16,0.37,1.73,0.44c0.56,0.07,1.18,0.05,1.78,0c0.6-0.06,1.15-0.18,1.69-0.38
				c0.54-0.19,1.15-0.5,1.86-0.75c0.71-0.25,1.45-0.4,2.17-0.46c0.71-0.07,1.48-0.09,2.25,0.05c1.51,0.32,2.64,0.85,3.91,1.2
				c2.49,0.71,5.09,1.36,7.65,1.77c0.64,0.1,1.29,0.17,1.94,0.23c0.67,0.05,1.28,0.09,1.91,0.01c1.28-0.13,2.57-0.44,3.83-0.79
				c1.27-0.36,2.53-0.76,3.76-1.25c1.22-0.5,2.46-1.01,3.51-1.83c-0.98,0.91-2.17,1.56-3.37,2.16c-1.2,0.59-2.44,1.11-3.7,1.56
				c-1.27,0.44-2.55,0.84-3.92,1.06c-1.41,0.22-2.74,0.17-4.11,0.1c-1.36-0.07-2.7-0.29-4.02-0.51c-1.31-0.21-2.66-0.47-3.97-0.81
				c-1.31-0.31-2.65-0.82-3.75-1c-1.08-0.16-2.38,0-3.45,0.37c-0.55,0.19-1.12,0.5-1.83,0.76c-0.7,0.27-1.47,0.42-2.19,0.48
				c-0.72,0.06-1.45,0.07-2.2-0.03c-0.75-0.09-1.49-0.32-2.12-0.55c-2.41-0.94-4.87-1.36-7.38-0.96c-1.28,0.18-2.63,0.44-3.98,0.55
				c-1.36,0.11-2.71,0.13-4.05,0.12C783.41,516.95,780.64,516.51,778.28,515.22z"/>
			<path class="st9" d="M825.44,418.73c0.54,1.66,0.92,4.02,4.76,3.21c3.84-0.81,12.05-1.67,14.67-2.36
				c2.62-0.69,4.61-2.13,8.76-1.74c4.15,0.38,6.04,2.5,8.91,4.12s10.75,6.76,10.75,6.76s-0.91-5.12-4.81-8.19
				c-3.9-3.07-10.28-6.91-12.35-7.11c-2.07-0.19-6.12,0.83-8.69,1.05c-2.58,0.23-8.42,1.31-12.5,1.16
				c-4.08-0.15-9.17-0.38-9.17-0.38L825.44,418.73z"/>
			<path class="st9" d="M795.05,417.78c-0.57,2.42-1.63,4.33-3.26,4.18c-1.63-0.15-11.23-2.2-13.09-2.46s-5.34-0.23-7.22-0.75
				c-1.88-0.52-4.36,0.77-5.72,1.41c-1.36,0.65-7.27,7.2-7.27,7.2s3-8.95,5.5-10.01c2.5-1.05,6.35-2.87,9.37-2.56
				c3.03,0.31,11.62,0.8,12.8,1.2C787.34,416.4,795.05,417.78,795.05,417.78z"/>
			<path class="st8" d="M799.46,432.05c0.06,1.33,0,2.65-0.05,3.98c-0.08,1.33-0.22,2.65-0.38,3.96c-0.32,2.64-0.86,5.25-1.54,7.82
				c-0.35,1.28-0.75,2.56-1.2,3.81c-0.46,1.26-0.97,2.47-1.49,3.69l-1.56,3.65c-0.55,1.2-1.08,2.42-1.66,3.61
				c0.37-1.28,0.8-2.53,1.2-3.79l1.3-3.74c0.89-2.49,1.79-4.95,2.45-7.49c0.7-2.53,1.25-5.1,1.75-7.68
				C798.77,437.28,799.14,434.68,799.46,432.05z"/>
			<path class="st8" d="M786.33,521.5c2.74,2.51,5.96,4.28,9.38,5.31c3.43,1.03,7.01,1.33,10.57,0.98c1.79-0.14,3.56-0.44,5.36-0.79
				c1.82-0.31,3.56-0.71,5.32-1.18c3.5-0.96,6.9-2.3,10.21-3.98c-2.85,2.38-6.2,4.2-9.73,5.47c-1.75,0.66-3.61,1.12-5.41,1.54
				c-1.82,0.41-3.68,0.75-5.57,0.93c-1.89,0.16-3.82,0.14-5.72-0.09c-1.9-0.25-3.77-0.71-5.54-1.41
				C791.65,526.91,788.44,524.57,786.33,521.5z"/>
			<path class="st8" d="M787.62,511.51c1.35-1.08,2.74-2.1,4.27-2.98c0.78-0.42,1.58-0.84,2.61-0.97c1.03-0.06,1.95,0.12,2.85,0.49
				c0.88,0.36,1.65,0.86,2.34,1.25c0.7,0.4,1.36,0.62,2.05,0.66c0.71,0.05,1.41-0.05,1.98-0.35c0.59-0.27,1.24-0.94,2.23-1.37
				c0.99-0.42,1.99-0.54,3-0.46c1.01,0.09,1.9,0.4,2.73,0.72c1.66,0.67,3.17,1.36,4.76,2.22c0.78,0.43,1.49,0.94,2.2,1.35
				c0.36,0.2,0.71,0.38,1.09,0.54l1.21,0.45c0.81,0.29,1.61,0.58,2.43,0.83c0.81,0.21,1.65,0.53,2.5,0.39
				c-0.83,0.29-1.74,0.13-2.59,0.02c-0.86-0.14-1.71-0.31-2.55-0.52l-1.26-0.3c-0.45-0.1-0.89-0.25-1.3-0.42
				c-0.83-0.36-1.59-0.74-2.35-1.07c-0.75-0.34-1.54-0.61-2.36-0.91c-0.8-0.29-1.6-0.6-2.39-0.85c-0.79-0.25-1.56-0.46-2.27-0.51
				c-0.7-0.05-1.45,0.07-2.04,0.34c-0.6,0.26-1.21,0.82-2.17,1.31c-0.97,0.48-2.04,0.6-3.03,0.49c-1.02-0.11-2-0.55-2.76-1.05
				c-0.79-0.49-1.42-1-2.1-1.37c-0.66-0.36-1.45-0.58-2.14-0.64c-0.7-0.01-1.51,0.27-2.28,0.56
				C790.72,509.98,789.18,510.77,787.62,511.51z"/>
			<path class="st8" d="M838.05,510.65c0.91-0.4,1.96-0.38,2.94-0.06c0.49,0.16,0.96,0.42,1.38,0.74c0.41,0.3,0.78,0.67,1.1,1.1
				c0.64,0.85,0.99,2,0.87,3.06c-0.12,1.07-0.65,2.04-1.48,2.58c0.23-1.96-0.14-3.31-1-4.46c-0.21-0.29-0.46-0.58-0.73-0.86
				c-0.25-0.27-0.53-0.52-0.84-0.76C839.67,511.49,838.94,511.08,838.05,510.65z"/>
			<g>
				<path class="st8" d="M829.89,442.3c2.11-3.26,5.01-6.09,8.53-8.11c3.51-1.99,7.71-3.08,11.86-2.81
					c1.04,0.02,2.06,0.22,3.08,0.37c0.51,0.1,1,0.25,1.5,0.37c0.5,0.12,1,0.26,1.48,0.46c1.95,0.66,3.77,1.62,5.44,2.75
					c3.33,2.27,6.04,5.28,7.91,8.7c-3.14-2.32-6.19-4.46-9.48-5.97c-1.64-0.76-3.29-1.43-4.99-1.86c-1.69-0.45-3.41-0.77-5.15-0.83
					c-1.73-0.14-3.47,0-5.19,0.27c-1.72,0.28-3.44,0.73-5.12,1.38C836.38,438.27,833.19,440.21,829.89,442.3z"/>
				<path class="st8" d="M760.34,442.58c1.36-3,3.57-5.62,6.31-7.63c2.73-2.02,6.11-3.36,9.62-3.63c3.51-0.33,7.08,0.5,10.1,2.1
					c3.02,1.62,5.54,3.99,7.19,6.83c-2.83-1.66-5.59-3.06-8.43-3.94c-2.84-0.87-5.7-1.27-8.54-1c-2.84,0.22-5.63,1.03-8.33,2.33
					C765.55,438.91,762.97,440.64,760.34,442.58z"/>
				<g>
					<circle class="st8" cx="778.39" cy="439.86" r="6.09"/>
					<g>
						<path class="st8" d="M778.7,445.94c-1.59,0.09-3.21-0.46-4.44-1.51c-1.23-1.04-2.06-2.59-2.2-4.25
							c-0.15-1.65,0.38-3.39,1.49-4.69c1.11-1.3,2.78-2.12,4.5-2.21c1.72-0.09,3.47,0.55,4.7,1.74c1.24,1.18,1.94,2.86,1.96,4.52
							c0.03,1.67-0.64,3.29-1.76,4.45C781.85,445.15,780.29,445.87,778.7,445.94z M778.7,445.94c1.59-0.08,3.14-0.84,4.16-2.05
							c1.02-1.2,1.51-2.81,1.36-4.33c-0.13-1.53-0.9-2.95-2.04-3.9c-1.13-0.96-2.61-1.47-4.08-1.38c-1.46,0.06-2.89,0.72-3.91,1.79
							c-1.04,1.06-1.65,2.55-1.63,4.09c0.01,1.53,0.65,3.08,1.8,4.17C775.49,445.42,777.1,446.02,778.7,445.94z"/>
					</g>
				</g>
				<g>
					<circle class="st8" cx="849.93" cy="441.34" r="6.41"/>
					<path class="st8" d="M850.25,447.74c-1.68,0.1-3.38-0.48-4.67-1.59c-1.3-1.09-2.16-2.72-2.31-4.47
						c-0.16-1.74,0.4-3.56,1.57-4.92c1.16-1.37,2.91-2.22,4.72-2.32c1.81-0.09,3.64,0.58,4.93,1.82c1.3,1.23,2.04,2.99,2.07,4.74
						c0.03,1.75-0.66,3.46-1.84,4.68C853.57,446.91,851.93,447.67,850.25,447.74z M850.25,447.74c1.68-0.09,3.3-0.88,4.38-2.15
						c1.08-1.27,1.59-2.95,1.44-4.56c-0.14-1.61-0.94-3.11-2.14-4.12c-1.19-1.02-2.76-1.55-4.31-1.46
						c-1.55,0.07-3.05,0.76-4.14,1.89c-1.09,1.12-1.74,2.7-1.71,4.32c0.02,1.61,0.7,3.24,1.9,4.39
						C846.88,447.2,848.57,447.82,850.25,447.74z"/>
				</g>
				<path class="st8" d="M760.33,438.06c1.66-1.85,3.41-3.63,5.41-5.16c1.95-1.56,4.28-2.79,6.72-3.43
					c2.42-0.72,5.03-0.97,7.54-0.62c1.25,0.18,2.49,0.48,3.67,0.9c1.18,0.45,2.31,0.99,3.35,1.67c-1.15-0.48-2.31-0.9-3.5-1.18
					c-1.18-0.31-2.39-0.51-3.61-0.59c-2.43-0.19-4.85,0.1-7.18,0.77c-1.19,0.32-2.32,0.71-3.41,1.24c-1.09,0.53-2.14,1.16-3.16,1.83
					C764.13,434.86,762.25,436.48,760.33,438.06z"/>
				<path class="st8" d="M835.42,433.18c2.48-2.33,5.54-4.08,8.87-5.01c3.34-0.91,6.94-0.93,10.29,0c1.68,0.44,3.29,1.11,4.81,1.88
					c1.61,0.76,2.9,1.99,4.08,3.21c2.37,2.49,4.18,5.39,6.22,8.08c-2.3-2.5-4.29-5.27-6.7-7.61c-1.21-1.16-2.49-2.24-3.98-2.9
					c-1.53-0.71-3.08-1.3-4.69-1.72c-3.21-0.84-6.6-0.89-9.84-0.15C841.24,429.68,838.18,431.21,835.42,433.18z"/>
			</g>
			<path class="st5" d="M945.64,490.45c0.24,4.35-0.05,7.73-1.46,9.78c-1.41,2.04-4.51,2.09-2.84,7.8
				c1.67,5.72,2.15,11.02,2.15,11.02l-4.3,6.75c0,0-3.31,2.5-2.25,8.16c1.06,5.66,3.92,8.38,3.63,11.76s-2.89,8.42-2.89,8.42
				l-3.09,7.16l4.05,6.85l-2.43,6.6l-5.94,6.92l-3.09,8.09l1.45,10.96c0,0-5.07-8.48-4.47-11.84c0.6-3.35,3.89-9.26,3.89-9.26
				l3.09-8.09l-1.63-8.81l-0.81-5.02l4.24-7.06l1.92-6.95l-2.95-8.92c0,0,1.21-3.3,0.5-5.84c-0.71-2.54-0.71-2.54,0.64-7.37
				c1.35-4.84,4.18-7.38,3.3-10.55c-0.88-3.17-2.92-8.3-2.92-8.3s-1.76-1.08-1.01-6.28c0.76-5.2-0.01-3.48,1.68-8.71
				c1.69-5.24-3.45-12.8-3.45-12.8L945.64,490.45z"/>
			<path class="st5" d="M928.46,481.91c-0.2,2.65,3.15,8.26,0.7,10.53s-3.82,3.69-2.16,6c1.66,2.31,4.56,1.01,4.52,5.03
				c-0.04,4.02-1.81,6.65-1.81,6.65s-4.79,0.21-2.46,4.43c2.33,4.22,4.27,6.87,4.27,6.87l2.79,8.29c0,0-5.61,2.92-5.74,8.02
				c-0.13,5.1,1.15,4.59,2.2,6.84c1.04,2.26,2.03,1.04,2.94,3.31c0.91,2.28,2.32,3.95,2.32,3.95l2.1,7.92l1.46,5.7
				c0,0-4.29-0.05-2.27,6.31s4.54,9.36,4.54,9.36l0.45,5.61c0,0-3.18,0.96-2.37,5.99c0.81,5.02,1.08,9.07,1.08,9.07l-3.82-8.38
				c0,0,0.14-2.77-1.97-6.98c-2.11-4.21-2.72-2.71-4.94-4.76c-2.22-2.05-3.41-6.17-3.41-6.17l-0.01-7.1l-3.52-8.37l-2.18-4.21
				c0,0-3.83-2.5-2.49-7.33c1.35-4.84,2.22-7.83,2.22-7.83l2.07-5.73l0.45-5.22l-1.03-6.28l-3.88-5.6l0.46-5.31l1.62-4.1l1.48-6.37
				c0,0-3.42-3.39-3.72-7.13c-0.3-3.74-0.25-0.64-0.22-4.66s0.88-6.58,0.88-6.58l3.4-11"/>
			<path class="st6" d="M954.84,467.4c-0.32,5.86,3.88,5.29,3.23,9.26c-0.65,3.97-0.09,4.63-2.51,7.52
				c-2.42,2.89-1.14,6.09-1.14,6.09s5.63,2.96,2.6,5.79c-3.03,2.83-0.21,2.46-5.08,5.13c-4.87,2.68-3.29,5.91-3.29,5.91
				s2.17,3.59,2.26,6.08c0.1,2.48,1.42,2.29,0.66,5.32c-0.76,3.03,1.54,5.08,1.54,5.08l1.78,6.03l-0.48,5.53l-0.56,6.45l2.63,3.94
				l0.75,5.64l-2.68,5.96c0,0-0.21,2.46-0.17,5.56c0.04,3.1-0.44,0.89-2.75,4.71s-5.55,10.33-6.49,12.75s1.18,7.22,2.43,9.18
				c1.25,1.96-7.77-9.64-6.65-12.95c1.12-3.31,1.78-10.99,2.91-13.37c1.13-2.38,0.43-8.61,0.43-8.61l-2.56-9.84l2.23-3.21l3.51-5.89
				l1.99-5.09l-1.92-6.51l-1.64-4.94l0.56-7.07l0.87-9.52l-1.5-6.09l2.41-4.97l2.35-6.3l0.28-6.79l-1.09-4.72l-0.69-17.66"/>
			<path class="st7" d="M831.73,308.32c1.28-2.28,4.25-6.24,6.56-6.48s2.31-0.69,4.16-2.54c1.85-1.85,1.85-2.78,4.63-3.24
				s8.33-2.54,10.18-5.32c1.85-2.78,9.93-6.94,13.87-8.33s11.11-4.63,16.89-2.54c5.78,2.08,8.79,0.46,11.33,3.7s5.55,2.78,9.48,2.78
				s5.09-3.7,8.79,0.69s7.89,11.79,10.77,12.72c2.88,0.93,0.57-2.54,5.65,0.46c5.09,3.01,7.16-0.03,11.56,4.84
				c4.4,4.87,6.71,5.8,9.49,9.96s11.33,11.79,13.88,15.96s10.29,8.79,13.01,13.41s-0.29,4.39,2.49,7.4s4.36,0.93,5.3,6.01
				c0.94,5.09-0.68,4.39,1.64,8.09c2.31,3.7,3.47,4.39,3.24,7.86c-0.23,3.47-2.31,2.31-0.93,6.01c1.39,3.7,0.98,2.31,0.95,6.01
				c-0.03,3.7,2.8,2.8,0,6.26c-2.8,3.46,2.05-0.01-2.8,3.46c-4.86,3.47-7.63,3.47-6.48,5.32c1.16,1.85,2.31,1.16,2.31,3.01
				s-5.43,6.48-5.72,6.48s-20.18-6.71-20.18-6.71L831.73,308.32z"/>
			<path class="st10" d="M741.49,382.87c-1.09,5.68,0.33,14.84-0.23,25.43s-0.05,13.11-2.07,20.18c-2.02,7.06,0,3.03,0,12.11
				s-1.51,8.57,0,14.12s1.01,4.04,4.54,10.09c3.53,6.05,3.53,3.08,4.54,8.85c1.01,5.77,0,4.83,4.04,8.8s4.62,1.45,4.62,1.45
				s0.93-38.93,2.05-45.77c1.89-11.62,5.54-36.22,5.54-36.22L741.49,382.87z"/>
			<path class="st6" d="M873.78,409.45c17.74,7.43,18.24,17.52,36.4,26.09c18.16,8.57,17.65,14.63,37.83,10.59
				s27.74-7.3,31.78-17.52c4.04-10.22,1.51-27.37,0-28.89c-1.51-1.51-35.31-33.8-36.82-36.32c-1.51-2.52-25.72-26.73-25.72-26.73
				s14.63,15.13,2.02,30.26C906.65,382.08,873.78,409.45,873.78,409.45z"/>
			<path class="st5" d="M862.26,400.74c7.57,5.55,8.07,9.58,19.17,10.09c11.1,0.5,22.7-4.54,29.26-10.09
				c6.56-5.55,15.13-14.49,15.13-21.69c0-7.2,4.37-24.93,1.7-27.87c-2.67-2.94-10.28-14.5-10.28-14.5s-13.62-10.59-15.64-13.62
				s-5.55-4.04-11.1-4.04s-11.1-1.51-15.64-4.04c-4.54-2.52-7.06-3.53-12.61-3.53c-5.55,0-18.66-3.53-22.19-4.04
				c-3.53-0.5-19.17-5.04-25.72,0c-6.56,5.04-38.84,20.18-46.91,31.27c-8.07,11.1-17.15,10.09-20.68,25.22s-8.57,20.68-3.03,29.76
				c5.55,9.08,10.09,19.67,12.11,20.68c2.02,1.01,5.72,7.2,5.72,7.2s0.88-7.97,1.89-12.51c1.01-4.54,4.49-11.57,8.53-12.97
				c4.04-1.4,11.6-7.95,11.6-7.95s1.51,0.5,6.56,1.51c5.04,1.01,12.61-1.01,16.14-0.5c3.53,0.5,4.54,2.02,9.08,2.02
				c4.54,0,13.62-2.02,16.65,1.01c3.03,3.03,11.1,4.81,14.12,3.92C849.15,395.19,862.26,400.74,862.26,400.74z"/>
			<path class="st6" d="M902.62,425.96c-0.99,4.56-1.96,14.88-0.23,25.22c1.72,10.34,6.79,17.71,11.84,22.47s15.29,5.27,21.01,12.33
				s20.85,5.55,24.89,4.04s18.99-20.18,21.85-25.72c2.87-5.55,6.9-22.19,7.4-30.77c0.5-8.57,1.01-16.14-2.02-22.7
				c-3.03-6.56-11.1-12.61-14.12-13.11"/>
			<path class="st5" d="M882.47,401.75c2.46,9.05-1.54,10.48,1.54,17.27c3.08,6.78,5.86,4.01,6.78,10.18
				c0.93,6.17-3.7,9.96,0.31,15.31c4.01,5.35,7.86,3.5,8.25,9.05c0.39,5.55-3.56,9.6,0.27,15.13c3.82,5.53,10.6,8.62,10.6,8.62
				s-5.86-4.93-5.86-8.02s0.52-8.76-0.32-11.51c-0.84-2.75,2.97-8.57,0.32-10.35c-2.65-1.79-8.63-4.96-8.02-7.89
				s-1.23-12.18,0-15.88c1.23-3.7-0.31-3.7-1.54-9.87c-1.23-6.17,1.54-7.71,1.54-12.03s0-15.11,0-15.11l-16.96-20.35"/>
			<path class="st7" d="M983.59,387.66c0.64,1.54-2.79,5.49,0,8.3c2.79,2.8,3.64-1.51,6.14,4.96c2.51,6.48,3.13,7.71,1.89,11.1
				c-1.23,3.39-5.55,2.92-0.62,7.78c4.93,4.86,2.47,3.01,7.4,3.93c4.93,0.93,7.71-1.08,9.56-3.93c1.85-2.85,2.78-8.09,2.47-9.94
				s-3.08,3.39-3.08,3.39s-0.31,2.78-3.7,3.08c-3.39,0.31-5.86,2.16-5.86-1.85s0.93-8.67,0.93-8.67l-2.23-7.98l-4.24-4.01l1.23-8.33
				l-0.62-6.17c0,0-0.08-5.37-3.13-6.07c-3.04-0.71-6.14-1.94-6.14-1.94s-5.84-7.8-8.92-9.76s-9.87-1.34-9.87-1.34"/>
			<g>
				<path class="st7" d="M900.4,289.37c-0.62-0.62-0.87-1.18-0.93-2.08c0,1.93-0.01,3.87-0.01,5.8c0.39-4.7,6.33-4.44,9.76-4.06
					c3.95,0.44,8.62,1.33,12.04-1.33c1.59-1.24,2.37-2.57,4.59-2.62c1.89-0.04,3.88,0.43,5.66,1.03c3.91,1.3,11.7,12.82,14.32,15.98
					c-0.29-0.35-0.12-8.06-1.58-11.45c-0.23-0.53-2.42-3.11-2.8-3.57c-3.18-3.83-7.53-6.54-12.43-7.53c-2.31-0.47-4.62-0.73-6.45,1
					c-1.84,1.74-3.6,2.75-6.18,3.02c-4.71,0.48-11.59-2.62-15.6,0.85c-1.51,1.3-1.34,3.14-1.35,4.95c-0.01,1.88-0.49,4.46,0.97,5.92
					c-0.27-0.27,0.03-2.52,0.03-2.96C900.43,291.82,900.77,289.74,900.4,289.37L900.4,289.37z"/>
			</g>
		</g>
	</g>
</g>
<circle class="st35" cx="541.37" cy="548.55" r="481.17"/>
</svg>
