<?xml version="1.0" encoding="utf-8"?>
<!-- Generator: Adobe Illustrator 25.0.1, SVG Export Plug-In . SVG Version: 6.00 Build 0)  -->
<svg version="1.1" id="Capa_1" xmlns="http://www.w3.org/2000/svg" xmlns:xlink="http://www.w3.org/1999/xlink" x="0px" y="0px"
	 viewBox="0 0 595.28 841.89" style="enable-background:new 0 0 595.28 841.89;" xml:space="preserve">
<style type="text/css">
	.st0{fill:#E2B8A8;stroke:#1D1D1B;stroke-width:2;stroke-miterlimit:10;}
	.st1{fill:#E2E0F1;stroke:#1D1D1B;stroke-width:2;stroke-miterlimit:10;}
	.st2{fill:#F7F8FC;}
	.st3{fill:#C7C7D8;}
	.st4{fill:#F2CEC2;stroke:#1D1D1B;stroke-width:2;stroke-miterlimit:10;}
	.st5{fill:#E1D1E5;stroke:#1D1D1B;stroke-width:2;stroke-miterlimit:10;}
	.st6{fill:#BDAECC;stroke:#1D1D1B;stroke-width:2;stroke-miterlimit:10;}
	.st7{fill:#A89AB7;stroke:#1D1D1B;stroke-width:2;stroke-miterlimit:10;}
	.st8{fill:#1D1D1B;}
	.st9{fill:#847990;stroke:#1D1D1B;stroke-miterlimit:10;}
	.st10{fill:#DED2E9;stroke:#1D1D1B;stroke-width:2;stroke-miterlimit:10;}
	.st11{fill:#AEAA87;stroke:#1D1D1B;stroke-width:2;stroke-miterlimit:10;}
	.st12{fill:#8D896B;}
	.st13{fill:#CCC7A6;}
	.st14{fill:#89888D;stroke:#1D1D1B;stroke-miterlimit:10;}
	.st15{fill:#89888D;stroke:#1D1D1B;stroke-width:2;stroke-miterlimit:10;}
	.st16{fill:#6B7B9D;stroke:#1D1D1B;stroke-width:2;stroke-miterlimit:10;}
	.st17{fill:#57647D;}
	.st18{fill:#899AB7;}
	.st19{fill:#6D2F3B;stroke:#1D1D1B;stroke-width:2;stroke-miterlimit:10;}
	.st20{fill:#6D2F3B;stroke:#1D1D1B;stroke-miterlimit:10;}
	.st21{fill:#E2B8A8;}
	.st22{fill:#F2CEC2;}
	.st23{fill:#AEAA87;}
	.st24{fill:#89888D;}
	.st25{fill:#6B7B9D;}
	.st26{fill:#6D2F3B;}
	.st27{fill:#E2E0F1;}
	.st28{fill:#847990;}
	.st29{fill:#E1D1E5;}
	.st30{fill:#BDAECC;}
	.st31{fill:#A89AB7;}
	.st32{fill:#DED2E9;}
	.st33{fill:none;stroke:#1D1D1B;stroke-width:3;stroke-miterlimit:10;}
	.st34{clip-path:url(#SVGID_2_);}
	.st35{fill:none;stroke:#1D1D1B;stroke-width:4;stroke-miterlimit:10;}
	.st36{fill:none;stroke:#1D1D1B;stroke-width:0.5;stroke-miterlimit:10;}
</style>
<g>
	<path class="st0" d="M226.15,476.34c7.18-4.19,12.41-9.16,17.8-16.94c5.38-7.78,8.19-11.89,8.53-26.14c0.18-7.8,0-18.55,0-18.55
		s29.32-1.2,33.5-2.99s35.3-11.37,38.89-14.96c3.59-3.59,35.9-18.55,39.49-25.13s14.88-24.71,14.88-24.71s-13.53,37.95-14.13,49.32
		c-0.6,11.37-9.99,50.25-2.81,56.83c7.18,6.58,18.97,10.7,18.97,10.7l-13.32,6.58l-53.25,43.67l-32.31,17.35
		c0,0-23.33,21.09-23.93,26.1c-0.6,5.01-23.26,39-23.26,39l-14.43-2.88l14.36-42.48l-21.54-17.35c0,0-9.57-25.73-7.78-27.52
		C207.61,504.46,226.15,476.34,226.15,476.34z"/>
	<path class="st0" d="M365.11,365.73c3.14,3.81,1.12,7.63,7.62,6.06s8.08-2.92,12.56-8.75c4.49-5.83,8.45-6.88,10.17-11.74
		c1.72-4.86,4.19-10.92,3.96-14.51c-0.22-3.59-8.18-12.34-8.18-12.34l-18.52-8.08l-9.65,2.69L365.11,365.73z"/>
	<path class="st1" d="M250.33,446.63c0,0,3.61,0.77-18.27,31.28c-8.03,11.21-8.53,21.31-9.87,26.7c-1.35,5.38-2.47,15.26,0,17.28
		c2.47,2.02,3.37,5.38,13.69,8.3c10.32,2.92,19.74,3.59,19.74,3.59h2.69c0,0-5.16,9.65-10.54,16.6c-5.38,6.96-8.97,9.65-13.01,20.42
		s-6.06,23.11-6.06,23.11s2.69,0,9.87-9.2c7.18-9.2,10.99-20.19,14.36-29.39s4.71-25.58,5.38-28.49s4.49-6.62,4.49-6.62
		s1.35-1.46,17.05-5.95c15.7-4.49,24.68-6.51,32.53-14.13c7.85-7.63,13.69-13.91,21.09-21.09c7.4-7.18,8.08-6.96,15.48-14.58
		c7.4-7.63,12.3-9.72,12-11.37c-0.11-0.63-0.96-5.59-0.96-5.59s3.76,2.75,9.37,5.59c5.61,2.85,46.89,11.37,59.23,16.76
		s29.17,11.67,37.92,18.62c8.75,6.96,10.77,3.59,19.29,17.5c8.53,13.91,9.87,4.71,16.38,29.62c6.51,24.9,15.26,58.33,15.26,58.33
		s2.47,30.21,3.66,46.37c1.2,16.15,0,28.72,0,28.72L35.9,663.6c0,0,19.74-37.69,25.13-53.85s11.97-35.3,19.15-49.06
		c7.18-13.76,27.52-37.69,32.91-50.26c5.38-12.56,8.38-16.15,17.35-20.34s38.29-16.15,46.67-17.95c8.38-1.79,28.72-6.58,37.69-10.17
		C223.76,458.39,250.33,446.63,250.33,446.63z"/>
	<path class="st2" d="M235.3,628.39c5.38-15.56,8.65-29.76,9.27-31.71s4.67-2.95,10.22-12.27c5.55-9.31,11.96-22.16,13.82-30.18
		c1.86-8.02,1.4-12.28,3.78-20.67c2.37-8.39-0.89-9.2,5.24-11.78c6.13-2.58,26.89-7.73,34.69-11.25
		c7.81-3.52,15.11-9.05,25.54-19.48c10.43-10.44,24.61-23.71,25.92-25.02c1.3-1.31-15,25.59-18.1,32.23s-25.14,19.98-33.36,26.59
		c-8.22,6.61-17.49,14.39-20.18,26.36c-2.69,11.97-11.67,33.2-18.55,39.49c-6.88,6.28-24.23,21.54-28.42,27.82
		s-13.76,31.11-13.76,31.11L235.3,628.39z"/>
	<path class="st2" d="M425.08,475.91c8.23,1.5,25.73,7.18,39.79,20.34c14.06,13.16,16.45,13.46,24.23,24.83
		c7.78,11.37,14.96,45.77,16.75,50.85c1.79,5.09,5.98,32.91,7.48,42.78c1.5,9.87,2.99,48.46,2.99,50.26"/>
	<path class="st3" d="M44.58,655.69c2.39-2.69,11.07-21.24,14.36-27.82s-1.2,1.79,10.47-23.93c11.67-25.73,19.74-39.49,26.32-51.75
		s12.56-24.23,19.15-35.9c6.58-11.67,3.29-14.06,16.45-21.84c13.16-7.78,22.44-8.08,39.79-14.96c17.35-6.88,34.7-13.11,46.07-16.13
		c11.37-3.02,21.84-9.91,25.43-10.29c3.59-0.38-78.67,37.78-87.65,47.36c-8.97,9.57-34.1,23.93-44.27,43.38
		S44.58,655.69,44.58,655.69z"/>
	<path class="st3" d="M243.29,450.54c0,0-30.18,12.34-33.17,20.71s-7.43,22.92-5.47,34.1s2.64,10.34,5.47,15.56
		c1.12,2.06-0.67,0.12,5.8,5.8c0,0-5.5-10.88-2.21-24.64c1.74-7.28,5.09-22.44,8.38-26.62S243.29,450.54,243.29,450.54z"/>
	<path class="st4" d="M233.65,257.13c-1.96,8.32-4.4,17.62-5.38,24.96c-0.98,7.34-3.43,16.64-3.43,22.02s0.49,16.64,0,29.85
		c-0.49,13.21-3.91,35.72,4.4,51.38c8.32,15.66,19.08,30.34,26.91,34.74c7.83,4.4,10.28,4.89,15.17,5.38
		c4.89,0.49,18.59-2.45,30.83-7.34c12.23-4.89,40.62-23,46-25.93c5.38-2.94,11.74-10.77,15.66-16.64s6.36-12.23,6.36-23.98
		s2.45-29.85,0-42.57s-7.34-32.79-12.23-41.1s-12.65-21.04-22.23-25.93c-9.58-4.89-25.26-7.83-38.22-7.83s-43.78,3.43-50.63,6.85
		C240.01,244.4,233.65,257.13,233.65,257.13z"/>
	<path class="st5" d="M408,346.11c0.24,4.22-0.05,7.5-1.42,9.49c-1.37,1.98-4.38,2.02-2.75,7.57c1.62,5.54,2.08,10.69,2.08,10.69
		l-4.17,6.55c0,0-3.21,2.43-2.18,7.92c1.03,5.49,3.8,8.13,3.52,11.41c-0.28,3.28-2.81,8.17-2.81,8.17l-3,6.95l3.93,6.64l-2.35,6.4
		l-5.76,6.71l-3,7.85l1.4,10.63c0,0-4.91-8.23-4.33-11.48c0.58-3.25,3.78-8.98,3.78-8.98l3-7.85l-1.58-8.54l-0.78-4.87l4.11-6.85
		l1.86-6.75l-2.86-8.65c0,0,1.18-3.2,0.49-5.66s-0.69-2.46,0.62-7.15c1.3-4.69,4.06-7.16,3.2-10.23c-0.85-3.08-2.83-8.05-2.83-8.05
		s-1.71-1.05-0.98-6.09c0.73-5.04-0.01-3.37,1.63-8.45c1.64-5.08-3.34-12.41-3.34-12.41L408,346.11z"/>
	<path class="st5" d="M391.33,337.82c-0.19,2.57,3.06,8.02,0.68,10.21c-2.38,2.2-3.7,3.58-2.09,5.82s4.42,0.98,4.38,4.88
		s-1.76,6.45-1.76,6.45s-4.64,0.2-2.38,4.3s4.14,6.66,4.14,6.66l2.7,8.04c0,0-5.44,2.83-5.57,7.78c-0.13,4.94,1.12,4.45,2.13,6.64
		c1.01,2.19,1.97,1.01,2.85,3.22c0.88,2.21,2.25,3.83,2.25,3.83l2.04,7.68l1.42,5.53c0,0-4.16-0.05-2.21,6.12
		c1.95,6.17,4.4,9.08,4.4,9.08l0.43,5.44c0,0-3.08,0.94-2.3,5.81s1.04,8.8,1.04,8.8l-3.71-8.13c0,0,0.14-2.69-1.91-6.77
		c-2.05-4.08-2.64-2.63-4.79-4.62c-2.15-1.99-3.31-5.99-3.31-5.99l-0.01-6.88l-3.41-8.12l-2.11-4.09c0,0-3.72-2.42-2.42-7.11
		c1.3-4.69,2.16-7.59,2.16-7.59l2.01-5.56l0.44-5.07l-1-6.09l-3.76-5.43l0.44-5.15l1.57-3.98l1.43-6.18c0,0-3.32-3.29-3.61-6.92
		c-0.29-3.63-0.25-0.62-0.21-4.52s0.85-6.39,0.85-6.39l3.3-10.67"/>
	<path class="st6" d="M416.92,323.75c-0.31,5.68,3.76,5.13,3.13,8.98s-0.09,4.5-2.43,7.3c-2.34,2.8-1.11,5.91-1.11,5.91
		s5.46,2.87,2.52,5.62s-0.21,2.38-4.93,4.98c-4.73,2.6-3.2,5.73-3.2,5.73s2.1,3.48,2.19,5.89s1.38,2.22,0.64,5.16
		s1.49,4.93,1.49,4.93l1.72,5.85l-0.46,5.36l-0.54,6.26l2.55,3.82l0.73,5.47l-2.6,5.78c0,0-0.21,2.38-0.16,5.39
		c0.04,3.01-0.42,0.86-2.67,4.57c-2.25,3.71-5.38,10.02-6.3,12.37c-0.91,2.35,1.14,7,2.36,8.91c1.21,1.91-7.53-9.36-6.45-12.57
		c1.08-3.21,1.73-10.66,2.82-12.97c1.1-2.31,0.42-8.35,0.42-8.35l-2.48-9.54l2.16-3.12l3.4-5.71l1.93-4.94l-1.86-6.32l-1.59-4.79
		l0.54-6.86l0.84-9.24l-1.46-5.91l2.34-4.82l2.28-6.11l0.27-6.58l-1.06-4.58l-0.67-17.13"/>
	<path class="st7" d="M297.49,169.42c1.24-2.22,4.12-6.06,6.36-6.28c2.24-0.22,2.24-0.67,4.04-2.47c1.79-1.79,1.79-2.69,4.49-3.14
		c2.69-0.45,8.08-2.47,9.87-5.16c1.79-2.69,9.63-6.73,13.45-8.08c3.82-1.35,10.78-4.49,16.39-2.47c5.61,2.02,8.53,0.45,10.99,3.59
		s5.38,2.69,9.2,2.69c3.81,0,4.94-3.59,8.53,0.67c3.59,4.26,7.65,11.44,10.44,12.34c2.79,0.9,0.55-2.47,5.48,0.45
		c4.94,2.92,6.94-0.03,11.21,4.7s6.51,5.62,9.2,9.66c2.69,4.04,10.99,11.44,13.46,15.48s9.98,8.53,12.62,13.01
		c2.64,4.49-0.28,4.26,2.41,7.18c2.69,2.92,4.23,0.9,5.14,5.83c0.92,4.94-0.65,4.26,1.59,7.85c2.24,3.59,3.37,4.26,3.14,7.63
		c-0.22,3.37-2.24,2.24-0.9,5.83c1.35,3.59,0.95,2.24,0.93,5.83c-0.03,3.59,2.72,2.71,0,6.07s1.99-0.01-2.72,3.35
		c-4.71,3.37-7.4,3.37-6.28,5.16c1.12,1.79,2.24,1.12,2.24,2.92s-5.27,6.28-5.55,6.28s-19.58-6.51-19.58-6.51L297.49,169.42z"/>
	<path class="st5" d="M209.94,241.75c-1.06,5.51,0.32,14.4-0.22,24.67c-0.54,10.28-0.05,12.72-2.01,19.57s0,2.94,0,11.74
		s-1.47,8.32,0,13.7c1.47,5.38,0.98,3.91,4.4,9.79c3.43,5.87,3.43,2.99,4.4,8.59c0.98,5.6,0,4.69,3.91,8.54
		c3.92,3.85,4.48,1.4,4.48,1.4s0.91-37.77,1.99-44.4c1.84-11.27,5.38-35.13,5.38-35.13L209.94,241.75z"/>
	<path class="st6" d="M340.6,267.01c16.24,0.83,15.38,17.51,33,25.83c17.62,8.32,17.13,14.19,36.7,10.28
		c19.57-3.91,26.91-7.08,30.83-17s1.47-26.56,0-28.02c-1.47-1.47-34.25-32.79-35.72-35.23s-24.96-25.93-24.96-25.93
		s14.19,14.68,1.96,29.36C370.17,240.98,340.6,267.01,340.6,267.01z"/>
	<path class="st5" d="M327.11,259.08c7.34,5.38,7.83,9.3,18.59,9.79c10.77,0.49,22.02-4.4,28.38-9.79s14.68-14.06,14.68-21.04
		c0-6.98,4.24-24.18,1.65-27.03s-9.97-14.07-9.97-14.07s-13.21-10.28-15.17-13.21c-1.96-2.94-5.38-3.91-10.77-3.91
		c-5.38,0-10.77-1.47-15.17-3.91c-4.4-2.45-6.85-3.43-12.23-3.43s-18.11-3.43-21.53-3.91c-3.43-0.49-18.59-4.89-24.96,0
		s-37.68,19.57-45.51,30.34c-7.83,10.77-16.64,9.79-20.06,24.47c-3.43,14.68-8.32,20.06-2.94,28.87
		c5.38,8.81,9.79,19.08,11.74,20.06c1.96,0.98,5.55,6.98,5.55,6.98s0.85-7.73,1.83-12.13c0.98-4.4,4.36-11.23,8.27-12.58
		s11.25-7.72,11.25-7.72s1.47,0.49,6.36,1.47c4.89,0.98,12.23-0.98,15.66-0.49c3.43,0.49,4.4,1.96,8.81,1.96
		c4.4,0,13.21-1.96,16.15,0.98c2.94,2.94,10.77,4.67,13.7,3.8S327.11,259.08,327.11,259.08z"/>
	<path class="st6" d="M366.26,283.55c-0.96,4.42-1.9,14.43-0.23,24.47c1.67,10.03,6.59,17.18,11.48,21.8
		c4.89,4.62,14.84,5.11,20.39,11.96c5.55,6.85,20.23,5.38,24.14,3.91s18.42-19.57,21.2-24.96c2.78-5.38,6.69-21.53,7.18-29.85
		c0.49-8.32,0.98-15.66-1.96-22.02s-10.77-12.23-13.7-12.72"/>
	<path class="st5" d="M346.71,260.06c2.38,8.78-1.5,10.17,1.5,16.75c2.99,6.58,5.68,3.89,6.58,9.87s-3.59,9.66,0.3,14.85
		c3.89,5.19,7.63,3.4,8,8.78s-3.45,9.31,0.26,14.68c3.71,5.37,10.29,8.36,10.29,8.36s-5.68-4.79-5.68-7.78s0.5-8.5-0.31-11.17
		c-0.81-2.67,2.88-8.31,0.31-10.05c-2.57-1.74-8.38-4.81-7.78-7.66c0.6-2.84-1.2-11.82,0-15.41c1.2-3.59-0.3-3.59-1.5-9.57
		c-1.2-5.98,1.5-7.48,1.5-11.67c0-4.19,0-14.66,0-14.66l-16.45-19.74"/>
	<path class="st7" d="M444.81,246.4c0.62,1.5-2.71,5.33,0,8.05c2.71,2.72,3.53-1.47,5.96,4.81c2.43,6.28,3.03,7.48,1.84,10.77
		s-5.38,2.84-0.6,7.55c4.79,4.71,2.39,2.92,7.18,3.82c4.79,0.9,7.48-1.05,9.27-3.82c1.79-2.76,2.69-7.85,2.39-9.64
		c-0.3-1.79-2.99,3.29-2.99,3.29s-0.3,2.69-3.59,2.99s-5.68,2.09-5.68-1.79s0.9-8.42,0.9-8.42l-2.17-7.74l-4.12-3.89l1.2-8.08
		l-0.6-5.98c0,0-0.08-5.21-3.03-5.89c-2.95-0.69-5.96-1.88-5.96-1.88s-5.67-7.57-8.66-9.47c-2.99-1.9-9.57-1.3-9.57-1.3"/>
	<g>
		<path class="st7" d="M359.74,153.92c-0.6-0.6-0.85-1.14-0.9-2.02c0,1.88-0.01,3.75-0.01,5.63c0.38-4.56,6.14-4.31,9.47-3.94
			c3.83,0.42,8.36,1.29,11.68-1.29c1.55-1.2,2.3-2.49,4.45-2.54c1.83-0.04,3.76,0.42,5.49,0.99c3.8,1.26,11.35,12.44,13.9,15.5
			c-0.29-0.34-0.12-7.82-1.54-11.11c-0.22-0.51-2.34-3.02-2.71-3.47c-3.09-3.72-7.31-6.34-12.06-7.31c-2.24-0.46-4.48-0.7-6.26,0.97
			c-1.79,1.69-3.5,2.67-6,2.93c-4.57,0.47-11.24-2.54-15.14,0.83c-1.46,1.26-1.3,3.05-1.31,4.8c-0.01,1.82-0.48,4.33,0.94,5.75
			c-0.27-0.27,0.03-2.45,0.03-2.87C359.77,156.3,360.1,154.28,359.74,153.92L359.74,153.92z"/>
	</g>
</g>
<path class="st9" d="M293.03,282.46c0.53,1.61,0.89,3.9,4.62,3.12c3.73-0.78,11.69-1.62,14.23-2.29c2.54-0.67,5.78-1.87,9.81-1.5
	c4.02,0.37,4.55,2.23,7.33,3.8c2.78,1.57,10.42,6.56,10.42,6.56s-0.88-4.96-4.66-7.94c-3.78-2.98-9.97-6.71-11.98-6.89
	s-5.93,0.8-8.43,1.02c-2.5,0.22-5.85,1.01-10.68,1.66c-3.93,0.53-9.35-0.49-9.35-0.49L293.03,282.46z"/>
<path class="st9" d="M231.99,268.36c2.94-0.84,7.59-5.41,10.93-4.65c3.34,0.76,11.91,4.72,13.17,5.33c1.26,0.61,9.7,3.21,9.7,3.21
	c-0.97,2.63-2.42,4.62-4.22,4.23c-1.8-0.39-11.86-5.16-13.91-5.7c-2.05-0.54-6.32-1.6-8.35-2.44c-2.03-0.84-6.17,3.19-7.77,3.73"/>
<g>
	<path class="st8" d="M253.94,328.24c-1.48,1.17-2.35,2.91-2.6,4.66c-0.18,1.77-0.2,3.7,0.05,5.43c0.26,1.74,1.01,3.31,2.44,3.85
		c0.33,0.14,0.77,0.27,1.19,0.36c0.42,0.1,0.84,0.16,1.24,0.2c0.41,0.03,0.8,0.03,1.17-0.03c0.18-0.02,0.35-0.07,0.51-0.12
		c0.07-0.03,0.15-0.06,0.21-0.09c0.04-0.02,0.15-0.1,0.08-0.04l-0.33,0.73c0.01-0.32,0.05-0.5,0.15-0.79
		c0.11-0.26,0.27-0.56,0.59-0.79c0.15-0.12,0.33-0.19,0.51-0.25c0.17-0.05,0.33-0.06,0.5-0.07c0.28,0.01,0.55,0.06,0.74,0.14
		c0.81,0.3,1.3,0.71,1.81,1.13c0.5,0.44,0.89,0.82,1.32,1.18c0.43,0.37,0.87,0.7,1.32,1.02c0.91,0.61,1.87,1.11,2.87,1.36
		c0.97,0.24,2.08,0.19,2.97-0.12c0.89-0.34,1.71-1.1,2.56-1.93c0.43-0.42,0.88-0.85,1.5-1.22c0.32-0.17,0.71-0.34,1.16-0.32
		c0.22-0.01,0.43,0.07,0.63,0.13l0.36,0.14c1.01,0.29,2.23,0.36,3.39,0.39c1.18,0.03,2.36,0.03,3.55,0
		c-1.16,0.27-2.33,0.47-3.52,0.61c-1.2,0.11-2.38,0.25-3.68,0.02c-0.16-0.04-0.37-0.11-0.48-0.13c-0.08-0.01-0.16-0.04-0.24-0.02
		c-0.15,0-0.32,0.1-0.5,0.22c-0.38,0.28-0.75,0.71-1.14,1.14c-0.78,0.87-1.62,1.87-2.92,2.5c-1.31,0.54-2.67,0.62-4.01,0.37
		c-1.32-0.26-2.51-0.85-3.56-1.54c-0.52-0.36-1.03-0.72-1.5-1.12c-0.48-0.39-0.95-0.83-1.34-1.16c-0.4-0.33-0.86-0.67-1.16-0.77
		c-0.08-0.04-0.11-0.03-0.12-0.04c0.02,0.01,0.09-0.02,0.17-0.07c0.07-0.07,0.09-0.1,0.08-0.09c-0.01-0.01-0.02,0.11-0.02,0.08
		l-0.33,0.73c-0.25,0.21-0.35,0.24-0.52,0.33c-0.15,0.07-0.3,0.13-0.44,0.18c-0.29,0.09-0.58,0.16-0.86,0.2
		c-0.56,0.08-1.11,0.07-1.64,0.02c-0.52-0.07-1.03-0.17-1.52-0.31c-0.49-0.14-0.95-0.29-1.48-0.53c-1.02-0.47-1.89-1.33-2.36-2.31
		c-0.49-0.98-0.68-2.01-0.77-3c-0.09-0.99-0.03-1.97,0.06-2.92c0.11-0.96,0.2-1.88,0.46-2.86
		C250.99,330.81,252.24,329.09,253.94,328.24z"/>
</g>
<g>
	<path class="st8" d="M291.63,344.4c0.6-0.87,1.01-1.7,1.35-2.54c0.33-0.81,0.57-1.7,0.5-2.26c-0.1-0.69-0.44-1.62-0.76-2.49
		c-0.34-0.89-0.64-1.79-1.1-2.73c1.05,0.35,1.82,1.15,2.47,1.96c0.63,0.86,1.17,1.74,1.37,3.01c0.12,1.43-0.48,2.47-1.15,3.32
		C293.62,343.51,292.71,344.22,291.63,344.4z"/>
</g>
<g>
	<path class="st8" d="M256.18,371.05c1.56-0.63,3.07-1.25,4.79-1.62c0.88-0.16,1.81-0.08,2.63,0.01l2.46,0.29
		c0.82,0.08,1.63,0.17,2.42,0.22c0.78,0.05,1.56,0.02,2.38-0.03c0.82-0.04,1.64-0.08,2.43-0.15c0.79-0.07,1.55-0.22,2.4-0.33
		c0.84-0.12,1.71-0.2,2.53-0.26c0.8-0.07,1.67-0.16,2.57-0.13c1.8,0.06,3.43,0.46,5.06,0.86c0.84,0.21,1.56,0.42,2.36,0.52
		c0.8,0.11,1.62,0.18,2.44,0.25c1.64,0.13,3.31,0.2,4.97,0.38c-1.66,0.19-3.3,0.39-4.97,0.49c-0.84,0.06-1.68,0.08-2.53,0.05
		c-0.85-0.01-1.75-0.15-2.54-0.27c-1.63-0.21-3.27-0.47-4.78-0.44c-0.76,0.02-1.54,0.14-2.39,0.22c-0.83,0.08-1.61,0.17-2.41,0.3
		c-0.79,0.14-1.67,0.26-2.53,0.32c-0.86,0.06-1.7,0.09-2.54,0.11c-1.7,0.03-3.5-0.19-5.1-0.56c-0.81-0.17-1.64-0.34-2.44-0.54
		c-0.81-0.2-1.54-0.35-2.31-0.32C259.49,370.48,257.83,370.85,256.18,371.05z"/>
</g>
<g>
	<path class="st8" d="M266.19,289.45c0.06,1.29,0.01,2.57-0.04,3.86c-0.08,1.29-0.21,2.57-0.36,3.85c-0.31,2.56-0.83,5.09-1.5,7.59
		c-0.34,1.25-0.73,2.48-1.17,3.7c-0.45,1.22-0.94,2.39-1.45,3.58l-1.52,3.54c-0.54,1.17-1.05,2.34-1.61,3.5
		c0.36-1.24,0.77-2.45,1.16-3.68l1.25-3.63c0.86-2.42,1.74-4.8,2.37-7.27c0.68-2.45,1.21-4.94,1.7-7.45
		C265.5,294.53,265.87,292,266.19,289.45z"/>
</g>
<g>
	<path class="st8" d="M256.18,375.54c0.61,0.6,1.1,1.32,1.64,1.94c0.53,0.64,1.13,1.2,1.77,1.68c1.28,0.96,2.77,1.6,4.33,1.99
		c3.14,0.85,6.43,0.98,9.67,0.59c1.63-0.17,3.25-0.51,4.9-0.83c1.65-0.32,3.24-0.71,4.84-1.17c3.18-0.96,6.27-2.26,9.27-3.86
		c-2.55,2.26-5.57,4.02-8.77,5.3c-1.6,0.65-3.28,1.14-4.93,1.55c-1.65,0.43-3.35,0.76-5.08,0.99c-1.73,0.23-3.5,0.25-5.25,0.12
		c-1.76-0.15-3.48-0.52-5.16-1.1c-0.84-0.29-1.65-0.69-2.42-1.13c-0.77-0.46-1.48-1.03-2.11-1.66c-0.63-0.64-1.14-1.37-1.57-2.12
		C256.89,377.08,256.6,376.28,256.18,375.54z"/>
</g>
<g>
	<path class="st8" d="M256.67,367.54c1.21-1.03,2.24-2.14,3.07-3.44c0.23-0.32,0.44-0.66,0.83-1c0.18-0.17,0.47-0.32,0.77-0.39
		c0.14-0.03,0.31-0.04,0.44-0.04l0.32,0.02c0.87,0.05,1.74,0.31,2.51,0.69c0.77,0.37,1.43,0.82,2.05,1.13
		c0.63,0.31,1.22,0.5,1.85,0.51c1.26,0.09,2.45-0.58,3.84-1.37c1.38-0.74,3.12-1.57,5.09-1.2c0.91,0.2,1.66,0.55,2.39,0.88
		l2.12,1.02c0.69,0.35,1.39,0.65,2.11,1.04c0.71,0.37,1.38,0.79,2.05,1.2c1.35,0.81,2.62,1.72,3.99,2.48
		c-1.57-0.3-3.03-0.94-4.48-1.51l-2.16-0.86c-0.7-0.27-1.45-0.54-2.18-0.84c-1.45-0.57-2.91-1.33-4.18-1.56
		c-0.58-0.1-1.21,0-1.85,0.19c-0.64,0.2-1.27,0.53-1.94,0.91c-0.67,0.37-1.38,0.77-2.21,1.09c-0.81,0.32-1.79,0.51-2.71,0.43
		c-0.93-0.07-1.85-0.43-2.58-0.87c-0.75-0.44-1.35-0.91-1.95-1.29c-0.6-0.38-1.23-0.63-1.92-0.76c-0.44-0.09-0.42-0.1-0.68,0.02
		c-0.23,0.14-0.5,0.43-0.76,0.7C259.43,365.9,258.11,366.92,256.67,367.54z"/>
</g>
<g>
	<g>
		<path class="st8" d="M294.5,304.26c0.96-1.63,1.97-3.25,3.19-4.75c1.22-1.5,2.64-2.88,4.26-4.05c1.62-1.16,3.44-2.13,5.42-2.74
			c0.98-0.31,2.01-0.52,3.04-0.66c1.03-0.13,2.09-0.14,3.09-0.11c4.08,0.16,8.05,1.59,11.31,3.82c3.27,2.23,5.92,5.18,7.73,8.54
			c-3.08-2.26-6.09-4.32-9.3-5.8c-3.2-1.5-6.53-2.4-9.92-2.57c-3.35-0.21-6.61,0.6-9.73,2.18c-1.56,0.78-3.07,1.75-4.56,2.81
			C297.51,301.95,296.12,303.21,294.5,304.26z"/>
	</g>
	<g>
		<path class="st8" d="M226.44,302.9c1.33-3.01,3.55-5.63,6.32-7.61c2.76-1.99,6.18-3.27,9.71-3.42c1.81-0.09,3.66,0.18,5.35,0.77
			c1.7,0.58,3.23,1.48,4.59,2.52c2.72,2.12,4.65,4.86,6.13,7.74c-1.4-0.88-2.62-1.91-3.93-2.77c-1.28-0.88-2.57-1.7-3.89-2.37
			c-2.63-1.35-5.34-2.09-8.05-1.91c-2.83,0.16-5.61,0.93-8.3,2.18C231.67,299.27,229.09,300.96,226.44,302.9z"/>
	</g>
	<g>
		<circle class="st8" cx="243.95" cy="300.25" r="5.91"/>
		<g>
			<path class="st8" d="M244.25,306.15c-1.55,0.09-3.12-0.44-4.31-1.46c-1.2-1.01-2.01-2.51-2.14-4.12
				c-0.15-1.6,0.36-3.29,1.44-4.56c1.07-1.27,2.7-2.07,4.38-2.15c1.68-0.09,3.38,0.54,4.57,1.69c1.21,1.15,1.89,2.78,1.9,4.39
				c0.03,1.62-0.62,3.2-1.71,4.32C247.31,305.39,245.8,306.08,244.25,306.15z M244.25,306.15c1.55-0.08,3.04-0.81,4.03-1.99
				c0.99-1.17,1.46-2.72,1.32-4.2c-0.13-1.48-0.88-2.85-1.98-3.77c-1.09-0.93-2.53-1.42-3.94-1.34c-1.42,0.06-2.8,0.69-3.79,1.73
				c-1,1.03-1.6,2.47-1.58,3.96c0.01,1.48,0.63,2.98,1.74,4.04C241.14,305.65,242.71,306.22,244.25,306.15z"/>
		</g>
	</g>
	<g>
		<circle class="st8" cx="313.35" cy="301.69" r="6.22"/>
		<path class="st8" d="M313.67,307.9c-1.63,0.1-3.28-0.47-4.53-1.54c-1.26-1.06-2.1-2.64-2.24-4.33c-0.15-1.69,0.39-3.46,1.52-4.78
			c1.13-1.33,2.83-2.16,4.59-2.25c1.76-0.09,3.54,0.56,4.8,1.77c1.27,1.2,1.98,2.91,2,4.6c0.03,1.7-0.65,3.36-1.79,4.54
			C316.88,307.1,315.3,307.83,313.67,307.9z M313.67,307.9c1.63-0.09,3.2-0.86,4.24-2.09c1.05-1.23,1.54-2.87,1.39-4.42
			c-0.14-1.56-0.92-3.01-2.08-3.99c-1.15-0.98-2.67-1.5-4.17-1.41c-1.5,0.07-2.96,0.73-4,1.83c-1.06,1.09-1.69,2.61-1.66,4.18
			c0.01,1.56,0.67,3.14,1.84,4.26C310.4,307.37,312.04,307.98,313.67,307.9z"/>
	</g>
	<g>
		<path class="st8" d="M226.9,295.36c0.91-1.02,2.12-1.74,3.35-2.33c1.24-0.57,2.51-1.07,3.79-1.52c1.29-0.44,2.55-0.87,3.86-1.27
			c1.31-0.41,2.68-0.67,4.06-0.79c0.69-0.06,1.39-0.06,2.08-0.03c0.35,0.01,0.69,0.04,1.04,0.08c0.37,0.04,0.72,0.13,1.06,0.22
			c1.35,0.42,2.56,1.05,3.75,1.71c2.38,1.32,4.55,2.95,6.79,4.46c-1.21-0.61-2.35-1.34-3.52-2c-1.17-0.66-2.35-1.32-3.54-1.93
			c-1.2-0.6-2.42-1.15-3.68-1.48c-0.31-0.07-0.62-0.14-0.93-0.15c-0.32-0.01-0.66-0.03-0.98-0.03c-0.66,0-1.32,0.03-1.97,0.1
			c-2.62,0.22-5.13,1.22-7.74,1.93c-1.29,0.38-2.59,0.73-3.84,1.2C229.21,294,227.98,294.53,226.9,295.36z"/>
	</g>
	<g>
		<path class="st8" d="M295.6,297.17c2.6-2.35,5.39-4.52,8.45-6.29c1.53-0.88,3.13-1.68,4.88-2.18c1.77-0.5,3.58-0.54,5.37-0.42
			c1.79,0.12,3.56,0.54,5.24,1.14c1.68,0.62,3.27,1.39,4.81,2.29c3.02,1.84,5.85,4.01,8.17,6.65c-1.3-1.18-2.68-2.25-4.13-3.23
			c-1.42-1-2.9-1.93-4.43-2.74c-3.07-1.6-6.33-2.87-9.75-3.13c-1.69-0.12-3.44-0.12-5.06,0.29c-1.64,0.44-3.24,1.13-4.78,1.92
			C301.32,293.1,298.42,295.08,295.6,297.17z"/>
	</g>
</g>
</svg>
