<?xml version="1.0" encoding="utf-8"?>
<!-- Generator: Adobe Illustrator 25.0.1, SVG Export Plug-In . SVG Version: 6.00 Build 0)  -->
<svg version="1.1" id="Capa_1" xmlns="http://www.w3.org/2000/svg" xmlns:xlink="http://www.w3.org/1999/xlink" x="0px" y="0px"
	 viewBox="0 0 595.28 841.89" style="enable-background:new 0 0 595.28 841.89;" xml:space="preserve">
<style type="text/css">
	.st0{fill:#E2B8A8;stroke:#1D1D1B;stroke-width:2;stroke-miterlimit:10;}
	.st1{fill:#E2E0F1;stroke:#1D1D1B;stroke-width:2;stroke-miterlimit:10;}
	.st2{fill:#F7F8FC;}
	.st3{fill:#C7C7D8;}
	.st4{fill:#F2CEC2;stroke:#1D1D1B;stroke-width:2;stroke-miterlimit:10;}
	.st5{fill:#E1D1E5;stroke:#1D1D1B;stroke-width:2;stroke-miterlimit:10;}
	.st6{fill:#BDAECC;stroke:#1D1D1B;stroke-width:2;stroke-miterlimit:10;}
	.st7{fill:#A89AB7;stroke:#1D1D1B;stroke-width:2;stroke-miterlimit:10;}
	.st8{fill:#1D1D1B;}
	.st9{fill:#847990;stroke:#1D1D1B;stroke-miterlimit:10;}
	.st10{fill:#DED2E9;stroke:#1D1D1B;stroke-width:2;stroke-miterlimit:10;}
	.st11{fill:#AEAA87;stroke:#1D1D1B;stroke-width:2;stroke-miterlimit:10;}
	.st12{fill:#8D896B;}
	.st13{fill:#CCC7A6;}
	.st14{fill:#89888D;stroke:#1D1D1B;stroke-miterlimit:10;}
	.st15{fill:#89888D;stroke:#1D1D1B;stroke-width:2;stroke-miterlimit:10;}
	.st16{fill:#6B7B9D;stroke:#1D1D1B;stroke-width:2;stroke-miterlimit:10;}
	.st17{fill:#57647D;}
	.st18{fill:#899AB7;}
	.st19{fill:#6D2F3B;stroke:#1D1D1B;stroke-width:2;stroke-miterlimit:10;}
	.st20{fill:#6D2F3B;stroke:#1D1D1B;stroke-miterlimit:10;}
	.st21{fill:#E2B8A8;}
	.st22{fill:#F2CEC2;}
	.st23{fill:#AEAA87;}
	.st24{fill:#89888D;}
	.st25{fill:#6B7B9D;}
	.st26{fill:#6D2F3B;}
	.st27{fill:#E2E0F1;}
	.st28{fill:#847990;}
	.st29{fill:#E1D1E5;}
	.st30{fill:#BDAECC;}
	.st31{fill:#A89AB7;}
	.st32{fill:#DED2E9;}
	.st33{fill:none;stroke:#1D1D1B;stroke-width:3;stroke-miterlimit:10;}
	.st34{clip-path:url(#SVGID_2_);}
	.st35{fill:none;stroke:#1D1D1B;stroke-width:4;stroke-miterlimit:10;}
	.st36{fill:none;stroke:#1D1D1B;stroke-width:0.5;stroke-miterlimit:10;}
</style>
<g>
	<path class="st0" d="M243.32,462.55c7.18-4.19,12.41-9.16,17.8-16.94c5.38-7.78,8.19-11.89,8.53-26.14c0.18-7.8,0-18.55,0-18.55
		s29.32-1.2,33.5-2.99s35.3-11.37,38.89-14.96c3.59-3.59,35.9-18.55,39.49-25.13c3.59-6.58,14.88-24.71,14.88-24.71
		s-13.53,37.95-14.13,49.32c-0.6,11.37-9.99,50.25-2.81,56.83c7.18,6.58,18.97,10.7,18.97,10.7l-13.32,6.58l-53.25,43.67
		l-32.31,17.35c0,0-23.33,21.09-23.93,26.1c-0.6,5.01-23.26,39-23.26,39l-14.43-2.88l14.36-42.48l-21.54-17.35
		c0,0-9.57-25.73-7.78-27.52C224.77,490.67,243.32,462.55,243.32,462.55z"/>
	<path class="st0" d="M382.28,351.95c3.14,3.81,1.12,7.63,7.62,6.06c6.51-1.57,8.08-2.92,12.56-8.75
		c4.49-5.83,8.45-6.88,10.17-11.74c1.72-4.86,4.19-10.92,3.96-14.51c-0.22-3.59-8.18-12.34-8.18-12.34l-18.52-8.08l-9.65,2.69
		L382.28,351.95z"/>
	<path class="st1" d="M267.5,432.85c0,0,3.61,0.77-18.27,31.28c-8.03,11.21-8.53,21.31-9.87,26.7c-1.35,5.38-2.47,15.26,0,17.28
		c2.47,2.02,3.37,5.38,13.69,8.3s19.74,3.59,19.74,3.59h2.69c0,0-5.16,9.65-10.54,16.6c-5.38,6.96-8.97,9.65-13.01,20.42
		c-4.04,10.77-6.06,23.11-6.06,23.11s2.69,0,9.87-9.2c7.18-9.2,10.99-20.19,14.36-29.39s4.71-25.58,5.38-28.49s4.49-6.62,4.49-6.62
		s1.35-1.46,17.05-5.95c15.7-4.49,24.68-6.51,32.53-14.13c7.85-7.63,13.69-13.91,21.09-21.09c7.4-7.18,8.08-6.96,15.48-14.58
		c7.4-7.63,12.3-9.72,12-11.37c-0.11-0.63-0.96-5.59-0.96-5.59s3.76,2.75,9.37,5.59c5.61,2.85,46.89,11.37,59.23,16.76
		s29.17,11.67,37.92,18.62s10.77,3.59,19.29,17.5s9.87,4.71,16.38,29.62c6.51,24.9,15.26,58.33,15.26,58.33s2.47,30.21,3.66,46.37
		c1.2,16.15,0,28.72,0,28.72l-485.21-5.38c0,0,19.74-37.69,25.13-53.85c5.38-16.15,11.97-35.3,19.15-49.06
		c7.18-13.76,27.52-37.69,32.91-50.26c5.38-12.56,8.38-16.15,17.35-20.34c8.97-4.19,38.29-16.15,46.67-17.95
		c8.38-1.79,28.72-6.58,37.69-10.17C240.93,444.61,267.5,432.85,267.5,432.85z"/>
	<path class="st2" d="M251.4,614.61c5.38-15.56,8.65-29.76,9.27-31.71c0.62-1.95,4.67-2.95,10.22-12.27
		c5.55-9.31,11.96-22.16,13.82-30.18c1.86-8.02,1.4-12.28,3.78-20.67c2.37-8.39-0.89-9.2,5.24-11.78
		c6.13-2.58,26.89-7.73,34.69-11.25s15.11-9.05,25.54-19.48c10.43-10.44,24.61-23.71,25.92-25.02c1.3-1.31-15,25.59-18.1,32.23
		s-25.14,19.98-33.36,26.59c-8.22,6.61-17.49,14.39-20.18,26.36c-2.69,11.97-11.67,33.2-18.55,39.49
		c-6.88,6.28-24.23,21.54-28.42,27.82s-13.76,31.11-13.76,31.11L251.4,614.61z"/>
	<path class="st2" d="M442.25,461.08c8.23,1.5,25.73,7.18,39.79,20.34c14.06,13.16,16.45,13.46,24.23,24.83
		c7.78,11.37,14.96,45.77,16.75,50.85c1.79,5.09,5.98,32.91,7.48,42.78c1.5,9.87,2.99,48.46,2.99,50.26"/>
	<path class="st3" d="M61.74,641.91c2.39-2.69,11.07-21.24,14.36-27.82c3.29-6.58-1.2,1.79,10.47-23.93
		c11.67-25.73,19.74-39.49,26.32-51.75s12.56-24.23,19.15-35.9c6.58-11.67,3.29-14.06,16.45-21.84s22.44-8.08,39.79-14.96
		c17.35-6.88,34.7-13.11,46.07-16.13c11.37-3.02,21.84-9.91,25.43-10.29c3.59-0.38-78.67,37.78-87.65,47.36s-34.1,23.93-44.27,43.38
		C117.68,549.47,61.74,641.91,61.74,641.91z"/>
	<path class="st3" d="M260.45,437.83c0,0-30.18,12.34-33.17,20.71c-2.99,8.38-7.43,22.92-5.47,34.1
		c1.96,11.18,2.64,10.34,5.47,15.56c1.12,2.06-0.67,0.12,5.8,5.8c0,0-5.5-10.88-2.21-24.64c1.74-7.28,5.09-22.44,8.38-26.62
		C242.54,458.54,260.45,437.83,260.45,437.83z"/>
	<path class="st4" d="M250.81,243.34c-1.96,8.32-4.4,17.62-5.38,24.96c-0.98,7.34-3.43,16.64-3.43,22.02s0.49,16.64,0,29.85
		c-0.49,13.21-3.91,35.72,4.4,51.38c8.32,15.66,19.08,30.34,26.91,34.74c7.83,4.4,10.28,4.89,15.17,5.38
		c4.89,0.49,18.59-2.45,30.83-7.34c12.23-4.89,40.62-23,46-25.93c5.38-2.94,11.74-10.77,15.66-16.64
		c3.91-5.87,6.36-12.23,6.36-23.98s2.45-29.85,0-42.57s-7.34-32.79-12.23-41.1c-4.89-8.32-12.65-21.04-22.23-25.93
		c-9.58-4.89-25.26-7.83-38.22-7.83s-43.78,3.43-50.63,6.85C257.17,230.62,250.81,243.34,250.81,243.34z"/>
	<path class="st5" d="M425.16,332.32c0.24,4.22-0.05,7.5-1.42,9.49s-4.38,2.02-2.75,7.57c1.62,5.54,2.08,10.69,2.08,10.69
		l-4.17,6.55c0,0-3.21,2.43-2.18,7.92c1.03,5.49,3.8,8.13,3.52,11.41c-0.28,3.28-2.81,8.17-2.81,8.17l-3,6.95l3.93,6.64l-2.35,6.4
		l-5.76,6.71l-3,7.85l1.4,10.63c0,0-4.91-8.23-4.33-11.48c0.58-3.25,3.78-8.98,3.78-8.98l3-7.85l-1.58-8.54l-0.78-4.87l4.11-6.85
		l1.86-6.75l-2.86-8.65c0,0,1.18-3.2,0.49-5.66s-0.69-2.46,0.62-7.15c1.3-4.69,4.06-7.16,3.2-10.23c-0.85-3.08-2.83-8.05-2.83-8.05
		s-1.71-1.05-0.98-6.09s-0.01-3.37,1.63-8.45c1.64-5.08-3.34-12.41-3.34-12.41L425.16,332.32z"/>
	<path class="st5" d="M408.5,324.04c-0.19,2.57,3.06,8.02,0.68,10.21c-2.38,2.2-3.7,3.58-2.09,5.82s4.42,0.98,4.38,4.88
		s-1.76,6.45-1.76,6.45s-4.64,0.2-2.38,4.3c2.26,4.1,4.14,6.66,4.14,6.66l2.7,8.04c0,0-5.44,2.83-5.57,7.78s1.12,4.45,2.13,6.64
		c1.01,2.19,1.97,1.01,2.85,3.22c0.88,2.21,2.25,3.83,2.25,3.83l2.04,7.68l1.42,5.53c0,0-4.16-0.05-2.21,6.12
		c1.95,6.17,4.4,9.08,4.4,9.08l0.43,5.44c0,0-3.08,0.94-2.3,5.81s1.04,8.8,1.04,8.8l-3.71-8.13c0,0,0.14-2.69-1.91-6.77
		c-2.05-4.08-2.64-2.63-4.79-4.62c-2.15-1.99-3.31-5.99-3.31-5.99l-0.01-6.88l-3.41-8.12l-2.11-4.09c0,0-3.72-2.42-2.42-7.11
		c1.3-4.69,2.16-7.59,2.16-7.59l2.01-5.56l0.44-5.07l-1-6.09l-3.76-5.43l0.44-5.15l1.57-3.98l1.43-6.18c0,0-3.32-3.29-3.61-6.92
		c-0.29-3.63-0.25-0.62-0.21-4.52c0.04-3.9,0.85-6.39,0.85-6.39l3.3-10.67"/>
	<path class="st6" d="M434.09,309.97c-0.31,5.68,3.76,5.13,3.13,8.98s-0.09,4.5-2.43,7.3c-2.34,2.8-1.11,5.91-1.11,5.91
		s5.46,2.87,2.52,5.62c-2.94,2.75-0.21,2.38-4.93,4.98c-4.73,2.6-3.2,5.73-3.2,5.73s2.1,3.48,2.19,5.89
		c0.09,2.41,1.38,2.22,0.64,5.16c-0.74,2.94,1.49,4.93,1.49,4.93l1.72,5.85l-0.46,5.36l-0.54,6.26l2.55,3.82l0.73,5.47l-2.6,5.78
		c0,0-0.21,2.38-0.16,5.39c0.04,3.01-0.42,0.86-2.67,4.57c-2.25,3.71-5.38,10.02-6.3,12.37c-0.91,2.35,1.14,7,2.36,8.91
		c1.21,1.91-7.53-9.36-6.45-12.57s1.73-10.66,2.82-12.97c1.1-2.31,0.42-8.35,0.42-8.35l-2.48-9.54l2.16-3.12l3.4-5.71l1.93-4.94
		l-1.86-6.32l-1.59-4.79l0.54-6.86l0.84-9.24l-1.46-5.91l2.34-4.82l2.28-6.11l0.27-6.58l-1.06-4.58l-0.67-17.13"/>
	<path class="st7" d="M314.66,155.63c1.24-2.22,4.12-6.06,6.36-6.28c2.24-0.22,2.24-0.67,4.04-2.47c1.79-1.79,1.79-2.69,4.49-3.14
		c2.69-0.45,8.08-2.47,9.87-5.16c1.79-2.69,9.63-6.73,13.45-8.08c3.82-1.35,10.78-4.49,16.39-2.47c5.61,2.02,8.53,0.45,10.99,3.59
		c2.47,3.14,5.38,2.69,9.2,2.69s4.94-3.59,8.53,0.67s7.65,11.44,10.44,12.34c2.79,0.9,0.55-2.47,5.48,0.45
		c4.94,2.92,6.94-0.03,11.21,4.7s6.51,5.62,9.2,9.66c2.69,4.04,10.99,11.44,13.46,15.48c2.47,4.04,9.98,8.53,12.62,13.01
		c2.64,4.49-0.28,4.26,2.41,7.18c2.69,2.92,4.23,0.9,5.14,5.83c0.92,4.94-0.65,4.26,1.59,7.85s3.37,4.26,3.14,7.63
		c-0.22,3.37-2.24,2.24-0.9,5.83c1.35,3.59,0.95,2.24,0.93,5.83c-0.03,3.59,2.72,2.71,0,6.07c-2.72,3.35,1.99-0.01-2.72,3.35
		c-4.71,3.37-7.4,3.37-6.28,5.16c1.12,1.79,2.24,1.12,2.24,2.92s-5.27,6.28-5.55,6.28c-0.28,0-19.58-6.51-19.58-6.51L314.66,155.63z
		"/>
	<path class="st5" d="M227.11,227.96c-1.06,5.51,0.32,14.4-0.22,24.67c-0.54,10.28-0.05,12.72-2.01,19.57s0,2.94,0,11.74
		s-1.47,8.32,0,13.7s0.98,3.91,4.4,9.79c3.43,5.87,3.43,2.99,4.4,8.59c0.98,5.6,0,4.69,3.91,8.54c3.92,3.85,4.48,1.4,4.48,1.4
		s0.91-37.77,1.99-44.4c1.84-11.27,5.38-35.13,5.38-35.13L227.11,227.96z"/>
	<path class="st6" d="M356.8,253.96c17.88,2.5,16.34,16.78,33.96,25.1c17.62,8.32,17.13,14.19,36.7,10.28s26.91-7.08,30.83-17
		s1.47-26.56,0-28.02c-1.47-1.47-34.25-32.79-35.72-35.23c-1.47-2.45-24.96-25.93-24.96-25.93s14.19,14.68,1.96,29.36
		C387.34,227.19,356.8,253.96,356.8,253.96z"/>
	<path class="st5" d="M344.27,245.3c7.34,5.38,7.83,9.3,18.59,9.79c10.77,0.49,22.02-4.4,28.38-9.79s14.68-14.06,14.68-21.04
		s4.24-24.18,1.65-27.03c-2.59-2.85-9.97-14.07-9.97-14.07s-13.21-10.28-15.17-13.21c-1.96-2.94-5.38-3.91-10.77-3.91
		c-5.38,0-10.77-1.47-15.17-3.91c-4.4-2.45-6.85-3.43-12.23-3.43s-18.11-3.43-21.53-3.91c-3.43-0.49-18.59-4.89-24.96,0
		c-6.36,4.89-37.68,19.57-45.51,30.34c-7.83,10.77-16.64,9.79-20.06,24.47c-3.43,14.68-8.32,20.06-2.94,28.87
		c5.38,8.81,9.79,19.08,11.74,20.06c1.96,0.98,5.55,6.98,5.55,6.98s0.85-7.73,1.83-12.13c0.98-4.4,4.36-11.23,8.27-12.58
		c3.91-1.35,11.25-7.72,11.25-7.72s1.47,0.49,6.36,1.47c4.89,0.98,12.23-0.98,15.66-0.49c3.43,0.49,4.4,1.96,8.81,1.96
		c4.4,0,13.21-1.96,16.15,0.98s10.77,4.67,13.7,3.8S344.27,245.3,344.27,245.3z"/>
	<path class="st6" d="M383.42,269.76c-0.96,4.42-1.9,14.43-0.23,24.47c1.67,10.03,6.59,17.18,11.48,21.8
		c4.89,4.62,14.84,5.11,20.39,11.96c5.55,6.85,20.23,5.38,24.14,3.91c3.91-1.47,18.42-19.57,21.2-24.96
		c2.78-5.38,6.69-21.53,7.18-29.85c0.49-8.32,0.98-15.66-1.96-22.02c-2.94-6.36-10.77-12.23-13.7-12.72"/>
	<path class="st5" d="M363.87,246.27c2.38,8.78-1.5,10.17,1.5,16.75c2.99,6.58,5.68,3.89,6.58,9.87s-3.59,9.66,0.3,14.85
		c3.89,5.19,7.63,3.4,8,8.78c0.37,5.38-3.45,9.31,0.26,14.68c3.71,5.37,10.29,8.36,10.29,8.36s-5.68-4.79-5.68-7.78
		s0.5-8.5-0.31-11.17s2.88-8.31,0.31-10.05c-2.57-1.74-8.38-4.81-7.78-7.66c0.6-2.84-1.2-11.82,0-15.41c1.2-3.59-0.3-3.59-1.5-9.57
		c-1.2-5.98,1.5-7.48,1.5-11.67s0-14.66,0-14.66l-16.45-19.74"/>
	<path class="st7" d="M461.97,232.61c0.62,1.5-2.71,5.33,0,8.05c2.71,2.72,3.53-1.47,5.96,4.81c2.43,6.28,3.03,7.48,1.84,10.77
		c-1.2,3.29-5.38,2.84-0.6,7.55c4.79,4.71,2.39,2.92,7.18,3.82c4.79,0.9,7.48-1.05,9.27-3.82c1.79-2.76,2.69-7.85,2.39-9.64
		s-2.99,3.29-2.99,3.29s-0.3,2.69-3.59,2.99c-3.29,0.3-5.68,2.09-5.68-1.79c0-3.89,0.9-8.42,0.9-8.42l-2.17-7.74l-4.12-3.89
		l1.2-8.08l-0.6-5.98c0,0-0.08-5.21-3.03-5.89c-2.95-0.69-5.96-1.88-5.96-1.88s-5.67-7.57-8.66-9.47s-9.57-1.3-9.57-1.3"/>
	<g>
		<path class="st7" d="M376.9,140.14c-0.6-0.6-0.85-1.14-0.9-2.02c0,1.88-0.01,3.75-0.01,5.63c0.38-4.56,6.14-4.31,9.47-3.94
			c3.83,0.42,8.36,1.29,11.68-1.29c1.55-1.2,2.3-2.49,4.45-2.54c1.83-0.04,3.76,0.42,5.49,0.99c3.8,1.26,11.35,12.44,13.9,15.5
			c-0.29-0.34-0.12-7.82-1.54-11.11c-0.22-0.51-2.34-3.02-2.71-3.47c-3.09-3.72-7.31-6.34-12.06-7.31c-2.24-0.46-4.48-0.7-6.26,0.97
			c-1.79,1.69-3.5,2.67-6,2.93c-4.57,0.47-11.24-2.54-15.14,0.83c-1.46,1.26-1.3,3.05-1.31,4.8c-0.01,1.82-0.48,4.33,0.94,5.75
			c-0.27-0.27,0.03-2.45,0.03-2.87C376.93,142.51,377.26,140.5,376.9,140.14L376.9,140.14z"/>
	</g>
</g>
<g>
	<path class="st8" d="M271.11,314.46c-1.48,1.17-2.35,2.91-2.6,4.66c-0.18,1.77-0.2,3.7,0.05,5.43c0.26,1.74,1.01,3.31,2.44,3.85
		c0.33,0.14,0.77,0.27,1.19,0.36c0.42,0.1,0.84,0.16,1.24,0.2c0.41,0.03,0.8,0.03,1.17-0.03c0.18-0.02,0.35-0.07,0.51-0.12
		c0.07-0.03,0.15-0.06,0.21-0.09c0.04-0.02,0.15-0.1,0.08-0.04l-0.33,0.73c0.01-0.32,0.05-0.5,0.15-0.79
		c0.11-0.26,0.27-0.56,0.59-0.79c0.15-0.12,0.33-0.19,0.51-0.25c0.17-0.05,0.33-0.06,0.5-0.07c0.28,0.01,0.55,0.06,0.74,0.14
		c0.81,0.3,1.3,0.71,1.81,1.13c0.5,0.44,0.89,0.82,1.32,1.18c0.43,0.37,0.87,0.7,1.32,1.02c0.91,0.61,1.87,1.11,2.87,1.36
		c0.97,0.24,2.08,0.19,2.97-0.12c0.89-0.34,1.71-1.1,2.56-1.93c0.43-0.42,0.88-0.85,1.5-1.22c0.32-0.17,0.71-0.34,1.16-0.32
		c0.22-0.01,0.43,0.07,0.63,0.13l0.36,0.14c1.01,0.29,2.23,0.36,3.39,0.39c1.18,0.03,2.36,0.03,3.55,0
		c-1.16,0.27-2.33,0.47-3.52,0.61c-1.2,0.11-2.38,0.25-3.68,0.02c-0.16-0.04-0.37-0.11-0.48-0.13c-0.08-0.01-0.16-0.04-0.24-0.02
		c-0.15,0-0.32,0.1-0.5,0.22c-0.38,0.28-0.75,0.71-1.14,1.14c-0.78,0.87-1.62,1.87-2.92,2.5c-1.31,0.54-2.67,0.62-4.01,0.37
		c-1.32-0.26-2.51-0.85-3.56-1.54c-0.52-0.36-1.03-0.72-1.5-1.12c-0.48-0.39-0.95-0.83-1.34-1.16c-0.4-0.33-0.86-0.67-1.16-0.77
		c-0.08-0.04-0.11-0.03-0.12-0.04c0.02,0.01,0.09-0.02,0.17-0.07c0.07-0.07,0.09-0.1,0.08-0.09c-0.01-0.01-0.02,0.11-0.02,0.08
		l-0.33,0.73c-0.25,0.21-0.35,0.24-0.52,0.33c-0.15,0.07-0.3,0.13-0.44,0.18c-0.29,0.09-0.58,0.16-0.86,0.2
		c-0.56,0.08-1.11,0.07-1.64,0.02c-0.52-0.07-1.03-0.17-1.52-0.31c-0.49-0.14-0.95-0.29-1.48-0.53c-1.02-0.47-1.89-1.33-2.36-2.31
		c-0.49-0.98-0.68-2.01-0.77-3c-0.09-0.99-0.03-1.97,0.06-2.92c0.11-0.96,0.2-1.88,0.46-2.86
		C268.16,317.03,269.4,315.31,271.11,314.46z"/>
</g>
<g>
	<path class="st8" d="M308.8,330.61c0.6-0.87,1.01-1.7,1.35-2.54c0.33-0.81,0.57-1.7,0.5-2.26c-0.1-0.69-0.44-1.62-0.75-2.49
		c-0.34-0.89-0.64-1.79-1.1-2.73c1.05,0.35,1.82,1.15,2.47,1.96c0.63,0.86,1.17,1.74,1.37,3.01c0.12,1.43-0.48,2.47-1.15,3.32
		C310.79,329.72,309.88,330.43,308.8,330.61z"/>
</g>
<g>
	<path class="st8" d="M268.99,358.37c3.61-1.27,7.29-2.58,11.31-2.65c1-0.01,1.99,0.1,2.99,0.24c0.99,0.14,2.01,0.46,2.88,0.74
		c0.87,0.28,1.63,0.36,2.51,0.33c0.89-0.03,1.69-0.16,2.47-0.48c0.76-0.33,1.81-0.83,2.88-1c1.11-0.17,1.95-0.21,2.98-0.28
		c2.1-0.09,4.04,0.38,5.9,0.83c1.87,0.47,3.75,0.98,5.57,1.63c1.82,0.65,3.63,1.38,5.26,2.43c-1.78-0.72-3.64-1.17-5.49-1.6
		c-1.86-0.4-3.72-0.78-5.61-1.03c-1.89-0.24-3.75-0.56-5.5-0.38c-0.88,0.11-1.95,0.18-2.73,0.33c-0.84,0.15-1.52,0.52-2.52,0.92
		c-1.01,0.4-2.13,0.56-3.15,0.56c-1.03,0.05-2.19-0.2-3.13-0.57c-0.93-0.36-1.73-0.66-2.62-0.89c-0.88-0.23-1.8-0.36-2.72-0.42
		C276.56,356.81,272.77,357.73,268.99,358.37z"/>
</g>
<path class="st9" d="M318.71,257.75c0.24,1.4-1.23,2.55,2.61,3.79c3.93,1.27,8.11,1.95,13.22,2.57c2.71,0.33,9.67-0.42,13.68,1.08
	c4.01,1.49,3.91,3.24,6.45,5.28c2.54,2.05,9.39,8.18,9.39,8.18s0.01-4.09-3.29-7.52c-3.29-3.43-7.71-7.53-9.71-8.28
	c-2.01-0.75-6.12-1.77-8.69-2.35c-2.58-0.58-10.25-0.32-14.24-1.61c-3.99-1.3-5.73-2.85-7.62-2.61
	C319.82,256.35,318.71,257.75,318.71,257.75z"/>
<path class="st9" d="M247.24,265.72c1.12-1.75,0.93-4.12,5.05-5.37s12.66-2.19,18.23-3.5c1.7-0.4,13.38-5.33,13.38-5.33
	c0.1,2.72-0.63,5.18-2.84,5.87c-2.21,0.69-7.67,3.56-13.44,5.02c-2.57,0.65-11.96,1.76-14.64,2.21c-2.68,0.45-4.45,3.01-6.02,4.36"
	/>
<g>
	<path class="st8" d="M283.35,275.67c0.06,1.29,0.01,2.57-0.04,3.86c-0.08,1.29-0.21,2.57-0.37,3.85c-0.31,2.56-0.83,5.09-1.5,7.59
		c-0.34,1.25-0.73,2.48-1.17,3.7c-0.45,1.22-0.94,2.39-1.45,3.58l-1.52,3.54c-0.54,1.17-1.05,2.34-1.61,3.5
		c0.36-1.24,0.77-2.45,1.16-3.68l1.25-3.63c0.86-2.42,1.74-4.8,2.37-7.27c0.68-2.45,1.21-4.94,1.7-7.45
		C282.67,280.75,283.03,278.22,283.35,275.67z"/>
</g>
<g>
	<path class="st8" d="M271.06,361.76c2.56,2.45,5.59,4.23,8.83,5.28c3.24,1.04,6.66,1.36,10.05,1.01c1.7-0.14,3.39-0.44,5.1-0.79
		c1.74-0.32,3.39-0.71,5.06-1.18c3.32-0.96,6.55-2.31,9.68-3.97c-2.66,2.36-5.82,4.18-9.18,5.45c-1.66,0.66-3.44,1.13-5.15,1.55
		c-1.73,0.41-3.51,0.75-5.33,0.93c-1.81,0.16-3.66,0.14-5.48-0.1c-1.82-0.27-3.61-0.73-5.29-1.44
		C275.98,367.09,272.99,364.75,271.06,361.76z"/>
</g>
<g>
	<path class="st8" d="M271.86,352.75c1.23-0.98,2.48-1.92,3.85-2.73c0.69-0.41,1.41-0.78,2.26-1.01c0.41-0.12,0.96-0.14,1.36-0.1
		c0.43,0.02,0.87,0.11,1.29,0.23c1.73,0.49,2.96,1.67,4.17,1.96c0.6,0.17,1.26,0.17,1.87,0.06c0.6-0.1,1.06-0.38,1.7-0.85
		c0.63-0.48,1.56-0.98,2.48-1.12c0.9-0.16,1.86-0.14,2.71,0.07c1.68,0.44,3.07,1.13,4.5,1.79c2.83,1.32,5.58,2.78,8.36,4.22
		c-3.09-0.63-6.05-1.69-8.98-2.75c-1.46-0.51-2.92-1.13-4.28-1.39c-0.67-0.15-1.3-0.14-1.93-0.02c-0.62,0.12-1.09,0.4-1.72,0.82
		c-0.62,0.44-1.53,1-2.49,1.12c-0.93,0.16-1.87,0.1-2.75-0.22c-1.8-0.64-2.83-1.86-4.1-2.34c-0.32-0.13-0.64-0.22-0.98-0.29
		c-0.37-0.09-0.61-0.1-0.96-0.06c-0.67,0.09-1.39,0.36-2.1,0.63C274.68,351.38,273.28,352.09,271.86,352.75z"/>
</g>
<g>
	<path class="st8" d="M310.37,289.49c1.9-3.23,4.29-6.35,7.7-8.53c1.69-1.08,3.63-1.91,5.72-2.26c2.05-0.39,4.34-0.21,6.24,0.3
		c3.73,0.9,7.37,2.3,10.67,4.31c3.26,2.01,6.33,4.55,8.28,7.86c-3.16-2.09-6.41-3.65-9.72-5.02c-3.32-1.35-6.72-2.4-10.18-3.27
		l-0.64-0.17l-0.58-0.12c-0.39-0.07-0.78-0.13-1.17-0.17c-0.79-0.09-1.58-0.07-2.38-0.01c-1.59,0.15-3.2,0.58-4.76,1.27
		c-1.57,0.67-3.11,1.57-4.61,2.57C313.39,287.24,311.98,288.45,310.37,289.49z"/>
</g>
<g>
	<path class="st8" d="M242.89,289.77c0.69-1.49,1.85-2.66,2.97-3.8c1.16-1.12,2.42-2.11,3.75-3.02c2.66-1.8,5.62-3.2,8.78-4.09
		c1.68-0.49,3.58-0.64,5.34-0.36c1.78,0.27,3.44,0.94,4.9,1.82c2.91,1.8,5.01,4.38,6.5,7.18c-2.7-1.72-5.22-3.44-7.88-4.4
		c-2.65-0.99-5.25-1.18-7.78-0.4c-2.8,0.81-5.57,1.84-8.33,3.02c-1.38,0.59-2.76,1.21-4.14,1.87
		C245.61,288.25,244.24,288.91,242.89,289.77z"/>
</g>
<g>
	<circle class="st8" cx="260.4" cy="287.12" r="5.91"/>
	<g>
		<path class="st8" d="M260.7,293.02c-1.55,0.09-3.12-0.44-4.31-1.46c-1.2-1.01-2.01-2.51-2.14-4.12c-0.15-1.6,0.36-3.29,1.44-4.56
			c1.07-1.27,2.7-2.07,4.38-2.15c1.68-0.09,3.38,0.54,4.57,1.69c1.21,1.15,1.89,2.78,1.9,4.39c0.03,1.62-0.62,3.2-1.71,4.32
			C263.76,292.26,262.25,292.95,260.7,293.02z M260.7,293.02c1.55-0.08,3.04-0.81,4.03-1.99c0.99-1.17,1.46-2.72,1.32-4.2
			c-0.13-1.48-0.88-2.85-1.98-3.77c-1.09-0.93-2.53-1.42-3.94-1.34c-1.42,0.06-2.8,0.69-3.79,1.73c-1,1.03-1.6,2.47-1.58,3.96
			c0.01,1.48,0.63,2.98,1.74,4.04C257.59,292.52,259.16,293.09,260.7,293.02z"/>
	</g>
</g>
<g>
	<circle class="st8" cx="329.8" cy="288.56" r="6.22"/>
	<path class="st8" d="M330.12,294.77c-1.63,0.1-3.28-0.47-4.53-1.54c-1.26-1.06-2.1-2.64-2.24-4.33c-0.15-1.69,0.39-3.46,1.52-4.78
		c1.13-1.33,2.83-2.16,4.59-2.25c1.76-0.09,3.54,0.56,4.8,1.77c1.27,1.2,1.98,2.91,2,4.6c0.03,1.7-0.65,3.36-1.79,4.54
		C333.33,293.97,331.75,294.7,330.12,294.77z M330.12,294.77c1.63-0.09,3.2-0.86,4.24-2.09c1.05-1.23,1.54-2.87,1.39-4.42
		c-0.14-1.56-0.92-3.01-2.08-3.99c-1.15-0.98-2.67-1.5-4.17-1.41c-1.5,0.07-2.96,0.73-4,1.83c-1.06,1.09-1.69,2.61-1.66,4.18
		c0.01,1.56,0.67,3.14,1.84,4.26C326.85,294.24,328.49,294.85,330.12,294.77z"/>
</g>
<g>
	<path class="st8" d="M243.34,286.55c1.43-1.94,2.96-3.82,4.75-5.48c1.74-1.68,3.89-3.09,6.19-3.92c2.28-0.91,4.77-1.39,7.23-1.27
		c1.23,0.06,2.45,0.25,3.63,0.54c1.18,0.33,2.32,0.75,3.39,1.32c-1.15-0.35-2.31-0.66-3.49-0.82c-1.17-0.2-2.36-0.28-3.53-0.24
		c-2.36,0.04-4.67,0.54-6.87,1.39c-1.12,0.42-2.17,0.9-3.18,1.5c-1,0.61-1.96,1.31-2.88,2.05
		C246.73,283.13,245.06,284.86,243.34,286.55z"/>
</g>
<g>
	<path class="st8" d="M317.65,277.86c2.74-1.83,5.96-3.01,9.3-3.36c3.34-0.33,6.79,0.24,9.84,1.68c1.53,0.7,2.96,1.6,4.29,2.59
		c1.42,0.99,2.45,2.38,3.38,3.74c1.86,2.77,3.11,5.84,4.63,8.75c-1.8-2.76-3.25-5.74-5.17-8.37c-0.97-1.3-2.02-2.54-3.33-3.41
		c-1.35-0.92-2.73-1.74-4.2-2.41c-2.93-1.32-6.16-1.93-9.38-1.75C323.79,275.48,320.62,276.44,317.65,277.86z"/>
</g>
</svg>
