<?xml version="1.0" encoding="utf-8"?>
<!-- Generator: Adobe Illustrator 25.0.1, SVG Export Plug-In . SVG Version: 6.00 Build 0)  -->
<svg version="1.1" id="Capa_1" xmlns="http://www.w3.org/2000/svg" xmlns:xlink="http://www.w3.org/1999/xlink" x="0px" y="0px"
	 viewBox="0 0 595.28 841.89" style="enable-background:new 0 0 595.28 841.89;" xml:space="preserve">
<style type="text/css">
	.st0{fill:#E2B8A8;stroke:#1D1D1B;stroke-width:2;stroke-miterlimit:10;}
	.st1{fill:#E2E0F1;stroke:#1D1D1B;stroke-width:2;stroke-miterlimit:10;}
	.st2{fill:#F7F8FC;}
	.st3{fill:#C7C7D8;}
	.st4{fill:#F2CEC2;stroke:#1D1D1B;stroke-width:2;stroke-miterlimit:10;}
	.st5{fill:#E1D1E5;stroke:#1D1D1B;stroke-width:2;stroke-miterlimit:10;}
	.st6{fill:#BDAECC;stroke:#1D1D1B;stroke-width:2;stroke-miterlimit:10;}
	.st7{fill:#A89AB7;stroke:#1D1D1B;stroke-width:2;stroke-miterlimit:10;}
	.st8{fill:#1D1D1B;}
	.st9{fill:#847990;stroke:#1D1D1B;stroke-miterlimit:10;}
	.st10{fill:#DED2E9;stroke:#1D1D1B;stroke-width:2;stroke-miterlimit:10;}
	.st11{fill:#AEAA87;stroke:#1D1D1B;stroke-width:2;stroke-miterlimit:10;}
	.st12{fill:#8D896B;}
	.st13{fill:#CCC7A6;}
	.st14{fill:#89888D;stroke:#1D1D1B;stroke-miterlimit:10;}
	.st15{fill:#89888D;stroke:#1D1D1B;stroke-width:2;stroke-miterlimit:10;}
	.st16{fill:#6B7B9D;stroke:#1D1D1B;stroke-width:2;stroke-miterlimit:10;}
	.st17{fill:#57647D;}
	.st18{fill:#899AB7;}
	.st19{fill:#6D2F3B;stroke:#1D1D1B;stroke-width:2;stroke-miterlimit:10;}
	.st20{fill:#6D2F3B;stroke:#1D1D1B;stroke-miterlimit:10;}
	.st21{fill:#E2B8A8;}
	.st22{fill:#F2CEC2;}
	.st23{fill:#AEAA87;}
	.st24{fill:#89888D;}
	.st25{fill:#6B7B9D;}
	.st26{fill:#6D2F3B;}
	.st27{fill:#E2E0F1;}
	.st28{fill:#847990;}
	.st29{fill:#E1D1E5;}
	.st30{fill:#BDAECC;}
	.st31{fill:#A89AB7;}
	.st32{fill:#DED2E9;}
	.st33{fill:none;stroke:#1D1D1B;stroke-width:3;stroke-miterlimit:10;}
	.st34{clip-path:url(#SVGID_2_);}
	.st35{fill:none;stroke:#1D1D1B;stroke-width:4;stroke-miterlimit:10;}
	.st36{fill:none;stroke:#1D1D1B;stroke-width:0.5;stroke-miterlimit:10;}
</style>
<path class="st0" d="M229.28,474.14c7.18-4.19,12.41-9.16,17.8-16.94c5.38-7.78,8.19-11.89,8.53-26.14c0.18-7.8,0-18.55,0-18.55
	s29.32-1.2,33.5-2.99c4.19-1.79,35.3-11.37,38.89-14.96c3.59-3.59,35.9-18.55,39.49-25.13c3.59-6.58,14.88-24.71,14.88-24.71
	s-13.53,37.95-14.13,49.32s-9.99,50.25-2.81,56.83s18.97,10.7,18.97,10.7l-13.32,6.58l-53.25,43.67l-32.31,17.35
	c0,0-23.33,21.09-23.93,26.1c-0.6,5.01-23.26,39-23.26,39l-14.43-2.88l14.36-42.48l-21.54-17.35c0,0-9.57-25.73-7.78-27.52
	C210.74,502.25,229.28,474.14,229.28,474.14z"/>
<path class="st0" d="M368.24,363.53c3.14,3.81,1.12,7.63,7.62,6.06c6.51-1.57,8.08-2.92,12.56-8.75c4.49-5.83,8.45-6.88,10.17-11.74
	c1.72-4.86,4.19-10.92,3.96-14.51c-0.22-3.59-8.18-12.34-8.18-12.34l-18.52-8.08l-9.65,2.69L368.24,363.53z"/>
<path class="st1" d="M253.46,444.43c0,0,3.61,0.77-18.27,31.28c-8.03,11.21-8.53,21.31-9.87,26.7c-1.35,5.38-2.47,15.26,0,17.28
	c2.47,2.02,3.37,5.38,13.69,8.3c10.32,2.92,19.74,3.59,19.74,3.59h2.69c0,0-5.16,9.65-10.54,16.6c-5.38,6.96-8.97,9.65-13.01,20.42
	c-4.04,10.77-6.06,23.11-6.06,23.11s2.69,0,9.87-9.2c7.18-9.2,10.99-20.19,14.36-29.39c3.37-9.2,4.71-25.58,5.38-28.49
	s4.49-6.62,4.49-6.62s1.35-1.46,17.05-5.95s24.68-6.51,32.53-14.13c7.85-7.63,13.69-13.91,21.09-21.09
	c7.4-7.18,8.08-6.96,15.48-14.58c7.4-7.63,12.3-9.72,12-11.37c-0.11-0.63-0.96-5.59-0.96-5.59s3.76,2.75,9.37,5.59
	s46.89,11.37,59.23,16.76c12.34,5.38,29.17,11.67,37.92,18.62c8.75,6.96,10.77,3.59,19.29,17.5c8.53,13.91,9.87,4.71,16.38,29.62
	c6.51,24.9,15.26,58.33,15.26,58.33s2.47,30.21,3.66,46.37c1.2,16.15,0,28.72,0,28.72L39.03,661.4c0,0,19.74-37.69,25.13-53.85
	c5.38-16.15,11.97-35.3,19.15-49.06c7.18-13.76,27.52-37.69,32.91-50.26c5.38-12.56,8.38-16.15,17.35-20.34s38.29-16.15,46.67-17.95
	s28.72-6.58,37.69-10.17C226.89,456.19,253.46,444.43,253.46,444.43z"/>
<path class="st2" d="M230.74,624.6c5.38-15.56,8.65-29.76,9.27-31.71s4.67-2.95,10.22-12.27s11.96-22.16,13.82-30.18
	c1.86-8.02,1.4-12.28,3.78-20.67c2.37-8.39-0.89-9.2,5.24-11.78c6.13-2.58,26.89-7.73,34.69-11.25s15.11-9.05,25.54-19.48
	s24.61-23.71,25.92-25.02c1.3-1.31-15,25.59-18.1,32.23c-3.1,6.64-25.14,19.98-33.36,26.59c-8.22,6.61-17.49,14.39-20.18,26.36
	c-2.69,11.97-11.67,33.2-18.55,39.49c-6.88,6.28-24.23,21.54-28.42,27.82s-13.76,31.11-13.76,31.11L230.74,624.6z"/>
<path class="st2" d="M428.42,475.91c8.23,1.5,25.73,7.18,39.79,20.34c14.06,13.16,16.45,13.46,24.23,24.83
	c7.78,11.37,14.96,45.77,16.75,50.85c1.79,5.09,5.98,32.91,7.48,42.78c1.5,9.87,2.99,48.46,2.99,50.26"/>
<path class="st3" d="M47.71,653.49c2.39-2.69,11.07-21.24,14.36-27.82s-1.2,1.79,10.47-23.93c11.67-25.73,19.74-39.49,26.32-51.75
	s12.56-24.23,19.15-35.9c6.58-11.67,3.29-14.06,16.45-21.84c13.16-7.78,22.44-8.08,39.79-14.96c17.35-6.88,34.7-13.11,46.07-16.13
	s21.84-9.91,25.43-10.29c3.59-0.38-78.67,37.78-87.65,47.36s-34.1,23.93-44.27,43.38S47.71,653.49,47.71,653.49z"/>
<path class="st3" d="M246.42,450.54c0,0-30.18,12.34-33.17,20.71c-2.99,8.38-7.43,22.92-5.47,34.1c1.96,11.18,2.64,10.34,5.47,15.56
	c1.12,2.06-0.67,0.12,5.8,5.8c0,0-5.5-10.88-2.21-24.64c1.74-7.28,5.09-22.44,8.38-26.62C228.51,471.26,246.42,450.54,246.42,450.54
	z"/>
<path class="st4" d="M236.78,254.92c-1.96,8.32-4.4,17.62-5.38,24.96c-0.98,7.34-3.43,16.64-3.43,22.02s0.49,16.64,0,29.85
	c-0.49,13.21-3.91,35.72,4.4,51.38s19.08,30.34,26.91,34.74c7.83,4.4,10.28,4.89,15.17,5.38c4.89,0.49,18.59-2.45,30.83-7.34
	c12.23-4.89,40.62-23,46-25.93c5.38-2.94,11.74-10.77,15.66-16.64c3.91-5.87,6.36-12.23,6.36-23.98s2.45-29.85,0-42.57
	s-7.34-32.79-12.23-41.1c-4.89-8.32-12.65-21.04-22.23-25.93s-25.26-7.83-38.22-7.83s-43.78,3.43-50.63,6.85
	C243.14,242.2,236.78,254.92,236.78,254.92z"/>
<g>
	<path class="st8" d="M257.07,326.04c-1.48,1.17-2.35,2.91-2.6,4.66c-0.18,1.77-0.2,3.7,0.05,5.43c0.26,1.74,1.01,3.31,2.44,3.85
		c0.33,0.14,0.77,0.27,1.19,0.36c0.42,0.1,0.84,0.16,1.24,0.2c0.41,0.03,0.8,0.03,1.17-0.03c0.18-0.02,0.35-0.07,0.51-0.12
		c0.07-0.03,0.15-0.06,0.21-0.09c0.04-0.02,0.15-0.1,0.08-0.04l-0.33,0.73c0.01-0.32,0.05-0.5,0.15-0.79
		c0.11-0.26,0.27-0.56,0.59-0.79c0.15-0.12,0.33-0.19,0.51-0.25c0.17-0.05,0.33-0.06,0.5-0.07c0.28,0.01,0.55,0.06,0.74,0.14
		c0.81,0.3,1.3,0.71,1.81,1.13c0.5,0.44,0.89,0.82,1.32,1.18c0.43,0.37,0.87,0.7,1.32,1.02c0.91,0.61,1.87,1.11,2.87,1.36
		c0.97,0.24,2.08,0.19,2.97-0.12c0.89-0.34,1.71-1.1,2.56-1.93c0.43-0.42,0.88-0.85,1.5-1.22c0.32-0.17,0.71-0.34,1.16-0.32
		c0.22-0.01,0.43,0.07,0.63,0.13l0.36,0.14c1.01,0.29,2.23,0.36,3.39,0.39c1.18,0.03,2.36,0.03,3.55,0
		c-1.16,0.27-2.33,0.47-3.52,0.61c-1.2,0.11-2.38,0.25-3.68,0.02c-0.16-0.04-0.37-0.11-0.48-0.13c-0.08-0.01-0.16-0.04-0.24-0.02
		c-0.15,0-0.32,0.1-0.5,0.22c-0.38,0.28-0.75,0.71-1.14,1.14c-0.78,0.87-1.62,1.87-2.92,2.5c-1.31,0.54-2.67,0.62-4.01,0.37
		c-1.32-0.26-2.51-0.85-3.56-1.54c-0.52-0.36-1.03-0.72-1.5-1.12c-0.48-0.39-0.95-0.83-1.34-1.16c-0.4-0.33-0.86-0.67-1.16-0.77
		c-0.08-0.04-0.11-0.03-0.12-0.04c0.02,0.01,0.09-0.02,0.17-0.07c0.07-0.07,0.09-0.1,0.08-0.09c-0.01-0.01-0.02,0.11-0.02,0.08
		l-0.33,0.73c-0.25,0.21-0.35,0.24-0.52,0.33c-0.15,0.07-0.3,0.13-0.44,0.18c-0.29,0.09-0.58,0.16-0.86,0.2
		c-0.56,0.08-1.11,0.07-1.64,0.02c-0.52-0.07-1.03-0.17-1.52-0.31c-0.49-0.14-0.95-0.29-1.48-0.53c-1.02-0.47-1.89-1.33-2.36-2.31
		c-0.49-0.98-0.68-2.01-0.77-3c-0.09-0.99-0.03-1.97,0.06-2.92c0.11-0.96,0.2-1.88,0.46-2.86
		C254.12,328.61,255.37,326.89,257.07,326.04z"/>
</g>
<g>
	<path class="st8" d="M294.76,342.19c0.6-0.87,1.01-1.7,1.35-2.54c0.33-0.81,0.57-1.7,0.5-2.26c-0.1-0.69-0.44-1.62-0.75-2.49
		c-0.34-0.89-0.64-1.79-1.1-2.73c1.05,0.35,1.82,1.15,2.47,1.96c0.63,0.86,1.17,1.74,1.37,3.01c0.12,1.43-0.48,2.47-1.15,3.32
		C296.75,341.3,295.84,342.01,294.76,342.19z"/>
</g>
<g>
	<path class="st8" d="M248.77,367.93c2.46,0.85,5.03,0.98,7.56,0.75c2.59-0.17,4.99-0.64,7.55-1.24c2.65-0.62,5.58-0.22,8.05,0.69
		c0.6,0.21,1.12,0.36,1.67,0.42c0.54,0.07,1.14,0.05,1.72,0c0.58-0.05,1.11-0.18,1.63-0.37c0.52-0.18,1.11-0.49,1.8-0.72
		c0.69-0.24,1.42-0.38,2.11-0.45c0.69-0.07,1.44-0.08,2.19,0.05c1.48,0.31,2.57,0.83,3.8,1.16c2.41,0.69,4.94,1.32,7.42,1.72
		c0.62,0.1,1.25,0.17,1.88,0.22c0.65,0.05,1.24,0.09,1.85,0.01c1.24-0.12,2.49-0.42,3.72-0.76c1.23-0.34,2.45-0.74,3.65-1.21
		c1.19-0.48,2.39-0.97,3.41-1.77c-0.95,0.89-2.11,1.52-3.26,2.1c-1.17,0.57-2.37,1.08-3.59,1.51c-1.23,0.43-2.48,0.82-3.8,1.04
		c-1.37,0.21-2.66,0.16-3.99,0.1c-1.32-0.07-2.62-0.28-3.91-0.49c-1.28-0.21-2.58-0.45-3.85-0.79c-1.27-0.3-2.58-0.8-3.64-0.97
		c-1.04-0.16-2.3,0-3.33,0.36c-0.53,0.18-1.08,0.49-1.78,0.74c-0.68,0.26-1.43,0.41-2.13,0.46c-0.7,0.06-1.41,0.07-2.14-0.03
		c-0.73-0.09-1.45-0.32-2.07-0.54c-2.34-0.91-4.71-1.32-7.15-0.93c-1.24,0.17-2.55,0.42-3.86,0.53c-1.32,0.11-2.63,0.12-3.93,0.11
		C253.74,369.62,251.05,369.19,248.77,367.93z"/>
</g>
<path class="st9" d="M294.52,274.33c0.53,1.61,0.89,3.9,4.62,3.12c3.73-0.78,11.69-1.62,14.23-2.29c2.54-0.67,4.47-2.06,8.49-1.69
	s5.86,2.42,8.64,3.99c2.78,1.57,10.42,6.56,10.42,6.56s-0.88-4.96-4.66-7.94c-3.78-2.98-9.97-6.71-11.98-6.89
	c-2.01-0.19-5.93,0.8-8.43,1.02c-2.5,0.22-8.17,1.27-12.13,1.13s-8.9-0.37-8.9-0.37L294.52,274.33z"/>
<path class="st9" d="M265.04,273.41c-0.55,2.35-1.58,4.2-3.16,4.06c-1.58-0.14-10.89-2.14-12.7-2.38c-1.81-0.24-5.18-0.23-7-0.73
	c-1.82-0.5-4.23,0.74-5.55,1.37c-1.32,0.63-7.06,6.99-7.06,6.99s2.91-8.69,5.34-9.71c2.43-1.02,6.16-2.79,9.09-2.49
	c2.94,0.3,11.27,0.77,12.42,1.16S265.04,273.41,265.04,273.41z"/>
<g>
	<path class="st8" d="M269.32,287.25c0.06,1.29,0.01,2.57-0.04,3.86c-0.08,1.29-0.21,2.57-0.37,3.85c-0.31,2.56-0.83,5.09-1.5,7.59
		c-0.34,1.25-0.73,2.48-1.17,3.7c-0.45,1.22-0.94,2.39-1.45,3.58l-1.52,3.54c-0.54,1.17-1.05,2.34-1.61,3.5
		c0.36-1.24,0.77-2.45,1.16-3.68l1.25-3.63c0.86-2.42,1.74-4.8,2.37-7.27c0.68-2.45,1.21-4.94,1.7-7.45
		C268.63,292.33,269,289.8,269.32,287.25z"/>
</g>
<g>
	<path class="st8" d="M256.57,374.03c2.66,2.43,5.79,4.14,9.11,5.13c3.32,0.99,6.8,1.28,10.25,0.94c1.73-0.13,3.46-0.43,5.2-0.76
		c1.77-0.3,3.45-0.68,5.16-1.13c3.39-0.92,6.69-2.22,9.91-3.84c-2.76,2.32-6.01,4.09-9.44,5.33c-1.7,0.65-3.51,1.09-5.25,1.5
		c-1.76,0.4-3.57,0.73-5.41,0.9c-1.84,0.15-3.71,0.14-5.55-0.09c-1.84-0.25-3.66-0.69-5.38-1.38
		C261.72,379.29,258.61,377.02,256.57,374.03z"/>
</g>
<g>
	<path class="st8" d="M257.82,364.33c1.31-1.05,2.66-2.05,4.14-2.9c0.75-0.41,1.54-0.81,2.54-0.94c1-0.06,1.9,0.12,2.77,0.47
		c0.86,0.35,1.61,0.84,2.28,1.21c0.68,0.38,1.31,0.6,1.98,0.63c0.69,0.04,1.36-0.05,1.91-0.34c0.57-0.26,1.2-0.91,2.17-1.33
		c0.96-0.41,1.94-0.53,2.93-0.45c0.98,0.08,1.85,0.39,2.65,0.7c1.62,0.65,3.07,1.33,4.62,2.16c0.76,0.42,1.45,0.92,2.13,1.31
		c0.34,0.2,0.69,0.37,1.05,0.52l1.17,0.43c0.78,0.28,1.56,0.57,2.35,0.81c0.79,0.21,1.59,0.52,2.42,0.38
		c-0.81,0.28-1.69,0.13-2.52,0.03c-0.83-0.13-1.66-0.3-2.48-0.5l-1.22-0.29c-0.43-0.09-0.86-0.24-1.27-0.41
		c-0.81-0.34-1.54-0.72-2.28-1.04c-0.73-0.33-1.5-0.59-2.29-0.88c-0.78-0.28-1.55-0.58-2.32-0.83c-0.76-0.24-1.51-0.44-2.19-0.49
		c-0.67-0.05-1.4,0.07-1.96,0.33c-0.58,0.25-1.17,0.79-2.1,1.27c-0.94,0.47-1.99,0.59-2.96,0.48c-1-0.11-1.95-0.54-2.69-1.02
		c-0.76-0.48-1.37-0.98-2.03-1.33c-0.63-0.35-1.4-0.56-2.06-0.62c-0.67-0.01-1.46,0.26-2.21,0.54
		C260.84,362.86,259.34,363.63,257.82,364.33z"/>
</g>
<g>
	<path class="st8" d="M306.75,363.5c0.88-0.4,1.91-0.39,2.87-0.08c0.48,0.16,0.94,0.4,1.35,0.71c0.4,0.29,0.76,0.65,1.07,1.07
		c0.63,0.83,0.96,1.95,0.84,2.99c-0.12,1.04-0.65,1.98-1.46,2.51c0.2-1.91-0.17-3.2-0.99-4.31c-0.2-0.28-0.44-0.56-0.71-0.83
		c-0.24-0.26-0.51-0.51-0.81-0.74C308.32,364.34,307.61,363.94,306.75,363.5z"/>
</g>
<g>
	<g>
		<path class="st8" d="M298.84,297.19c2.03-3.18,4.83-5.95,8.26-7.91c3.41-1.94,7.5-3.01,11.53-2.74c1.01,0.02,2,0.21,3,0.36
			c0.49,0.09,0.98,0.24,1.46,0.36c0.49,0.12,0.97,0.25,1.43,0.44c1.9,0.64,3.66,1.58,5.28,2.68c3.24,2.21,5.85,5.15,7.65,8.48
			c-3.06-2.24-6.04-4.29-9.22-5.75c-1.59-0.73-3.19-1.38-4.84-1.79c-1.64-0.44-3.3-0.74-4.98-0.8c-1.68-0.14-3.35-0.01-5.02,0.26
			c-1.67,0.27-3.33,0.7-4.96,1.32C305.15,293.32,302.05,295.18,298.84,297.19z"/>
	</g>
	<g>
		<path class="st8" d="M231.36,297.47c1.3-2.93,3.44-5.48,6.09-7.44c2.65-1.97,5.94-3.28,9.35-3.54c3.41-0.32,6.89,0.49,9.82,2.05
			c2.93,1.58,5.37,3.89,6.96,6.67c-2.76-1.59-5.44-2.93-8.2-3.78c-2.75-0.83-5.51-1.21-8.26-0.96c-2.74,0.21-5.45,0.99-8.06,2.24
			C236.44,293.94,233.94,295.59,231.36,297.47z"/>
	</g>
	<g>
		<circle class="st8" cx="248.87" cy="294.82" r="5.91"/>
		<g>
			<path class="st8" d="M249.17,300.72c-1.55,0.09-3.12-0.44-4.31-1.46c-1.2-1.01-2.01-2.51-2.14-4.12
				c-0.15-1.6,0.36-3.29,1.44-4.56c1.07-1.27,2.7-2.07,4.38-2.15c1.68-0.09,3.38,0.54,4.57,1.69c1.21,1.15,1.89,2.78,1.9,4.39
				c0.03,1.62-0.62,3.2-1.71,4.32C252.23,299.96,250.72,300.66,249.17,300.72z M249.17,300.72c1.55-0.08,3.04-0.81,4.03-1.99
				c0.99-1.17,1.46-2.72,1.32-4.2c-0.13-1.48-0.88-2.85-1.98-3.77c-1.09-0.93-2.53-1.42-3.94-1.34c-1.42,0.06-2.8,0.69-3.79,1.73
				c-1,1.03-1.6,2.47-1.58,3.96c0.01,1.48,0.63,2.98,1.74,4.04C246.06,300.22,247.62,300.8,249.17,300.72z"/>
		</g>
	</g>
	<g>
		<circle class="st8" cx="318.27" cy="296.26" r="6.22"/>
		<path class="st8" d="M318.59,302.47c-1.63,0.1-3.28-0.47-4.53-1.54c-1.26-1.06-2.1-2.64-2.24-4.33c-0.15-1.69,0.39-3.46,1.52-4.78
			c1.13-1.33,2.83-2.16,4.59-2.25c1.76-0.09,3.54,0.56,4.8,1.77c1.27,1.2,1.98,2.91,2,4.6c0.03,1.7-0.65,3.36-1.79,4.54
			C321.8,301.67,320.22,302.4,318.59,302.47z M318.59,302.47c1.63-0.09,3.2-0.86,4.24-2.09c1.05-1.23,1.54-2.87,1.39-4.42
			c-0.14-1.56-0.92-3.01-2.08-3.99c-1.15-0.98-2.67-1.5-4.17-1.41c-1.5,0.07-2.96,0.73-4,1.83c-1.06,1.09-1.69,2.61-1.66,4.18
			c0.01,1.56,0.67,3.14,1.84,4.26C315.32,301.95,316.96,302.55,318.59,302.47z"/>
	</g>
	<g>
		<path class="st8" d="M231.35,293.08c1.6-1.8,3.3-3.53,5.24-5.02c1.89-1.51,4.15-2.72,6.52-3.34c2.35-0.69,4.88-0.94,7.32-0.6
			c1.22,0.18,2.41,0.47,3.56,0.88c1.14,0.44,2.24,0.96,3.25,1.63c-1.12-0.46-2.24-0.87-3.4-1.14c-1.15-0.3-2.32-0.49-3.5-0.57
			c-2.35-0.18-4.7,0.1-6.96,0.75c-1.16,0.31-2.24,0.69-3.3,1.2c-1.06,0.51-2.07,1.12-3.06,1.78
			C235.05,289.98,233.22,291.55,231.35,293.08z"/>
	</g>
	<g>
		<path class="st8" d="M304.2,288.34c2.4-2.27,5.37-3.97,8.6-4.87c3.24-0.89,6.74-0.9,9.99,0c1.63,0.43,3.19,1.08,4.67,1.83
			c1.57,0.74,2.81,1.93,3.96,3.12c2.3,2.42,4.05,5.23,6.03,7.85c-2.24-2.42-4.17-5.11-6.51-7.38c-1.17-1.12-2.42-2.17-3.86-2.8
			c-1.48-0.68-2.99-1.26-4.54-1.67c-3.11-0.81-6.39-0.87-9.54-0.14C309.85,284.96,306.88,286.44,304.2,288.34z"/>
	</g>
</g>
<path class="st5" d="M411.13,343.91c0.24,4.22-0.05,7.5-1.42,9.49c-1.37,1.98-4.38,2.02-2.75,7.57c1.62,5.54,2.08,10.69,2.08,10.69
	l-4.17,6.55c0,0-3.21,2.43-2.18,7.92c1.03,5.49,3.8,8.13,3.52,11.41c-0.28,3.28-2.81,8.17-2.81,8.17l-3,6.95l3.93,6.64l-2.35,6.4
	l-5.76,6.71l-3,7.85l1.4,10.63c0,0-4.91-8.23-4.33-11.48c0.58-3.25,3.78-8.98,3.78-8.98l3-7.85l-1.58-8.54l-0.78-4.87l4.11-6.85
	l1.86-6.75l-2.86-8.65c0,0,1.18-3.2,0.49-5.66c-0.69-2.46-0.69-2.46,0.62-7.15c1.3-4.69,4.06-7.16,3.2-10.23
	c-0.85-3.08-2.83-8.05-2.83-8.05s-1.71-1.05-0.98-6.09c0.73-5.04-0.01-3.37,1.63-8.45c1.64-5.08-3.34-12.41-3.34-12.41
	L411.13,343.91z"/>
<path class="st5" d="M394.46,335.62c-0.19,2.57,3.06,8.02,0.68,10.21c-2.38,2.2-3.7,3.58-2.09,5.82s4.42,0.98,4.38,4.88
	s-1.76,6.45-1.76,6.45s-4.64,0.2-2.38,4.3c2.26,4.1,4.14,6.66,4.14,6.66l2.7,8.04c0,0-5.44,2.83-5.57,7.78s1.12,4.45,2.13,6.64
	c1.01,2.19,1.97,1.01,2.85,3.22c0.88,2.21,2.25,3.83,2.25,3.83l2.04,7.68l1.42,5.53c0,0-4.16-0.05-2.21,6.12
	c1.95,6.17,4.4,9.08,4.4,9.08l0.43,5.44c0,0-3.08,0.94-2.3,5.81c0.78,4.87,1.04,8.8,1.04,8.8l-3.71-8.13c0,0,0.14-2.69-1.91-6.77
	c-2.05-4.08-2.64-2.63-4.79-4.62c-2.15-1.99-3.31-5.99-3.31-5.99l-0.01-6.88l-3.41-8.12l-2.11-4.09c0,0-3.72-2.42-2.41-7.11
	c1.3-4.69,2.16-7.59,2.16-7.59l2.01-5.56l0.44-5.07l-1-6.09l-3.76-5.43l0.44-5.15l1.57-3.98l1.43-6.18c0,0-3.32-3.29-3.61-6.92
	c-0.29-3.63-0.25-0.62-0.21-4.52c0.04-3.9,0.85-6.39,0.85-6.39l3.3-10.67"/>
<path class="st6" d="M420.05,321.55c-0.31,5.68,3.76,5.13,3.13,8.98c-0.63,3.85-0.09,4.5-2.43,7.3s-1.11,5.91-1.11,5.91
	s5.46,2.87,2.52,5.62c-2.94,2.75-0.21,2.38-4.93,4.98c-4.73,2.6-3.2,5.73-3.2,5.73s2.1,3.48,2.19,5.89
	c0.09,2.41,1.38,2.22,0.64,5.16s1.49,4.93,1.49,4.93l1.72,5.85l-0.46,5.36l-0.54,6.26l2.55,3.82l0.73,5.47l-2.6,5.78
	c0,0-0.21,2.38-0.16,5.39c0.04,3.01-0.42,0.86-2.67,4.57c-2.25,3.71-5.38,10.02-6.3,12.37c-0.91,2.35,1.14,7,2.36,8.91
	c1.21,1.91-7.53-9.36-6.45-12.57s1.73-10.66,2.82-12.97c1.1-2.31,0.42-8.35,0.42-8.35l-2.48-9.54l2.16-3.12l3.4-5.71l1.93-4.94
	l-1.86-6.32l-1.59-4.79l0.54-6.86l0.84-9.24l-1.46-5.91l2.34-4.82l2.28-6.11l0.27-6.58l-1.06-4.58l-0.67-17.13"/>
<path class="st7" d="M300.62,167.22c1.24-2.22,4.12-6.06,6.36-6.28c2.24-0.22,2.24-0.67,4.04-2.47c1.79-1.79,1.79-2.69,4.49-3.14
	c2.69-0.45,8.08-2.47,9.87-5.16s9.63-6.73,13.45-8.08c3.82-1.35,10.78-4.49,16.39-2.47s8.53,0.45,10.99,3.59s5.38,2.69,9.2,2.69
	s4.94-3.59,8.53,0.67c3.59,4.26,7.65,11.44,10.44,12.34c2.79,0.9,0.55-2.47,5.48,0.45c4.94,2.92,6.94-0.03,11.21,4.7
	c4.27,4.73,6.51,5.62,9.2,9.66c2.69,4.04,10.99,11.44,13.46,15.48c2.47,4.04,9.98,8.53,12.62,13.01c2.64,4.49-0.28,4.26,2.41,7.18
	c2.69,2.92,4.23,0.9,5.14,5.83c0.92,4.94-0.65,4.26,1.59,7.85s3.37,4.26,3.14,7.63c-0.22,3.37-2.24,2.24-0.9,5.83
	c1.35,3.59,0.95,2.24,0.93,5.83c-0.03,3.59,2.72,2.71,0,6.07c-2.72,3.35,1.99-0.01-2.72,3.35s-7.4,3.37-6.28,5.16
	c1.12,1.79,2.24,1.12,2.24,2.92s-5.27,6.28-5.55,6.28s-19.58-6.51-19.58-6.51L300.62,167.22z"/>
<path class="st10" d="M213.07,239.54c-1.06,5.51,0.32,14.4-0.22,24.67c-0.54,10.28-0.05,12.72-2.01,19.57c-1.96,6.85,0,2.94,0,11.74
	s-1.47,8.32,0,13.7c1.47,5.38,0.98,3.91,4.4,9.79c3.43,5.87,3.43,2.99,4.4,8.59c0.98,5.6,0,4.69,3.91,8.54
	c3.92,3.85,4.48,1.4,4.48,1.4s0.91-37.77,1.99-44.4c1.84-11.27,5.38-35.13,5.38-35.13L213.07,239.54z"/>
<path class="st6" d="M341.41,265.33c17.21,7.21,17.7,17,35.31,25.31c17.62,8.32,17.13,14.19,36.7,10.28
	c19.57-3.91,26.91-7.08,30.83-17c3.91-9.92,1.47-26.56,0-28.02c-1.47-1.47-34.25-32.79-35.72-35.23
	c-1.47-2.45-24.96-25.93-24.96-25.93s14.19,14.68,1.96,29.36C373.3,238.77,341.41,265.33,341.41,265.33z"/>
<path class="st5" d="M330.24,256.88c7.34,5.38,7.83,9.3,18.59,9.79c10.77,0.49,22.02-4.4,28.38-9.79
	c6.36-5.38,14.68-14.06,14.68-21.04s4.24-24.18,1.65-27.03c-2.59-2.85-9.97-14.07-9.97-14.07s-13.21-10.28-15.17-13.21
	c-1.96-2.94-5.38-3.91-10.77-3.91s-10.77-1.47-15.17-3.91c-4.4-2.45-6.85-3.43-12.23-3.43c-5.38,0-18.11-3.43-21.53-3.91
	c-3.43-0.49-18.59-4.89-24.96,0c-6.36,4.89-37.68,19.57-45.51,30.34c-7.83,10.77-16.64,9.79-20.06,24.47
	c-3.43,14.68-8.32,20.06-2.94,28.87c5.38,8.81,9.79,19.08,11.74,20.06s5.55,6.98,5.55,6.98s0.85-7.73,1.83-12.13
	c0.98-4.4,4.36-11.23,8.27-12.58c3.91-1.35,11.25-7.72,11.25-7.72s1.47,0.49,6.36,1.47c4.89,0.98,12.23-0.98,15.66-0.49
	c3.43,0.49,4.4,1.96,8.81,1.96s13.21-1.96,16.15,0.98c2.94,2.94,10.77,4.67,13.7,3.8C317.52,251.49,330.24,256.88,330.24,256.88z"/>
<path class="st6" d="M369.39,281.34c-0.96,4.42-1.9,14.43-0.23,24.47s6.59,17.18,11.48,21.8c4.89,4.62,14.84,5.11,20.39,11.96
	c5.55,6.85,20.23,5.38,24.14,3.91s18.42-19.57,21.2-24.96s6.69-21.53,7.18-29.85c0.49-8.32,0.98-15.66-1.96-22.02
	s-10.77-12.23-13.7-12.72"/>
<path class="st5" d="M349.84,257.86c2.38,8.78-1.5,10.17,1.5,16.75c2.99,6.58,5.68,3.89,6.58,9.87s-3.59,9.66,0.3,14.85
	c3.89,5.19,7.63,3.4,8,8.78s-3.45,9.31,0.26,14.68s10.29,8.36,10.29,8.36s-5.68-4.79-5.68-7.78s0.5-8.5-0.31-11.17
	s2.88-8.31,0.31-10.05c-2.57-1.74-8.38-4.81-7.78-7.66c0.6-2.84-1.2-11.82,0-15.41s-0.3-3.59-1.5-9.57c-1.2-5.98,1.5-7.48,1.5-11.67
	s0-14.66,0-14.66l-16.45-19.74"/>
<path class="st7" d="M447.94,244.19c0.62,1.5-2.71,5.33,0,8.05c2.71,2.72,3.53-1.47,5.96,4.81c2.43,6.28,3.03,7.48,1.84,10.77
	s-5.38,2.84-0.6,7.55c4.79,4.71,2.39,2.92,7.18,3.82c4.79,0.9,7.48-1.05,9.27-3.82c1.79-2.76,2.69-7.85,2.39-9.64
	c-0.3-1.79-2.99,3.29-2.99,3.29s-0.3,2.69-3.59,2.99c-3.29,0.3-5.68,2.09-5.68-1.79c0-3.89,0.9-8.42,0.9-8.42l-2.17-7.74l-4.12-3.89
	l1.2-8.08l-0.6-5.98c0,0-0.08-5.21-3.03-5.89c-2.95-0.69-5.96-1.88-5.96-1.88s-5.67-7.57-8.66-9.47c-2.99-1.9-9.57-1.3-9.57-1.3"/>
<g>
	<path class="st7" d="M367.23,148.84c-0.6-0.6-0.85-1.14-0.9-2.02c0,1.88-0.01,3.75-0.01,5.63c0.38-4.56,6.14-4.31,9.47-3.94
		c3.83,0.42,8.36,1.29,11.68-1.29c1.55-1.2,2.3-2.49,4.45-2.54c1.83-0.04,3.76,0.42,5.49,0.99c3.8,1.26,11.35,12.44,13.9,15.5
		c-0.29-0.34-0.12-7.82-1.54-11.11c-0.22-0.51-2.34-3.02-2.71-3.47c-3.09-3.72-7.31-6.34-12.06-7.31c-2.24-0.46-4.48-0.7-6.26,0.97
		c-1.79,1.69-3.5,2.67-6,2.93c-4.57,0.47-11.24-2.54-15.14,0.83c-1.46,1.26-1.3,3.05-1.31,4.8c-0.01,1.82-0.48,4.33,0.94,5.75
		c-0.27-0.27,0.03-2.45,0.03-2.87C367.26,151.21,367.59,149.2,367.23,148.84L367.23,148.84z"/>
</g>
</svg>
