<?xml version="1.0" encoding="utf-8"?>
<!-- Generator: Adobe Illustrator 25.0.1, SVG Export Plug-In . SVG Version: 6.00 Build 0)  -->
<svg version="1.1" id="Capa_1" xmlns="http://www.w3.org/2000/svg" xmlns:xlink="http://www.w3.org/1999/xlink" x="0px" y="0px"
	 viewBox="0 0 595.28 841.89" style="enable-background:new 0 0 595.28 841.89;" xml:space="preserve">
<style type="text/css">
	.st0{fill:#E2B8A8;stroke:#1D1D1B;stroke-width:2;stroke-miterlimit:10;}
	.st1{fill:#E2E0F1;stroke:#1D1D1B;stroke-width:2;stroke-miterlimit:10;}
	.st2{fill:#F7F8FC;}
	.st3{fill:#C7C7D8;}
	.st4{fill:#F2CEC2;stroke:#1D1D1B;stroke-width:2;stroke-miterlimit:10;}
	.st5{fill:#E1D1E5;stroke:#1D1D1B;stroke-width:2;stroke-miterlimit:10;}
	.st6{fill:#BDAECC;stroke:#1D1D1B;stroke-width:2;stroke-miterlimit:10;}
	.st7{fill:#A89AB7;stroke:#1D1D1B;stroke-width:2;stroke-miterlimit:10;}
	.st8{fill:#1D1D1B;}
	.st9{fill:#847990;stroke:#1D1D1B;stroke-miterlimit:10;}
	.st10{fill:#DED2E9;stroke:#1D1D1B;stroke-width:2;stroke-miterlimit:10;}
	.st11{fill:#AEAA87;stroke:#1D1D1B;stroke-width:2;stroke-miterlimit:10;}
	.st12{fill:#8D896B;}
	.st13{fill:#CCC7A6;}
	.st14{fill:#89888D;stroke:#1D1D1B;stroke-miterlimit:10;}
	.st15{fill:#89888D;stroke:#1D1D1B;stroke-width:2;stroke-miterlimit:10;}
	.st16{fill:#6B7B9D;stroke:#1D1D1B;stroke-width:2;stroke-miterlimit:10;}
	.st17{fill:#57647D;}
	.st18{fill:#899AB7;}
	.st19{fill:#6D2F3B;stroke:#1D1D1B;stroke-width:2;stroke-miterlimit:10;}
	.st20{fill:#6D2F3B;stroke:#1D1D1B;stroke-miterlimit:10;}
	.st21{fill:#E2B8A8;}
	.st22{fill:#F2CEC2;}
	.st23{fill:#AEAA87;}
	.st24{fill:#89888D;}
	.st25{fill:#6B7B9D;}
	.st26{fill:#6D2F3B;}
	.st27{fill:#E2E0F1;}
	.st28{fill:#847990;}
	.st29{fill:#E1D1E5;}
	.st30{fill:#BDAECC;}
	.st31{fill:#A89AB7;}
	.st32{fill:#DED2E9;}
	.st33{fill:none;stroke:#1D1D1B;stroke-width:3;stroke-miterlimit:10;}
	.st34{clip-path:url(#SVGID_2_);}
	.st35{fill:none;stroke:#1D1D1B;stroke-width:4;stroke-miterlimit:10;}
	.st36{fill:none;stroke:#1D1D1B;stroke-width:0.5;stroke-miterlimit:10;}
</style>
<path class="st0" d="M232.88,425.05c3.52,15.2,10.6,55.81,7.08,78.13c-3.52,22.33-44.88,33.5-44.88,33.5s49.54,41.85,53.06,44.89
	c3.52,3.04,94.2,21.27,94.2,21.27l65.45-50.15l17.61-30.39l-31.6,24.88c0,0-31.33-26.05-35.48-48.07
	c-6.98-37.08,4.27-95.59,4.27-95.59L232.88,425.05z"/>
<path class="st4" d="M238.72,241.72c-9.47,4.7-26.05,7.04-28.41,34.04s-2.94,31.79-2.57,68.48c0.39,38.93,15.59,98.22,30.98,109.96
	s39.94,21.13,62.59,18.78c22.65-2.35,23.23-3.52,40.7-16.43c17.47-12.91,26.94-34.04,30.49-62.22c3.55-28.17,8.29-70.43,8.29-99.78
	c0-29.35-12.63-67.17-24.47-71.87S238.72,241.72,238.72,241.72z"/>
<path class="st11" d="M356.87,490.92c0,0,33.96-1.95,50.65-1.47c7.31,0.21,39.86,0.89,48,0.29c11.19-0.82,18.46-1.14,32.9,1.62
	c14.19,2.71,23.84,5.73,37.54,25.32c11.52,16.49,14.09,52.17,18.26,67.83c3.8,14.26,7.49,51.36,8.87,60
	c2.09,13.04,5.22,40.96,5.22,40.96H55.42c0,0,0-18.78,6.26-44.61c6.26-25.83,9.76-46.11,18.39-74.74
	c7.43-24.65,11.31-37.06,28.53-49.58s46.68-15.52,66.11-16.79c18.11-1.18,32.91-4.38,43.45-3.9c9.49,0.44,22.61-1.11,22.61-1.11
	s0.51,18.94,6.87,30.67s40.6,36.78,46.57,41.87c5.97,5.09,7.77,11.74,7.77,11.74s0.57-2.74,6.43-9.39
	c5.85-6.65,41.7-43.04,43.54-52.43S356.87,490.92,356.87,490.92z"/>
<path class="st12" d="M215.01,500.5c-10.96,0.52-54.26,0.52-67.3,5.74c-13.04,5.22-26.09,5.22-35.48,15.13
	c-9.39,9.91-7.3,6.78-16.17,36.52c-8.87,29.74-17.22,58.43-20.35,80.35c-3.13,21.91-6.78,36.52-6.78,36.52s8.35-40.17,19.3-68.87
	c10.96-28.7,22.43-59.01,36-70.46s31.3-20.32,53.74-23.97S215.01,500.5,215.01,500.5z"/>
<path class="st13" d="M307.06,635.86c-0.55-6.26-4.14-23.85,0-42.19c4.14-18.34,5.71-21.47,20.05-35.55
	c14.35-14.09,22.57-22.96,28.63-34.96c6.07-12,5.81-29.22,5.81-29.22s4.43,19.3,2.86,25.04c-1.57,5.74-10.96,35.48-17.74,45.91
	c-6.78,10.43-15.65,9.56-19.57,36.08c-3.91,26.53-13.2,59.92-11.43,66.7C317.46,674.47,307.06,635.86,307.06,635.86z"/>
<g>
	<path class="st8" d="M311.35,372.66c1.04,0.6,1.88,1.52,2.56,2.51c0.69,1,1.25,2.08,1.71,3.21c0.23,0.58,0.44,1.12,0.57,1.82
		c0.11,0.72,0.06,1.35-0.02,1.99c-0.18,1.27-0.6,2.5-1.28,3.64c-0.35,0.56-0.76,1.11-1.31,1.57c-0.57,0.48-1.18,0.79-1.78,1.03
		c-1.21,0.49-2.42,0.77-3.65,0.92c-0.61,0.08-1.22,0.14-1.85,0.16c-0.33,0-0.61,0.02-1.02-0.02c-0.06-0.02-0.28,0.02-0.52,0.08
		c-0.99,0.26-2.1,0.73-3.12,1.2l0.13-0.08c-0.97,0.68-1.92,1.29-3.03,1.84c-0.3,0.12-0.54,0.3-1.12,0.33
		c-0.13-0.01-0.43,0.05-0.69,0.1c-0.55,0.11-1.13,0.23-1.72,0.31c-1.17,0.16-2.38,0.17-3.55-0.08c-1.16-0.27-2.24-0.75-3.17-1.42
		c1.05,0.45,2.17,0.71,3.26,0.77c1.09,0.07,2.19-0.11,3.25-0.37c0.53-0.13,1.05-0.31,1.6-0.48c0.29-0.09,0.55-0.19,0.98-0.22
		c0,0,0.27-0.11,0.47-0.24c0.89-0.53,1.8-1.26,2.67-1.92l0.06-0.04l0.07-0.04c1.1-0.56,2.13-1.09,3.4-1.49
		c0.33-0.08,0.68-0.2,1.22-0.16c0.18,0.01,0.49,0,0.75-0.01c0.55-0.03,1.11-0.09,1.66-0.17c1.1-0.17,2.21-0.39,3.19-0.77
		c0.49-0.19,0.94-0.42,1.28-0.7c0.35-0.29,0.7-0.67,0.99-1.09c0.59-0.84,0.98-1.88,1.23-2.92c0.12-0.52,0.2-1.07,0.17-1.52
		c-0.03-0.47-0.19-1.06-0.32-1.6c-0.29-1.1-0.68-2.19-1.15-3.24C312.78,374.51,312.2,373.5,311.35,372.66z"/>
</g>
<g>
	<path class="st8" d="M280.29,389.35c-0.96-0.01-1.88,0.22-2.83,0.34c-0.95,0.12-1.92,0.23-2.94,0.17c-1-0.07-2.15-0.19-3.16-1.12
		c-0.24-0.22-0.45-0.53-0.6-0.81c-0.11-0.23-0.24-0.46-0.33-0.7c-0.2-0.47-0.37-0.96-0.5-1.46c-0.27-1-0.38-2.04-0.37-3.05
		c0-0.51,0.04-1.01,0.11-1.51l0.11-0.74c0.06-0.31,0.15-0.62,0.27-0.88c0.49-1.03,1.16-1.77,1.87-2.45
		c0.72-0.67,1.49-1.27,2.35-1.75c-0.51,0.83-1.04,1.63-1.51,2.43c-0.46,0.79-0.93,1.61-1.12,2.36c-0.06,0.19-0.07,0.34-0.09,0.5
		l-0.03,0.68c-0.01,0.45-0.01,0.9,0,1.34c0.03,0.88,0.14,1.74,0.34,2.58c0.11,0.42,0.22,0.84,0.37,1.24l0.23,0.61
		c0.06,0.14,0.11,0.24,0.2,0.35c0.36,0.43,1.19,0.75,2.04,0.93c0.87,0.17,1.8,0.29,2.75,0.38
		C278.39,388.91,279.39,388.95,280.29,389.35z"/>
</g>
<g>
	<path class="st8" d="M273.22,419.56c4.08-0.53,8.11-1.25,12.29-1.42c2.07-0.06,4.23,0.04,6.29,0.48c1.03,0.2,1.99,0.41,2.93,0.48
		c0.94,0.08,1.93,0.08,2.88-0.02c0.95-0.08,1.8-0.35,2.84-0.64c1.04-0.27,2.13-0.45,3.2-0.54c2.17-0.21,4.36,0.15,6.35,0.58
		c2.01,0.43,3.97,0.83,5.99,1.09l1.51,0.18c0.25,0.03,0.49,0.05,0.7,0.06c0.22,0,0.55-0.01,0.8,0.01c1.06,0.08,2.07,0.28,3.08,0.48
		l-3.07,0.29c-0.26,0.03-0.45,0.08-0.73,0.14c-0.29,0.05-0.57,0.07-0.83,0.08c-0.53,0.03-1.04,0-1.57,0
		c-2.08-0.05-4.17-0.31-6.2-0.63c-2.03-0.33-3.95-0.53-5.88-0.34c-0.97,0.09-1.92,0.26-2.86,0.53c-0.93,0.26-2.06,0.58-3.17,0.66
		c-1.1,0.09-2.17,0.09-3.27-0.04c-1.09-0.14-2.14-0.42-3.11-0.65c-1.94-0.49-3.9-0.74-5.92-0.8
		C281.47,419.37,277.34,419.72,273.22,419.56z"/>
</g>
<path class="st14" d="M270.53,302.08c0.15,2.25-4.91,4.49-5.19,4.49s-8.35-0.61-10.32-0.89c-1.97-0.28-10.95-3.19-15.29-3.6
	c-2.98-0.28-11.74,3.93-12.86,4.49s-9.26,8.31-9.26,8.31s6.74-10.6,10.11-12.82c3.37-2.22,12.91-6.71,18.53-5.31
	s12.7,5.01,15.23,5.29C264.01,302.32,270.53,302.08,270.53,302.08z"/>
<path class="st14" d="M307.52,294.63c0.84,0.61,6.11,4.28,9.14,1.85c3.13-2.51,4.84-2.93,10.17-4.42c9.1-2.53,17.92-2.99,20.15-2.74
	c3.46,0.38,7.88,6.06,8.57,7.16c1.8,2.87,4.91,4.78,4.91,4.78s-1.68-6.16-2.52-7.29c-0.84-1.12-6.78-9.9-11.66-9.34
	c-14.34,1.62-20.31,1.83-26.49,4.5C316.17,290.69,307.52,294.63,307.52,294.63z"/>
<g>
	<path class="st8" d="M297.18,322.89c-0.4,2.98-0.7,5.97-0.81,8.95c-0.1,2.99-0.04,5.97,0.21,8.94c0.23,2.97,0.68,5.93,1.25,8.86
		c0.59,2.93,1.35,5.83,2.21,8.71c-0.63-1.37-1.16-2.78-1.68-4.2c-0.48-1.43-0.91-2.88-1.29-4.34c-0.76-2.93-1.24-5.93-1.49-8.95
		c-0.23-3.02-0.26-6.06,0.02-9.07c0.14-1.51,0.33-3.01,0.58-4.49C296.47,325.82,296.77,324.34,297.18,322.89z"/>
</g>
<g>
	<path class="st8" d="M275.41,417.15c0.94-0.28,1.85-0.63,2.64-1.13c0.81-0.48,1.42-1.15,2.09-1.87c0.34-0.36,0.71-0.73,1.15-1.07
		c0.44-0.32,0.95-0.6,1.48-0.76c1.1-0.33,2.03-0.42,3.07-0.5c2.04-0.1,4.15,0.16,6.1,0.9c0.97,0.37,1.76,0.73,2.54,0.79
		c0.39,0.04,0.83,0.02,1.21-0.03c0.38-0.05,0.67-0.15,1.13-0.36c0.93-0.42,2-0.72,2.97-0.92c0.99-0.22,2.01-0.36,3.04-0.4
		c1.03-0.04,2.07,0.01,3.1,0.19c1.04,0.15,2.08,0.56,2.96,0.98c1.75,0.83,3.51,1.52,5.36,2.18c1.83,0.67,3.65,1.36,5.5,1.99
		c-1.95-0.23-3.86-0.67-5.77-1.09c-1.89-0.44-3.84-0.96-5.67-1.68c-0.91-0.35-1.73-0.58-2.63-0.68c-0.9-0.11-1.82-0.11-2.73-0.04
		c-1.81,0.2-3.72,0.55-5.33,1.29c-0.42,0.2-1.05,0.45-1.64,0.52c-0.58,0.07-1.12,0.08-1.7,0.02c-1.18-0.12-2.18-0.63-3.02-0.95
		c-1.69-0.67-3.51-1.02-5.36-1.01c-0.9,0-1.93,0.05-2.72,0.21c-0.82,0.17-1.53,0.61-2.27,1.23c-0.74,0.62-1.6,1.27-2.56,1.63
		C277.39,416.98,276.39,417.12,275.41,417.15z"/>
</g>
<g>
	<path class="st8" d="M274.2,421.97c0.43,0.36,0.68,0.89,0.99,1.35c0.29,0.47,0.6,0.92,0.93,1.34c0.65,0.86,1.44,1.58,2.29,2.2
		c1.72,1.22,3.73,1.99,5.8,2.49c4.15,0.98,8.56,1.1,12.88,0.96c4.34-0.2,8.65-0.88,12.86-2.04c4.2-1.17,8.32-2.76,12.15-4.99
		c-3.42,2.85-7.49,4.88-11.71,6.38c-4.24,1.47-8.7,2.37-13.19,2.6c-2.25,0.14-4.5,0.12-6.75-0.06c-2.25-0.17-4.51-0.53-6.7-1.2
		c-2.17-0.69-4.32-1.7-6.04-3.28c-0.86-0.78-1.58-1.71-2.13-2.7c-0.27-0.5-0.5-1.02-0.7-1.54
		C274.66,422.97,274.54,422.41,274.2,421.97z"/>
</g>
<path class="st15" d="M332.92,227.63c-8.35,12.52-12.52,21.91-19.3,25.04c-6.78,3.13-32.87,9.91-32.87,9.91l16.17-11.48
	c0,0-16.7,5.22-24,8.35c-7.3,3.13-18.78,0-18.78,0s7.3-7.83,9.91-9.91c2.61-2.09,6.26-7.83,6.26-7.83s-17.22,13.57-20.87,15.13
	c-3.65,1.57-14.09,2.09-14.09,2.09s-6.78,0-9.91,1.04c-3.13,1.04-4.7,2.61-7.3,6.26c-2.61,3.65-4.81,1.9-5.41,6.78
	c-0.57,4.6-0.52,12.33-1.57,17.02c-1.04,4.7-2.03,15.65-2.12,18.78c-0.08,3.13-0.54,21.53,0.94,32.48
	c1.48,10.96-0.81,19.19,0.3,22.32c1.12,3.13,3.68,23.92,3.68,23.92s-9.4,3.39-13.05-9.66s-3.13-21.91-5.22-27.65
	c-2.09-5.74-2.61-8.87-4.7-13.04s-1.04-2.61-6.78-9.39c-5.74-6.78-9.39-8.87-9.39-16.7c0-7.83,0.52-8.35,1.57-16.17
	c1.04-7.83,4.7-8.35,4.17-18.78s-6.78-14.09-5.74-22.43c1.04-8.35,2.61-13.57,3.65-21.91c1.04-8.35,4.7-14.09,9.39-22.43
	c4.7-8.35,16.17-18.78,20.87-25.04c4.7-6.26,2.61-7.83,10.43-10.96c7.83-3.13,6.78-3.13,16.17-11.48s9.8-10.43,18.46-12
	c8.67-1.57,27.97-4.7,34.75-5.22s12-1.57,18.26,0s7.83-4.78,14.09-0.83c6.26,3.96,10.43,13.35,18.78,13.35
	c8.35,0,8.87-3.65,17.22-1.04c8.35,2.61,19.83,12.52,25.57,16.7c5.74,4.17,16.7,12.52,24,23.48c7.3,10.96,11.48,10.96,13.04,22.96
	s0,26.09,0,38.09c0,12,0.52,43.83-2.09,51.65s-3.13,8.35-6.78,16.17c-3.65,7.83-2.61,8.35-4.17,15.13
	c-1.57,6.78-15.13,11.8-16.7,15.81c-1.57,4.01-14.47,15.08-14.47,15.08s1.59-28.93,2.61-37.54c0.86-7.27-3.26-17.35-3.26-25.7
	c0-8.35-1.04-21.91-1.57-30.78c-0.52-8.87-6.26-16.17-7.83-20.87s0,6.31-1.57,8.64c-1.57,2.32-6.78-4.46-7.3-9.16
	c-0.52-4.7-2.61-14.09-4.7-15.65c-2.09-1.57-3.13,1.57-3.13,4.7s-2.03,11.48-6.23,13.04c-4.2,1.57-12.55-0.52-14.64,1.04
	s2.09-4.7,3.65-7.83c1.57-3.13,1.04-8.35,1.04-12S332.92,227.63,332.92,227.63z"/>
<g>
	<g>
		<path class="st8" d="M310.99,331.64c2.77-3.92,6.41-7.33,10.77-9.74c2.17-1.21,4.55-2.11,7.01-2.69c2.46-0.58,5.03-0.84,7.56-0.66
			c1.27,0.02,2.52,0.26,3.77,0.45c0.62,0.12,1.23,0.3,1.84,0.45l0.92,0.24l0.89,0.31c2.4,0.79,4.64,1.95,6.71,3.32
			c4.14,2.73,7.55,6.37,10.03,10.48c-3.75-3.02-7.5-5.78-11.6-7.76c-2.04-0.99-4.11-1.86-6.27-2.42c-2.14-0.59-4.32-1-6.52-1.07
			c-2.2-0.18-4.4,0-6.57,0.37c-2.18,0.37-4.34,0.97-6.43,1.82C318.87,326.38,314.94,328.9,310.99,331.64z"/>
	</g>
	<g>
		<path class="st8" d="M224.47,331.99c1.84-3.61,4.64-6.74,8.04-9.16c3.39-2.42,7.52-4.03,11.81-4.36
			c4.28-0.41,8.64,0.58,12.37,2.48c3.73,1.93,6.9,4.74,9.1,8.14c-3.38-2.2-6.77-4.07-10.34-5.25c-3.55-1.17-7.2-1.72-10.81-1.38
			c-3.61,0.28-7.16,1.36-10.51,3.05C230.75,327.18,227.6,329.45,224.47,331.99z"/>
	</g>
	<g>
		<circle class="st8" cx="246.92" cy="328.6" r="7.57"/>
		<g>
			<path class="st8" d="M247.31,336.16c-1.98,0.12-3.99-0.58-5.51-1.89c-1.52-1.3-2.53-3.22-2.69-5.27
				c-0.17-2.04,0.5-4.17,1.87-5.76c1.37-1.59,3.41-2.59,5.53-2.7c2.11-0.11,4.25,0.67,5.77,2.12c1.53,1.44,2.41,3.49,2.45,5.54
				c0.05,2.05-0.76,4.07-2.14,5.52C251.22,335.18,249.29,336.08,247.31,336.16z M247.31,336.16c1.98-0.1,3.9-1.04,5.18-2.54
				c1.29-1.49,1.91-3.49,1.74-5.4c-0.15-1.92-1.1-3.71-2.53-4.93c-1.42-1.22-3.29-1.87-5.15-1.76c-1.85,0.08-3.66,0.91-4.94,2.28
				c-1.3,1.35-2.06,3.24-2.01,5.16c0.03,1.92,0.85,3.84,2.29,5.19C243.32,335.53,245.32,336.26,247.31,336.16z"/>
		</g>
	</g>
	<g>
		<circle class="st8" cx="335.9" cy="330.45" r="7.97"/>
		<path class="st8" d="M336.31,338.41c-2.09,0.12-4.2-0.61-5.79-1.99c-1.6-1.37-2.66-3.4-2.82-5.55c-0.18-2.15,0.53-4.38,1.97-6.05
			c1.43-1.67,3.58-2.72,5.8-2.83c2.22-0.11,4.46,0.7,6.06,2.22c1.61,1.51,2.54,3.66,2.58,5.82c0.06,2.16-0.79,4.28-2.24,5.81
			C340.43,337.37,338.39,338.31,336.31,338.41z M336.31,338.41c2.09-0.11,4.11-1.09,5.46-2.67c1.36-1.57,2.02-3.67,1.84-5.69
			c-0.16-2.02-1.15-3.92-2.66-5.2c-1.49-1.29-3.47-1.98-5.43-1.86c-1.96,0.09-3.86,0.97-5.21,2.41c-1.37,1.43-2.16,3.42-2.11,5.45
			c0.04,2.02,0.91,4.05,2.42,5.47C332.11,337.74,334.22,338.51,336.31,338.41z"/>
	</g>
	<g>
		<path class="st8" d="M224.46,326.36c2.09-2.27,4.29-4.47,6.78-6.35c2.44-1.91,5.31-3.44,8.34-4.23c3-0.88,6.22-1.21,9.33-0.79
			c1.56,0.21,3.08,0.58,4.56,1.08c1.47,0.53,2.88,1.19,4.19,2.02c-1.42-0.62-2.86-1.16-4.34-1.53c-1.47-0.4-2.98-0.66-4.49-0.77
			c-3.03-0.25-6.06,0.1-8.98,0.94c-1.48,0.41-2.89,0.89-4.25,1.56c-1.36,0.66-2.66,1.46-3.93,2.31
			C229.14,322.33,226.82,324.36,224.46,326.36z"/>
	</g>
	<g>
		<path class="st8" d="M317.86,320.29c3.11-2.85,6.92-5.01,11.06-6.14c4.14-1.08,8.59-1.13,12.74,0.03
			c2.07,0.56,4.07,1.38,5.97,2.32c2,0.92,3.6,2.43,5.07,3.95c1.46,1.55,2.8,3.19,4.05,4.9c1.27,1.69,2.43,3.45,3.75,5.09
			c-1.46-1.53-2.71-3.24-4.07-4.84c-1.36-1.61-2.71-3.22-4.2-4.68c-1.49-1.46-3.1-2.81-4.96-3.64c-1.89-0.9-3.83-1.65-5.84-2.16
			c-2.01-0.5-4.06-0.81-6.13-0.84c-2.07-0.04-4.14,0.22-6.16,0.69C325.07,315.87,321.26,317.8,317.86,320.29z"/>
	</g>
</g>
</svg>
