<?xml version="1.0" encoding="utf-8"?>
<!-- Generator: Adobe Illustrator 25.0.1, SVG Export Plug-In . SVG Version: 6.00 Build 0)  -->
<svg version="1.1" id="Capa_1" xmlns="http://www.w3.org/2000/svg" xmlns:xlink="http://www.w3.org/1999/xlink" x="0px" y="0px"
	 viewBox="0 0 595.28 841.89" style="enable-background:new 0 0 595.28 841.89;" xml:space="preserve">
<style type="text/css">
	.st0{fill:#E2B8A8;stroke:#1D1D1B;stroke-width:2;stroke-miterlimit:10;}
	.st1{fill:#E2E0F1;stroke:#1D1D1B;stroke-width:2;stroke-miterlimit:10;}
	.st2{fill:#F7F8FC;}
	.st3{fill:#C7C7D8;}
	.st4{fill:#F2CEC2;stroke:#1D1D1B;stroke-width:2;stroke-miterlimit:10;}
	.st5{fill:#E1D1E5;stroke:#1D1D1B;stroke-width:2;stroke-miterlimit:10;}
	.st6{fill:#BDAECC;stroke:#1D1D1B;stroke-width:2;stroke-miterlimit:10;}
	.st7{fill:#A89AB7;stroke:#1D1D1B;stroke-width:2;stroke-miterlimit:10;}
	.st8{fill:#1D1D1B;}
	.st9{fill:#847990;stroke:#1D1D1B;stroke-miterlimit:10;}
	.st10{fill:#DED2E9;stroke:#1D1D1B;stroke-width:2;stroke-miterlimit:10;}
	.st11{fill:#AEAA87;stroke:#1D1D1B;stroke-width:2;stroke-miterlimit:10;}
	.st12{fill:#8D896B;}
	.st13{fill:#CCC7A6;}
	.st14{fill:#89888D;stroke:#1D1D1B;stroke-miterlimit:10;}
	.st15{fill:#89888D;stroke:#1D1D1B;stroke-width:2;stroke-miterlimit:10;}
	.st16{fill:#6B7B9D;stroke:#1D1D1B;stroke-width:2;stroke-miterlimit:10;}
	.st17{fill:#57647D;}
	.st18{fill:#899AB7;}
	.st19{fill:#6D2F3B;stroke:#1D1D1B;stroke-width:2;stroke-miterlimit:10;}
	.st20{fill:#6D2F3B;stroke:#1D1D1B;stroke-miterlimit:10;}
	.st21{fill:#E2B8A8;}
	.st22{fill:#F2CEC2;}
	.st23{fill:#AEAA87;}
	.st24{fill:#89888D;}
	.st25{fill:#6B7B9D;}
	.st26{fill:#6D2F3B;}
	.st27{fill:#E2E0F1;}
	.st28{fill:#847990;}
	.st29{fill:#E1D1E5;}
	.st30{fill:#BDAECC;}
	.st31{fill:#A89AB7;}
	.st32{fill:#DED2E9;}
	.st33{fill:none;stroke:#1D1D1B;stroke-width:3;stroke-miterlimit:10;}
	.st34{clip-path:url(#SVGID_2_);}
	.st35{fill:none;stroke:#1D1D1B;stroke-width:4;stroke-miterlimit:10;}
	.st36{fill:none;stroke:#1D1D1B;stroke-width:0.5;stroke-miterlimit:10;}
</style>
<path class="st0" d="M197.4,424.13c3.52,15.2,10.6,55.81,7.08,78.13c-3.52,22.33-44.88,33.5-44.88,33.5s49.54,41.85,53.06,44.89
	c3.52,3.04,94.2,21.27,94.2,21.27l65.45-50.15l17.61-30.39l-31.6,24.88c0,0-31.33-26.05-35.48-48.07
	c-6.98-37.08,4.27-95.59,4.27-95.59L197.4,424.13z"/>
<path class="st4" d="M203.25,240.8c-9.47,4.7-26.05,7.04-28.41,34.04s-2.94,31.79-2.57,68.48c0.39,38.93,15.59,98.22,30.98,109.96
	c15.39,11.74,39.94,21.13,62.59,18.78c22.65-2.35,23.23-3.52,40.7-16.43c17.47-12.91,26.94-34.04,30.49-62.22
	c3.55-28.17,8.29-70.43,8.29-99.78c0-29.35-12.63-67.17-24.47-71.87C309.01,217.06,203.25,240.8,203.25,240.8z"/>
<path class="st11" d="M321.4,490c0,0,33.96-1.95,50.65-1.47c7.31,0.21,39.86,0.89,48,0.29c11.19-0.82,18.46-1.14,32.9,1.62
	c14.2,2.71,23.84,5.73,37.54,25.32c11.52,16.49,14.09,52.17,18.26,67.83c3.8,14.26,7.49,51.36,8.87,60
	c2.09,13.04,5.22,40.96,5.22,40.96H19.95c0,0,0-18.78,6.26-44.61c6.26-25.83,9.76-46.11,18.39-74.74
	c7.43-24.65,11.31-37.06,28.53-49.58c17.22-12.52,46.68-15.52,66.11-16.79c18.11-1.18,32.91-4.38,43.45-3.9
	c9.49,0.44,22.61-1.11,22.61-1.11s0.51,18.94,6.87,30.67s40.6,36.78,46.57,41.87c5.97,5.09,7.77,11.74,7.77,11.74
	s0.57-2.74,6.43-9.39s41.7-43.04,43.54-52.43S321.4,490,321.4,490z"/>
<path class="st12" d="M179.53,499.58c-10.96,0.52-54.26,0.52-67.3,5.74c-13.04,5.22-26.09,5.22-35.48,15.13
	c-9.39,9.91-7.3,6.78-16.17,36.52s-17.22,58.43-20.35,80.35c-3.13,21.91-6.78,36.52-6.78,36.52s8.35-40.17,19.3-68.87
	c10.96-28.7,22.43-59.01,36-70.46c13.57-11.45,31.3-20.32,53.74-23.97S179.53,499.58,179.53,499.58z"/>
<path class="st13" d="M271.58,634.94c-0.55-6.26-4.14-23.85,0-42.19s5.71-21.47,20.05-35.55c14.35-14.09,22.57-22.96,28.63-34.96
	s5.81-29.22,5.81-29.22s4.43,19.3,2.86,25.04c-1.57,5.74-10.96,35.48-17.74,45.91c-6.78,10.43-15.65,9.56-19.57,36.08
	s-13.2,59.92-11.43,66.7C281.98,673.55,271.58,634.94,271.58,634.94z"/>
<g>
	<path class="st8" d="M275.88,371.74c1.04,0.6,1.88,1.52,2.56,2.51c0.69,1,1.25,2.08,1.71,3.21c0.23,0.58,0.44,1.12,0.57,1.82
		c0.11,0.72,0.06,1.35-0.02,1.99c-0.18,1.27-0.6,2.5-1.28,3.64c-0.35,0.56-0.76,1.11-1.31,1.57c-0.57,0.48-1.18,0.79-1.78,1.03
		c-1.21,0.49-2.42,0.77-3.65,0.92c-0.61,0.08-1.22,0.14-1.85,0.16c-0.33,0.01-0.61,0.02-1.02-0.02c-0.06-0.02-0.28,0.02-0.52,0.08
		c-0.99,0.26-2.1,0.73-3.12,1.2l0.13-0.08c-0.97,0.68-1.92,1.29-3.03,1.84c-0.3,0.12-0.54,0.3-1.12,0.33
		c-0.13-0.01-0.43,0.05-0.69,0.1c-0.55,0.11-1.13,0.23-1.72,0.31c-1.17,0.16-2.38,0.17-3.55-0.08c-1.16-0.27-2.24-0.75-3.17-1.42
		c1.05,0.45,2.17,0.71,3.26,0.77c1.09,0.07,2.19-0.11,3.25-0.37c0.53-0.13,1.05-0.31,1.6-0.48c0.29-0.09,0.55-0.19,0.98-0.22
		c0,0,0.27-0.11,0.47-0.24c0.89-0.53,1.8-1.26,2.67-1.92l0.06-0.04l0.07-0.04c1.1-0.56,2.13-1.09,3.4-1.49
		c0.33-0.08,0.68-0.2,1.22-0.16c0.18,0.01,0.49,0,0.75-0.01c0.55-0.03,1.11-0.09,1.66-0.17c1.1-0.17,2.21-0.39,3.19-0.77
		c0.49-0.19,0.94-0.42,1.28-0.7c0.35-0.29,0.7-0.67,0.99-1.09c0.59-0.84,0.98-1.88,1.23-2.92c0.12-0.52,0.2-1.07,0.17-1.52
		c-0.03-0.47-0.19-1.06-0.32-1.6c-0.29-1.1-0.68-2.19-1.15-3.24C277.3,373.59,276.73,372.58,275.88,371.74z"/>
</g>
<g>
	<path class="st8" d="M244.82,388.43c-0.96-0.01-1.88,0.22-2.83,0.34c-0.95,0.12-1.92,0.23-2.94,0.17c-1-0.07-2.15-0.19-3.16-1.12
		c-0.24-0.22-0.45-0.53-0.6-0.81c-0.11-0.23-0.24-0.46-0.33-0.7c-0.2-0.47-0.37-0.96-0.5-1.46c-0.27-1-0.38-2.04-0.37-3.05
		c0-0.51,0.04-1.01,0.11-1.51l0.11-0.74c0.06-0.31,0.15-0.62,0.27-0.88c0.49-1.03,1.16-1.77,1.87-2.45
		c0.72-0.67,1.49-1.27,2.35-1.75c-0.51,0.83-1.04,1.63-1.51,2.43c-0.46,0.79-0.93,1.61-1.12,2.36c-0.06,0.19-0.07,0.34-0.09,0.5
		l-0.03,0.68c-0.01,0.45-0.01,0.9,0,1.34c0.03,0.88,0.14,1.74,0.34,2.58c0.11,0.42,0.22,0.84,0.37,1.24l0.23,0.61
		c0.06,0.14,0.11,0.24,0.2,0.35c0.36,0.43,1.19,0.75,2.04,0.93c0.87,0.17,1.8,0.29,2.75,0.38
		C242.91,387.99,243.91,388.03,244.82,388.43z"/>
</g>
<path class="st14" d="M235.06,299.64c0.15,2.25-4.91,4.49-5.19,4.49s-8.98-1.97-10.95-2.25c-1.97-0.28-11.85-3.06-14.65-2.24
	c-2.87,0.83-11.74,3.93-12.86,4.49c-1.12,0.56-9.26,8.31-9.26,8.31s6.74-10.6,10.11-12.82s12.91-6.71,18.53-5.31
	s12.91,3.37,15.44,3.65C228.75,298.23,235.06,299.64,235.06,299.64z"/>
<path class="st14" d="M272.94,300.76c0.84,0.61,4.1,5.06,4.94,5.06s11.51-3.93,14.04-4.21c2.53-0.28,16.02-2.77,18.25-2.53
	c3.46,0.38,9.26,2.99,9.83,4.16c0.56,1.17,5.9,6.23,5.9,6.23s-3.65-9.26-4.49-10.39c-0.84-1.12-8.98-6.74-9.83-7.02
	c-0.84-0.28-26.11,5.33-27.79,5.61C282.09,297.95,272.94,300.76,272.94,300.76z"/>
<g>
	<path class="st8" d="M261.71,321.97c-0.4,2.98-0.7,5.97-0.81,8.95c-0.1,2.99-0.04,5.97,0.21,8.94c0.23,2.97,0.68,5.93,1.25,8.86
		c0.59,2.93,1.35,5.83,2.21,8.71c-0.63-1.37-1.16-2.78-1.68-4.2c-0.48-1.43-0.91-2.88-1.29-4.34c-0.76-2.93-1.24-5.93-1.49-8.95
		c-0.23-3.02-0.26-6.06,0.02-9.07c0.14-1.51,0.33-3.01,0.58-4.49C261,324.9,261.3,323.42,261.71,321.97z"/>
</g>
<g>
	<path class="st8" d="M236.45,414.44c2.01-0.53,3.91-1.25,5.76-2.13c1.86-0.84,3.77-1.81,5.97-2.16c2.08-0.39,4.33-0.37,6.47,0.12
		c1.07,0.23,2.13,0.69,3.02,1.02c0.44,0.16,0.84,0.26,1.26,0.3c0.41,0.04,0.88,0.02,1.28-0.04c0.38-0.05,0.71-0.2,1.23-0.42
		c0.5-0.22,1.05-0.41,1.58-0.55c1.07-0.28,2.08-0.5,3.18-0.61c1.08-0.11,2.18-0.13,3.27-0.01c1.08,0.1,2.22,0.37,3.22,0.81
		c1.92,0.89,3.71,1.66,5.68,2.34c1.93,0.71,3.87,1.44,5.82,2.11c-2.07-0.24-4.08-0.72-6.1-1.17c-1.01-0.24-2.01-0.5-3.02-0.8
		c-1-0.29-2-0.7-2.93-1.03c-1.79-0.61-3.77-0.66-5.7-0.38c-0.95,0.14-1.96,0.35-2.88,0.61c-0.46,0.14-0.89,0.29-1.33,0.49
		c-0.42,0.19-1.04,0.48-1.69,0.58c-0.62,0.09-1.19,0.1-1.81,0.04c-0.61-0.06-1.21-0.23-1.73-0.43c-1.04-0.41-1.87-0.78-2.81-1.03
		c-1.87-0.53-3.81-0.6-5.81-0.41c-1.92,0.17-3.83,0.88-5.81,1.53C240.58,413.86,238.52,414.36,236.45,414.44z"/>
</g>
<g>
	<path class="st8" d="M234.84,423.91c3.84,1.81,7.79,3.25,11.83,4.24c4.04,0.98,8.18,1.52,12.32,1.53
		c4.14,0.07,8.28-0.43,12.34-1.33c4.06-0.92,8.03-2.31,11.9-4.05c-3.46,2.47-7.39,4.32-11.5,5.56c-4.12,1.24-8.44,1.86-12.76,1.82
		c-4.32-0.05-8.63-0.71-12.72-2.04C242.16,428.34,238.26,426.43,234.84,423.91z"/>
</g>
<g>
	<path class="st8" d="M227.22,416.23c2.72,0.7,5.41,1.55,8.14,2.1c1.35,0.29,2.71,0.5,4.05,0.52c1.31,0.01,2.71-0.17,4.06-0.36
		c2.72-0.42,5.46-1.11,8.39-1.31c1.46-0.1,2.97,0.01,4.41,0.26c1.45,0.24,2.8,0.64,4.07,0.77c1.28,0.14,2.66,0.13,3.9-0.09
		c1.21-0.23,2.68-0.77,4.15-0.91c1.43-0.17,3.01-0.22,4.5,0.16c1.46,0.39,2.67,0.85,4.02,1.1c1.33,0.25,2.72,0.48,4.09,0.52
		c1.38,0.04,2.77,0.06,4.16-0.02c2.78-0.15,5.56-0.53,8.23-1.43c-2.55,1.22-5.36,1.8-8.16,2.18c-2.8,0.38-5.67,0.46-8.54,0.15
		c-1.43-0.16-2.9-0.56-4.17-0.84c-1.25-0.26-2.53-0.17-3.87,0.04c-0.66,0.11-1.3,0.24-1.95,0.41c-0.65,0.18-1.35,0.4-2.11,0.54
		c-1.52,0.28-2.98,0.3-4.49,0.15c-1.52-0.18-2.87-0.6-4.19-0.83c-1.33-0.25-2.63-0.33-3.98-0.29c-2.68,0.07-5.43,0.73-8.28,0.99
		c-1.43,0.13-2.84,0.25-4.33,0.14c-1.47-0.14-2.87-0.48-4.24-0.88C232.4,418.42,229.8,417.38,227.22,416.23z"/>
</g>
<path class="st15" d="M297.45,226.71c-8.35,12.52-12.52,21.91-19.3,25.04c-6.78,3.13-32.87,9.91-32.87,9.91l16.17-11.48
	c0,0-16.7,5.22-24,8.35c-7.3,3.13-18.78,0-18.78,0s7.3-7.83,9.91-9.91c2.61-2.09,6.26-7.83,6.26-7.83s-17.22,13.57-20.87,15.13
	c-3.65,1.57-14.09,2.09-14.09,2.09s-6.78,0-9.91,1.04c-3.13,1.04-4.7,2.61-7.3,6.26c-2.61,3.65-4.81,1.9-5.41,6.78
	c-0.57,4.6-0.52,12.33-1.57,17.02c-1.04,4.7-2.03,15.65-2.12,18.78c-0.08,3.13-0.54,21.53,0.94,32.48
	c1.48,10.96-0.81,19.19,0.3,22.32c1.12,3.13,3.68,23.92,3.68,23.92s-9.4,3.39-13.05-9.66c-3.65-13.04-3.13-21.91-5.22-27.65
	s-2.61-8.87-4.7-13.04c-2.09-4.17-1.04-2.61-6.78-9.39c-5.74-6.78-9.39-8.87-9.39-16.7s0.52-8.35,1.57-16.17
	c1.04-7.83,4.7-8.35,4.17-18.78c-0.52-10.43-6.78-14.09-5.74-22.43c1.04-8.35,2.61-13.57,3.65-21.91c1.04-8.35,4.7-14.09,9.39-22.43
	c4.7-8.35,16.17-18.78,20.87-25.04c4.7-6.26,2.61-7.83,10.43-10.96c7.83-3.13,6.78-3.13,16.17-11.48c9.39-8.35,9.8-10.43,18.46-12
	s27.97-4.7,34.75-5.22c6.78-0.52,12-1.57,18.26,0c6.26,1.57,7.83-4.78,14.09-0.83c6.26,3.96,10.43,13.35,18.78,13.35
	c8.35,0,8.87-3.65,17.22-1.04c8.35,2.61,19.83,12.52,25.57,16.7s16.7,12.52,24,23.48c7.3,10.96,11.48,10.96,13.04,22.96
	s0,26.09,0,38.09c0,12,0.52,43.83-2.09,51.65s-3.13,8.35-6.78,16.17c-3.65,7.83-2.61,8.35-4.17,15.13
	c-1.57,6.78-15.13,11.8-16.7,15.81c-1.57,4.01-14.47,15.08-14.47,15.08s1.59-28.93,2.61-37.54c0.86-7.27-3.26-17.35-3.26-25.7
	c0-8.35-1.04-21.91-1.57-30.78c-0.52-8.87-6.26-16.17-7.83-20.87c-1.57-4.7,0,6.31-1.57,8.64s-6.78-4.46-7.3-9.16
	c-0.52-4.7-2.61-14.09-4.7-15.65c-2.09-1.57-3.13,1.57-3.13,4.7s-2.03,11.48-6.23,13.04c-4.2,1.57-12.55-0.52-14.64,1.04
	c-2.09,1.57,2.09-4.7,3.65-7.83c1.57-3.13,1.04-8.35,1.04-12S297.45,226.71,297.45,226.71z"/>
<g>
	<g>
		<path class="st8" d="M273.46,333.08c2.64-3.78,6.12-7.07,10.31-9.4c2.09-1.17,4.37-2.04,6.74-2.6c2.37-0.56,4.84-0.81,7.27-0.64
			c1.22,0.02,2.43,0.25,3.63,0.43c0.6,0.11,1.18,0.29,1.77,0.43c0.59,0.14,1.18,0.3,1.74,0.53c2.3,0.76,4.46,1.89,6.45,3.2
			c3.98,2.64,7.24,6.15,9.59,10.12c-3.62-2.87-7.23-5.51-11.17-7.39c-1.96-0.94-3.95-1.77-6-2.3c-2.04-0.56-4.13-0.95-6.23-1.02
			c-2.1-0.17-4.21,0-6.29,0.35c-2.08,0.35-4.15,0.92-6.16,1.73C281.06,328.07,277.28,330.47,273.46,333.08z"/>
	</g>
	<g>
		<path class="st8" d="M190.44,333.42c1.74-3.48,4.42-6.51,7.69-8.85c3.26-2.34,7.23-3.89,11.36-4.21c4.12-0.39,8.32,0.56,11.91,2.4
			c3.58,1.87,6.62,4.59,8.71,7.87c-3.27-2.09-6.53-3.86-9.94-4.98c-3.4-1.11-6.89-1.62-10.34-1.3c-3.45,0.26-6.85,1.29-10.06,2.91
			C196.5,328.84,193.46,330.99,190.44,333.42z"/>
	</g>
	<g>
		<circle class="st8" cx="211.98" cy="330.16" r="7.27"/>
		<g>
			<path class="st8" d="M212.35,337.42c-1.9,0.11-3.83-0.55-5.29-1.81c-1.46-1.24-2.44-3.09-2.59-5.06
				c-0.17-1.96,0.47-4.01,1.79-5.54c1.31-1.54,3.28-2.5,5.32-2.6c2.03-0.1,4.09,0.65,5.55,2.04c1.47,1.38,2.32,3.36,2.35,5.33
				c0.05,1.97-0.73,3.91-2.06,5.3C216.11,336.48,214.26,337.34,212.35,337.42z M212.35,337.42c1.9-0.1,3.74-1,4.97-2.43
				c1.23-1.43,1.82-3.35,1.66-5.18c-0.15-1.84-1.06-3.56-2.43-4.72c-1.36-1.17-3.15-1.79-4.93-1.68c-1.77,0.08-3.5,0.87-4.73,2.18
				c-1.24,1.29-1.97,3.1-1.93,4.94c0.03,1.84,0.81,3.68,2.19,4.98C208.53,336.81,210.45,337.52,212.35,337.42z"/>
		</g>
	</g>
	<g>
		<circle class="st8" cx="297.37" cy="331.93" r="7.65"/>
		<path class="st8" d="M297.76,339.57c-2,0.12-4.03-0.58-5.56-1.91c-1.54-1.31-2.56-3.26-2.71-5.32c-0.17-2.06,0.5-4.21,1.89-5.81
			c1.38-1.61,3.45-2.62,5.58-2.72c2.13-0.11,4.29,0.68,5.83,2.14c1.55,1.45,2.44,3.53,2.47,5.59c0.05,2.07-0.76,4.11-2.16,5.57
			C301.72,338.58,299.77,339.48,297.76,339.57z M297.76,339.57c2-0.1,3.94-1.05,5.23-2.56c1.3-1.51,1.93-3.52,1.76-5.45
			c-0.15-1.94-1.11-3.75-2.55-4.98c-1.43-1.24-3.33-1.89-5.2-1.78c-1.87,0.08-3.69,0.92-4.99,2.3c-1.31,1.36-2.08,3.27-2.03,5.21
			c0.03,1.94,0.86,3.88,2.31,5.25C293.74,338.93,295.76,339.67,297.76,339.57z"/>
	</g>
	<g>
		<path class="st8" d="M190.43,328.01c2.01-2.18,4.11-4.3,6.5-6.1c2.34-1.84,5.1-3.3,8.01-4.06c2.88-0.85,5.97-1.16,8.96-0.75
			c1.49,0.2,2.96,0.56,4.38,1.04c1.41,0.52,2.77,1.15,4.02,1.95c-1.36-0.59-2.74-1.11-4.17-1.46c-1.41-0.38-2.86-0.63-4.31-0.73
			c-2.9-0.24-5.81,0.1-8.61,0.9c-1.42,0.39-2.78,0.86-4.08,1.49c-1.3,0.63-2.55,1.39-3.77,2.21
			C194.93,324.15,192.7,326.1,190.43,328.01z"/>
	</g>
	<g>
		<path class="st8" d="M280.06,322.19c2.98-2.75,6.64-4.82,10.61-5.91c3.98-1.04,8.25-1.09,12.23,0.02c1.99,0.54,3.9,1.32,5.73,2.23
			c1.92,0.89,3.45,2.35,4.86,3.8c2.84,2.96,5.01,6.4,7.48,9.6c-1.41-1.46-2.61-3.11-3.92-4.64c-1.31-1.54-2.6-3.09-4.04-4.49
			c-1.44-1.39-2.98-2.69-4.76-3.49c-1.82-0.86-3.68-1.58-5.6-2.07c-1.93-0.48-3.9-0.77-5.88-0.81c-1.98-0.04-3.97,0.21-5.91,0.66
			C286.98,317.96,283.32,319.8,280.06,322.19z"/>
	</g>
</g>
<g>
	<path class="st8" d="M228.72,410.69c-0.58,0.28-1.12,0.62-1.65,0.98c-0.53,0.34-1.05,0.71-1.55,1.09c-0.5,0.38-0.99,0.77-1.43,1.2
		c-0.45,0.42-0.88,0.86-1.22,1.35c-0.73,0.95-1.07,2.05-0.65,3.17c0.39,1.12,1.15,2.2,1.8,3.31c-0.95-0.88-1.92-1.76-2.53-3.02
		c-0.31-0.62-0.44-1.39-0.31-2.12c0.13-0.73,0.48-1.37,0.88-1.93c0.83-1.11,1.9-1.93,3.03-2.6
		C226.21,411.46,227.42,410.9,228.72,410.69z"/>
</g>
</svg>
