<?xml version="1.0" encoding="utf-8"?>
<!-- Generator: Adobe Illustrator 25.0.1, SVG Export Plug-In . SVG Version: 6.00 Build 0)  -->
<svg version="1.1" id="Capa_1" xmlns="http://www.w3.org/2000/svg" xmlns:xlink="http://www.w3.org/1999/xlink" x="0px" y="0px"
	 viewBox="0 0 595.28 841.89" style="enable-background:new 0 0 595.28 841.89;" xml:space="preserve">
<style type="text/css">
	.st0{fill:#E2B8A8;stroke:#1D1D1B;stroke-width:2;stroke-miterlimit:10;}
	.st1{fill:#E2E0F1;stroke:#1D1D1B;stroke-width:2;stroke-miterlimit:10;}
	.st2{fill:#F7F8FC;}
	.st3{fill:#C7C7D8;}
	.st4{fill:#F2CEC2;stroke:#1D1D1B;stroke-width:2;stroke-miterlimit:10;}
	.st5{fill:#E1D1E5;stroke:#1D1D1B;stroke-width:2;stroke-miterlimit:10;}
	.st6{fill:#BDAECC;stroke:#1D1D1B;stroke-width:2;stroke-miterlimit:10;}
	.st7{fill:#A89AB7;stroke:#1D1D1B;stroke-width:2;stroke-miterlimit:10;}
	.st8{fill:#1D1D1B;}
	.st9{fill:#847990;stroke:#1D1D1B;stroke-miterlimit:10;}
	.st10{fill:#DED2E9;stroke:#1D1D1B;stroke-width:2;stroke-miterlimit:10;}
	.st11{fill:#AEAA87;stroke:#1D1D1B;stroke-width:2;stroke-miterlimit:10;}
	.st12{fill:#8D896B;}
	.st13{fill:#CCC7A6;}
	.st14{fill:#89888D;stroke:#1D1D1B;stroke-miterlimit:10;}
	.st15{fill:#89888D;stroke:#1D1D1B;stroke-width:2;stroke-miterlimit:10;}
	.st16{fill:#6B7B9D;stroke:#1D1D1B;stroke-width:2;stroke-miterlimit:10;}
	.st17{fill:#57647D;}
	.st18{fill:#899AB7;}
	.st19{fill:#6D2F3B;stroke:#1D1D1B;stroke-width:2;stroke-miterlimit:10;}
	.st20{fill:#6D2F3B;stroke:#1D1D1B;stroke-miterlimit:10;}
	.st21{fill:#E2B8A8;}
	.st22{fill:#F2CEC2;}
	.st23{fill:#AEAA87;}
	.st24{fill:#89888D;}
	.st25{fill:#6B7B9D;}
	.st26{fill:#6D2F3B;}
	.st27{fill:#E2E0F1;}
	.st28{fill:#847990;}
	.st29{fill:#E1D1E5;}
	.st30{fill:#BDAECC;}
	.st31{fill:#A89AB7;}
	.st32{fill:#DED2E9;}
	.st33{fill:none;stroke:#1D1D1B;stroke-width:3;stroke-miterlimit:10;}
	.st34{clip-path:url(#SVGID_2_);}
	.st35{fill:none;stroke:#1D1D1B;stroke-width:4;stroke-miterlimit:10;}
	.st36{fill:none;stroke:#1D1D1B;stroke-width:0.5;stroke-miterlimit:10;}
</style>
<path class="st0" d="M229.39,427.29c3.52,15.2,10.6,55.81,7.08,78.13c-3.52,22.33-44.88,33.5-44.88,33.5s49.54,41.85,53.06,44.89
	c3.52,3.04,94.2,21.27,94.2,21.27l65.45-50.15l17.61-30.39l-31.6,24.88c0,0-31.33-26.05-35.48-48.07
	c-6.98-37.08,4.27-95.59,4.27-95.59L229.39,427.29z"/>
<path class="st4" d="M235.24,243.96c-9.47,4.7-26.05,7.04-28.41,34.04s-2.94,31.79-2.57,68.48c0.39,38.93,15.59,98.22,30.98,109.96
	s39.94,21.13,62.59,18.78c22.65-2.35,23.23-3.52,40.7-16.43c17.47-12.91,26.94-34.04,30.49-62.22s8.29-70.43,8.29-99.78
	c0-29.35-12.63-67.17-24.47-71.87S235.24,243.96,235.24,243.96z"/>
<path class="st11" d="M353.39,493.15c0,0,33.96-1.95,50.65-1.47c7.31,0.21,39.86,0.89,48,0.29c11.19-0.82,18.46-1.14,32.9,1.62
	c14.19,2.71,23.84,5.73,37.54,25.32c11.52,16.49,14.09,52.17,18.26,67.83c3.8,14.26,7.49,51.36,8.87,60
	c2.09,13.04,5.22,40.96,5.22,40.96H51.94c0,0,0-18.78,6.26-44.61c6.26-25.83,9.76-46.11,18.39-74.74
	c7.43-24.65,11.31-37.06,28.53-49.58c17.22-12.52,46.68-15.52,66.11-16.79c18.11-1.18,32.91-4.38,43.45-3.9
	c9.49,0.44,22.61-1.11,22.61-1.11s0.51,18.94,6.87,30.67c6.36,11.74,40.6,36.78,46.57,41.87s7.77,11.74,7.77,11.74
	s0.57-2.74,6.43-9.39c5.85-6.65,41.7-43.04,43.54-52.43C350.31,510.05,353.39,493.15,353.39,493.15z"/>
<path class="st12" d="M211.52,502.74c-10.96,0.52-54.26,0.52-67.3,5.74c-13.04,5.22-26.09,5.22-35.48,15.13s-7.3,6.78-16.17,36.52
	s-17.22,58.43-20.35,80.35C69.09,662.39,65.44,677,65.44,677s8.35-40.17,19.3-68.87s22.43-59.01,36-70.46
	c13.57-11.45,31.3-20.32,53.74-23.97C196.91,510.05,211.52,502.74,211.52,502.74z"/>
<path class="st13" d="M303.57,638.1c-0.55-6.26-4.14-23.85,0-42.19c4.14-18.34,5.71-21.47,20.05-35.55
	c14.35-14.09,22.57-22.96,28.63-34.96s5.81-29.22,5.81-29.22s4.43,19.3,2.86,25.04s-10.96,35.48-17.74,45.91
	c-6.78,10.43-15.65,9.56-19.57,36.08c-3.91,26.53-13.2,59.92-11.43,66.7C313.97,676.71,303.57,638.1,303.57,638.1z"/>
<g>
	<path class="st8" d="M307.87,374.9c1.04,0.6,1.88,1.52,2.56,2.51c0.69,1,1.25,2.08,1.71,3.21c0.23,0.58,0.44,1.12,0.57,1.82
		c0.11,0.72,0.06,1.35-0.02,1.99c-0.18,1.27-0.6,2.5-1.28,3.64c-0.35,0.56-0.76,1.1-1.31,1.57c-0.57,0.48-1.18,0.79-1.78,1.03
		c-1.21,0.49-2.42,0.77-3.65,0.92c-0.61,0.08-1.22,0.14-1.85,0.16c-0.33,0.01-0.61,0.02-1.02-0.02c-0.06-0.02-0.28,0.02-0.52,0.08
		c-0.99,0.26-2.1,0.73-3.12,1.2l0.13-0.08c-0.97,0.68-1.92,1.29-3.03,1.84c-0.3,0.12-0.54,0.3-1.12,0.33
		c-0.13-0.01-0.43,0.05-0.69,0.1c-0.55,0.11-1.13,0.23-1.72,0.31c-1.17,0.16-2.38,0.17-3.55-0.08c-1.16-0.27-2.24-0.75-3.17-1.42
		c1.05,0.45,2.17,0.71,3.26,0.77c1.09,0.07,2.19-0.11,3.25-0.37c0.53-0.13,1.05-0.31,1.6-0.48c0.29-0.09,0.55-0.19,0.98-0.22
		c0,0,0.27-0.11,0.47-0.24c0.89-0.53,1.8-1.26,2.67-1.92l0.06-0.04l0.07-0.04c1.1-0.56,2.13-1.09,3.4-1.49
		c0.33-0.08,0.68-0.2,1.22-0.16c0.18,0.01,0.49,0,0.75-0.01c0.55-0.03,1.11-0.09,1.66-0.17c1.1-0.17,2.21-0.39,3.19-0.77
		c0.49-0.19,0.94-0.42,1.28-0.7c0.35-0.29,0.7-0.67,0.99-1.09c0.59-0.84,0.98-1.88,1.23-2.92c0.12-0.52,0.2-1.07,0.17-1.52
		c-0.03-0.47-0.19-1.06-0.32-1.6c-0.29-1.1-0.68-2.19-1.15-3.24C309.29,376.75,308.72,375.74,307.87,374.9z"/>
</g>
<g>
	<path class="st8" d="M276.81,391.59c-0.96-0.01-1.88,0.22-2.83,0.34c-0.95,0.12-1.92,0.23-2.94,0.17c-1-0.07-2.15-0.19-3.16-1.12
		c-0.24-0.22-0.45-0.53-0.6-0.81c-0.11-0.23-0.24-0.46-0.33-0.7c-0.2-0.47-0.37-0.96-0.5-1.46c-0.27-1-0.38-2.04-0.37-3.05
		c0-0.51,0.04-1.01,0.11-1.51l0.11-0.74c0.07-0.31,0.15-0.62,0.27-0.88c0.49-1.03,1.16-1.77,1.87-2.45
		c0.72-0.67,1.49-1.27,2.35-1.75c-0.51,0.83-1.04,1.63-1.51,2.43c-0.47,0.79-0.93,1.61-1.12,2.36c-0.06,0.19-0.07,0.34-0.09,0.5
		l-0.03,0.68c-0.01,0.45-0.01,0.9,0,1.34c0.03,0.88,0.14,1.74,0.34,2.58c0.11,0.42,0.22,0.84,0.37,1.24l0.23,0.61
		c0.06,0.14,0.11,0.24,0.2,0.35c0.36,0.43,1.19,0.75,2.04,0.93c0.87,0.17,1.8,0.29,2.75,0.38
		C274.9,391.15,275.9,391.19,276.81,391.59z"/>
</g>
<g>
	<path class="st8" d="M258.96,422.57c2.61-0.81,5.28-1.43,7.98-1.94c2.72-0.47,5.46-0.68,8.2-0.8c2.75-0.14,5.53-0.05,8.28,0.21
		c1.38,0.14,2.72,0.3,4.13,0.56c1.4,0.26,2.67,0.62,3.92,0.71c1.25,0.11,2.58,0.09,3.78-0.16c1.18-0.25,2.63-0.75,4.06-0.88
		c1.35-0.14,2.68-0.33,4.12-0.42c1.45-0.06,2.82,0.1,4.18,0.21l2.04,0.21c0.66,0.07,1.42,0.15,2.08,0.29c1.36,0.27,2.68,0.63,4,1.01
		c2.63,0.77,5.22,1.65,7.72,2.76c-2.61-0.8-5.24-1.49-7.89-2.05c-1.33-0.28-2.66-0.51-3.99-0.69c-0.68-0.09-1.28-0.15-1.98-0.13
		l-2.04,0c-1.36-0.01-2.72-0.04-3.99,0.1c-1.28,0.13-2.64,0.39-3.99,0.6c-1.3,0.17-2.44,0.57-3.91,0.93
		c-1.47,0.31-2.9,0.34-4.36,0.24c-1.47-0.13-2.84-0.53-4.11-0.78c-1.27-0.25-2.64-0.42-3.96-0.59c-2.66-0.35-5.34-0.47-8.04-0.5
		c-2.71,0-5.41,0.01-8.1,0.22C264.37,421.82,261.68,422.23,258.96,422.57z"/>
</g>
<path class="st14" d="M265.08,289.29c1.06,2.37-3.51,6.82-3.82,6.93c-0.3,0.11-5.15,2.33-10.79,3.27
	c-4.92,0.82-12.72,0.2-18.78,2.74c-3.18,1.33-11.06,8.31-12.05,9.36c-0.99,1.06-6.71,12.69-6.71,12.69s3.05-14.17,5.81-17.92
	c2.76-3.75,11.23-9.42,17.87-10.15c6.64-0.73,11.96-2.36,14.81-3.06S265.08,289.29,265.08,289.29z"/>
<path class="st14" d="M313.08,285.38c0.56,0.99,2.31,6.97,5.51,8.06c4.44,1.5,7.84,2.6,13.29,3.04c6.79,0.55,14.47,3.63,16.58,4.89
	c3.27,1.96,8.47,5.68,8.5,7.1c0.02,1.42,3.03,8.89,3.03,8.89s0.59-10.89,0.26-12.39c-0.33-1.5-4.1-6.24-7.46-7.78
	c-4.51-2.06-9.57-3.65-22.6-5.28C325.93,291.38,313.08,285.38,313.08,285.38z"/>
<g>
	<path class="st8" d="M293.7,325.13c-0.4,2.98-0.7,5.97-0.81,8.95c-0.1,2.99-0.04,5.97,0.21,8.94c0.23,2.97,0.68,5.93,1.25,8.86
		c0.59,2.93,1.35,5.83,2.21,8.71c-0.63-1.37-1.16-2.78-1.68-4.2c-0.48-1.43-0.91-2.88-1.29-4.34c-0.76-2.93-1.23-5.93-1.49-8.95
		c-0.23-3.02-0.26-6.06,0.02-9.07c0.14-1.51,0.33-3.01,0.58-4.49C292.99,328.06,293.29,326.58,293.7,325.13z"/>
</g>
<g>
	<path class="st8" d="M268.52,418.61c2.01-0.53,3.91-1.25,5.76-2.13c1.86-0.84,3.77-1.81,5.97-2.16c2.08-0.39,4.33-0.37,6.47,0.12
		c1.07,0.23,2.13,0.69,3.02,1.02c0.44,0.16,0.84,0.26,1.26,0.3c0.41,0.04,0.88,0.02,1.28-0.04c0.38-0.05,0.71-0.2,1.23-0.42
		c0.5-0.22,1.05-0.41,1.58-0.55c1.07-0.28,2.08-0.5,3.18-0.61c1.08-0.11,2.18-0.13,3.27-0.01c1.08,0.1,2.22,0.37,3.22,0.81
		c1.92,0.89,3.71,1.66,5.68,2.34c1.93,0.71,3.87,1.44,5.82,2.11c-2.07-0.24-4.08-0.72-6.1-1.17c-1.01-0.24-2.01-0.5-3.02-0.8
		c-1-0.29-2-0.7-2.93-1.03c-1.79-0.61-3.77-0.66-5.7-0.38c-0.95,0.14-1.96,0.35-2.88,0.61c-0.46,0.14-0.89,0.29-1.33,0.49
		c-0.42,0.19-1.04,0.48-1.69,0.58c-0.62,0.09-1.19,0.1-1.81,0.04c-0.61-0.06-1.21-0.23-1.73-0.43c-1.04-0.41-1.87-0.78-2.81-1.03
		c-1.87-0.53-3.81-0.6-5.81-0.41c-1.92,0.17-3.83,0.88-5.81,1.53C272.66,418.03,270.6,418.52,268.52,418.61z"/>
</g>
<g>
	<path class="st8" d="M263.42,424.32c3.69,3.65,8.08,6.45,12.76,8.39c2.35,0.97,4.79,1.68,7.27,2.15c0.62,0.1,1.24,0.26,1.86,0.33
		l1.88,0.23c1.26,0.13,2.52,0.13,3.78,0.2c1.26-0.06,2.53-0.03,3.78-0.16c1.25-0.16,2.51-0.25,3.75-0.53
		c2.5-0.39,4.92-1.2,7.31-2.05c4.73-1.85,9.23-4.45,13.17-7.82c-3.37,3.98-7.78,7.07-12.57,9.26c-4.81,2.18-10.13,3.3-15.45,3.31
		c-5.31-0.08-10.63-1.21-15.41-3.5C270.79,431.85,266.49,428.53,263.42,424.32z"/>
</g>
<path class="st15" d="M329.44,229.87c-8.35,12.52-12.52,21.91-19.3,25.04c-6.78,3.13-32.87,9.91-32.87,9.91l16.17-11.48
	c0,0-16.7,5.22-24,8.35s-18.78,0-18.78,0s7.3-7.83,9.91-9.91c2.61-2.09,6.26-7.83,6.26-7.83s-17.22,13.57-20.87,15.13
	s-14.09,2.09-14.09,2.09s-6.78,0-9.91,1.04c-3.13,1.04-4.7,2.61-7.3,6.26c-2.61,3.65-4.81,1.9-5.41,6.78
	c-0.57,4.6-0.52,12.33-1.57,17.02c-1.04,4.7-2.03,15.65-2.12,18.78s-0.54,21.53,0.94,32.48c1.48,10.96-0.81,19.19,0.3,22.32
	c1.12,3.13,3.68,23.92,3.68,23.92s-9.4,3.39-13.05-9.66c-3.65-13.04-3.13-21.91-5.22-27.65c-2.09-5.74-2.61-8.87-4.7-13.04
	c-2.09-4.17-1.04-2.61-6.78-9.39c-5.74-6.78-9.39-8.87-9.39-16.7c0-7.83,0.52-8.35,1.57-16.17c1.04-7.83,4.7-8.35,4.17-18.78
	c-0.52-10.43-6.78-14.09-5.74-22.43c1.04-8.35,2.61-13.57,3.65-21.91c1.04-8.35,4.7-14.09,9.39-22.43
	c4.7-8.35,16.17-18.78,20.87-25.04s2.61-7.83,10.43-10.96c7.83-3.13,6.78-3.13,16.17-11.48c9.39-8.35,9.8-10.43,18.46-12
	c8.67-1.57,27.97-4.7,34.75-5.22c6.78-0.52,12-1.57,18.26,0s7.83-4.78,14.09-0.83s10.43,13.35,18.78,13.35
	c8.35,0,8.87-3.65,17.22-1.04c8.35,2.61,19.83,12.52,25.57,16.7c5.74,4.17,16.7,12.52,24,23.48s11.48,10.96,13.04,22.96
	s0,26.09,0,38.09c0,12,0.52,43.83-2.09,51.65c-2.61,7.83-3.13,8.35-6.78,16.17c-3.65,7.83-2.61,8.35-4.17,15.13
	c-1.57,6.78-15.13,11.8-16.7,15.81c-1.57,4.01-14.47,15.08-14.47,15.08s1.59-28.93,2.61-37.54c0.86-7.27-3.26-17.35-3.26-25.7
	c0-8.35-1.04-21.91-1.57-30.78s-6.26-16.17-7.83-20.87s0,6.31-1.57,8.64c-1.57,2.32-6.78-4.46-7.3-9.16
	c-0.52-4.7-2.61-14.09-4.7-15.65c-2.09-1.57-3.13,1.57-3.13,4.7s-2.03,11.48-6.23,13.04s-12.55-0.52-14.64,1.04
	c-2.09,1.57,2.09-4.7,3.65-7.83c1.57-3.13,1.04-8.35,1.04-12S329.44,229.87,329.44,229.87z"/>
<g>
	<g>
		<path class="st8" d="M308.53,335.67c2.81-3.95,6.49-7.4,10.91-9.83c2.2-1.23,4.6-2.13,7.09-2.72c2.49-0.58,5.08-0.85,7.64-0.67
			c1.29,0.02,2.55,0.27,3.82,0.45c0.63,0.12,1.24,0.3,1.86,0.45l0.93,0.24l0.9,0.32c2.42,0.8,4.69,1.97,6.78,3.35
			c4.19,2.76,7.64,6.43,10.15,10.59c-3.78-3.06-7.58-5.86-11.73-7.87c-2.06-1-4.16-1.88-6.34-2.45c-2.16-0.6-4.37-1.01-6.6-1.09
			c-2.22-0.18-4.45,0-6.65,0.38c-2.2,0.38-4.39,0.99-6.51,1.84C316.49,330.33,312.52,332.89,308.53,335.67z"/>
	</g>
	<g>
		<path class="st8" d="M221.02,336.02c1.87-3.64,4.71-6.81,8.14-9.25c3.43-2.44,7.61-4.07,11.94-4.4c4.33-0.41,8.73,0.58,12.51,2.5
			c3.77,1.95,6.98,4.79,9.21,8.22c-3.41-2.24-6.84-4.13-10.45-5.33c-3.59-1.18-7.28-1.74-10.95-1.4c-3.66,0.28-7.25,1.37-10.64,3.1
			C227.37,331.15,224.18,333.44,221.02,336.02z"/>
	</g>
	<g>
		<circle class="st8" cx="243.73" cy="332.59" r="7.66"/>
		<g>
			<path class="st8" d="M244.12,340.24c-2,0.12-4.04-0.59-5.57-1.91c-1.54-1.31-2.56-3.26-2.72-5.33c-0.17-2.06,0.5-4.22,1.89-5.82
				c1.38-1.61,3.45-2.62,5.59-2.73c2.14-0.11,4.3,0.68,5.84,2.14c1.55,1.45,2.44,3.53,2.48,5.6c0.05,2.08-0.76,4.12-2.16,5.58
				C248.08,339.25,246.13,340.15,244.12,340.24z M244.12,340.24c2.01-0.1,3.95-1.05,5.24-2.56c1.3-1.51,1.93-3.53,1.76-5.46
				c-0.15-1.94-1.11-3.76-2.55-4.99c-1.43-1.24-3.33-1.89-5.21-1.79c-1.88,0.08-3.7,0.93-5,2.31c-1.31,1.37-2.08,3.28-2.03,5.22
				c0.03,1.94,0.86,3.89,2.31,5.25C240.09,339.6,242.12,340.34,244.12,340.24z"/>
		</g>
	</g>
	<g>
		<circle class="st8" cx="333.73" cy="334.46" r="8.06"/>
		<path class="st8" d="M334.14,342.51c-2.11,0.12-4.25-0.62-5.86-2.02c-1.62-1.38-2.69-3.43-2.85-5.61c-0.18-2.17,0.54-4.43,2-6.11
			c1.45-1.69,3.62-2.75,5.86-2.86c2.24-0.12,4.51,0.71,6.13,2.25c1.63,1.52,2.57,3.7,2.61,5.88c0.06,2.18-0.79,4.33-2.27,5.87
			C338.3,341.46,336.25,342.42,334.14,342.51z M334.14,342.51c2.11-0.11,4.15-1.1,5.52-2.7c1.37-1.59,2.04-3.71,1.87-5.75
			c-0.16-2.05-1.16-3.97-2.69-5.26c-1.51-1.31-3.52-2-5.5-1.89c-1.98,0.09-3.91,0.98-5.28,2.44c-1.38,1.44-2.19,3.46-2.14,5.51
			c0.04,2.05,0.92,4.09,2.45,5.53C329.89,341.84,332.03,342.62,334.14,342.51z"/>
	</g>
	<g>
		<path class="st8" d="M221.02,332.59c1.05-1.15,1.99-2.38,2.98-3.58c0.98-1.21,2.02-2.37,3.09-3.5c1.09-1.12,2.23-2.21,3.51-3.15
			c1.27-0.94,2.66-1.77,4.21-2.26c2.95-1,6.15-1.6,9.31-1.41c1.58,0.09,3.12,0.34,4.66,0.69c1.54,0.35,3.01,1,4.3,1.86
			c-2.83-1.34-5.94-1.58-8.99-1.67c-3.06-0.07-6.05,0.52-8.99,1.46c-2.84,0.91-5.28,2.9-7.53,4.97
			C225.32,328.09,223.33,330.5,221.02,332.59z"/>
	</g>
	<g>
		<path class="st8" d="M315.48,322.51c1.58-1.41,3.54-2.34,5.52-3.1c2-0.72,4.06-1.26,6.15-1.65c4.14-0.79,8.6-0.91,12.71,0.34
			c2.06,0.58,4.04,1.42,5.94,2.36c1.98,0.97,3.56,2.48,5.02,4.01c1.45,1.56,2.79,3.2,4.03,4.9c1.27,1.69,2.43,3.45,3.75,5.09
			c-1.46-1.52-2.71-3.23-4.07-4.84c-1.35-1.61-2.7-3.22-4.19-4.69c-1.48-1.46-3.09-2.83-4.91-3.7c-1.89-0.9-3.82-1.68-5.82-2.21
			c-2-0.52-4.05-0.86-6.12-0.92c-2.06-0.08-4.14,0.17-6.2,0.49c-2.07,0.29-4.12,0.71-6.12,1.32
			C319.18,320.52,317.21,321.29,315.48,322.51z"/>
	</g>
</g>
</svg>
